<svg width="10" height="15" viewBox="0 0 10 15" fill="none" xmlns="http://www.w3.org/2000/svg">
<path d="M5.57143 1C5.57143 0.684409 5.31559 0.428571 5 0.428571C4.68441 0.428571 4.42857 0.684409 4.42857 1H5.57143ZM4.59594 10.7374C4.8191 10.9606 5.1809 10.9606 5.40406 10.7374L9.04061 7.10085C9.26377 6.87769 9.26377 6.51588 9.04061 6.29272C8.81745 6.06957 8.45564 6.06957 8.23249 6.29272L5 9.52521L1.76751 6.29272C1.54436 6.06957 1.18255 6.06957 0.95939 6.29272C0.736233 6.51588 0.736233 6.87769 0.95939 7.10085L4.59594 10.7374ZM4.42857 1L4.42857 10.3333H5.57143L5.57143 1H4.42857Z" fill="#8B8FFF"/>
<path d="M1 14.3333H9" stroke="#8B8FFF" stroke-width="1.14286" stroke-linecap="round"/>
</svg>
