<svg width="20" height="25" viewBox="0 0 20 25" fill="none" xmlns="http://www.w3.org/2000/svg">
<path d="M11.3383 23C11.3383 23.7391 10.7391 24.3383 10 24.3383C9.26088 24.3383 8.66171 23.7391 8.66171 23H11.3383ZM9.05369 1.05369C9.57632 0.531052 10.4237 0.531052 10.9463 1.05369L19.4631 9.57051C19.9858 10.0931 19.9858 10.9405 19.4631 11.4631C18.9405 11.9858 18.0931 11.9858 17.5705 11.4631L10 3.89263L2.42949 11.4631C1.90685 11.9858 1.0595 11.9858 0.53686 11.4631C0.014226 10.9405 0.014226 10.0931 0.53686 9.57051L9.05369 1.05369ZM8.66171 23L8.66171 2H11.3383L11.3383 23H8.66171Z" fill="white"/>
</svg>
