<svg width="20" height="25" viewBox="0 0 20 25" fill="none" xmlns="http://www.w3.org/2000/svg">
<path d="M11.3383 2C11.3383 1.26088 10.7391 0.66171 10 0.66171C9.26088 0.66171 8.66171 1.26088 8.66171 2H11.3383ZM9.05369 23.9463C9.57632 24.4689 10.4237 24.4689 10.9463 23.9463L19.4631 15.4295C19.9858 14.9069 19.9858 14.0595 19.4631 13.5369C18.9405 13.0142 18.0931 13.0142 17.5705 13.5369L10 21.1074L2.42949 13.5369C1.90685 13.0142 1.0595 13.0142 0.53686 13.5369C0.014226 14.0595 0.014226 14.9069 0.53686 15.4295L9.05369 23.9463ZM8.66171 2L8.66171 23H11.3383L11.3383 2H8.66171Z" fill="white"/>
</svg>
