<svg width="12" height="14" viewBox="0 0 12 14" fill="none" xmlns="http://www.w3.org/2000/svg">
<path d="M5.25 13.0002C5.25 13.4145 5.58579 13.7502 6 13.7502C6.41421 13.7502 6.75 13.4145 6.75 13.0002L5.25 13.0002ZM6.53033 0.469914C6.23744 0.177021 5.76256 0.177021 5.46967 0.469914L0.696699 5.24288C0.403805 5.53578 0.403805 6.01065 0.696699 6.30355C0.989592 6.59644 1.46447 6.59644 1.75736 6.30355L6 2.0609L10.2426 6.30354C10.5355 6.59644 11.0104 6.59644 11.3033 6.30354C11.5962 6.01065 11.5962 5.53578 11.3033 5.24288L6.53033 0.469914ZM6.75 13.0002L6.75 1.00024L5.25 1.00024L5.25 13.0002L6.75 13.0002Z" fill="white"/>
</svg>
