<svg width="29" height="26" viewBox="0 0 29 26" fill="none" xmlns="http://www.w3.org/2000/svg">
<path opacity="0.5" d="M6.4 11.6667H22.6M28 7.66667V7.4C28 5.15979 28 4.03968 27.5586 3.18404C27.1703 2.43139 26.5508 1.81947 25.7887 1.43597C24.9223 1 23.7883 1 21.52 1H21.25M28 18.3333V18.6C28 20.8403 28 21.9603 27.5586 22.816C27.1703 23.5687 26.5508 24.1805 25.7887 24.564C24.9223 25 23.7883 25 21.52 25H21.25M7.75 25H7.48C5.21178 25 4.07768 25 3.21134 24.564C2.44928 24.1805 1.82971 23.5687 1.44142 22.816C1 21.9603 1 20.8403 1 18.6V18.3333M1 7.66667V7.4C1 5.15979 1 4.03968 1.44142 3.18404C1.82971 2.43139 2.44928 1.81947 3.21134 1.43597C4.07768 1 5.21178 1 7.48 1H7.75M6.4 15.4V10.6C6.4 9.10653 6.4 8.35979 6.69429 7.78936C6.95314 7.28759 7.36618 6.87964 7.87423 6.62399C8.45178 6.33333 9.20787 6.33333 10.72 6.33333H18.28C19.7921 6.33333 20.5483 6.33333 21.1258 6.62399C21.6338 6.87964 22.0469 7.28759 22.3057 7.78936C22.6 8.35979 22.6 9.10653 22.6 10.6V15.4C22.6 16.8935 22.6 17.6403 22.3057 18.2107C22.0469 18.7124 21.6338 19.1204 21.1258 19.376C20.5483 19.6667 19.7921 19.6667 18.28 19.6667H10.72C9.20787 19.6667 8.45178 19.6667 7.87423 19.376C7.36618 19.1204 6.95314 18.7124 6.69429 18.2107C6.4 17.6403 6.4 16.8935 6.4 15.4Z" stroke="white" stroke-width="2" stroke-linecap="round" stroke-linejoin="round"/>
</svg>
