<svg width="155" height="155" viewBox="0 0 155 155" fill="none" xmlns="http://www.w3.org/2000/svg">
<g clip-path="url(#clip0_5246_14066)">
<path fill-rule="evenodd" clip-rule="evenodd" d="M0.227051 0.000244141H56.523V56.0692H0.227051V0.000244141ZM140.645 140.646H155V154.773H140.645V140.646ZM113.059 140.62H127.413V154.079H113.059H113.046H98.704V126.556H112.605V112.605H126.745V84.7911H141.099V98.4646H154.773V112.592H141.099V126.72H126.959H126.745H113.059V140.62ZM70.4362 112.378H84.3367V98.2502H70.8903V84.1226H84.3367V69.9949H70.6632V84.1226H56.296V69.9949H70.4236V28.041H84.7782V69.9823H98.6788V84.1099H112.352V69.9823H126.707V84.1099H113.059V98.2375H98.704V126.051H84.7908V154.092H70.4362V112.378ZM140.406 69.9823H154.76V84.1099H140.406V69.9823ZM28.2678 69.9823H42.6225V84.1099H28.2678V69.9823ZM0.227051 69.9823H14.5817V84.1099H0.227051V69.9823ZM70.4362 0.000244141H84.7908V14.1278H70.4362V0.000244141ZM0 98.4646H56.296V154.534H0V98.4646ZM13.6735 112.088H42.6225V140.923H13.6735V112.088ZM98.4643 0.000244141H154.76V56.0692H98.4643V0.000244141ZM112.15 13.6233H141.099V42.4587H112.15V13.6233ZM13.9006 13.6233H42.8495V42.4587H13.9006V13.6233Z" fill="white"/>
</g>
<defs>
<clipPath id="clip0_5246_14066">
<rect width="155" height="155" fill="white" transform="translate(0 0.000244141)"/>
</clipPath>
</defs>
</svg>
