<svg width="463" height="212" viewBox="0 0 463 212" fill="none" xmlns="http://www.w3.org/2000/svg">
<g clip-path="url(#clip0_254_2850)" filter="url(#filter0_d_254_2850)">
<path d="M333.133 85.6007C317.608 111.165 302.078 136.73 286.565 162.273C280.878 159.768 278.126 155.165 276.442 149.453C275.455 146.106 275.837 143.216 277.307 140.271C287.863 119.124 298.419 97.9725 308.984 76.8296C309.689 75.4206 310.454 74.0412 311.189 72.645C310.899 72.4757 310.609 72.3107 310.32 72.1415C305.632 79.0382 300.931 85.9307 296.26 92.8359C288.435 104.408 280.701 116.044 272.775 127.544C269.608 132.139 269.225 132.02 265.546 128.115C259.358 121.54 257.968 112.684 261.853 104.51C262.765 102.593 263.697 100.685 264.021 98.3575C261.45 101.683 258.812 104.958 256.321 108.339C246.534 121.62 236.83 134.965 226.984 148.204C225.875 149.698 224.065 150.659 222.582 151.869C221.532 150.168 220.528 148.437 219.427 146.766C214.252 138.913 218.982 131.893 222.229 125.589C231 108.546 240.674 91.9728 250.129 75.2894C252.998 70.2248 256.325 65.4224 259.03 59.6681C252.801 61.7117 246.53 63.6453 240.38 65.909C239.347 66.2898 238.721 68.05 238.107 69.277C231.66 82.2116 225.136 95.1123 218.865 108.131C210.043 126.448 201.298 144.803 192.813 163.276C191.405 166.343 191.552 170.113 190.834 173.528C190.599 174.636 190.133 175.965 189.318 176.578C188.83 176.947 187.196 176.413 186.528 175.791C181.034 170.68 177.69 164.092 175.51 157.111C174.67 154.424 175.548 150.684 176.792 147.955C179.938 141.054 183.626 134.394 187.293 127.747C191.582 119.97 196.068 112.303 200.483 104.598C205.914 95.1207 211.362 85.6557 216.794 76.1737C217.415 75.0906 217.961 73.9693 219.07 71.858C213.82 73.3685 209.497 74.8536 205.061 75.8099C201.134 76.6561 198.84 78.8097 196.9 82.3173C179.598 113.607 164.03 145.734 150.744 178.952C149.635 181.728 149.845 185.037 149.408 188.091C149.282 188.959 149.03 189.809 148.832 190.668C148.467 190.706 148.102 190.749 147.736 190.787C147.198 189.509 146.657 188.227 145.997 186.657C144.073 189.373 142.54 187.778 140.898 186.259C134.798 180.619 133.748 173.676 136.264 166.187C145.317 139.277 159.036 114.614 172.881 90.0264C177.111 82.5162 181.668 75.1963 186.352 67.3349C181.488 68.0288 178.123 68.93 176.233 74.0582C169.138 93.3437 156.725 109.299 143.523 124.658C138.894 130.04 134.265 135.426 129.451 140.643C127.489 142.767 125.179 144.629 122.801 146.284C115.778 151.166 110.103 148.471 106.23 140.783C98.5431 125.517 103.571 111.398 108.977 97.414C114.278 83.7051 121.419 70.834 132.547 60.9205C136.521 57.3833 141.481 54.8531 146.253 52.3778C150.563 50.1438 154.003 52.3525 157.015 56.554C156.73 53.0633 156.44 50.3342 156.305 47.6009C156.146 44.2795 156.931 44.1779 159.989 45.1045C162.61 45.8958 165.828 46.2554 168.365 45.4599C176.43 42.9382 184.361 39.9341 192.233 36.8242C197.047 34.9244 201.789 32.7369 206.305 30.2067C209.342 28.5058 210.951 29.589 211.904 32.1911C213.778 37.3066 215.533 42.4855 216.924 47.7532C217.285 49.1241 216.323 51.0112 215.596 52.4709C214.832 54.0026 213.618 55.3016 212.039 57.4721C218.26 56.1097 223.548 55.0604 228.761 53.7149C229.778 53.4526 230.71 52.1621 231.332 51.1297C238.028 40.0356 244.652 28.9035 251.297 17.7757C251.49 17.4499 251.595 17.0394 251.86 16.7856C253.158 15.5332 254.49 14.3188 255.813 13.0918C257.039 14.7208 258.321 16.3117 259.476 17.9914C263.361 23.6315 261.257 28.7428 258.178 33.8793C255.464 38.4109 253.019 43.099 250.898 48.5064C258.304 45.8492 265.709 43.1963 273.779 40.3022C275.085 47.6263 279.492 54.4003 274.421 62.3422C268.066 72.2896 262.429 82.7024 256.502 92.9248C255.771 94.1857 255.153 95.5142 255.116 97.2532C255.943 96.242 256.792 95.2477 257.594 94.2153C268.356 80.3922 279.105 66.5564 289.875 52.7375C291.211 51.0239 292.749 48.8999 295.109 50.5669C296.361 51.447 296.819 53.4864 297.596 55.0223C297.76 55.3481 297.672 55.8093 297.835 56.1351C301.162 62.6764 298.066 67.9526 294.824 73.4277C287.767 85.3426 280.974 97.4182 274.098 109.443C273.241 110.941 272.527 112.523 271.746 114.068C272.04 114.25 272.33 114.436 272.624 114.618C275.009 111.334 277.437 108.085 279.769 104.763C292.085 87.1958 304.325 69.5732 316.704 52.0478C321.317 45.515 326.219 39.1894 331.012 32.7835C333.322 29.6948 334.57 29.8048 336.443 33.2828C337.346 34.9583 338.27 36.6507 338.921 38.432C340.438 42.5701 340.824 46.3739 338.451 50.7573C326.29 73.2204 314.503 95.8908 302.616 118.502C301.091 121.4 299.73 124.387 298.789 127.637C301.679 123.342 304.682 119.124 307.434 114.745C312.63 106.477 317.326 97.871 322.875 89.8572C331.835 76.9142 341.29 64.3181 350.586 51.6078C352.729 48.6798 355.463 48.6121 357.782 51.3835C359 52.8348 359.954 54.5061 361.075 56.0462C363.646 59.575 363.638 62.7695 361.55 66.916C351.502 86.8954 341.883 107.091 332.146 127.227C331.343 128.885 330.806 130.675 330.881 132.74C335.712 124.857 340.413 116.89 345.39 109.1C361.936 83.2016 378.394 57.2394 395.335 31.6072C399.263 25.6625 404.833 20.7628 409.932 15.6728C413.49 12.1229 416.397 13.3922 418.699 17.8222C424.811 29.5932 422.567 40.7169 417.027 51.7897C416.46 52.9279 416.04 54.1634 415.326 55.2C411.554 60.6709 410.886 66.0994 414.645 71.9934C415.435 73.2331 415.141 75.6829 414.523 77.2442C409.928 88.8248 405.11 100.321 400.393 111.855C399.884 113.095 399.561 114.41 399.153 115.692C399.494 115.866 399.83 116.039 400.17 116.217C403.434 110.987 406.912 105.88 409.911 100.503C415.54 90.4157 420.9 80.1764 426.348 69.9836C427.184 68.4181 427.869 66.7637 428.65 65.1643C431.628 59.0757 433.09 52.8306 431.326 46.0142C430.981 44.6899 431.838 43.0482 432.141 41.5546C433.699 42.1258 435.665 42.2697 436.757 43.3275C446.213 52.4794 448.447 63.7257 443.003 75.7845C433.334 97.2109 420.862 116.936 406.647 135.57C404.165 138.828 401.426 142.107 396.999 142.289C395.159 142.366 392.664 141.604 391.487 140.292C384.519 132.511 383.17 123.541 386.636 113.687C387.74 110.552 388.387 107.251 389.24 104.023C388.925 103.909 388.614 103.795 388.299 103.685C385.703 108.436 383.284 113.302 380.473 117.922C374.681 127.442 368.67 136.827 362.768 146.279C361.222 148.755 359.777 151.293 358.231 153.764C355.795 157.661 353.216 157.78 349.994 154.602C343.16 147.858 339.963 140.081 342.538 130.434C342.626 130.108 342.551 129.74 341.963 129.118C340.656 131.5 339.413 133.92 338.022 136.252C336.014 139.624 334.103 143.089 331.768 146.229C329.55 149.216 327.966 148.89 325.295 146.423C315.079 136.996 315.927 126.071 320.955 114.652C325.156 105.115 329.63 95.7046 333.981 86.2354C333.696 86.0196 333.414 85.7995 333.129 85.5838L333.133 85.6007ZM415.372 37.4673C414.981 37.2812 414.591 37.095 414.2 36.9088C389.366 69.277 367.641 103.405 355.316 142.882C356.488 142.467 357.143 141.739 357.656 140.923C375.748 111.978 393.697 82.9435 409.268 52.5132C411.722 47.7151 413.356 42.4897 415.372 37.4631V37.4673ZM152.042 68.4773C151.773 68.2911 151.5 68.105 151.231 67.923C149.715 69.1585 148.085 70.2755 146.694 71.6422C131.925 86.1253 121.524 103.274 115.921 123.292C115.274 125.602 114.946 128.014 114.627 130.4C114.35 132.473 115.413 133.552 117.269 132.41C122.495 129.19 126.905 125.056 129.846 119.547C130.942 117.491 131.576 115.159 132.807 113.2C140.818 100.448 146.946 86.8531 151.16 72.3742C151.529 71.0964 151.752 69.7763 152.042 68.4773ZM156.725 93.0306C157.099 93.2167 157.473 93.4029 157.851 93.5891C162.073 85.808 166.294 78.0227 169.995 71.2021C165.631 67.6057 162.127 64.7201 159.174 62.2829C161.077 72.0907 160.581 82.6727 156.73 93.0348L156.725 93.0306ZM150.261 50.7954C147.887 42.6928 142.406 43.3105 137.239 43.9537C132.362 44.5587 127.544 45.7096 122.743 46.8181C121.663 47.0678 120.39 47.9098 119.853 48.8533C111.611 63.3069 103.479 77.8239 95.3297 92.3366C95.1533 92.6498 95.1071 93.039 94.9264 93.6356C97.85 93.6356 100.648 93.7118 103.441 93.6145C106.713 93.5002 107.579 95.3365 106.68 97.9937C105.63 101.095 104.193 104.074 102.735 107.01C102.349 107.789 101.341 108.521 100.48 108.753C95.6615 110.048 90.7679 111.068 85.9792 112.456C84.8156 112.794 83.5891 113.97 83.001 115.087C72.0207 135.905 62.1367 157.213 55.1511 179.777C54.9285 180.501 54.8487 181.275 54.5841 181.982C54.1682 183.094 53.7901 184.986 53.1601 185.087C52.0175 185.273 50.2449 184.761 49.5392 183.886C46.4685 180.09 43.2887 176.282 40.8986 172.047C38.1808 167.228 37.975 162.159 40.8902 156.916C46.7458 146.372 52.1939 135.604 57.8017 124.925C58.1293 124.303 58.373 123.634 58.9947 122.221C45.4856 127.353 32.6822 132.219 19.8327 137.102C17.1317 134.034 18.1146 130.578 19.3118 128.267C20.4879 126.004 23.6132 124.768 25.4614 123.393C25.0834 121.176 23.6006 118.138 24.4869 116.2C25.516 113.954 28.385 111.872 30.876 111.106C43.1921 107.328 55.6594 104.061 68.0217 100.435C69.1979 100.092 70.4244 98.6791 70.9117 97.469C71.945 94.8923 72.6507 92.1505 73.2304 89.4214C75.0577 80.8068 72.2811 76.4361 63.7035 74.3797C54.7815 72.243 45.8763 73.1358 36.9836 74.6844C34.1188 75.1836 31.275 75.8141 28.3976 76.1907C21.3449 77.1173 18.9547 75.4375 17.724 68.3969C16.4512 61.1109 16.9889 53.8968 20.0511 47.1186C20.7358 45.5996 22.5 43.9748 24.071 43.5517C48.7158 36.93 73.2934 29.9698 98.1399 24.2154C114.354 20.4624 130.967 18.423 147.442 15.8716C151.525 15.2412 155.759 15.5712 159.926 15.5162C162.585 15.4782 164.265 16.6333 164.438 19.5104C164.484 20.2678 164.828 21.0294 164.765 21.7698C163.837 32.9908 157.822 41.5588 150.252 50.7912L150.261 50.7954ZM65.829 60.3028C65.7996 60.6455 65.7744 60.9882 65.745 61.3309C82.2533 65.7482 79.3843 78.357 77.8133 91.025C86.9999 77.3584 95.7203 64.3858 105.163 50.3342C91.3475 53.8334 78.5904 57.0702 65.829 60.3028Z" fill="white"/>
<path d="M147.732 201.001C144.951 201.001 142.313 199.85 140.415 197.827C137.441 196.918 135.378 195.005 134.244 193.952L134.076 193.795C125.36 185.735 122.747 174.793 126.717 162.984C127.75 159.904 128.88 156.756 130.094 153.574C129.586 153.946 129.065 154.323 128.527 154.695C124.469 157.517 120.281 158.947 116.085 158.947C105.613 158.947 99.7824 150.481 97.2411 145.433C93.4228 137.851 91.8097 129.926 92.3432 121.282C91.9021 121.396 91.4527 121.51 90.9948 121.633C78.893 144.752 70.5674 164.181 64.8168 182.731C64.8084 182.773 64.8 182.815 64.7916 182.853L64.7748 182.942C64.6404 183.564 64.4388 184.499 64.0355 185.578C64.0103 185.646 63.9809 185.752 63.9473 185.857L63.9053 185.993C63.2878 187.99 61.4101 194.062 54.7858 195.145C54.1011 195.259 53.3828 195.314 52.6603 195.314C49.3251 195.314 44.7002 194.007 41.7304 190.334L41.0037 189.437C37.9331 185.65 34.7575 181.736 32.1405 177.099C27.5955 169.043 27.5829 160.128 32.0985 151.996C33.9047 148.742 35.7782 145.277 37.9919 141.096L23.3949 146.643C22.2523 147.079 21.0552 147.299 19.837 147.299C16.9512 147.299 14.1998 146.051 12.2886 143.876C7.39489 138.312 6.68079 130.734 10.3815 123.605C11.2972 121.845 12.5448 120.288 14.183 118.866C14.0024 116.374 14.3889 114.064 15.3382 111.986C17.9677 106.244 23.7729 102.716 27.9441 101.434C35.3077 99.1743 42.7932 97.0756 50.0308 95.0447C54.0465 93.9192 58.1841 92.7599 62.3175 91.5667C62.6871 90.3608 63.0358 88.9688 63.3844 87.3356C63.6196 86.227 63.6869 85.4908 63.6953 85.0423C63.2794 84.8519 62.5527 84.5769 61.3807 84.2976C58.6042 83.6333 55.6679 83.3075 52.4125 83.3075C48.5816 83.3075 44.3558 83.7476 38.7144 84.7292C37.7987 84.89 36.8872 85.0634 35.9756 85.2369L35.9168 85.2496C33.9299 85.6262 31.8843 86.0154 29.7126 86.3032C28.0785 86.5189 26.6377 86.6205 25.3062 86.6205C20.0806 86.6205 15.8633 84.928 12.7716 81.5854C9.52458 78.0778 8.41143 73.6563 7.80654 70.1995C6.09691 60.4256 7.13445 51.2567 10.8856 42.951C12.8304 38.6437 17.0898 34.9584 21.4836 33.7779C26.8982 32.3224 32.3085 30.8542 37.7231 29.3817C56.7013 24.224 76.3306 18.8885 95.8969 14.357C108.763 11.3783 121.886 9.44466 134.572 7.5745C138.293 7.02446 142.133 6.46171 145.922 5.87359C148.849 5.42086 151.664 5.36162 153.793 5.36162C154.68 5.36162 155.566 5.37431 156.457 5.38278C157.574 5.39547 158.691 5.41239 159.8 5.3997H160.052C167.975 5.3997 173.75 10.604 174.473 18.3681C174.658 19.1847 174.985 20.746 174.826 22.6543C174.523 26.3396 173.792 29.8895 172.612 33.4182C178.35 31.4169 183.828 29.2929 188.562 27.4227C193.22 25.5822 197.543 23.5513 201.415 21.3849C203.902 19.9929 206.414 19.2863 208.884 19.2863C211.001 19.2863 218.163 19.9675 221.372 28.7302C223.086 33.4056 224.447 37.4632 225.556 41.212C229.921 33.9556 234.293 26.6273 238.54 19.5105L242.451 12.9565C242.72 12.3811 243.442 10.9086 244.887 9.51236C245.925 8.50958 246.962 7.54912 247.966 6.6225L248.983 5.67896C250.848 3.94842 253.276 2.99219 255.813 2.99219C256.111 2.99219 256.418 3.00488 256.712 3.0345C259.539 3.28837 262.143 4.74388 263.853 7.02446C264.202 7.48988 264.559 7.9553 264.916 8.4165L264.953 8.46727C265.869 9.65622 266.814 10.8875 267.759 12.2626C271.649 17.9069 272.64 24.0928 270.729 30.6807C273.401 29.826 276.404 30.1518 278.836 31.5735C281.403 33.0755 283.176 35.6227 283.701 38.5633C283.932 39.8623 284.36 41.3474 284.818 42.9214C284.847 43.0187 284.873 43.116 284.902 43.2133C286.721 41.6013 289.544 39.858 293.442 39.858C296.046 39.858 298.621 40.7 300.885 42.2994C304.019 44.508 305.409 47.6306 306.17 49.4839C306.942 48.388 307.711 47.2964 308.48 46.2047C311.929 41.3178 315.549 36.5324 319.044 31.8993C320.359 30.1603 321.657 28.4382 322.951 26.7119C324.11 25.1633 327.634 20.4541 333.763 20.4541C338.539 20.4541 342.416 23.1535 345.29 28.4721L345.357 28.5948C346.352 30.4395 347.482 32.5255 348.373 34.9584C348.826 36.1939 349.406 37.9202 349.793 39.985C351.208 39.4899 352.683 39.2403 354.203 39.2403C358.433 39.2403 362.436 41.2416 365.477 44.8719C366.582 46.192 367.439 47.4783 368.195 48.6122C368.561 49.1623 368.893 49.6616 369.195 50.0762C369.56 50.5797 369.905 51.0917 370.224 51.6121C376.281 42.2444 381.763 33.8498 386.938 26.018C390.702 20.3229 395.373 15.7744 399.893 11.3783L399.952 11.3233C400.918 10.3797 401.884 9.44043 402.833 8.49689C406.156 5.18391 409.857 3.50415 413.843 3.50415C417.119 3.50415 423.265 4.75657 427.625 13.1554C430.658 18.9943 432.267 25.1379 432.414 31.4338C433.489 31.4677 434.548 31.6708 435.564 32.0389C435.657 32.0685 435.934 32.1362 436.152 32.1955L436.198 32.2081C437.9 32.6482 441.075 33.4648 443.738 36.0415C449.976 42.0836 453.887 48.9846 455.357 56.5541C456.836 64.1743 455.769 72.0696 452.182 80.0242C442.844 100.719 430.565 120.922 414.641 141.794C411.898 145.391 406.794 152.085 397.414 152.474C397.192 152.482 396.965 152.486 396.738 152.486C392.899 152.486 387.535 151.078 383.998 147.13C381.927 144.815 380.184 142.357 378.789 139.793C378.327 140.529 377.861 141.266 377.403 141.998L377.042 142.569C375.122 145.615 373.202 148.662 371.295 151.716C370.59 152.85 369.896 154.01 369.166 155.237L369.14 155.279C368.376 156.557 367.586 157.881 366.759 159.21C362.714 165.675 357.656 167.033 354.128 167.037C350.162 167.037 346.398 165.307 342.937 161.892C340.753 159.739 338.863 157.483 337.296 155.169C334.775 157.424 331.906 158.567 328.735 158.567C324.081 158.567 320.813 156.1 318.486 153.955C314.852 150.599 312.071 146.88 310.189 142.861L295.164 167.6C293.345 170.596 290.048 172.457 286.561 172.457C285.167 172.457 283.81 172.17 282.529 171.607C274.737 168.18 269.582 161.888 266.776 152.372C265.634 148.497 265.516 144.629 266.419 140.851C262.702 139.89 260.161 137.191 258.233 135.139C256.46 133.256 254.939 131.212 253.692 129.033L253.679 129.05C247.584 137.36 241.3 145.928 235.054 154.327C233.344 156.625 231.345 158.05 229.883 159.091C229.517 159.349 229.143 159.62 228.921 159.798C227.131 161.253 224.88 162.057 222.582 162.057C222.019 162.057 221.452 162.011 220.898 161.913C218.05 161.427 215.542 159.73 214.017 157.259C213.673 156.701 213.333 156.138 212.992 155.575C212.308 154.441 211.669 153.392 211.026 152.419C210.615 151.793 210.232 151.158 209.88 150.515C207.103 156.438 204.444 162.163 201.957 167.579C201.73 168.074 201.516 169.906 201.39 170.998C201.226 172.415 201.042 174.002 200.689 175.673C199.865 179.595 198.021 182.731 195.354 184.745C193.489 186.149 191.233 186.894 188.822 186.894C185.621 186.894 182.034 185.481 179.682 183.298C174.469 178.449 170.466 172.39 167.517 164.863C164.963 170.816 162.468 176.832 160.086 182.79C159.931 183.217 159.805 184.948 159.746 185.781C159.666 186.924 159.573 188.21 159.376 189.589C159.216 190.702 158.981 191.633 158.796 192.382L158.775 192.471C158.733 192.64 158.691 192.809 158.654 192.978C157.692 197.205 154.172 200.353 149.895 200.81L148.812 200.929C148.455 200.967 148.089 200.988 147.728 200.988L147.732 201.001ZM138.688 141.202L135.651 148.653C133.517 153.883 131.585 159.074 129.901 164.076C126.38 174.535 128.674 184.207 136.353 191.307L136.521 191.464C137.638 192.5 139.327 194.07 141.755 194.692L142.271 194.823L142.62 195.234C143.901 196.748 145.766 197.616 147.736 197.616C147.976 197.616 148.219 197.603 148.459 197.578L149.547 197.459C152.399 197.155 154.747 195.056 155.386 192.238C155.428 192.043 155.478 191.853 155.524 191.658L155.545 191.569C155.713 190.892 155.923 190.059 156.058 189.115C156.238 187.863 156.326 186.636 156.402 185.557C156.532 183.712 156.654 182.35 156.978 181.537C159.897 174.239 162.98 166.86 166.143 159.603L167.92 155.529L169.281 159.764C172.133 168.645 176.288 175.533 181.975 180.822C183.714 182.439 186.47 183.522 188.839 183.522C190.515 183.522 192.078 183.014 193.355 182.049C195.358 180.539 196.761 178.093 197.417 174.983C197.736 173.464 197.912 171.962 198.063 170.634C198.307 168.527 198.496 167.084 198.92 166.166C201.873 159.739 205.062 152.88 208.405 145.776L210.14 142.091L211.505 145.928C212.064 147.494 212.849 149.047 213.841 150.553C214.517 151.581 215.172 152.656 215.861 153.798C216.21 154.378 216.546 154.932 216.886 155.482C217.903 157.132 219.575 158.262 221.473 158.588C223.347 158.909 225.334 158.385 226.821 157.179C227.123 156.933 227.526 156.646 227.955 156.341C229.303 155.381 230.983 154.179 232.378 152.309C238.616 143.918 244.896 135.359 250.97 127.074L254.284 122.56L255.477 125.145C256.758 127.925 258.51 130.506 260.686 132.816C262.778 135.042 265.151 137.559 268.692 137.813L270.855 137.969L270.166 140.043C268.931 143.749 268.881 147.574 270.015 151.424C272.523 159.921 277.059 165.514 283.89 168.518C284.747 168.895 285.65 169.085 286.578 169.085C288.939 169.085 291.085 167.875 292.316 165.848L310.946 135.173L312.101 138.587C313.697 143.301 316.612 147.638 320.775 151.475C322.77 153.316 325.278 155.199 328.756 155.199C331.583 155.199 334.133 153.912 336.334 151.378L337.854 149.63L339.039 151.623C340.648 154.327 342.757 156.976 345.306 159.493C348.116 162.265 351.09 163.674 354.144 163.669C356.828 163.669 360.706 162.586 363.932 157.424C364.742 156.125 365.524 154.818 366.28 153.553L367.746 154.382L366.305 153.51C367.044 152.266 367.746 151.094 368.473 149.931C370.384 146.872 372.303 143.821 374.223 140.77L374.584 140.199C375.576 138.625 376.575 137.039 377.575 135.443L379.272 132.744L380.537 135.676C381.935 138.917 383.943 142.01 386.51 144.879C389.307 148.006 393.638 149.119 396.755 149.119C396.936 149.119 397.116 149.119 397.293 149.106C405.102 148.78 409.416 143.123 411.991 139.747C427.755 119.082 439.903 99.0939 449.136 78.6363C452.43 71.3419 453.417 64.132 452.077 57.2184C450.741 50.347 447.158 44.0468 441.428 38.4956C439.403 36.5366 436.984 35.9146 435.384 35.5L435.337 35.4873C434.909 35.3773 434.636 35.3053 434.459 35.2419C433.342 34.8357 432.166 34.7299 431.032 34.9161L429.032 35.2503L429.074 33.2109C429.209 26.8473 427.726 20.6318 424.664 14.7378C421.123 7.92145 416.376 6.90175 413.86 6.90175C410.793 6.90175 407.882 8.25148 405.215 10.9129C404.257 11.8691 403.279 12.8169 402.304 13.7689L402.249 13.8239C397.86 18.0973 393.319 22.5104 389.757 27.9051C384.145 36.3927 378.176 45.5489 371.501 55.8856L369.796 58.53L368.552 55.6359C368.036 54.4385 367.351 53.2453 366.511 52.0902C366.166 51.6206 365.814 51.0917 365.444 50.5289C364.726 49.45 363.923 48.2441 362.936 47.0679C360.542 44.2119 357.45 42.6379 354.228 42.6379C352.493 42.6379 350.83 43.0737 349.28 43.9326L347.037 45.1766L346.793 42.6083C346.541 39.9215 345.785 37.6282 345.239 36.1389C344.433 33.9387 343.366 31.9627 342.425 30.2237L342.357 30.101C340.085 25.8953 337.283 23.8517 333.784 23.8517C329.332 23.8517 326.66 27.4185 325.656 28.764C324.362 30.4945 323.06 32.2166 321.758 33.9429C318.259 38.5718 314.659 43.3402 311.24 48.1807C309.874 50.1101 308.509 52.0479 307.144 53.9858L305.09 56.901L304.153 53.4527C304.015 52.9449 303.83 52.4583 303.599 52.0056C303.511 51.8321 303.397 51.5571 303.2 51.079C302.515 49.3908 301.477 46.8436 298.974 45.0792C297.277 43.8818 295.37 43.2514 293.459 43.2514C289.439 43.2514 286.927 45.7478 285.385 47.6222L283.285 50.1778L282.461 46.9621C282.188 45.8916 281.894 44.8762 281.609 43.8945C281.121 42.2063 280.668 40.6366 280.403 39.1599C280.055 37.1966 278.87 35.5 277.16 34.4972C275.472 33.5113 273.371 33.3167 271.536 33.9768L264.844 36.3758L266.403 32.792C269.335 26.0434 268.864 19.7813 265.012 14.1878C264.117 12.8888 263.198 11.6914 262.311 10.5363L262.273 10.4855C261.912 10.0116 261.547 9.53775 261.19 9.06386C260.047 7.54488 258.312 6.57596 256.43 6.40248C254.549 6.23323 252.667 6.87637 251.276 8.16686L250.256 9.1104C249.26 10.0286 248.239 10.9721 247.227 11.9537C246.16 12.9819 245.643 14.1031 245.471 14.467L245.387 14.6236L241.43 21.2537C236.532 29.4621 231.466 37.9498 226.438 46.2893L224.397 49.6743L223.38 45.8451C222.133 41.1485 220.494 36.0796 218.23 29.8979C215.773 23.1874 210.464 22.6669 208.892 22.6669C207.002 22.6669 205.041 23.2297 203.058 24.3382C199.055 26.5765 194.594 28.6752 189.797 30.5707C184.105 32.8174 177.338 35.4323 170.314 37.7763L166.798 38.9483L168.235 35.5127C170.046 31.1842 171.108 26.8854 171.482 22.3708C171.604 20.8983 171.335 19.7178 171.175 19.0112L171.138 18.7785C170.617 12.7069 166.269 8.78037 160.065 8.78037H159.838C158.738 8.7973 157.561 8.78037 156.415 8.76768C155.541 8.75499 154.667 8.74653 153.798 8.74653C151.79 8.74653 149.139 8.80153 146.438 9.22041C142.637 9.80854 138.789 10.3755 135.072 10.9256C122.44 12.7873 109.389 14.7124 96.653 17.6615C77.1497 22.1761 57.554 27.5031 38.601 32.6524C33.1864 34.1248 27.7719 35.5973 22.3532 37.0528C18.8793 37.9879 15.4978 40.92 13.9478 44.3557C10.4823 52.0268 9.52878 60.5271 11.1208 69.6156C11.6459 72.6154 12.5868 76.4235 15.2332 79.2837C17.6653 81.9112 21.0552 83.244 25.3104 83.2398C26.4949 83.2398 27.7929 83.1467 29.2799 82.9479C31.355 82.6771 33.3545 82.2963 35.2867 81.9282L35.3539 81.9155C36.2823 81.7378 37.2106 81.5601 38.1431 81.3993C43.9819 80.3838 48.3841 79.9268 52.4167 79.9268C55.941 79.9268 59.125 80.2823 62.162 81.0058C64.7328 81.6235 65.8922 82.309 66.413 82.7744L66.7743 83.1002L66.9087 83.5698C67.0935 84.2257 67.2069 85.5331 66.6735 88.0422C66.2156 90.1916 65.7451 91.9729 65.2369 93.4876L64.9554 94.3254L64.1111 94.5708C59.6795 95.857 55.2437 97.101 50.9507 98.3026C43.7215 100.329 36.2571 102.424 28.9313 104.67C25.4238 105.745 20.5637 108.682 18.3962 113.404C17.5855 115.176 17.3293 117.131 17.6191 119.378L17.7409 120.334L16.989 120.926C15.3718 122.2 14.1872 123.588 13.3681 125.166C10.3395 131.001 10.8814 137.153 14.8131 141.625C16.0901 143.076 17.9215 143.906 19.8454 143.906C20.6561 143.906 21.4542 143.758 22.2145 143.47L45.1203 134.767L43.0494 138.718C39.8696 144.79 37.3954 149.394 35.0347 153.646C31.1156 160.703 31.1282 168.442 35.0683 175.428C37.5466 179.82 40.6257 183.619 43.6081 187.292L44.3432 188.197C46.5737 190.952 50.1064 191.933 52.6687 191.929C53.2106 191.929 53.7441 191.887 54.2524 191.802C58.8268 191.053 60.1416 186.801 60.7044 184.982L60.7422 184.859C60.7927 184.694 60.8431 184.537 60.8893 184.406C61.2127 183.535 61.3765 182.777 61.4984 182.223L61.5152 182.147C61.5362 182.054 61.553 181.961 61.5782 181.867L61.6034 181.77C67.4716 162.827 75.9777 143.005 88.3779 119.391L88.7181 118.739L89.4238 118.549C90.9906 118.121 92.528 117.736 93.826 117.419L96.1447 116.852L95.8927 119.243C94.956 128.153 96.38 136.218 100.249 143.893C102.441 148.247 107.419 155.558 116.097 155.554C119.601 155.554 123.146 154.323 126.633 151.903C129.081 150.202 131.148 148.522 132.946 146.779L138.705 141.189L138.688 141.202ZM84.5679 68.9428L83.2742 66.383C83.0851 66.0064 82.8835 65.6425 82.6777 65.2914L81.5351 63.3408L89.722 61.2676L84.5637 68.9428H84.5679ZM118.517 64.8556L125.112 53.2538L133.114 51.409L128.099 55.9025C127.599 56.3467 127.107 56.7952 126.624 57.2522L118.517 64.8556Z" fill="url(#paint0_linear_254_2850)"/>
</g>
<defs>
<filter id="filter0_d_254_2850" x="0" y="0" width="463" height="212" filterUnits="userSpaceOnUse" color-interpolation-filters="sRGB">
<feFlood flood-opacity="0" result="BackgroundImageFix"/>
<feColorMatrix in="SourceAlpha" type="matrix" values="0 0 0 0 0 0 0 0 0 0 0 0 0 0 0 0 0 0 127 0" result="hardAlpha"/>
<feOffset dy="4"/>
<feGaussianBlur stdDeviation="3.5"/>
<feColorMatrix type="matrix" values="0 0 0 0 0 0 0 0 0 0 0 0 0 0 0 0 0 0 0.4 0"/>
<feBlend mode="normal" in2="BackgroundImageFix" result="effect1_dropShadow_254_2850"/>
<feBlend mode="normal" in="SourceGraphic" in2="effect1_dropShadow_254_2850" result="shape"/>
</filter>
<linearGradient id="paint0_linear_254_2850" x1="202.264" y1="-15.0367" x2="258.504" y2="193.346" gradientUnits="userSpaceOnUse">
<stop stop-color="#FBB03B"/>
<stop offset="1" stop-color="#B5261E"/>
</linearGradient>
<clipPath id="clip0_254_2850">
<rect width="449" height="198" fill="white" transform="translate(7 3)"/>
</clipPath>
</defs>
</svg>
