<svg width="107" height="175" viewBox="0 0 107 175" fill="none" xmlns="http://www.w3.org/2000/svg">
<g clip-path="url(#clip0_278_1977)">
<path d="M1.71094 148.491V129.242H11.5964C14.1367 129.242 16.0351 129.703 17.2846 130.631C18.5341 131.559 19.1623 132.769 19.1623 134.274C19.1623 135.264 18.9 136.131 18.3753 136.873C17.8507 137.615 17.112 138.2 16.1663 138.633C15.2206 139.066 14.0884 139.279 12.7837 139.279L13.336 137.959C14.6959 137.959 15.8833 138.165 16.898 138.578C17.9128 138.99 18.6998 139.588 19.2589 140.365C19.8181 141.142 20.1011 142.091 20.1011 143.211C20.1011 144.882 19.4246 146.174 18.0716 147.102C16.7186 148.03 14.7442 148.491 12.1486 148.491H1.71094ZM7.12307 144.559H11.7068C12.6456 144.559 13.3567 144.401 13.8468 144.078C14.3369 143.754 14.5786 143.266 14.5786 142.606C14.5786 141.946 14.3369 141.458 13.8468 141.135C13.3567 140.812 12.6456 140.654 11.7068 140.654H6.73649V136.887H10.8784C11.7966 136.887 12.4869 136.729 12.9494 136.419C13.4119 136.11 13.6397 135.642 13.6397 135.017C13.6397 134.391 13.4119 133.931 12.9494 133.628C12.4869 133.326 11.7966 133.174 10.8784 133.174H7.12307V144.559Z" fill="white"/>
<path d="M32.6945 148.876C31.1482 148.876 29.7193 148.629 28.4145 148.134C27.1098 147.639 25.9708 146.938 25.0044 146.03C24.0379 145.123 23.2854 144.064 22.7539 142.854C22.2224 141.644 21.9531 140.317 21.9531 138.867C21.9531 137.416 22.2224 136.09 22.7539 134.88C23.2854 133.67 24.0379 132.611 25.0044 131.704C25.9708 130.796 27.1098 130.095 28.4145 129.6C29.7193 129.105 31.1482 128.857 32.6945 128.857C34.2409 128.857 35.6905 129.105 36.9884 129.6C38.2862 130.095 39.4114 130.796 40.3709 131.704C41.3305 132.611 42.076 133.67 42.6214 134.88C43.1667 136.09 43.436 137.416 43.436 138.867C43.436 140.317 43.1667 141.651 42.6214 142.868C42.076 144.085 41.3305 145.143 40.3709 146.044C39.4114 146.945 38.2862 147.639 36.9884 148.134C35.6905 148.629 34.2616 148.876 32.6945 148.876ZM32.6945 144.367C33.4332 144.367 34.1166 144.236 34.7517 143.982C35.3868 143.727 35.9391 143.356 36.4085 142.868C36.8779 142.38 37.2438 141.802 37.513 141.122C37.7822 140.441 37.9134 139.692 37.9134 138.867C37.9134 138.042 37.7822 137.265 37.513 136.598C37.2438 135.931 36.8779 135.354 36.4085 134.866C35.9391 134.378 35.3868 134.006 34.7517 133.752C34.1166 133.498 33.4332 133.367 32.6945 133.367C31.9559 133.367 31.2725 133.498 30.6374 133.752C30.0023 134.006 29.45 134.378 28.9806 134.866C28.5112 135.354 28.1453 135.931 27.8761 136.598C27.6069 137.265 27.4757 138.021 27.4757 138.867C27.4757 139.712 27.6069 140.441 27.8761 141.122C28.1453 141.802 28.5112 142.38 28.9806 142.868C29.45 143.356 30.0023 143.727 30.6374 143.982C31.2725 144.236 31.9559 144.367 32.6945 144.367Z" fill="white"/>
<path d="M46.3047 148.491V129.242H50.8056L61.4642 142.056H59.338V129.242H64.6949V148.491H60.194L49.5354 135.677H51.6616V148.491H46.3047Z" fill="white"/>
<path d="M77.4792 148.876C74.6281 148.876 72.3984 148.099 70.7969 146.539C69.1953 144.978 68.3945 142.771 68.3945 139.912V129.242H73.8619V139.747C73.8619 141.396 74.1863 142.579 74.8421 143.294C75.4979 144.009 76.3954 144.366 77.5344 144.366C78.6734 144.366 79.5709 144.009 80.2129 143.294C80.8549 142.579 81.1793 141.396 81.1793 139.747V129.242H86.5638V139.912C86.5638 142.771 85.763 144.978 84.1615 146.539C82.5599 148.099 80.3302 148.876 77.4792 148.876Z" fill="white"/>
<path d="M97.0599 148.876C95.479 148.876 93.9534 148.677 92.4899 148.285C91.0264 147.893 89.8322 147.384 88.9141 146.759L90.7089 142.744C91.5718 143.294 92.5728 143.748 93.7049 144.105C94.837 144.463 95.9623 144.642 97.0875 144.642C97.8399 144.642 98.4474 144.573 98.9099 144.435C99.3724 144.298 99.7038 144.112 99.9178 143.885C100.132 143.658 100.235 143.383 100.235 143.074C100.235 142.634 100.035 142.284 99.6279 142.029C99.2206 141.775 98.6959 141.562 98.0539 141.397C97.4119 141.232 96.694 141.067 95.9139 140.902C95.1339 140.737 94.3469 140.524 93.5668 140.269C92.7868 140.015 92.0688 139.678 91.4268 139.266C90.7848 138.853 90.2602 138.31 89.8529 137.643C89.4456 136.976 89.2454 136.124 89.2454 135.1C89.2454 133.945 89.563 132.9 90.1981 131.965C90.8332 131.03 91.7858 130.28 93.056 129.71C94.3262 129.139 95.907 128.857 97.8054 128.857C99.0756 128.857 100.325 129.002 101.547 129.284C102.769 129.566 103.86 129.985 104.819 130.535L103.135 134.577C102.217 134.082 101.305 133.711 100.401 133.463C99.4967 133.216 98.6269 133.092 97.7778 133.092C97.0254 133.092 96.4179 133.168 95.9554 133.326C95.4928 133.484 95.1615 133.69 94.9613 133.945C94.7611 134.199 94.6575 134.495 94.6575 134.825C94.6575 135.244 94.8577 135.581 95.2512 135.828C95.6447 136.076 96.1693 136.275 96.8252 136.433C97.481 136.591 98.1989 136.749 98.979 136.914C99.759 137.079 100.546 137.286 101.326 137.533C102.106 137.781 102.824 138.111 103.466 138.523C104.108 138.936 104.633 139.479 105.026 140.146C105.42 140.812 105.62 141.651 105.62 142.662C105.62 143.782 105.302 144.813 104.667 145.755C104.032 146.697 103.086 147.453 101.823 148.024C100.56 148.594 98.9721 148.876 97.0599 148.876Z" fill="white"/>
<path d="M20.5414 175C19.0158 175 17.5937 174.759 16.289 174.271C14.9843 173.783 13.8522 173.096 12.9064 172.195C11.9607 171.294 11.2151 170.236 10.6836 169.019C10.152 167.802 9.88281 166.455 9.88281 164.99C9.88281 163.526 10.152 162.179 10.6836 160.962C11.2151 159.745 11.9607 158.686 12.9202 157.786C13.8798 156.885 15.0119 156.198 16.3304 155.71C17.6489 155.222 19.0848 154.981 20.6518 154.981C22.4743 154.981 24.1035 155.283 25.5393 155.888C26.9752 156.493 28.1626 157.366 29.1014 158.501L25.6222 161.636C24.9595 160.921 24.2484 160.384 23.4822 160.027C22.7159 159.669 21.8668 159.491 20.928 159.491C20.0996 159.491 19.3471 159.621 18.6637 159.876C17.9803 160.13 17.4004 160.501 16.9241 160.989C16.4478 161.477 16.075 162.055 15.8058 162.722C15.5366 163.389 15.4054 164.145 15.4054 164.99C15.4054 165.836 15.5366 166.537 15.8058 167.218C16.075 167.898 16.4478 168.476 16.9241 168.964C17.4004 169.452 17.9803 169.823 18.6499 170.091C19.3195 170.359 20.0651 170.49 20.8727 170.49C21.6804 170.49 22.4743 170.359 23.2475 170.091C24.0206 169.823 24.8007 169.37 25.5946 168.73L28.6596 172.552C27.5551 173.343 26.278 173.948 24.8214 174.367C23.3648 174.787 21.9427 175 20.5414 175ZM23.8273 171.837V164.578H28.6596V172.552L23.8273 171.837Z" fill="white"/>
<path d="M29.8203 174.615L38.3527 155.366H43.7372L52.2972 174.615H46.609L39.9266 158.033H42.0804L35.3981 174.615H29.8203ZM34.4869 170.875L35.8952 166.86H45.3388L46.747 170.875H34.4869Z" fill="white"/>
<path d="M53.8438 174.615V155.366H58.3447L66.3524 168.455H63.9777L71.7645 155.366H76.2654L76.3207 174.615H71.2951L71.2399 162.983H72.0959L66.2696 172.717H63.8396L57.8476 162.983H58.8969V174.615H53.8438Z" fill="white"/>
<path d="M85.5957 170.407H95.702V174.615H80.1836V155.366H95.3431V159.573H85.5957V170.407ZM85.2091 162.818H94.1833V166.888H85.2091V162.818Z" fill="white"/>
<path d="M24.3339 85.4857C31.4718 91.9135 40.5565 95.7976 50.1519 96.5195V106.55C37.8849 105.8 26.2599 100.864 17.2235 92.5666L24.3339 85.4789V85.4857ZM83.5912 84.6264L90.1837 91.1848C90.3563 91.3567 90.5496 91.5148 90.7636 91.6454C81.6099 100.486 69.5776 105.773 56.855 106.55V96.5195C66.8854 95.7633 76.3359 91.556 83.5981 84.6264H83.5912ZM53.5 16.5747C73.8507 16.5747 90.3494 33.005 90.3494 53.2713C90.3494 73.5377 73.8507 89.968 53.5 89.968C33.1493 89.968 16.6506 73.5377 16.6506 53.2713C16.6506 33.005 33.1493 16.5747 53.5 16.5747ZM10.0718 56.6124C10.7414 65.4188 14.1102 73.8058 19.7156 80.646L12.5846 87.7544C5.12219 79.003 0.704129 68.0792 0 56.6124H10.0718ZM107 56.6124C106.323 67.653 102.202 78.2055 95.2093 86.7988C95.1195 86.6819 95.0229 86.5719 94.9194 86.4688L88.0714 79.6492C93.2074 72.9877 96.2862 64.9857 96.9213 56.6124H107ZM48.7644 34.4074C44.8365 30.5026 38.4717 30.5026 34.5506 34.4074C30.6296 38.3191 30.6296 44.6574 34.5506 48.5622C37.5605 51.5596 42.1442 52.3433 45.9893 50.5146L48.7644 53.2713L45.9893 56.0349C40.9775 53.6494 34.9786 55.7668 32.5901 60.7509C30.1947 65.7419 32.3209 71.7159 37.3257 74.0945C42.3306 76.4731 48.3364 74.3626 50.7249 69.3785C52.0296 66.6493 52.0365 63.4801 50.7249 60.7509L53.5 57.9873L56.2682 60.7509C53.8728 65.7419 55.999 71.7159 61.0038 74.0945C66.0156 76.48 72.0145 74.3626 74.403 69.3785C76.7915 64.3944 74.6722 58.4135 69.6674 56.0349C66.9268 54.7356 63.7444 54.7287 61.0038 56.0349L58.2287 53.2713L61.0038 50.5146C66.0156 52.8932 72.0145 50.7827 74.403 45.7918C76.7915 40.8008 74.6722 34.8268 69.6605 32.4481C64.6487 30.0695 58.6498 32.18 56.2613 37.171C54.9566 39.9002 54.9566 43.0694 56.2613 45.7986L53.4931 48.5553L50.718 45.7918C52.5543 41.9626 51.7604 37.3979 48.7506 34.4005L48.7644 34.4074ZM39.2863 62.717C40.5979 61.4109 42.7172 61.4109 44.0219 62.717C45.3335 64.0232 45.3335 66.1337 44.0219 67.433C42.7103 68.7323 40.591 68.7392 39.2863 67.433C37.9746 66.1337 37.9539 64.037 39.2517 62.7239C39.2586 62.717 39.2655 62.7102 39.2863 62.7102V62.717ZM62.9781 62.717C64.2897 61.4109 66.409 61.4109 67.7137 62.717C69.0254 64.0232 69.0254 66.1337 67.7137 67.433C66.4021 68.7323 64.2828 68.7392 62.9781 67.433C61.6734 66.1337 61.6803 64.0232 62.9781 62.7102V62.717ZM93.8079 18.0871C101.636 26.9553 106.275 38.1609 107 49.944H96.9282C96.2379 40.8214 92.6482 32.1525 86.6838 25.1886L93.8079 18.094V18.0871ZM12.5846 18.7952L19.7156 25.9035C14.1102 32.7438 10.7414 41.1377 10.0718 49.944H0C0.704129 38.4772 5.11529 27.5466 12.5846 18.7952ZM39.2863 39.1234C40.5979 37.8172 42.7172 37.8172 44.0219 39.1234C45.3335 40.4296 45.3335 42.5401 44.0219 43.8394C42.7103 45.1387 40.591 45.1455 39.2863 43.8394C37.9746 42.5332 37.9746 40.4227 39.2863 39.1234ZM62.9781 39.1234C64.2897 37.8172 66.409 37.8172 67.7137 39.1234C69.0254 40.4296 69.0254 42.5401 67.7137 43.8394C66.4021 45.1387 64.2828 45.1455 62.9781 43.8394C61.6665 42.5332 61.6665 40.4227 62.9781 39.1234ZM50.1519 0V10.0301C40.5565 10.7519 31.4787 14.636 24.3408 21.0638L17.2235 13.983C26.253 5.69217 37.8849 0.749332 50.1519 0ZM56.8481 0C68.7975 0.728708 80.1465 5.43094 89.0861 13.3574L81.962 20.452C74.9276 14.3886 66.126 10.7313 56.8481 10.0369V0Z" fill="white"/>
</g>
<defs>
<clipPath id="clip0_278_1977">
<rect width="107" height="175" fill="white"/>
</clipPath>
</defs>
</svg>
