<svg width="330" height="206" viewBox="0 0 330 206" fill="none" xmlns="http://www.w3.org/2000/svg">
<g clip-path="url(#clip0_254_2783)">
<path d="M237.808 156.636C228.811 150.906 225.864 142.984 230.002 133.831C236.916 118.555 244.349 103.518 251.565 88.3796C251.894 87.6939 252.229 87.0083 252.078 86.0201C248.659 91.4281 245.376 96.9301 241.769 102.207C239.174 106.005 236.382 109.732 233.227 113.067C230.794 115.634 229.227 115.12 226.988 112.381C223.652 108.297 222.464 103.817 224.381 98.8022C225.874 94.8933 227.566 91.0617 229.197 87.2099C229.643 86.1545 230.187 85.1429 230.368 83.9362C219.823 96.4024 210.503 109.645 203.016 124.884C207.664 124.225 211.648 123.499 215.668 123.17C217.266 123.039 220.259 123.597 220.333 124.155C220.639 126.383 220.38 128.84 219.686 131.008C219.051 132.998 217.121 132.453 215.276 132.52C211.802 132.641 208.349 133.646 204.915 134.423C172.868 141.656 142.086 152.768 111.6 164.81C110.502 165.244 108.74 165.634 108.072 165.086C107.287 164.444 106.881 162.636 107.146 161.533C107.891 158.424 108.985 155.389 110.096 152.384C110.962 150.042 112.778 148.882 115.254 148.27C121.134 146.812 126.977 145.178 132.76 143.363C133.951 142.99 134.804 141.535 135.649 140.735C133.921 139.992 132.689 139.848 132.132 139.159C129.689 136.134 128.685 132.954 130.535 128.998C134.817 119.843 138.78 110.536 142.637 101.111C142.033 101.941 141.415 102.765 140.821 103.602C132.78 114.932 124.826 126.326 116.647 137.559C114.724 140.201 112.247 142.523 109.7 144.597C105.525 147.998 103.414 147.682 99.8969 143.746C99.3297 143.111 98.8129 142.432 97.8262 141.229C93.7049 153.258 87.6271 164.01 86.2712 176.48C85.986 176.443 85.7041 176.403 85.4188 176.366C84.9926 175.431 84.5697 174.5 84.1435 173.566L83.6837 174.117C82.546 173.418 81.0525 172.978 80.331 171.979C76.7568 167.045 74.9445 162.128 78.2066 155.856C86.2444 140.392 93.7284 124.639 101.421 108.996C101.83 108.163 102.132 107.276 101.904 105.938C99.6419 107.88 97.3799 109.823 94.5675 112.24C93.7519 108.943 93.0438 106.079 92.1477 102.452C89.2347 105.481 86.8988 108.22 84.2274 110.583C81.8613 112.677 79.2973 114.683 76.5084 116.122C72.7227 118.075 69.464 117.436 67.1248 114.021C64.9803 110.889 63.5069 107.249 62.0705 103.696C61.2315 101.622 62.3793 99.9484 64.6715 100.382C70.6285 101.508 75.3707 98.8157 79.5792 95.4445C94.2352 83.7043 105.673 69.524 111.556 51.3507C113.653 44.8705 112.026 42.622 105.196 43.2202C95.6582 44.0571 87.5432 48.6282 79.7839 53.7505C66.8026 62.3178 56.0732 73.4968 45.2868 84.548C35.6951 94.3757 27.3989 105.232 20.5659 117.181C20.1833 117.853 19.8208 118.535 19.4685 119.224C16.1661 125.684 16.8373 126.988 24.2408 127.721C26.627 127.956 29.1071 127.812 31.4866 127.462C41.5146 125.987 51.4955 124.131 61.5503 122.888C67.1718 122.192 72.9107 122.434 78.5925 122.236C79.3107 122.212 80.0222 122.081 81.7103 121.889C79.8544 121.338 78.9483 121.069 78.0421 120.8C83.5729 119.584 86.6605 122.71 86.9492 129.089C87.2445 135.616 84.318 140.809 80.9116 145.881C73.0583 157.567 63.5002 167.802 53.7173 177.848C47.8643 183.861 42.4878 190.217 40.0547 198.942C36.6784 197.497 35.4669 194.455 34.6514 191.558C33.8694 188.788 34.0204 185.753 33.7284 182.839C33.0841 176.372 36.7959 172.114 41.0413 168.044C52.5124 157.046 63.9265 145.995 75.3539 134.954C75.9681 134.359 76.5118 133.69 76.8339 132.403C74.921 132.92 73.0147 133.452 71.0984 133.959C59.4964 137.038 47.9549 140.365 36.2623 143.051C32.0638 144.015 27.4358 143.985 23.1299 143.437C14.5115 142.338 9.46734 136.218 8.5914 127.593C7.26239 114.529 12.4979 103.43 19.455 93.2834C36.9167 67.8165 59.8522 48.2081 86.6471 33.1169C90.2314 31.1002 94.4131 29.981 98.4505 28.9727C111.338 25.7561 117.251 32.0077 118.433 44.4672C118.976 50.1945 117.815 56.5032 115.818 61.9548C112.69 70.4987 108.203 78.5451 104.277 86.7931C103.81 87.7746 103.23 88.7022 102.538 89.9526C108.197 86.857 113.449 83.7749 118.886 81.0692C124.299 78.377 129.759 75.6646 135.448 73.6749C143.355 70.9121 145.855 72.5859 147.936 80.8071C148.03 81.1734 148.147 81.5364 148.48 82.6624C149.372 69.8164 149.319 69.6315 161.333 65.7898C169.284 63.2455 177.416 61.2625 185.497 59.1349C193.048 57.1451 195.539 62.0456 195.226 68.7845C194.971 74.3 192.323 79.0728 188.34 82.7397C178.765 91.5457 168.942 100.079 159.222 108.724C157.373 110.368 155.531 112.015 153.037 114.24C158.759 114.912 163.172 113.406 166.901 110.845C170.482 108.388 173.378 104.926 176.845 101.652C177.234 103.027 177.657 104.523 178.07 105.981C189.655 90.1912 200.653 70.7508 201.569 64.4353C203.794 66.2671 204.905 69.3727 203.895 73.2279C202.838 77.2611 201.465 81.2709 199.697 85.0387C196.082 92.7288 192.105 100.244 188.289 107.837C188.004 108.401 187.796 109.003 188.122 109.961C191.622 105.155 195.096 100.332 198.626 95.5454C205.375 86.3999 212.104 77.2376 218.947 68.1627C223.713 61.8406 228.559 55.5991 231.603 47.7039C232.079 49.8751 232.919 52.0397 232.965 54.221C233.117 61.0205 230.982 67.2216 227.441 72.9892C223.454 79.4761 219.531 86.0033 215.598 92.5204C214.755 93.9186 213.99 95.3605 213.752 97.1788C215.823 94.5975 217.907 92.0263 219.961 89.4282C227.072 80.434 234.17 71.4297 241.275 62.4287C241.342 62.3414 241.403 62.2338 241.493 62.18C243.765 60.8558 245.014 56.2444 247.994 58.1333C251.749 60.5129 252.219 67.7829 249.833 70.8549C243.44 79.0896 237.929 87.8552 233.976 97.5284C232.915 100.12 232.345 102.913 232.103 105.884C245.792 87.5527 258.982 68.9862 270.057 48.6484C263.489 50.749 256.935 52.8968 250.34 54.9033C249.118 55.2764 247.722 55.0848 246.407 55.152C246.46 53.7908 246.108 52.2346 246.645 51.1019C248.333 47.5392 250.3 44.0975 252.303 40.6961C252.672 40.0709 253.696 39.6407 254.488 39.4962C262.288 38.0576 270.124 36.7972 277.897 35.2209C279.296 34.9386 280.746 33.6714 281.672 32.4715C286.787 25.8401 291.734 19.0777 296.778 12.3891C297.342 11.643 298.157 11.0918 298.835 10.4666C303.255 14.5873 303.473 17.0644 300.252 21.3598C297.63 24.852 295.167 28.4618 292.633 32.0211C292.791 32.2699 292.945 32.5186 293.103 32.7673C297.479 32.0279 301.862 31.2985 306.235 30.5423C310.363 29.8297 314.485 29.0735 318.619 28.3744C321.294 27.924 322.318 29.0163 321.106 31.4262C320.395 32.8412 318.955 34.3873 317.512 34.8545C308.289 37.8425 299.053 40.8641 289.656 43.2101C285.216 44.3193 282.354 46.588 280.525 50.4364C267.275 78.3333 252.535 105.555 242.064 134.715C239.577 141.639 236.899 148.617 237.815 156.633L237.808 156.636ZM147.406 119.352C144.348 126.797 141.358 134.08 138.005 142.241C142.002 141.189 144.946 140.671 147.688 139.626C151.117 138.322 154.252 136.134 157.746 135.125C165.153 132.991 172.687 131.28 180.208 129.573C186.819 128.07 193.488 126.813 200.549 125.358C192.545 117.342 197.153 109.601 200.532 101.844C195.824 108.015 191.4 114.193 186.987 120.377C184.108 124.414 181.795 124.319 179.721 119.779C178.6 117.318 178.104 114.569 177.332 111.968C168.525 125.973 158.051 128.719 147.409 119.345L147.406 119.352ZM141.7 87.5427L141.012 86.336C139.536 86.4705 137.941 86.289 136.606 86.7999C131.887 88.6014 127.158 90.4466 122.641 92.6885C120.929 93.5388 119.278 95.2698 118.439 97.0074C112.539 109.211 106.854 121.52 101.125 133.808C100.937 134.211 101.025 134.742 100.981 135.216C101.276 135.401 101.572 135.586 101.864 135.771C116.865 121.13 129.988 104.926 141.7 87.5427ZM189.283 73.5169C189.071 73.0464 188.86 72.5758 188.645 72.1086C187.017 72.1086 185.309 71.7927 183.772 72.1691C179.282 73.2716 174.801 74.4849 170.445 76.0108C168.975 76.5251 167.418 77.8729 166.69 79.2543C162.887 86.4738 159.336 93.8279 155.715 101.142C155.366 101.844 155.148 102.614 154.87 103.353C155.111 103.541 155.349 103.73 155.591 103.918C166.821 93.7842 178.05 83.6505 189.279 73.5169H189.283ZM148.57 84.9647C148.355 86.8268 148.104 89.0114 147.855 91.1961C148.084 91.2768 148.308 91.3608 148.537 91.4415C150.02 88.9577 151.503 86.4705 153.238 83.5699C151.279 84.1547 150.007 84.5345 148.57 84.9647ZM233.583 27.7459L238.084 29.9171C238.587 28.1156 239.782 26.1796 239.463 24.5428C238.664 20.4557 237.416 16.4123 235.895 12.5269C234.56 9.11545 232.086 8.84321 229.942 11.7203C219.622 25.5713 212.265 40.9515 206.906 57.3199C206.446 58.7215 206.624 60.3348 206.506 61.8506L207.768 62.2943C216.111 50.3827 224.454 38.4677 232.798 26.556C233.059 26.9527 233.325 27.3526 233.586 27.7492L233.583 27.7459Z" fill="white"/>
<path d="M40.0649 206.001C38.9238 206.001 37.8129 205.772 36.7659 205.325C29.3053 202.129 27.3319 195.138 26.5869 192.502C25.7982 189.706 25.6639 187.074 25.5465 184.752C25.5028 183.878 25.4626 183.058 25.3887 182.332C24.2745 171.15 31.4129 164.306 35.2455 160.629C39.4205 156.626 43.8572 152.358 49.227 147.178C45.1024 148.244 41.5449 149.114 38.1486 149.894C33.3963 150.987 27.8823 151.165 22.0796 150.425C9.92056 148.876 1.55721 139.939 0.251697 127.096C-0.500065 119.715 0.406077 112.549 3.01711 105.185C5.07438 99.3807 8.10157 93.6601 12.545 87.18C29.8255 61.9787 53.3751 40.8745 82.5394 24.449C86.9795 21.9483 91.8358 20.6207 96.4269 19.4746C99.3131 18.7553 102.062 18.389 104.599 18.389C111.368 18.389 117.016 20.9602 120.936 25.827C124.209 29.8905 126.125 35.2884 126.789 42.3299C127.407 48.8537 126.309 56.3758 123.698 63.5046C123.047 65.286 122.306 67.1413 121.457 69.1142C124.95 67.4539 128.753 65.7733 132.686 64.3987C136.008 63.2391 138.683 62.6979 141.103 62.6979C142.499 62.6979 143.828 62.8727 145.07 63.2223C148.282 59.8041 152.759 58.3689 158.78 56.4464C165.287 54.3659 171.905 52.6483 178.305 50.988L178.543 50.9275C180.151 50.5107 181.759 50.0939 183.363 49.6704C189.699 48 195.23 49.2839 199.002 53.1357C205.053 34.7271 212.973 19.0981 223.213 5.35473C226.683 0.699648 230.801 0.00390625 232.946 0.00390625C237.694 0.00390625 241.715 3.03895 243.705 8.12089C245.507 12.7222 246.85 17.2529 247.695 21.5887C248.383 25.1145 247.209 28.126 246.504 29.9242C246.387 30.2266 246.205 30.6871 246.162 30.8484C245.491 33.2482 243.806 35.2111 241.537 36.2362C240.443 36.7303 239.282 36.9824 238.08 36.9824C237.09 36.9824 236.097 36.8043 235.167 36.4581L233.892 38.2798C236.832 39.1066 239.114 41.4728 239.792 44.5616C239.795 44.5818 239.802 44.6019 239.805 44.6221C241.483 41.251 243.319 38.0613 245.074 35.0868C247.306 31.3056 251.333 30.1964 252.961 29.8973C255.814 29.3696 258.703 28.8621 261.496 28.3713C265.986 27.5815 270.611 26.7681 275.121 25.8707C278.296 21.75 281.464 17.505 284.525 13.3978L284.612 13.2801C286.398 10.8871 288.24 8.41666 290.076 5.98325C291.046 4.69596 292.096 3.82208 292.791 3.24398L292.875 3.1734C292.969 3.09609 293.063 3.01879 293.154 2.93812C294.707 1.50967 296.721 0.726536 298.829 0.726536C300.936 0.726536 302.987 1.52647 304.547 2.97845C307.122 5.37826 310.152 8.74605 310.733 13.4919C311.001 15.6833 310.716 17.8478 309.86 20.0359L310.112 19.9922C312.444 19.5788 314.841 19.1519 317.22 18.752C318.069 18.6074 318.898 18.5368 319.687 18.5368C323.493 18.5368 326.724 20.2443 328.557 23.2255C329.664 25.0271 331.141 28.8049 328.587 33.8734C327.167 36.6967 324.187 40.1855 320.086 41.5165L319.059 41.8492C310.179 44.7263 301.003 47.7042 291.674 50.0301C289.24 50.6384 288.653 51.5224 288.089 52.7122C284.636 59.9822 281.045 67.2825 277.571 74.3441C267.731 94.3525 257.552 115.04 249.947 136.225L249.632 137.105C247.501 143.028 245.487 148.62 246.142 154.344C246.507 157.544 244.984 160.717 242.259 162.424C240.923 163.261 239.382 163.705 237.805 163.705C236.228 163.705 234.65 163.251 233.301 162.391C227.156 158.478 223.038 153.622 221.055 147.962C220.088 145.202 219.669 142.312 219.796 139.337C218.655 139.572 217.434 139.626 216.111 139.589H216.021C215.89 139.582 215.759 139.579 215.625 139.579H215.561C213.631 139.65 211.349 140.191 208.936 140.769C208.208 140.944 207.48 141.115 206.755 141.28C173.63 148.755 141.62 160.643 114.674 171.287C113.603 171.711 111.455 172.42 109.096 172.42C106.042 172.42 103.965 171.244 102.756 170.256C99.7729 167.812 98.6218 164.051 98.6688 160.811C96.7357 165.906 95.165 170.904 94.6045 176.053C94.3596 178.292 93.2051 180.372 91.433 181.761C89.6677 183.142 87.3588 183.77 85.137 183.471L84.2879 183.357C81.791 183.018 79.576 181.566 78.2671 179.435C76.9952 178.789 75.052 177.67 73.5351 175.583C72.3403 173.933 71.3838 172.4 70.6153 170.887C66.9236 174.948 63.2185 178.796 59.7248 182.382C53.9188 188.348 49.9519 193.353 48.1363 199.87C47.4852 202.203 45.8642 204.138 43.6827 205.187C42.5584 205.728 41.3033 206.014 40.0548 206.014L40.0649 206.001ZM60.8625 140.618L56.1942 145.125C48.6363 152.422 42.8907 157.954 37.568 163.056C33.9065 166.568 27.7749 172.444 28.728 181.996C28.8086 182.806 28.8522 183.663 28.8992 184.57C29.0066 186.725 29.1308 189.155 29.8154 191.585C30.4396 193.796 32.0975 199.665 38.0848 202.229C39.4037 202.794 40.9475 202.76 42.243 202.139C43.5518 201.51 44.5251 200.347 44.9144 198.949C46.9247 191.743 51.1567 186.362 57.3319 180.019C61.3424 175.899 65.6349 171.435 69.8534 166.71L71.6825 164.659L72.6692 167.224C73.4579 169.271 74.5989 171.294 76.2602 173.59C77.4852 175.28 79.133 176.094 80.2204 176.632L80.7104 176.873L80.9654 177.357C81.7205 178.799 83.1368 179.791 84.7477 180.009L85.6002 180.124C86.9325 180.305 88.3186 179.929 89.3758 179.099C90.4396 178.265 91.131 177.018 91.2787 175.674C92.1311 167.819 95.1012 160.532 98.2392 152.818C98.5177 152.136 98.7963 151.454 99.0748 150.765L99.7259 149.158L101.31 149.857C101.854 150.099 102.411 150.284 102.965 150.412L104.797 150.829L104.179 152.603C103.33 155.037 102.72 157.07 102.256 159.003C101.625 161.628 102.337 165.543 104.891 167.637C105.676 168.279 107.042 169.042 109.106 169.042C110.912 169.042 112.603 168.481 113.452 168.145C140.519 157.453 172.684 145.511 206.03 137.986C206.745 137.825 207.456 137.657 208.171 137.485C210.752 136.87 213.192 136.285 215.46 136.208C215.699 136.201 215.91 136.208 216.132 136.215H216.219C216.501 136.225 216.783 136.231 217.054 136.231C218.558 136.231 219.88 135.952 220.984 135.405L223.867 133.973L223.391 137.159C222.887 140.527 223.173 143.784 224.24 146.836C225.965 151.77 229.626 156.045 235.12 159.54C235.929 160.055 236.862 160.327 237.822 160.327C238.782 160.327 239.691 160.061 240.493 159.557C242.128 158.532 243.044 156.63 242.822 154.711C242.077 148.204 244.222 142.251 246.491 135.949L246.806 135.069C254.475 113.709 264.694 92.9341 274.578 72.8417C278.045 65.7901 281.632 58.5 285.076 51.2501C286.062 49.173 287.428 47.6135 290.878 46.753C300.094 44.4541 309.216 41.4963 318.039 38.636L319.066 38.3033C322.184 37.2916 324.489 34.5624 325.604 32.3475C327.423 28.7377 326.453 26.1799 325.711 24.9767C324.503 23.0138 322.311 21.8878 319.697 21.8878C319.096 21.8878 318.452 21.945 317.787 22.0559C315.425 22.4559 313.035 22.8793 310.723 23.2894L310.364 23.3533C309.29 23.5448 308.216 23.7331 307.142 23.9213L303.43 24.57L305.43 21.3736C307.058 18.7721 307.706 16.3253 307.407 13.8885C306.961 10.2216 304.423 7.44195 302.265 5.42867C301.329 4.55816 300.111 4.07752 298.835 4.07752C297.56 4.07752 296.362 4.54807 295.432 5.40515C295.301 5.52278 295.164 5.64042 295.026 5.7547L294.949 5.81856C294.305 6.35633 293.503 7.02518 292.764 7.99989C290.935 10.4232 289.093 12.8936 287.311 15.28L287.223 15.3976C284.122 19.5553 280.914 23.8574 277.689 28.0386C277.484 28.3041 277.279 28.5091 277.142 28.6369L276.796 28.9528L276.34 29.0436C271.618 29.9914 266.782 30.8417 262.106 31.6652C259.304 32.1593 256.421 32.6668 253.582 33.1911C252.407 33.4096 249.508 34.1927 247.977 36.7841C245.997 40.1418 243.913 43.7718 242.101 47.5933C241.366 49.1461 241.295 50.6317 241.316 51.7476L237.966 51.9123C237.825 50.141 237.402 48.5815 236.99 47.0723C236.825 46.464 236.654 45.8355 236.53 45.2708C236.05 43.0827 234.228 41.4963 231.996 41.3249C231.704 41.3014 231.445 41.3014 231.056 41.3451L227.364 41.7551L234.05 32.2063L235.916 33.1071C236.594 33.4331 237.345 33.6045 238.097 33.6045C238.849 33.6045 239.513 33.4533 240.171 33.1575C241.53 32.5424 242.541 31.3627 242.943 29.9242C243.034 29.6015 243.208 29.1545 243.393 28.6839C244.037 27.037 244.917 24.7851 244.413 22.2206C243.604 18.0831 242.319 13.7473 240.591 9.33424C239.124 5.59 236.271 3.35489 232.956 3.35489C231.439 3.35489 228.505 3.87586 225.911 7.35457C215.85 20.856 208.07 36.243 202.123 54.3961C201.888 55.1154 201.727 55.8817 201.637 56.7421L201.512 57.9151L200.368 58.1975C200.264 58.2244 200.19 58.2412 200.116 58.2613L198.871 58.6411L198.197 57.5253C197.77 56.8228 197.274 56.1708 196.72 55.5893C194.666 53.4348 191.867 52.2988 188.622 52.2988C187.249 52.2988 185.766 52.5038 184.222 52.9139C182.614 53.3374 181.003 53.7575 179.389 54.1743L179.161 54.2348C172.798 55.8851 166.227 57.5891 159.81 59.6427C153.628 61.619 149.544 62.9265 146.926 66.2103L146.161 67.1715L145.013 66.7312C143.842 66.2808 142.529 66.0557 141.11 66.0557C139.076 66.0557 136.754 66.5363 133.797 67.5681C128.41 69.4503 123.218 71.9543 118.775 74.1525L114.483 76.2767L116.51 71.9342C118.164 68.395 119.487 65.2557 120.55 62.3417C122.994 55.6733 124.024 48.6756 123.45 42.6391C122.846 36.2732 121.171 31.4635 118.325 27.931C115.067 23.8843 110.318 21.7433 104.602 21.7433C102.34 21.7433 99.8635 22.0761 97.2424 22.7281C92.8728 23.8171 88.2649 25.0741 84.1873 27.3697C55.4726 43.5398 32.3023 64.3012 15.3138 89.0756C11.0415 95.307 8.13849 100.782 6.18189 106.304C3.74202 113.188 2.89293 119.876 3.59435 126.75C4.73206 137.952 11.9812 145.743 22.5059 147.084C27.9125 147.773 33.0339 147.615 37.4002 146.61C42.3537 145.471 47.6563 144.137 54.5967 142.281L60.8625 140.608V140.618ZM119.678 140.614L124.457 134.006L125.689 136.907L126.457 138.661L119.674 140.614H119.678ZM146.537 133.388L149.638 125.839L151.228 126.575C151.712 126.797 152.198 127.005 152.675 127.187L156.434 128.629L152.765 130.289C151.94 130.662 151.151 131.055 150.557 131.355L146.537 133.385V133.388ZM225.985 129.103L225.411 122.905C225.388 122.643 225.357 122.384 225.321 122.125C225.243 121.547 225.029 120.686 224.448 119.853L223.592 118.619L221.995 117.877C221.394 117.598 220.716 117.369 219.971 117.201C218.434 116.848 216.662 116.69 215.313 116.791L212.101 117.036L213.739 114.26C214.782 112.496 215.876 110.714 216.991 108.97L218.669 106.341L219.937 109.195C220.699 110.906 221.76 112.6 223.089 114.23C223.297 114.485 223.585 114.838 223.934 115.218L225.243 116.64L226.65 117.433C227.338 117.823 228.052 118.102 228.774 118.263L230.814 118.72L229.928 120.616C229.814 120.861 229.697 121.11 229.583 121.355L229.667 121.449L229.559 121.399C229.24 122.085 228.918 122.774 228.599 123.459L225.982 129.106L225.985 129.103ZM218.118 113.504C218.236 113.517 218.353 113.527 218.467 113.541C218.404 113.44 218.343 113.339 218.279 113.238C218.226 113.326 218.169 113.416 218.115 113.504H218.118ZM26.6842 121.446C26.4627 121.446 26.2412 121.443 26.023 121.436L23.2945 121.352L24.6034 118.952C24.7209 118.737 24.835 118.532 24.9457 118.337C31.4263 107.004 39.4843 96.3658 48.8981 86.7229L50.0694 85.523C60.5772 74.7474 70.5045 64.5734 82.5663 56.611C90.339 51.4787 97.0847 47.879 104.747 46.9849L107.371 46.6791L106.532 49.1898C101.34 64.6978 91.4968 78.1017 76.4414 90.1579C72.8605 93.0282 70.1555 94.2517 67.4069 94.2517C66.8196 94.2517 66.2188 94.1945 65.6114 94.0803C65.0643 93.9761 64.5139 93.9257 63.9803 93.9257C61.4834 93.9257 59.2952 95.0516 57.9729 97.0145C56.5902 99.0715 56.3855 101.707 57.4125 104.244C58.6609 107.333 60.0772 110.828 62.0103 114.021L63.3561 116.243L60.782 116.562C54.5296 117.339 48.2504 118.354 42.1792 119.339L42.1423 119.345C38.407 119.95 34.5475 120.576 30.7585 121.134C29.3154 121.345 27.9394 121.453 26.6775 121.453L26.6842 121.446ZM102.404 50.7796C96.4437 52.0635 90.8155 55.1927 84.4121 59.4209C72.6524 67.1816 62.8493 77.2346 52.469 87.8757L51.2977 89.0756C42.6558 97.932 35.1784 107.639 29.0536 117.957C29.453 117.917 29.859 117.863 30.2752 117.803C34.0374 117.248 37.8868 116.626 41.6087 116.021L41.9141 117.675L41.6456 116.015C46.9482 115.158 52.4085 114.274 57.889 113.541C56.4459 110.805 55.3216 108.025 54.3014 105.508C52.8482 101.912 53.1737 98.1337 55.1907 95.1323C57.144 92.2283 60.349 90.5612 63.9803 90.5612C64.722 90.5612 65.4805 90.6318 66.2322 90.7763C66.635 90.8536 67.0276 90.8906 67.4069 90.8906C69.3299 90.8906 71.4073 89.8856 74.3439 87.5329C88.0065 76.5892 97.2089 64.5432 102.401 50.7796H102.404ZM90.0873 119.386L88.4226 117.588C87.9696 117.1 87.4762 116.657 86.9493 116.267L85.2579 115.016L86.852 113.642C87.0869 113.437 87.3286 113.228 87.5668 113.017L89.1744 111.585L90.2014 113.39C90.4497 113.827 90.7585 114.22 91.1243 114.566L92.0237 115.413L90.0906 119.389L90.0873 119.386ZM115.58 113.08L122.97 97.8581C123.279 97.2161 123.853 96.6078 124.286 96.2549L135.263 87.2472L126.685 98.5706C126.35 99.0143 126.014 99.458 125.675 99.8983L115.583 113.08H115.58Z" fill="url(#paint0_linear_254_2783)"/>
</g>
<defs>
<linearGradient id="paint0_linear_254_2783" x1="165.002" y1="0.00054518" x2="165.002" y2="206.001" gradientUnits="userSpaceOnUse">
<stop stop-color="#FBB03B"/>
<stop offset="1" stop-color="#B5261E"/>
</linearGradient>
<clipPath id="clip0_254_2783">
<rect width="330" height="206" fill="white"/>
</clipPath>
</defs>
</svg>
