<svg width="320" height="194" viewBox="0 0 320 194" fill="none" xmlns="http://www.w3.org/2000/svg">
<g clip-path="url(#clip0_254_2786)">
<path d="M319.643 57.9108L318.357 58.1084L317.074 58.3172C317.231 59.3128 317.428 60.5546 317.402 61.9566C317.376 63.3401 317.149 64.6042 316.982 65.5289L316.952 65.7042L316.967 65.8832C317.015 66.4052 317.16 67.9975 316.58 69.7239L316.517 69.9067L316.509 70.1006C316.446 72.3081 315.944 74.2061 315.498 75.8878C315.417 76.1899 315.339 76.4882 315.264 76.7902C315.194 77.0736 315.123 77.3607 315.056 77.6516C314.677 79.2327 314.208 81.2015 313.183 83.1741L313.116 83.3009L313.078 83.4389C312.751 84.6508 312.086 85.8104 311.101 86.8918L310.989 87.0149L310.911 87.1603C310.577 87.7868 310.142 88.3498 309.614 88.8271C309.161 89.2373 308.714 89.6512 308.254 90.0763C307.016 91.2211 305.737 92.4031 304.332 93.5442C302.652 94.909 300.819 95.1625 300.035 95.2744L299.834 95.3191C298.986 95.5764 298.117 95.707 297.247 95.707C296.396 95.707 295.712 95.5876 295.206 95.5019L294.994 95.4646C290.768 94.7673 287.404 92.4479 284.701 88.3759C284.497 88.0664 284.244 87.7122 283.976 87.3393C283.43 86.5823 282.813 85.721 282.248 84.7291L281.412 83.2599L280.207 84.4457C279.278 85.363 278.27 86.1871 277.215 86.8993L275.962 87.7457L276.984 88.8644C277.665 89.6102 278.453 90.4865 279.207 91.5008C280.412 93.1154 281.214 95.0395 281.661 97.3775C281.679 97.4745 281.698 97.5714 281.72 97.6684L281.731 97.7243C281.98 98.9362 282.393 100.968 281.623 103.362L281.571 103.523L281.56 103.691C281.527 104.321 281.438 104.899 281.296 105.462L281.259 105.615V105.771C281.244 106.763 281.036 107.707 280.642 108.575C280.248 109.444 279.958 110.589 279.653 111.801C279.367 112.931 279.044 114.21 278.575 115.515L278.512 115.69L278.501 115.877C278.449 116.693 278.308 117.942 277.65 119.307L277.52 119.576V119.874C277.52 121.019 277.297 121.962 277.152 122.581L277.085 122.857V122.988C277.07 123.286 277.077 123.677 277.085 124.069C277.092 124.379 277.096 124.688 277.096 124.994V125.329L277.207 125.583C277.308 125.814 277.471 126.135 277.694 126.538C278.367 127.761 278.627 129.155 278.471 130.654L278.382 131.463L279.029 131.907C279.222 132.038 279.404 132.164 279.575 132.288L279.772 132.425L280.003 132.485C281.549 132.884 282.861 133.857 283.698 135.222L283.809 135.409L283.976 135.547C284.095 135.644 284.244 135.763 284.374 135.867C285.597 136.848 287.649 138.489 288.589 141.442C288.66 141.662 288.72 141.893 288.764 142.121C288.805 142.329 288.853 142.538 288.902 142.747L288.928 142.851C289.11 143.642 289.363 144.723 289.437 145.928C289.734 150.753 287.564 154.553 285.909 156.995C284.608 158.912 283.155 160.564 281.586 161.91C279.27 163.894 276.43 166.116 272.914 167.559C271.271 168.234 269.275 168.924 266.926 168.954C266.394 168.961 265.866 168.954 265.335 168.946H265.271C264.963 168.943 264.654 168.935 264.35 168.935C263.944 168.935 263.625 168.943 263.346 168.961C263.082 168.976 262.811 168.987 262.539 168.987C259.837 168.987 257.172 168.13 254.399 166.366C252.343 165.057 250.544 163.491 249.046 161.705L248.135 160.62L247.131 161.619C245.953 162.794 244.637 164.032 242.998 165.128C241.054 166.426 238.76 167.899 236.102 168.961C235.05 169.383 234.028 169.696 233.125 169.976C232.188 170.266 231.303 170.539 230.642 170.848C229.802 171.243 228.924 171.482 227.958 171.572L227.754 171.59L227.564 171.672C227.181 171.836 226.78 171.967 226.371 172.049C224.839 172.366 223.33 172.645 221.865 172.914L221.761 172.933C220.936 173.085 220.107 173.238 219.282 173.395C217.799 173.682 216.427 173.734 215.201 173.783C214.372 173.816 213.587 173.846 213.011 173.954C210.892 174.338 208.911 174.391 207.249 174.391C206.74 174.391 206.227 174.383 205.718 174.379H205.632C205.145 174.372 204.659 174.368 204.172 174.368C203.32 174.368 202.22 174.383 201.228 174.517C198.893 174.827 196.715 174.857 194.611 174.89H194.514C193.998 174.901 193.485 174.909 192.968 174.92C192.429 174.935 191.89 174.954 191.351 174.976H191.28C190.273 175.021 189.232 175.062 188.15 175.062C186.682 175.062 185.392 174.98 184.195 174.816C182.734 174.614 181.221 174.584 179.932 174.584C179.277 174.584 178.627 174.592 177.973 174.599C177.274 174.607 176.571 174.618 175.872 174.618C174.426 174.618 172.508 174.588 170.505 174.342C168.382 174.085 166.208 174.048 164.174 174.048C163.594 174.048 163.015 174.048 162.435 174.055H162.279C161.624 174.059 160.966 174.062 160.312 174.062C159.338 174.062 158.528 174.055 157.758 174.036C156.089 173.995 154.298 173.977 152.279 173.977C149.874 173.977 147.413 174.003 145.031 174.033H144.741L144.618 174.044C144.473 174.059 144.135 174.118 143.871 174.163C143.306 174.264 142.603 174.387 141.812 174.443C141.102 174.495 140.284 174.461 139.737 174.432L139.325 174.409L139.154 174.447C137.808 174.741 136.489 174.928 135.329 175.095C134.061 175.274 132.864 175.446 131.846 175.718C128.441 176.624 125.943 177.474 124.002 178.917C123.456 179.324 122.805 180.032 122.118 180.782L121.846 181.08L121.761 181.356C121.586 181.904 121.408 182.52 121.304 182.922L121.274 183.034L121.267 183.146C120.973 186.752 118.679 188.915 117.817 189.728C116.676 190.805 115.185 191.398 113.617 191.398C113.167 191.398 112.713 191.35 112.271 191.249C110.446 190.839 108.929 189.638 108.108 187.953L108 187.77C107.446 186.991 107.078 186.077 106.933 185.13C106.881 184.787 106.825 184.447 106.766 184.108L106.755 184.048C106.587 183.068 106.401 181.957 106.308 180.76C106.234 179.805 106.253 178.914 106.268 178.198C106.279 177.679 106.286 177.191 106.26 176.829C106.152 175.323 106.442 174.092 106.673 173.298L106.725 173.115V172.929C106.721 172.299 106.781 171.683 106.903 171.109L107.572 167.943L104.9 169.756C104.193 170.233 103.506 170.665 102.796 171.072C100.368 172.459 97.8444 173.798 95.2907 175.047C93.0009 176.166 90.659 176.826 88.5922 177.404L88.2354 177.504C86.2058 178.075 84.3286 178.149 82.9198 178.149C82.4142 178.149 81.9124 178.138 81.4069 178.127H81.2842C80.9125 178.116 80.5445 178.108 80.1727 178.108C79.7824 178.108 79.459 178.119 79.1803 178.138C78.4889 178.187 77.7975 178.119 77.1284 177.937L77.0094 177.903C73.1993 176.867 68.4561 175.573 64.5939 171.635C60.3712 167.324 58.1929 162.29 56.3157 157.499C56.0815 156.902 55.9328 156.253 55.8808 155.556C55.8324 155.03 55.7916 154.501 55.7544 153.975C55.6689 152.871 55.5908 151.831 55.4459 150.887C55.1782 149.153 55.509 147.725 55.7841 146.8L55.8473 146.588L55.8362 146.364C55.7841 145.342 55.7507 144.138 56.0109 142.781C56.2636 141.457 56.6986 140.402 57.0851 139.469L57.1186 139.384C57.2152 139.145 57.3193 138.903 57.4123 138.649C57.7617 137.706 58.3453 136.852 59.0999 136.184L59.795 135.565L59.4381 134.704C58.6612 132.824 58.1111 131.091 57.7617 129.405C57.5424 128.346 57.494 127.38 57.4606 126.679C57.4531 126.519 57.442 126.318 57.4308 126.172L57.4197 126.023L57.3751 125.881C56.7506 123.838 56.7803 122.044 56.8026 120.739V120.601C56.8249 119.356 57.0182 118.241 57.1706 117.342L57.2524 116.854L57.2413 116.697C57.1967 116.082 57.0926 114.635 57.5795 113.05L57.6241 112.908L57.6353 112.759C57.7431 111.264 58.1743 110.033 58.4605 109.213L58.6055 108.792L58.6129 108.598C58.6575 107.431 59.0292 106.301 59.6872 105.339C59.9957 104.888 60.2745 104.127 60.6685 103.016C60.9994 102.08 61.3711 101.017 61.9064 99.9094C62.7279 98.1979 63.646 96.5087 64.7129 94.7486L66.289 92.1459L63.3226 92.7984C62.2521 93.0333 61.0923 93.1527 59.8768 93.1527C59.1891 93.1527 58.4717 93.1191 57.6279 93.0408C57.2561 93.0072 56.8881 92.9401 56.5276 92.8394L53.2899 91.9333L55.0778 94.7896C55.6094 95.6361 55.97 96.6168 56.1261 97.6199C56.2748 98.5745 56.1893 99.3165 56.1447 99.723L56.1373 99.8088C56.0146 101.435 55.2303 102.971 53.9924 104.026C52.8847 104.97 51.4759 105.492 50.0187 105.492C49.8329 105.492 49.6433 105.484 49.4611 105.465L49.2567 105.458C48.5653 105.432 47.4055 105.391 45.9781 104.858C42.2832 103.482 39.5994 101.341 37.6739 99.6298C34.7856 97.0643 32.6779 94.3049 31.2282 91.195C30.5182 89.6699 29.4439 87.3654 29.273 84.4941L29.2618 84.3301L29.2098 84.1735C29.1726 84.0541 29.1317 83.9236 29.0945 83.7856C28.6745 82.2456 28.7042 80.7951 29.1875 79.4676L29.2692 79.2401V78.9977C29.2581 78.6062 29.2581 78.0842 29.3101 77.5062C29.3287 77.3048 29.3399 77.1034 29.3547 76.9021V76.8611C29.4365 75.6343 29.5406 74.1054 30.1651 72.4274C30.455 71.6443 30.7078 70.7494 30.9829 69.7762C31.3397 68.5046 31.7449 67.0615 32.3359 65.5849C33.1203 63.6235 33.9306 61.5987 34.9083 59.5478C35.1796 58.981 35.4547 58.4738 35.7037 58.0189C35.9677 57.5342 36.1795 57.1464 36.2836 56.8891L36.3357 56.7585L36.358 56.6206C36.6553 54.9239 37.317 53.6039 37.8077 52.6232C37.9155 52.4106 38.053 52.1347 38.1199 51.9818L38.172 51.8662L38.2017 51.7432C38.276 51.4262 38.369 51.113 38.4805 50.8072L39.8075 47.2237L35.9379 49.6475C34.5365 50.5275 26.8456 54.2005 23.5336 54.4541L23.1619 54.4839C22.2809 54.551 21.2809 54.6293 20.2215 54.6293C18.9465 54.6293 17.8091 54.5137 16.7348 54.2788C13.5566 53.5815 11.1961 51.6872 9.70183 50.3262C5.74671 46.7241 4.20407 42.1711 3.30451 38.6062C2.35662 34.8512 2.52017 31.2678 2.83985 27.9565C3.13723 24.8876 4.02564 21.9231 4.836 19.3837C5.53855 17.18 6.53848 15.2484 7.42318 13.5405L7.46035 13.466C7.71684 12.9737 7.96961 12.4815 8.21494 11.9856C9.14053 10.1062 10.2371 8.12244 11.9842 6.37359C12.9135 5.44509 15.7349 2.61858 20.0505 2.61858C20.8535 2.61858 21.6713 2.71553 22.4816 2.90943C23.5856 3.17419 24.593 3.73725 25.3959 4.5427L25.9386 5.08712C26.6486 5.79934 27.1764 6.68682 27.4664 7.64887C27.6746 8.33872 27.7898 9.07331 27.8084 9.83401V10.0466L27.8864 10.2479C28.0834 10.7886 28.2024 11.3666 28.247 11.9632L28.3399 13.3205L30.1614 13.1192C30.548 13.0782 30.8825 13.0409 31.0907 13.0073L31.2654 12.9626C32.2244 12.6531 33.1203 12.4778 33.8451 12.3324C34.5849 12.187 34.9566 12.1049 35.1982 12.008C36.5327 11.4859 37.8263 11.2435 38.8857 11.0422C39.4172 10.9415 39.9191 10.8445 40.2722 10.7401C41.0268 10.5164 41.6996 10.4157 42.2721 10.3337L42.4505 10.3076L42.614 10.2367C43.3352 9.91978 44.1195 9.71841 44.9373 9.64011L45.1269 9.62146L45.3016 9.55061C46.242 9.16654 47.2494 9.02111 48.2716 9.12925L48.4686 9.15162L49.0745 9.02857C49.8849 8.85704 50.9926 8.62212 52.2974 8.62212C52.4312 8.62212 52.565 8.62212 52.6951 8.62957C53.0334 8.64449 53.4088 8.62212 53.9144 8.59601C54.3939 8.57364 54.9366 8.54754 55.5239 8.54754C56.6837 8.54754 57.7171 8.65941 58.6761 8.88687C60.6537 9.36044 62.9472 10.0093 65.1478 11.732C65.579 12.0714 66.1291 12.4331 66.7127 12.8171C68.2925 13.8575 70.2627 15.1552 71.9019 17.2694C74.3702 20.4502 77.0354 24.3805 78.0948 29.4219C78.1283 29.5823 78.2063 29.8284 78.3439 30.2535C78.552 30.8949 78.8123 31.6928 78.9907 32.6288L79.0167 32.7593L79.0687 32.8824C79.1245 33.0129 79.1728 33.1471 79.2211 33.2851L79.775 34.9146L81.1913 33.9377C81.5072 33.7214 81.8232 33.52 82.1317 33.341C83.7004 32.4424 85.191 31.8084 86.689 31.402C89.0532 30.7644 91.6812 31.0216 94.3799 32.1888C95.5137 32.681 96.5657 33.4193 97.5024 34.3851L98.3462 35.2577L99.2718 34.4746C99.7959 34.0309 100.346 33.6058 100.907 33.2105C102.469 32.1142 104.268 31.5773 106.401 31.5773C106.788 31.5773 107.13 31.5922 107.424 31.6071H107.513C107.628 31.6183 107.743 31.622 107.859 31.622H107.899C109.587 31.5661 111.182 32.2186 112.379 33.4193C112.572 33.6132 112.762 33.8071 112.947 33.9973L115.051 36.1377L115.356 33.4156C115.453 32.5468 115.475 31.5922 115.483 30.8576C115.509 28.3928 115.174 27.386 114.661 26.629C114.048 25.7191 113.13 23.8099 113.858 21.2221C114.349 19.3054 115.735 17.7356 117.575 17.0159C118.289 16.7362 119.036 16.5982 119.798 16.5982C121.14 16.5982 122.467 17.0494 123.53 17.8661C127.787 21.1363 129.969 24.1232 131.593 28.8738L131.649 29.0118C131.708 29.1423 131.764 29.2691 131.816 29.3958L132.281 30.5667L133.463 30.1416C134.128 29.8992 134.827 29.7799 135.537 29.7799H136.433C137.894 29.7799 139.314 30.3057 140.421 31.2603C141.774 32.4237 143.012 33.8593 144.198 35.6492L146.41 38.9866L146.581 34.9817C146.618 34.0756 146.759 33.2403 147.008 32.4349L147.064 32.2559V32.0657C147.075 31.2454 147.194 30.4698 147.417 29.7538L147.458 29.6233L147.473 29.4891C147.644 27.6805 148.287 26.2375 148.711 25.2829C148.778 25.13 148.863 24.9398 148.919 24.8056L148.975 24.6751L149.001 24.5334C149.633 20.9872 152.186 19.3315 153.275 18.6268L153.532 18.4478C154.695 17.441 156.219 16.8854 157.818 16.8854C158.981 16.8854 160.015 17.1725 160.676 17.4149C165.115 19.0369 166.591 22.7472 167.315 25.3947C167.457 25.9093 167.605 26.3903 167.765 26.8639L167.962 27.4344L169.085 27.8745L169.516 27.7402C169.75 27.6694 170.04 27.5687 170.278 27.4904C170.665 27.3599 171.051 27.2294 171.438 27.1138C173.991 26.3381 176.542 24.9286 179.24 23.4333L179.653 23.2059C182.693 21.5241 185.771 19.9021 188.745 18.3359L188.894 18.2576C190.124 17.6088 191.351 16.9637 192.559 16.3186C193.031 16.0687 193.533 15.8786 194.053 15.7592C194.737 15.5989 195.444 15.5243 196.206 15.5243H196.492L196.707 15.446C197.941 14.9911 199.309 14.9501 200.57 15.3267C200.912 15.4274 201.332 15.528 201.778 15.6325C203.737 16.0911 206.42 16.7213 208.87 18.9475C211.197 21.0617 212.416 23.5564 213.39 25.9354C213.584 26.409 213.766 26.8863 213.985 27.4531L214.312 28.3033C214.624 29.1124 214.762 29.9626 214.721 30.8315L214.635 32.5952L216.892 32.021C217.119 31.9651 217.345 31.9091 217.572 31.8457C218.256 31.6593 218.966 31.5661 219.676 31.5661C221.724 31.5661 223.765 32.3603 225.423 33.8034L226.192 34.4783L226.876 34.277C228.047 33.9339 229.318 33.8295 230.66 33.9787C230.865 34.001 231.066 34.0346 231.266 34.0756L232.842 34.4112V32.7966C232.835 30.5294 234.069 28.4487 236.058 27.371C236.95 26.8863 237.957 26.6327 238.972 26.6327C240.5 26.6327 241.961 27.1995 243.094 28.225C243.228 28.348 243.366 28.4673 243.518 28.5979C244.522 29.4779 245.897 30.6786 246.912 32.6698C246.957 32.7593 247.009 32.8525 247.064 32.9495L247.622 33.8966L248.648 33.5051C249.347 33.2366 250.083 33.1024 250.834 33.1024H252.956C254.629 33.1024 256.25 33.7997 257.402 35.0153C257.67 35.2987 258.004 35.6231 258.324 35.9326L258.38 35.9848C258.558 36.1563 258.74 36.3353 258.93 36.5255L259.707 37.2974L260.595 36.6597C261.372 36.1041 262.212 35.6679 263.097 35.3584L264.022 35.0377L263.97 34.057C263.907 32.8451 263.907 31.7078 263.907 30.6115V30.5332C263.907 30.067 263.907 29.6009 263.9 29.1311C263.885 28.1206 264.126 27.11 264.591 26.2151L264.684 26.0324L264.718 25.831C264.74 25.7042 264.762 25.5551 264.784 25.4283C264.952 24.3656 265.186 22.915 265.97 21.3526C266.658 19.9841 267.576 18.9549 268.245 18.2017C268.476 17.9407 268.699 17.6908 268.873 17.4745C270.081 15.9792 271.881 15.1402 273.817 15.1999C275.717 15.2558 277.512 16.2142 278.616 17.7579C278.698 17.8735 278.78 17.9779 278.85 18.0712L278.891 18.1234C279.241 18.5746 279.716 19.1936 280.129 20.0587C280.583 21.0058 280.939 21.9902 281.192 22.9821L281.43 23.9069L282.382 23.9591L282.802 23.974L283.058 23.8696C283.898 23.5228 284.764 23.3476 285.634 23.3476L286.091 23.355L286.367 23.2282C287.177 22.8516 288.05 22.6055 289.036 22.4787L289.188 22.4601L289.333 22.4041C290.035 22.1357 290.779 21.9679 291.604 21.8933L291.794 21.8746L291.972 21.8038C292.704 21.5055 293.481 21.3526 294.277 21.3526C295.719 21.3526 297.12 21.8635 298.221 22.7957C299.775 24.1045 302.667 26.5432 303.837 30.6376L303.867 30.7457L303.916 30.8464C304.235 31.5064 304.44 32.2112 304.518 32.9346C304.596 33.6468 304.659 34.3516 304.722 35.0563L304.908 37.0848L306.202 36.9655C306.54 36.9357 306.886 36.932 307.231 36.9581C309.205 37.1109 310.993 38.2184 312.012 39.9188L312.149 40.1202C312.547 40.6944 313.29 41.7683 313.595 43.3308C313.87 44.7328 314.439 46.2505 315.045 47.8577C315.379 48.7489 315.725 49.6736 316.056 50.6618C316.331 51.4859 316.476 52.3584 316.502 53.3317V53.5405L316.58 53.7381C316.918 54.6778 317.022 55.6958 316.881 56.6802L316.866 56.7846V56.8928C316.877 57.1986 316.952 57.6908 317.048 58.306L318.335 58.101L319.621 57.8959C319.587 57.6759 319.502 57.1426 319.48 56.904C319.639 55.61 319.509 54.2863 319.1 53.0483C319.056 51.8923 318.866 50.837 318.528 49.8228C318.182 48.7899 317.81 47.8017 317.483 46.9254C316.918 45.4264 316.387 44.0094 316.153 42.8199C315.74 40.7205 314.721 39.2513 314.29 38.6249L314.227 38.5317C312.77 36.1302 310.235 34.5641 307.439 34.3478C307.387 34.3441 307.332 34.3404 307.28 34.3366C307.228 33.7773 307.176 33.2142 307.116 32.6437C307.008 31.6556 306.741 30.701 306.317 29.8023C304.908 25.0032 301.533 22.158 299.905 20.7858C298.332 19.462 296.34 18.7312 294.284 18.7312C293.217 18.7312 292.177 18.9214 291.184 19.3017C290.247 19.4024 289.385 19.6 288.56 19.8983C287.471 20.0512 286.482 20.3197 285.549 20.7261C284.805 20.7336 284.066 20.8343 283.337 21.0207C283.099 20.3085 282.813 19.6037 282.486 18.9176C281.951 17.799 281.326 16.9898 280.954 16.5088L280.913 16.4528C280.861 16.382 280.802 16.3074 280.739 16.2179C279.159 14.0141 276.605 12.6493 273.899 12.571C271.171 12.489 268.576 13.6822 266.859 15.8077C266.703 15.9979 266.509 16.2142 266.308 16.4454C265.587 17.2583 264.498 18.4851 263.654 20.1556C262.684 22.0797 262.405 23.836 262.22 25.0032C262.212 25.0591 262.201 25.1225 262.19 25.1822C261.591 26.409 261.287 27.7738 261.301 29.1423C261.309 29.5972 261.309 30.0559 261.309 30.5108V30.5891C261.309 31.402 261.309 32.2932 261.339 33.2329C260.885 33.4342 260.439 33.6617 260.012 33.9153C259.748 33.6617 259.487 33.4044 259.29 33.1956C257.647 31.4617 255.343 30.4698 252.96 30.4698H250.837C250.153 30.4698 249.477 30.5481 248.815 30.7084C247.633 28.7172 246.206 27.468 245.21 26.5954C245.087 26.4873 244.964 26.3829 244.842 26.271C243.232 24.8093 241.147 24.0001 238.972 24.0001C237.53 24.0001 236.095 24.3656 234.824 25.0517C232.426 26.3493 230.798 28.6687 230.359 31.3088C229.136 31.2267 227.969 31.3162 226.85 31.5698C224.772 29.8657 222.241 28.9335 219.683 28.9335C218.858 28.9335 218.04 29.0304 217.241 29.2169C217.145 28.5755 216.981 27.949 216.743 27.3375L216.42 26.4948C216.197 25.9093 216.003 25.4134 215.806 24.9249C214.721 22.2624 213.338 19.4583 210.625 16.9935C207.673 14.3162 204.488 13.5666 202.376 13.0707C201.986 12.9812 201.584 12.8843 201.32 12.8059C199.599 12.2914 197.741 12.3249 196.042 12.8954C195.142 12.9066 194.302 13.0036 193.473 13.1975C192.734 13.369 192.016 13.6375 191.347 13.9955C190.139 14.6368 188.92 15.2819 187.689 15.9308L187.541 16.0091C184.556 17.5827 181.467 19.2122 178.404 20.9051L177.991 21.1326C175.415 22.5608 172.984 23.9069 170.691 24.6005C170.419 24.6825 170.148 24.772 169.877 24.8615C169.862 24.8056 169.847 24.7496 169.832 24.6937C169.326 22.8442 167.787 17.221 161.576 14.9501C160.717 14.6368 159.372 14.264 157.829 14.264C155.64 14.264 153.543 15.0209 151.919 16.3969L151.878 16.423C150.636 17.2284 147.354 19.3539 146.48 23.9106C146.44 24.0076 146.391 24.112 146.35 24.2052C145.897 25.2269 145.142 26.9236 144.912 29.0938C144.674 29.903 144.533 30.7644 144.492 31.6556C143.741 30.7644 142.956 29.9738 142.131 29.2653C140.548 27.9043 138.529 27.1585 136.448 27.1585H135.552C134.968 27.1585 134.392 27.2182 133.823 27.33C132.054 22.4825 129.567 19.201 125.125 15.7853C123.608 14.6182 121.72 13.9768 119.809 13.9768C118.72 13.9768 117.657 14.1782 116.642 14.5734C114.025 15.5952 112.044 17.8362 111.356 20.5322C110.349 24.1045 111.65 26.7931 112.516 28.0795C112.617 28.2287 112.877 28.6165 112.888 30.4549C111.408 29.463 109.673 28.9446 107.851 28.9969C107.788 28.9969 107.725 28.9931 107.658 28.9894L107.539 28.9819C107.234 28.967 106.855 28.9521 106.416 28.9521C103.729 28.9521 101.443 29.642 99.4279 31.0552C99.1194 31.2715 98.8109 31.4989 98.5135 31.7301C97.5619 30.906 96.5248 30.2535 95.4208 29.7762C92.1831 28.3741 88.9528 28.0758 86.0236 28.8663C84.4438 29.2952 82.8789 29.9365 81.2619 30.8277C81.1132 30.2871 80.9608 29.8135 80.8344 29.4219C80.7935 29.2989 80.6746 28.9297 80.6523 28.8514C79.4851 23.3028 76.6191 19.0593 73.9687 15.6436C72.0655 13.19 69.8947 11.7619 68.155 10.6134C67.6197 10.2591 67.1105 9.92723 66.7648 9.65502C64.1516 7.60785 61.5384 6.86207 59.2932 6.32511C58.1334 6.04917 56.903 5.91493 55.5388 5.91493C54.8846 5.91493 54.2824 5.94476 53.7991 5.96714C53.4609 5.98205 53.1412 6.0007 52.9033 6.0007H52.8029C52.6394 5.99324 52.4721 5.98951 52.3085 5.98951C50.7324 5.98951 49.4165 6.26918 48.5504 6.45189L48.346 6.49291C47.0264 6.38104 45.7291 6.57122 44.5061 7.04106C43.5471 7.15293 42.6215 7.39158 41.7554 7.74955C41.2498 7.8204 40.4395 7.94718 39.5436 8.21194C39.3169 8.27906 38.8559 8.36855 38.3913 8.45432C37.2464 8.67059 35.8227 8.93907 34.2912 9.53943C34.1462 9.58417 33.5886 9.69604 33.347 9.74452C32.5999 9.89367 31.6854 10.0764 30.652 10.3933C30.5851 10.0988 30.5071 9.81164 30.4104 9.53197C30.3695 8.61093 30.2208 7.71599 29.9644 6.8658C29.548 5.49357 28.7972 4.2332 27.7861 3.21521L27.2396 2.66706C26.0947 1.51855 24.6599 0.716839 23.0875 0.340219C22.0801 0.0978406 21.0579 -0.0214844 20.0543 -0.0214844C14.6643 -0.0214844 11.2668 3.37928 10.1516 4.49795C8.13688 6.51529 6.91392 8.71907 5.88797 10.8035C5.65378 11.2846 5.40473 11.7581 5.15939 12.2354L5.11851 12.3137C4.1892 14.1111 3.13723 16.147 2.36405 18.5634C1.51281 21.2295 0.579788 24.3544 0.256391 27.6805C-0.0855929 31.2267 -0.260302 35.0824 0.787952 39.2252C1.78045 43.1443 3.49037 48.1671 7.95846 52.2391C9.67581 53.8053 12.4005 55.9792 16.1846 56.8108C17.4411 57.0867 18.7644 57.2209 20.2253 57.2209C21.3813 57.2209 22.437 57.1389 23.3663 57.068L23.7343 57.0382C26.4962 56.8294 31.4698 54.7599 34.648 53.2385C34.3284 54.0215 34.0273 54.9388 33.8303 55.9867C33.7299 56.1918 33.5217 56.5684 33.4214 56.7548C33.1612 57.2321 32.8638 57.7728 32.5627 58.4067C31.5479 60.5322 30.7227 62.598 29.9235 64.5967C29.2841 66.2001 28.8566 67.7141 28.4775 69.0751C28.2247 69.9701 27.9868 70.8165 27.734 71.4989C26.9757 73.5349 26.8568 75.3509 26.7713 76.6746V76.7156C26.7564 76.8984 26.7453 77.0811 26.7304 77.2601C26.6783 77.8492 26.6709 78.3713 26.6746 78.7926C26.0799 80.5713 26.0539 82.4768 26.5966 84.4569C26.63 84.5762 26.6598 84.6918 26.6932 84.7999C26.9237 88.0925 28.1466 90.714 28.8789 92.2876C30.4848 95.7256 32.7969 98.7609 35.9565 101.569C38.053 103.433 40.9822 105.764 45.0823 107.289C46.9 107.968 48.4315 108.024 49.1675 108.05H49.2716C49.5206 108.076 49.7771 108.087 50.0299 108.087C52.1004 108.087 54.1114 107.345 55.6875 105.999C56.5387 105.275 57.2375 104.392 57.7505 103.411C57.6725 103.609 57.5981 103.769 57.5498 103.843C56.6465 105.16 56.1224 106.692 56.0295 108.281L56.0109 108.333C55.7098 109.198 55.2079 110.634 55.0555 112.405C54.5128 114.269 54.5835 115.895 54.6429 116.708L54.6132 116.883C54.4459 117.868 54.234 119.091 54.2117 120.534V120.672C54.1857 122.044 54.1485 124.099 54.8474 126.478C54.8548 126.579 54.8585 126.694 54.8622 126.787C54.8994 127.578 54.9552 128.656 55.2154 129.916C55.5462 131.516 56.0369 133.145 56.7097 134.868C55.9588 135.696 55.3678 136.665 54.9775 137.713C54.8957 137.937 54.8065 138.149 54.721 138.358L54.6838 138.448C54.2749 139.44 53.7657 140.678 53.4609 142.262C53.1784 143.735 53.1784 145.048 53.2341 146.249C52.9999 147.076 52.5316 148.971 52.8847 151.256C53.0148 152.103 53.0891 153.095 53.1709 154.146C53.2118 154.687 53.2527 155.224 53.301 155.746C53.3716 156.686 53.5761 157.592 53.9069 158.431C55.877 163.472 58.1854 168.782 62.7502 173.44C67.103 177.885 72.2253 179.279 76.3403 180.402L76.4593 180.435C77.4071 180.692 78.3922 180.789 79.3773 180.719C79.5929 180.704 79.8568 180.696 80.1839 180.696C80.5333 180.696 80.8865 180.704 81.2359 180.711H81.3548C81.879 180.726 82.4031 180.737 82.9272 180.737C84.5033 180.737 86.611 180.651 88.9454 179.995L89.3022 179.894C91.4768 179.287 93.9376 178.593 96.4393 177.37C98.9967 176.117 101.528 174.778 103.963 173.388C103.684 174.626 103.587 175.808 103.673 176.99C103.692 177.232 103.68 177.683 103.673 178.119C103.658 178.85 103.64 179.85 103.721 180.927C103.822 182.244 104.019 183.418 104.197 184.455L104.208 184.515C104.264 184.839 104.32 185.163 104.368 185.492C104.569 186.808 105.071 188.076 105.825 189.168C107.007 191.517 109.145 193.188 111.71 193.766C112.338 193.908 112.981 193.979 113.624 193.979C115.854 193.979 117.981 193.136 119.609 191.599C120.56 190.701 123.441 187.986 123.857 183.448C123.936 183.157 124.047 182.773 124.166 182.389C124.705 181.804 125.244 181.226 125.567 180.983C127.173 179.786 129.418 179.037 132.526 178.213C133.396 177.982 134.518 177.821 135.708 177.653C136.864 177.489 138.169 177.303 139.548 177.008H139.611C139.953 177.031 140.421 177.057 140.949 177.057C141.317 177.057 141.667 177.046 142.016 177.019C142.942 176.952 143.719 176.814 144.35 176.706C144.521 176.676 144.737 176.635 144.867 176.62H145.083C147.458 176.591 149.911 176.565 152.302 176.565C154.301 176.565 156.071 176.583 157.721 176.624C158.513 176.643 159.342 176.65 160.338 176.65C161 176.65 161.662 176.65 162.319 176.643H162.476C163.048 176.639 163.624 176.635 164.2 176.635C166.152 176.635 168.23 176.669 170.215 176.911C172.356 177.172 174.374 177.206 175.895 177.206C176.605 177.206 177.315 177.198 178.025 177.187C178.668 177.18 179.307 177.172 179.95 177.172C181.151 177.172 182.552 177.198 183.857 177.377C185.169 177.56 186.578 177.646 188.165 177.646C189.299 177.646 190.366 177.605 191.403 177.56H191.47C191.998 177.538 192.522 177.515 193.046 177.504C193.555 177.489 194.061 177.482 194.566 177.474H194.663C196.841 177.441 199.094 177.407 201.581 177.079C202.424 176.967 203.417 176.952 204.186 176.952C204.662 176.952 205.138 176.96 205.621 176.964H205.707C206.227 176.971 206.748 176.975 207.268 176.975C209.045 176.975 211.175 176.919 213.494 176.494C213.892 176.423 214.617 176.393 215.338 176.363C216.639 176.311 218.115 176.251 219.788 175.931C220.605 175.774 221.427 175.621 222.248 175.472L222.349 175.453C223.824 175.181 225.352 174.901 226.91 174.577C227.423 174.469 227.928 174.316 228.415 174.122C229.605 173.992 230.701 173.682 231.761 173.182C232.255 172.951 233.091 172.69 233.902 172.44C234.85 172.146 235.928 171.814 237.076 171.355C239.968 170.203 242.399 168.641 244.451 167.272C245.823 166.355 246.968 165.374 247.994 164.401C249.458 165.96 251.142 167.35 253.016 168.54C256.22 170.576 259.339 171.568 262.55 171.568C262.874 171.568 263.201 171.557 263.521 171.538C263.744 171.523 264.008 171.516 264.357 171.516C264.651 171.516 264.944 171.519 265.242 171.523H265.305C265.855 171.531 266.401 171.538 266.963 171.534C269.751 171.501 272.04 170.714 273.906 169.946C277.761 168.365 280.809 165.986 283.281 163.868C285.025 162.372 286.634 160.545 288.065 158.438C289.935 155.683 292.385 151.365 292.039 145.741C291.954 144.317 291.671 143.113 291.467 142.232L291.441 142.124C291.4 141.945 291.359 141.766 291.322 141.587C291.258 141.259 291.173 140.931 291.073 140.618C289.894 136.908 287.363 134.883 285.995 133.79C285.932 133.742 285.861 133.686 285.794 133.63C284.686 131.922 283.043 130.669 281.114 130.058C281.159 128.32 280.78 126.705 279.977 125.244C279.85 125.012 279.761 124.845 279.702 124.722C279.702 124.475 279.694 124.226 279.69 123.972C279.683 123.685 279.679 123.39 279.683 123.17V123.148C279.839 122.499 280.088 121.444 280.122 120.135C280.884 118.431 281.04 116.887 281.088 116.19C281.564 114.829 281.891 113.546 282.177 112.409C282.452 111.312 282.716 110.28 283.014 109.627C283.538 108.471 283.824 107.229 283.861 105.928C284.014 105.298 284.11 104.653 284.155 103.966C285.066 100.991 284.56 98.5111 284.285 97.165L284.274 97.109C284.259 97.027 284.24 96.9412 284.222 96.8555C283.698 94.1184 282.739 91.8438 281.296 89.9085C280.832 89.2858 280.356 88.7078 279.884 88.1634C280.211 87.9098 280.534 87.6451 280.85 87.3729C281.203 87.9024 281.553 88.3871 281.876 88.8383C282.121 89.1814 282.356 89.5058 282.545 89.7929C285.668 94.4988 289.604 97.1873 294.57 98.0077L294.775 98.0413C295.299 98.1345 296.18 98.2874 297.254 98.2874H297.258C298.351 98.2874 299.444 98.127 300.503 97.8138C301.481 97.6758 303.815 97.2992 305.982 95.5429C307.451 94.3496 308.759 93.1377 310.038 91.9557C310.48 91.5455 310.922 91.1391 311.369 90.7326C312.079 90.0912 312.67 89.3417 313.134 88.5064C314.309 87.1901 315.123 85.7545 315.558 84.2331C316.692 82.0144 317.212 79.833 317.595 78.2259C317.662 77.9499 317.725 77.674 317.796 77.4018C317.87 77.1109 317.944 76.8238 318.026 76.5255C318.472 74.8475 319.022 72.7667 319.115 70.3392C319.743 68.3405 319.647 66.5618 319.58 65.7937C319.758 64.8018 319.981 63.4818 320.011 61.979C320.041 60.3495 319.829 58.981 319.654 57.8847L319.643 57.9108ZM61.1518 95.7181C60.5868 96.7399 60.0663 97.7504 59.572 98.7721C59.1631 99.6223 58.8471 100.424 58.572 101.166C58.6538 100.793 58.7096 100.409 58.7393 100.025V100.003C58.7951 99.5179 58.9066 98.5111 58.7058 97.2134C58.6278 96.7026 58.5088 96.1992 58.3527 95.707C59.3601 95.7703 60.2522 95.7741 61.1481 95.7181H61.1518Z" fill="#F56D21"/>
<path d="M310.83 54.3337C310.079 53.3605 310.607 52.1561 310.261 51.1194C309.365 48.4272 308.149 45.8393 307.599 43.0277C307.51 42.5802 307.127 42.1887 306.778 41.5995C306.558 41.8643 306.228 42.1477 306.272 42.2297C306.715 43.0762 306.51 44.0233 306.64 44.8996C307.016 47.4129 306.529 49.915 305.767 52.3164C304.782 55.4338 303.797 58.5884 300.827 60.6244H298.704C297.518 59.6437 296.931 58.4654 297.065 56.903C297.321 53.9087 296.73 50.892 297.496 47.8902C297.894 46.3315 297.578 44.564 298.087 43.065C298.451 41.9985 298.295 41.0141 298.462 40.0073C298.63 39.0005 299.065 38.0496 298.927 36.9757C298.723 35.3611 298.619 33.7315 298.444 32.1132C298.422 31.9193 298.161 31.759 298.128 31.5613C297.719 29.145 296.147 27.5639 294.299 26.0053C293.388 26.7398 292.173 26.2887 291.363 26.7324C290.482 27.2172 289.519 26.8704 288.668 27.4819C287.857 28.0636 286.735 28.1046 285.686 28.0002C285.556 27.9853 285.408 28.0599 285.281 28.1158C283.534 28.8877 281.646 28.608 279.94 28.3433C278.43 28.1084 276.672 27.7467 275.531 26.3259C275.687 24.551 275.39 22.8357 274.62 21.2136C274.419 20.796 274.085 20.4455 273.657 19.8451C272.806 20.8967 271.948 21.6648 271.464 22.6231C270.695 24.152 271.011 26.0388 270.052 27.549C270.096 31.0206 269.844 34.4699 271.278 37.8408C272.014 39.5673 273.063 40.7121 274.59 41.4467C275.602 41.9314 276.851 42.5765 277.899 42.1701C279.304 41.6256 280.917 41.9053 282.203 40.9171C282.527 40.6673 283.2 40.8799 283.954 40.8799C283.727 42.0284 283.389 43.0091 283.371 43.9972C283.318 46.5105 282.214 48.7367 281.661 51.1045C281.285 52.7191 280.646 54.2443 280.04 55.7246C279.456 57.1528 278.958 58.663 278.185 60.0054C277.285 61.5678 276.014 62.9251 275.193 64.5174C274.713 65.4459 274.044 66.1171 273.323 66.6951C272.572 67.2954 271.554 67.907 270.665 67.8883C269.673 67.8659 268.58 67.4297 267.836 66.4751C267.126 65.5652 266.613 64.6703 266.937 63.4658C268.03 64.0252 269.051 64.2738 270 64.2116C272.052 63.2048 272.873 61.5268 273.174 59.8413C273.442 58.3423 273.665 56.7538 273.672 55.2212C273.687 52.4506 273.884 49.6875 273.345 46.8909C272.91 44.6386 271.966 42.8338 270.58 41.1222C269.933 40.328 269.122 39.9178 268.189 39.6754C266.457 39.2242 264.863 39.3286 263.517 40.7382C261.61 42.7294 260.707 45.2017 259.978 47.7746C259.599 49.1095 259.402 50.5042 258.751 51.7571C258.763 49.6987 257.956 47.7746 258.093 45.7274C258.149 44.8586 257.703 43.9226 257.357 43.0725C256.421 40.7904 254.48 39.3249 252.979 37.7401H250.856C248.734 40.8985 247.224 44.2471 245.882 47.7373C245.775 46.7678 245.834 45.7908 245.76 44.8288C245.685 43.8891 245.44 42.968 245.325 42.0284C245.102 40.2236 244.782 38.4784 243.567 37.0055C242.786 36.0584 242.031 35.0553 241.478 33.9702C240.89 32.8217 239.927 32.1169 238.998 31.2742C239.102 31.9454 238.946 32.5122 239.203 33.217C239.909 35.156 240.418 37.1845 240.768 39.2429C240.931 40.2124 240.236 40.9171 240.273 41.8158C240.31 42.7331 240.608 43.8406 240.21 44.5342C239.504 45.7722 240.128 47.1295 239.429 48.3675C238.928 49.2587 239.035 50.4967 238.835 51.8279C238.478 52.115 237.946 52.5439 237.641 52.79C237.214 58.2566 235.27 62.735 231.921 66.5907H229.367C228.98 66.0276 228.445 65.4086 228.099 64.7001C227.319 63.1116 227.27 56.8321 227.768 54.9938C228.363 52.79 229.594 50.9703 230.85 49.0723H233.374C233.634 45.0376 232.813 41.4578 230.029 38.5866C228.657 38.4374 227.724 38.8625 227.114 40.0371C226.412 41.387 225.631 42.6958 224.869 44.0494C224.653 43.326 224.282 42.6474 224.274 41.9612C224.252 39.7276 222.944 38.2584 221.431 36.9421C220.854 36.4425 220.048 36.0509 219.204 36.2784C217.974 36.614 216.669 36.8452 215.565 37.4418C213.03 38.814 211.502 41.1595 210.242 43.6691C209.736 44.6759 209.42 45.7759 208.989 46.9058C208.695 46.6298 208.487 46.4322 208.294 46.2495C209.212 44.4745 208.506 42.5168 209.008 40.6375C209.521 38.7059 208.993 36.5208 209.16 34.4661C209.32 32.4861 208.465 30.6366 208.629 29.0257C208.264 28.0823 208.015 27.4148 207.748 26.7585C207.034 25.0059 206.242 23.3242 204.789 22.0004C203.082 20.4492 200.886 20.3261 198.852 19.7146C197.875 20.6021 196.681 19.9644 195.47 20.2478C191.284 22.474 186.935 24.7188 182.653 27.0866C179.608 28.7684 176.575 30.4911 173.252 31.4979C171.341 32.0759 169.49 33.0305 167.208 32.2139C165.044 31.4383 163.238 30.6403 162.364 28.3582C162.004 27.4222 161.702 26.49 161.438 25.5205C161 23.9133 160.383 22.3397 158.613 21.6909C158.286 21.5716 157.74 21.4485 157.565 21.6126C156.695 22.4367 155.272 22.7835 155.067 24.193C154.796 26.05 153.268 27.5714 153.677 29.5962C152.792 30.3196 153.577 31.4122 153.175 32.1393C152.655 33.0827 152.744 34.0149 152.777 34.9621C152.852 37.0465 152.818 39.1161 153.116 41.2229C153.499 43.9189 154.316 46.3725 155.398 48.8075C156.227 50.672 157.405 52.2828 158.576 53.9422C159.688 55.5195 161.167 56.3958 162.598 57.4996C163.751 58.3871 165.063 58.3237 166.256 58.6481C168.167 59.1701 170.241 58.9501 171.932 57.6748C173.241 56.6904 174.412 55.527 175.646 54.4456C176.88 53.368 177.776 51.895 179.337 51.194C179.95 49.6502 181.407 48.8448 182.433 47.6627C182.623 47.4427 182.995 47.3831 183.697 47.0587C182.72 49.3557 181.905 51.2276 181.069 53.0585C179.887 55.6463 178.961 58.3162 177.98 60.9712C176.698 64.4391 175.504 67.9405 174.731 71.5799C174.386 73.2095 173.806 74.7905 173.835 76.4909C173.858 77.8706 173.832 79.2503 173.843 80.6263C173.858 82.2595 173.847 83.8704 174.255 85.5037C174.787 87.6105 175.858 89.4488 176.794 91.3469C177.274 92.3164 178.088 93.1554 178.88 93.9198C179.668 94.6805 180.619 95.2734 181.742 96.1198H183.114C182.957 96.6531 182.924 97.1117 182.705 97.4511C181.259 99.6623 179.839 101.888 179.002 104.42C178.445 106.11 177.653 107.817 177.575 109.548C177.426 112.844 177.136 116.2 177.98 119.463C178.333 120.828 178.761 122.226 179.452 123.438C180.552 125.377 181.876 127.193 183.158 129.024C183.444 129.438 183.905 129.751 184.337 130.034C185.533 130.825 186.678 131.761 187.987 132.29C189.314 132.827 190.489 133.618 191.782 134.192C192.41 134.472 192.979 134.889 193.604 135.258C191.972 136.996 190.024 137.917 187.965 138.607C186.875 138.972 185.645 138.659 184.571 139.2C183.177 138.514 181.467 138.514 180.337 137.25C180.337 136.429 180.11 135.523 180.385 134.807C180.898 133.465 180.56 132.305 180.348 130.985C180.114 129.523 179.474 128.531 178.504 127.584C178.248 127.331 178.069 126.999 178.002 126.902C175.62 127.659 175.036 129.281 175.218 131.321C175.278 131.977 175.084 132.465 174.475 132.753C173.244 131.324 171.542 130.72 169.869 130.031C167.91 129.221 165.795 128.875 163.918 127.782C162.695 127.07 161.453 126.384 160.639 125.25C159.81 124.098 159.465 122.636 159.219 121.264C158.866 119.276 159.379 117.266 159.885 115.357C160.937 111.364 163.011 107.855 165.527 104.611C165.68 104.413 166 104.346 166.405 104.13C166.449 104.592 166.609 104.995 166.483 105.136C165.736 105.957 166.349 107.064 165.881 107.881C165.342 108.824 165.706 109.797 165.594 110.752C165.55 111.129 165.721 111.599 165.553 111.882C164.665 113.381 165.197 114.996 165.174 116.539C165.152 118.072 165.223 119.705 165.724 121.122C166.33 122.841 166.929 124.597 167.832 126.223C168.178 126.846 168.631 127.267 169.092 127.722C169.174 127.804 169.486 127.651 169.906 127.566C169.494 126.988 169.17 126.529 168.799 126.011C168.799 124.034 168.497 121.905 168.88 119.914C169.3 117.729 169.546 115.495 170.167 113.344C170.404 112.52 170.349 111.509 170.817 110.871C171.456 110.003 170.843 109.041 171.456 108.108C172.036 107.228 171.928 105.849 171.992 104.681C172.122 102.168 171.813 99.7742 170.709 97.4026C169.958 95.7917 169.04 94.4008 167.709 93.3978C166.356 92.3835 164.617 91.8391 162.963 92.5252C161.591 93.092 160.286 93.8825 159.119 94.893C156.275 97.3616 154.625 100.565 153.32 103.988C152.74 105.513 152.09 107.075 151.908 108.668C151.692 110.562 151.153 112.382 150.766 114.209C150.283 116.498 149.655 118.792 149.127 121.085C148.592 123.401 147.737 125.571 146.633 127.637C145.785 129.218 145.674 129.158 144.02 130.038C143.945 130.031 143.856 130.045 143.804 130.012C142.012 128.848 142.228 126.801 141.83 125.101C141.507 123.721 141.633 122.189 141.8 120.753C141.983 119.213 141.299 117.837 141.284 116.342C141.265 114.716 141.373 113.112 140.919 111.457C140.317 109.257 139.823 107.042 139.117 104.849C138.377 102.548 136.849 100.874 135.701 98.9053C135.083 98.9986 134.715 97.865 133.939 98.5548C135.017 99.4199 135.422 100.524 135.366 101.888C135.292 103.649 135.556 105.442 135.292 107.165C135.028 108.876 135.076 110.651 134.455 112.318C134.202 112.993 134.719 113.806 134.143 114.492C133.66 115.066 134.366 116.043 133.519 116.528C133.08 120.182 131.336 123.292 129.381 126.298C128.861 127.1 127.987 127.704 127.601 128.55C126.764 130.385 125.08 130.914 123.452 131.369C122.263 131.701 120.757 131.455 120.021 130.43C118.91 128.882 118.14 127.047 117.966 125.105C117.821 123.509 117.858 121.883 117.966 120.283C118.029 119.351 118.207 118.352 118.468 117.509C119.308 114.813 120.218 112.102 121.631 109.641C122.441 108.224 123.545 106.978 124.519 105.655C124.675 107.217 124.809 108.802 124.214 110.036C123.739 111.017 124.166 112.027 123.523 112.997C123.066 113.687 123.493 114.932 123.419 115.924C123.341 116.938 122.995 117.945 123.01 118.952C123.032 120.347 123.211 121.749 123.467 123.125C123.579 123.725 124.043 124.254 124.352 124.818C124.617 125.305 125.021 125.73 125.564 126.093C125.471 125.254 125.385 124.322 125.266 123.393C124.976 121.133 125.999 119.075 126.329 116.912C126.593 115.201 127.021 113.403 127.716 111.77C128.448 110.047 128.601 108.179 129.273 106.441C129.549 105.733 129.433 104.946 129.047 104.103C128.162 102.187 126.958 100.572 125.419 99.185C124.764 98.5958 123.976 98.1708 123.029 98.3274C122.174 98.4691 121.322 98.6406 120.419 98.8084C119.163 100.076 117.743 101.277 116.605 102.701C114.988 104.726 111.91 111.006 111.107 113.731C110.899 114.44 110.847 115.156 110.212 115.719C110.186 115.465 110.182 115.245 110.141 115.033C109.896 113.743 110.606 112.557 110.576 111.315C110.531 109.384 110.981 107.404 110.145 105.528C110.412 104.163 109.806 102.899 109.658 101.583C109.546 100.602 109.126 99.6586 108.911 98.6853C108.305 95.9297 106.866 93.5506 105.561 91.1119C104.216 88.6024 102.339 86.5291 100.328 84.5453C99.0637 83.2999 97.6511 82.3155 96.0267 81.6293C95.7665 81.5212 95.5026 81.3236 95.2424 81.3273C93.0009 81.3571 90.8189 80.5554 88.5588 80.8463C88.135 80.9022 87.6964 80.8537 87.2764 80.8537C87.2541 80.5069 87.1723 80.2944 87.2429 80.2198C89.7483 77.4716 91.7779 74.4176 93.2165 70.9758C93.2834 70.8118 93.6811 70.7894 94.1049 70.6365C94.1049 71.2742 93.9859 71.7626 94.1235 72.1616C95.3464 75.6966 96.6326 79.1981 99.9372 81.4317C100.971 82.1327 102.13 82.651 103.312 82.651C106.461 82.651 108.866 81.1371 110.602 78.5232C112.297 75.9689 113.646 73.2505 114.479 70.1816C114.758 70.5731 115.115 70.8528 115.155 71.1735C115.256 71.9677 115.148 72.7508 115.609 73.5264C116.036 74.2424 116.196 75.1149 116.453 75.9278C116.583 76.3343 116.62 76.778 116.791 77.1658C117.769 79.3994 119.467 80.9432 121.423 82.3602C123.036 83.5311 124.571 84.4148 126.448 84.0046C126.348 83.4304 126.289 82.9494 126.177 82.4758C126.047 81.9202 125.883 81.372 125.724 80.8276C125.582 80.3503 125.296 79.8842 125.289 79.4069C125.244 76.8787 125.266 74.3505 125.27 71.8223C125.27 71.524 125.177 71.0877 125.337 70.946C126.303 70.0585 125.363 68.8131 126.051 67.7653C126.597 66.9337 126.489 65.6622 126.638 64.5808C126.857 62.9662 127.675 61.6275 128.571 60.3298C128.664 60.1919 128.957 60.1919 129.392 60.0576V62.3919C129.392 64.1557 129.333 65.9195 129.411 67.6758C129.485 69.3762 129.586 71.0952 129.898 72.7657C130.073 73.7017 130.028 74.7719 130.381 75.54C131.537 78.0496 132.37 80.8276 135.128 82.2931C136.455 82.9978 136.325 83.1619 136.28 84.8213C136.232 86.7342 136.217 88.6546 136.28 90.5675C136.351 92.6035 136.79 94.5649 137.76 96.3846C138.12 97.0558 138.592 97.5741 139.414 97.7718C139.611 96.6978 139.21 95.5232 139.931 94.55C139.849 92.652 140.867 91.1343 141.592 89.4936C142.198 88.1176 143.228 87.5546 144.666 87.2152C145.332 87.8827 146.008 88.5614 146.614 89.1654C147.079 89.1282 147.365 89.1021 147.826 89.0648C147.618 88.2668 147.365 87.5993 147.28 86.9095C146.99 84.5416 146.127 82.0209 144.748 79.4517C144.521 79.0303 144.354 78.3143 144.555 77.9638C145.611 76.1404 145.99 74.1044 146.585 72.1355C147.194 70.1107 147.8 68.0897 147.718 65.9456C147.599 62.8655 148.094 59.7556 147.268 56.7128C146.874 55.266 146.677 53.7371 146.079 52.3798C145.306 50.6272 144.588 48.7329 142.589 47.8865C142.02 47.6441 141.893 46.641 140.949 46.917C141.068 48.7665 141.102 50.6123 141.332 52.4283C141.566 54.2629 140.968 55.9857 140.778 57.7494C140.589 59.4871 139.968 61.221 139.276 62.8506C138.581 64.4876 137.57 65.9866 136.756 67.4371C135.812 67.5937 135.065 67.6981 134.481 66.8629C134.466 65.0506 133.771 63.3055 133.269 61.5044C132.489 58.7189 130.66 57.0894 128.021 56.2206C128.021 55.8328 127.891 55.389 128.039 55.0758C129.422 52.2008 130.838 49.3407 132.288 46.4993C132.5 46.0854 132.957 45.802 133.355 45.403C133.444 45.7237 133.552 45.8915 133.507 45.9922C132.507 48.2258 132.136 50.5489 132.095 53.01C132.058 55.2846 132.753 57.1416 134.195 58.8122C134.437 58.5698 134.652 58.3535 134.868 58.1372C134.901 52.4768 138.347 47.2302 142.217 44.6908C141.912 43.8965 141.425 43.1172 141.358 42.3043C141.28 41.3833 140.983 40.63 140.54 39.8693C139.395 37.9005 138.232 35.9502 136.481 34.4438H135.585C133.385 36.2747 132.117 38.8103 130.835 41.2229C128.98 44.7169 127.419 48.375 126.452 52.2717C125.921 54.4158 125.188 56.5152 124.79 58.704C124.724 59.0732 124.382 59.3864 123.895 60.1583C123.895 59.1552 123.683 58.443 123.939 58.1708C124.515 57.5518 124.255 56.8955 124.363 56.2541C124.471 55.6202 124.731 55.0087 124.798 54.3748C125.032 52.115 125.155 49.8479 125.701 47.6254C125.895 46.8349 125.53 45.8207 125.894 45.183C126.341 44.4037 126.184 43.6989 126.147 42.9979C126.106 42.1402 126.582 41.428 126.612 40.6561C126.701 38.3628 126.627 36.0621 126.649 33.7614C126.66 32.5719 125.805 31.5091 126.173 30.2711C126.203 30.1704 126.047 30.025 126.002 29.8908C124.746 25.9866 123.248 23.8835 119.843 21.2658C119.817 21.4075 119.72 21.6014 119.78 21.6872C121.371 24.0401 121.69 26.6504 121.657 29.4358C121.635 31.3935 121.53 33.3661 120.995 35.1709C120.345 37.371 119.854 39.6158 119.404 41.8345C118.999 43.8145 118.248 45.6864 117.906 47.6739C117.776 48.4197 117.192 49.0834 117.04 49.8292C116.438 52.7788 115.189 55.4972 114.081 58.2603C112.877 61.2732 110.884 63.8611 109.041 66.4937C107.992 67.9927 106.602 69.4284 104.286 68.8056C103.993 68.4924 103.439 68.1643 103.301 67.7093C102.662 65.5689 101.785 63.477 101.885 61.1651C101.941 59.8637 101.922 58.5586 101.885 57.2572C101.852 55.9894 102.409 54.8632 102.643 53.6663C103.015 51.7533 104.089 50.1238 104.654 48.2892C104.9 47.4875 105.431 46.9393 106.539 46.8088C106.275 48.8038 106.55 50.6048 106.119 52.4954C105.669 54.4605 105.792 56.6457 106.093 58.6667C106.32 60.1695 106.885 61.7505 108.308 63.1675V59.6512C108.308 59.0396 108.171 58.3871 108.331 57.8203C109.119 55.0199 110.148 52.294 111.07 49.5384C111.483 48.3041 111.992 47.1109 111.974 45.7759C111.962 44.7803 112.014 43.7809 111.962 42.7891C111.873 41.0738 111.383 39.5113 110.081 38.2845C109.412 37.6544 108.78 36.9869 108.078 36.2821C106.888 36.3157 105.565 35.9838 104.465 36.7557C102.725 37.9788 101.238 39.5188 100.082 41.2975C99.0413 42.9047 98.231 44.661 97.2943 46.339C97.1604 46.5739 96.8891 46.7342 96.3873 47.1966C96.3873 45.8207 96.6512 44.7467 96.3315 43.8891C95.6401 42.0395 95.0714 40.108 94.0603 38.4076C93.5696 37.5835 92.8225 36.7072 91.9824 36.3455C90.8709 35.8645 89.555 35.5177 88.3135 35.8496C87.2355 36.1404 86.1835 36.6289 85.2096 37.1882C84.3918 37.6581 83.667 38.3181 82.9607 38.9557C81.2173 40.5368 78.8309 43.4677 77.5856 47.0624C77.4258 47.5248 77.1209 47.9685 76.7864 48.3339C76.2288 48.9455 75.9835 49.654 75.7233 50.4296C75.3181 51.6303 74.8683 52.8347 74.3367 53.987C73.7717 55.2138 72.9725 56.3362 72.2588 57.4921C70.5415 60.2776 68.6457 62.9289 66.6607 65.5317C66.0734 66.3035 65.5009 67.1127 64.7724 67.6832C64.0921 68.2165 63.9769 69.1226 63.081 69.5514C62.2372 69.9579 61.7317 71.0243 60.925 71.5725C59.546 72.5084 58.1148 73.4668 56.2748 73.064C55.9849 73.0006 55.6689 73.0566 55.2266 73.0566C54.7656 72.3928 53.8846 71.6918 53.8512 70.9497C53.7954 69.6558 52.71 68.4402 53.5984 66.9673C53.9516 67.2208 54.3939 67.3998 54.6095 67.728C55.1634 68.5782 56.1521 68.5744 56.9105 68.8355C57.5312 69.048 58.5126 68.7049 59.1408 68.3022C61.3339 66.8927 63.4453 65.3377 65.0772 63.2794C66.0065 62.1048 66.9395 60.8332 67.4525 59.4498C68.0212 57.921 69.1512 56.8135 69.8575 55.3928C70.8426 53.4053 71.7793 51.4662 72.2886 49.2624C72.7755 47.1407 73.3071 45.0264 73.4372 42.8674C73.5933 40.272 73.4892 37.6581 73.4632 35.0553C73.4558 34.4848 73.742 33.8173 73.0989 33.3736C73.1324 31.8932 72.4187 30.5843 72.125 29.186C71.3481 25.4832 69.3445 22.4553 67.0956 19.5505C65.5753 17.5891 63.3003 16.5711 61.4046 15.0833C60.1407 14.0914 58.6873 13.7111 57.2933 13.3755C55.7767 13.0138 54.104 13.3382 52.5018 13.2785C50.8588 13.2188 49.3125 14.069 47.6509 13.7521C46.9706 14.7365 45.8443 13.9273 44.9522 14.4568C44.1344 14.9453 43.0006 14.8596 42.0379 15.1467C40.5175 15.5979 38.8634 15.6948 37.4508 16.2467C36.0197 16.806 34.5254 16.8769 33.1017 17.3467C32.1241 17.6674 30.9606 17.701 29.8789 17.8539C28.6782 18.0217 27.4404 17.9098 26.2174 17.8874C22.8645 17.8278 20.9576 15.1169 21.9612 11.869C22.069 11.5259 22.2697 10.974 22.1211 10.8286C21.2549 9.96724 21.9203 8.92314 21.6229 7.93871C21.4705 7.78583 21.2549 7.56955 21.084 7.39802C19.0469 6.90953 17.6455 7.92753 16.3408 9.23264C15.1959 10.3811 14.4487 11.772 13.7425 13.2114C12.6793 15.3741 11.4415 17.4549 10.7055 19.7631C9.94346 22.1496 9.20746 24.6144 8.97327 27.0531C8.70191 29.8498 8.55323 32.7397 9.27808 35.596C10.1145 38.8961 11.2817 41.9351 13.854 44.2732C15.0918 45.403 16.5006 46.4285 18.0767 46.7715C19.6788 47.122 21.4259 46.9468 23.0987 46.82C24.645 46.7007 31.2877 43.8294 32.7114 42.9345C35.3134 41.3012 37.9229 39.6717 40.5807 38.1279C42.9895 36.7296 45.1938 35.0217 47.6918 33.739C48.8961 33.12 50.0819 32.6241 51.5391 31.9752C51.3198 33.5414 51.2603 34.8577 50.922 36.0994C50.5168 37.5984 49.792 39.0079 49.3571 40.4995C48.937 41.9389 48.5765 43.423 47.7698 44.661C46.9037 45.9922 46.9558 47.7746 45.6064 48.8262C45.6436 50.0418 44.402 50.657 44.1901 51.675C43.8444 53.3158 42.681 54.6283 42.417 56.2206C42.1382 57.9284 41.1606 59.241 40.4618 60.7064C39.5734 62.5634 38.8151 64.4652 38.053 66.3744C37.1758 68.5744 36.7557 70.8789 35.9379 73.079C35.5402 74.1491 35.5513 75.3834 35.4473 76.5506C35.3432 77.7214 35.6666 78.9371 34.9938 80.0445C34.9008 80.1974 34.9938 80.4846 35.0458 80.6971C35.1573 81.1073 35.4324 81.5137 35.4138 81.9127C35.3283 83.7996 36.042 85.444 36.8078 87.0884C37.9824 89.6092 39.67 91.6638 41.7665 93.5283C43.7069 95.2548 45.6993 96.6866 48.1378 97.5928C48.8367 97.8538 49.3868 97.783 50.0448 97.8426C50.0671 97.507 50.1228 97.2833 50.0894 97.0707C50.0596 96.8656 49.9779 96.6456 49.8515 96.4853C47.9222 94.0093 47.4055 91.0187 46.9297 88.0542C46.7141 86.7081 46.8777 85.3023 46.8963 83.9226C46.9149 82.4832 46.6361 80.9246 47.1007 79.6381C47.5654 78.3479 46.7996 76.9123 47.8107 75.8011C47.781 73.3773 48.9705 71.2443 49.3645 68.4327C49.7139 69.5216 50.0782 70.1294 50.0708 70.7335C50.0485 73.1796 50.8179 75.4655 51.5131 77.7364C52.2639 80.1862 53.9181 82.9978 56.0555 84.303C56.7209 84.7094 57.4383 85.0264 58.1966 85.4179C60.4046 85.6155 62.6312 85.582 64.646 84.1165C65.5827 83.4341 66.7462 83.009 67.4376 82.0582C69.0397 79.8656 70.2255 77.4231 71.3407 74.9509C71.6306 74.3095 71.8834 73.6495 72.2291 72.8179C75.5486 81.8083 77.3626 81.2005 82.1689 82.9307C82.1169 82.9866 82.076 83.0538 82.0165 83.0911C78.474 85.2762 75.608 88.2407 73.2216 91.5594C71.0656 94.5612 69.0732 97.7084 67.4488 101.09C66.4637 103.141 66.0622 105.435 64.7612 107.333C64.8876 109.197 63.4007 110.782 63.8431 112.699C62.9844 113.683 63.5457 114.873 63.3858 115.958C63.226 117.043 62.9732 118.128 62.9546 119.217C62.9361 120.384 62.8952 121.525 63.3003 122.733C63.7018 123.934 63.5011 125.332 63.7762 126.663C64.2891 129.143 65.3151 131.433 66.3745 133.636C67.8948 136.802 70.4485 139.368 73.0766 141.389C74.8757 142.772 77.028 143.317 79.1691 143.816C80.039 144.018 80.9943 143.85 81.9124 143.85C82.8306 143.85 83.7487 143.887 84.6632 143.839C85.4958 143.794 86.4437 143.358 87.124 143.63C88.1016 144.025 88.8041 143.428 89.5922 143.443C91.9229 143.488 94.2164 143.231 96.5025 142.914C98.5507 142.63 100.48 143.54 102.394 143.395C102.9 143.824 103.353 144.208 103.71 144.51V146.326C102.424 147.78 101.16 148.992 99.5915 149.812C98.2756 150.498 96.9077 151.084 95.5918 151.774C94.2387 152.479 92.737 152.646 91.2984 153.023C89.8412 153.403 88.3469 153.907 86.8712 153.907C83.574 153.907 80.2471 154.358 76.9797 153.504C74.991 152.986 73.0283 152.426 71.757 150.622C71.3853 150.096 71.0916 149.514 70.8351 149.081C70.6344 147.355 70.5675 145.711 70.2144 144.133C70.0211 143.268 69.2888 142.537 68.8985 141.698C68.274 140.348 67.196 139.439 65.9284 138.872C64.9657 138.439 63.9211 138.864 63.174 139.304C62.7502 140.442 62.2484 141.411 62.0514 142.444C61.8692 143.406 61.9845 144.428 62.0179 145.423C62.0551 146.468 61.3562 147.351 61.5235 148.455C61.7837 150.137 61.8581 151.848 62.0105 153.545C62.0179 153.616 62.0179 153.694 62.0439 153.761C63.7538 158.132 65.6125 162.386 68.984 165.832C71.7124 168.613 75.214 169.546 78.7528 170.508C81.3623 170.318 83.9829 170.821 86.5924 170.086C88.648 169.508 90.7148 168.953 92.618 168.024C95.0379 166.839 97.4244 165.578 99.7736 164.232C101.104 163.471 102.335 162.599 103.506 161.681C105.814 159.884 107.561 157.498 109.16 155.081C110.435 153.153 111.256 150.953 111.048 148.518C110.996 147.911 111.029 147.292 111.044 146.68C111.067 145.636 110.847 144.734 110.345 143.745C109.293 141.661 107.873 139.942 106.249 138.32C105.041 137.115 103.558 136.698 101.959 136.485C101.246 136.392 100.562 136.549 99.8034 136.131C99.1863 135.795 98.1344 135.933 97.4169 136.224C96.8928 136.437 96.4058 136.53 95.9263 136.47C93.6588 136.187 91.4917 137.16 89.2391 136.951C89.1647 136.944 89.0644 136.918 89.0123 136.955C87.8563 137.787 86.4326 137.015 85.3323 137.477C84.0573 138.018 82.838 137.768 81.5965 137.861C78.9015 138.066 76.2437 137.671 73.623 137.287C72.1733 136.235 71.612 134.781 71.6269 133.051C71.6269 132.842 71.5749 132.607 71.4745 132.428C70.8091 131.287 71.3407 130.057 71.1957 128.882C71.9429 128.304 71.5117 127.476 71.6381 126.768C71.7756 125.985 71.928 125.205 72.0953 124.43C72.322 123.378 72.612 122.338 72.8053 121.279C73.1175 119.582 73.939 118.064 74.5003 116.461C75.0765 114.813 75.898 113.209 76.6972 111.636C77.5038 110.047 78.448 108.515 79.4368 107.031C81.1504 104.461 82.7785 101.814 85.1315 99.7443C85.9642 99.0135 86.8415 98.3386 87.6927 97.6263C89.3915 96.2056 91.4322 95.5754 93.5362 95.1429C94.1644 95.0124 94.7889 95.1354 95.4245 95.5456C96.5806 96.2914 97.6585 97.1826 98.0377 98.4467C99.0116 101.702 99.6696 103 98.7403 106.337C98.6771 106.561 98.8889 106.852 98.9447 107.116C99.019 107.471 99.2086 107.873 99.1083 108.183C98.599 109.764 98.547 111.446 98.0117 113.012C97.0192 115.913 96.0713 118.821 94.1086 121.279C92.8299 122.882 91.3504 123.975 89.2911 124.143C88.8673 123.192 88.4733 122.349 87.2652 122.211C87.2652 123.483 86.9716 124.713 87.321 125.716C88.3283 128.606 89.6442 131.418 92.1534 133.331C93.3131 134.218 94.4915 135.15 96.2163 135.165C99.19 135.191 101.491 133.834 103.692 132.13C105.06 131.071 105.677 129.464 106.457 127.998C107.647 125.765 108.747 123.486 109.026 120.887C109.427 124.348 109.115 127.793 109.576 131.246C109.974 134.226 110.695 137.018 111.784 139.778C112.802 142.362 114.691 144.253 116.694 145.986C118.077 147.183 119.85 147.814 121.768 147.508C122.397 147.407 122.999 147.15 123.976 146.852C124.698 145.998 125.671 144.86 126.627 143.708C128.292 141.702 129.036 139.189 130.288 136.955C130.634 136.34 131.009 135.71 131.192 135.035C131.634 133.398 131.972 131.735 132.366 130.019C132.842 131.063 133.608 131.996 132.608 133.099C132.455 133.267 132.619 133.696 132.582 133.998C132.351 135.956 133.143 137.734 133.615 139.554C134.065 141.284 134.942 142.899 136.05 144.271C137.778 146.404 139.682 148.474 143.235 147.232C147.525 143.343 148.57 137.619 149.737 131.951C150.406 132.682 150.54 133.577 150.462 134.535C150.294 136.623 150.852 138.618 151.409 140.58C151.811 142.004 152.499 143.335 153.179 144.67C154.443 147.139 156.361 148.88 158.662 150.286C158.993 150.487 159.301 150.726 159.985 151.203C159.245 151.203 158.948 151.155 158.673 151.211C157.156 151.528 155.766 150.726 154.279 150.733C149.774 150.759 145.265 150.7 140.763 150.767C139.306 150.789 137.749 150.834 136.44 151.371C135.47 151.77 134.459 151.453 133.5 152.053C132.708 152.549 131.534 152.449 130.526 152.575C129.809 152.665 129.21 153.235 128.422 153.064C128.274 153.03 128.08 153.321 127.883 153.388C123.791 154.794 120.073 156.838 117.133 160.071C114.832 162.599 113.33 165.522 113.341 169.065C113.341 169.508 113.434 170.094 113.2 170.37C112.594 171.078 113.063 171.846 112.881 172.551C112.68 173.323 112.345 174.035 112.408 174.893C112.501 176.187 112.356 177.503 112.453 178.797C112.553 180.11 112.825 181.407 113.026 182.712C113.066 182.642 113.111 182.575 113.152 182.504C113.297 182.869 113.438 183.238 113.643 183.753C114.676 182.776 115.193 181.982 115.189 180.878C115.189 180.341 116.356 176.485 116.631 176.198C117.858 174.934 118.98 173.528 120.378 172.488C123.322 170.295 126.828 169.206 130.303 168.282C132.868 167.599 135.585 167.491 138.202 166.876C139.217 166.637 140.336 166.898 141.399 166.82C142.488 166.742 143.562 166.41 144.648 166.399C149.079 166.346 153.51 166.294 157.937 166.399C162.379 166.507 166.814 166.205 171.278 166.749C175.824 167.305 180.459 166.596 185.061 167.234C187.611 167.584 190.247 167.346 192.842 167.282C195.377 167.219 197.897 167.267 200.454 166.928C204.238 166.428 208.116 167.111 211.944 166.413C213.981 166.044 216.122 166.257 218.152 165.865C220.483 165.418 222.828 165.019 225.152 164.534C225.917 163.579 227.081 164.247 228.055 163.788C229.898 162.919 231.954 162.513 233.854 161.752C235.905 160.932 237.783 159.742 239.619 158.516C241.701 157.125 243.303 155.193 245.117 153.497C246.749 151.968 247.696 149.965 248.983 148.198C249.154 147.963 249.273 147.683 249.57 147.142C249.904 148.22 250.146 148.947 250.358 149.682C251.581 153.922 253.986 157.311 257.703 159.675C259.279 160.678 260.993 161.454 262.982 161.327C264.275 161.245 265.576 161.323 266.877 161.309C268.193 161.294 269.427 160.861 270.613 160.373C273.241 159.295 275.49 157.568 277.624 155.741C278.858 154.686 279.947 153.392 280.861 152.042C282.326 149.883 283.504 147.545 283.337 144.816C283.274 143.809 282.965 142.817 282.772 141.814C282.073 139.618 279.531 139.002 278.497 136.944C278.263 136.944 277.888 137.06 277.668 136.925C276.631 136.273 275.68 135.471 274.616 134.871C273.512 134.248 272.304 133.819 271.159 133.263C268.743 132.093 266.1 131.462 263.766 130.072C262.576 129.363 261.573 128.461 260.937 127.297C259.506 124.68 258.302 121.969 258.603 118.84C258.692 117.93 258.621 117.002 258.603 116.084C258.603 116.006 258.428 115.928 258.279 115.805C258.183 116.431 258.093 117.013 257.96 117.863C257.38 116.502 257.93 115.566 258.149 114.582C258.919 111.155 259.956 107.803 261.974 104.92C263.208 103.16 264.268 101.031 266.729 100.498C266.885 100.464 266.952 100.009 267.063 99.7518C267.312 100.203 267.331 100.572 267.249 100.915C267.171 101.255 266.896 101.568 266.881 101.903C266.807 103.611 266.821 105.297 266.476 107.012C266.111 108.809 266.446 110.7 266.015 112.568C265.68 114.022 265.888 115.618 265.967 117.147C266.045 118.695 266.253 120.238 266.413 121.782C266.427 121.916 266.535 122.036 266.576 122.17C267.36 124.747 268.699 126.958 270.78 128.707C271.312 129.154 271.765 129.359 272.364 128.904C272.364 128.599 272.475 128.229 272.345 127.998C271.308 126.108 270.992 125.127 270.988 123.505C270.988 122.584 270.929 121.663 271.007 120.749C271.081 119.888 271.464 119.023 271.405 118.184C271.334 117.17 271.49 116.122 271.974 115.432C272.65 114.466 272.234 113.444 272.624 112.467C273.654 109.902 273.925 107.075 275.085 104.525C275.286 104.081 274.91 103.335 275.155 102.955C275.694 102.116 275.297 101.143 275.646 100.393C276.2 99.2074 275.891 98.2267 275.665 97.0446C275.423 95.7843 275.029 94.6395 274.319 93.6886C273.204 92.1933 271.836 90.8919 270.639 89.4563C269.855 88.5166 268.833 87.9722 267.758 87.5322C266.282 86.9281 264.863 86.5739 263.164 87.219C261.755 87.7522 260.58 88.5278 259.517 89.4526C258.406 90.4184 257.64 91.7831 256.551 92.7788C254.373 94.77 253.034 97.2012 251.915 99.8301C251.005 101.974 250.22 104.193 249.358 106.352C248.455 108.619 247.882 110.965 247.235 113.277C246.053 117.494 244.265 121.402 242.143 125.187C241.288 126.708 240.351 128.181 238.853 129.274C237.571 128.17 237.24 126.727 237.11 125.328C236.79 121.86 237.307 118.408 237.537 114.951C237.548 114.813 237.6 114.671 237.649 114.537C238.411 112.374 238.779 110.107 239.37 107.896C239.519 107.344 239.727 106.803 239.812 106.244C239.905 105.655 239.701 104.95 239.95 104.461C240.623 103.141 240.102 101.78 240.284 100.46C239.05 98.208 238.887 95.3331 236.303 93.8079C235.511 93.6476 234.601 93.3754 233.671 93.2933C232.612 93.2001 231.534 93.271 230.467 93.271C229.932 93.271 229.397 93.2449 228.865 93.2747C226.832 93.3903 225.04 92.9428 223.787 91.1231C223.936 89.777 223.382 88.5427 223.04 86.9318C221.453 88.4048 220.546 89.7994 220.579 91.6974C220.587 92.0815 220.687 92.5028 220.564 92.8384C219.802 94.8707 219.929 96.8731 220.564 98.9053C220.68 99.282 220.527 99.7406 220.483 100.389C219.193 98.8382 218.308 97.2572 216.316 96.4853C215.635 96.4853 214.639 96.4778 213.647 96.4853C211.405 96.5039 209.688 97.7941 208.268 99.2335C206.87 100.647 205.837 102.429 204.781 104.174C203.365 106.516 202.335 108.981 201.343 111.494C201.031 112.285 200.67 113.06 200.443 113.877C200.213 114.712 200.391 115.82 199.901 116.383C199.228 117.158 199.982 118.27 199.049 118.818C198.893 121.238 198.008 123.557 198.101 126.022C198.131 126.794 198.254 127.573 197.815 128.427C197.499 129.042 198.023 130.075 198.12 130.929C198.153 131.246 198.031 131.582 197.964 132.022C196.574 131.548 195.51 130.81 194.288 130.392C193.183 130.016 191.994 129.508 190.897 129.236C189.615 128.916 188.801 128.009 187.671 127.569C185.195 126.6 184.359 124.307 183.991 122.043C183.411 118.486 184.415 115.055 185.864 111.826C186.864 109.604 188.162 107.512 189.723 105.614C189.983 105.3 189.79 104.402 190.775 104.909C190.775 105.67 191.057 106.658 190.7 107.269C190.303 107.955 190.466 108.567 190.336 109.201C190.21 109.831 189.886 110.461 189.909 111.08C190.039 114.541 189.459 118.031 190.336 121.465C190.871 123.557 191.905 125.418 192.901 127.293C193.098 127.666 193.529 127.939 193.897 128.185C194.009 128.259 194.284 128.084 194.544 128.009C194.447 127.748 194.429 127.487 194.288 127.357C193.28 126.425 192.927 125.269 193.098 123.941C193.217 123.005 193.425 122.08 193.544 121.141C193.722 119.75 193.589 118.247 194.102 117.005C194.451 116.163 194.169 115.339 194.507 114.649C195.533 112.549 195.484 110.185 196.265 108.023C196.629 107.016 196.685 105.867 196.745 104.778C196.927 101.396 195.912 98.3758 194.042 95.5568C193.083 94.11 191.752 93.2449 190.239 92.872C188.719 92.4991 187.117 92.7489 185.994 94.1659C185.935 94.2405 185.704 94.1771 185.392 94.1771C185.065 92.4581 184.686 90.7055 184.403 88.938C184.221 87.782 184.641 86.5739 183.969 85.4328C183.734 85.0375 183.712 84.1687 183.98 83.889C184.641 83.1955 184.307 82.4497 184.381 81.7375C184.53 80.3466 184.47 78.9632 184.745 77.5424C185.128 75.5512 185.441 73.519 185.704 71.5016C185.961 69.544 186.615 67.6795 186.738 65.6883C186.812 64.4801 187.426 63.3018 187.801 62.1122C187.838 63.6001 188.418 64.9537 188.459 66.3259C188.511 68.0449 189.05 69.6185 189.466 71.222C190.031 73.3922 192.202 74.88 194.399 74.8912C194.782 74.8912 195.165 74.8763 195.544 74.8912C196.477 74.9397 197.232 74.6153 197.919 73.9739C199.335 72.6539 200.484 71.1474 201.343 69.4134C202.179 67.7205 203.012 66.0239 204.094 63.8238C204.094 65.3191 204.034 66.2998 204.112 67.2656C204.186 68.2053 204.439 69.1263 204.543 70.066C204.647 71.0318 204.588 72.0237 204.74 72.982C204.896 73.9664 205.313 74.9098 205.454 75.8943C205.889 78.9594 207.443 81.1073 210.086 82.7741C211.699 83.7921 213.171 84.3477 214.963 83.9897C215.598 83.3521 216.23 82.789 216.773 82.1514C217.189 81.6629 217.65 81.1222 217.817 80.5256C218.613 77.7103 219.594 74.9471 220.144 72.0647C220.46 70.3979 220.866 68.7497 221.323 66.6839C221.568 68.8578 221.773 70.6067 221.962 72.363C221.996 72.665 221.854 73.0379 221.984 73.2729C222.654 74.4624 222.709 75.9166 223.456 77.0241C224.282 78.2509 225.36 79.31 226.341 80.4286C226.969 81.1446 227.791 81.372 228.716 81.3347C229.315 81.3124 229.917 81.331 230.4 81.331C232.207 79.8022 233.129 77.8109 234.203 75.8905C234.337 77.6208 234.433 79.3025 234.3 80.9656C234.218 81.9724 233.694 82.9419 233.887 83.9935C233.987 84.5528 234.314 85.0935 234.314 85.6416C234.314 87.5769 234.846 89.3519 235.712 91.0448C237.504 94.5388 240.545 96.0341 244.474 96.5338C244.373 95.967 244.37 95.5344 244.217 95.1615C242.868 91.8279 242.433 88.3041 242.147 84.7653C242.017 83.1656 242.124 81.551 242.124 79.9401V73.7613C243.775 75.32 244.968 76.9794 247.38 77.6469C247.466 77.6469 248.009 77.5984 248.533 77.658C249.99 77.8221 251.087 77.233 252.064 76.1963C253.577 74.5966 254.978 72.9596 255.64 70.7782C255.978 69.6707 256.532 68.6304 257.012 67.5117C257.291 67.81 257.685 68.0449 257.673 68.2537C257.595 69.5514 258.216 70.6365 258.629 71.7776C260.257 76.2895 262.878 79.8618 267.799 81.0849C269.598 81.5324 271.501 81.7114 273.174 80.7083C275.828 79.116 277.765 76.7892 279.233 74.0858C280.657 71.4569 281.345 68.5297 282.452 65.7703C283.118 64.1147 283.467 62.3546 284.058 60.6878C284.909 58.2789 285.3 55.7656 285.56 53.3008C285.82 50.8621 286.419 48.4122 286.136 45.9139C286.099 45.5932 286.352 45.2464 286.441 44.9033C286.512 44.6199 286.668 44.2508 286.556 44.0532C285.668 42.4833 286.359 40.809 286.088 39.1981C289.277 37.1808 291.742 34.2946 295.24 32.7322C296.124 33.2803 295.905 34.3543 295.671 35.1262C295.128 36.916 294.753 38.732 294.314 40.5405C293.868 42.3826 292.927 44.0979 292.34 45.9139C291.708 47.8716 290.742 49.6913 290.166 51.6825C289.638 53.5171 288.879 55.2995 288.433 57.1565C287.965 59.1067 286.95 60.9339 287.036 63.0146C286.3 63.8499 286.932 65.0208 286.512 65.7778C285.887 66.9002 286.404 68.0226 286.088 69.0629C285.731 70.2226 285.553 71.3711 285.671 72.5569C285.776 73.5712 286.073 74.5742 286.092 75.5848C286.11 76.7184 286.556 77.6767 286.92 78.6984C287.567 80.5032 288.816 81.909 289.846 83.464C291.351 85.7349 293.18 87.4166 296.024 87.8864C296.831 88.0207 297.41 88.181 298.247 87.8715C298.946 87.6142 299.927 87.7298 300.503 87.26C302.247 85.843 303.864 84.2694 305.533 82.7592C305.7 81.5473 307.406 81.1968 307.198 79.7723C308.469 77.9825 308.833 75.8197 309.346 73.7837C309.837 71.8335 310.488 69.8534 310.406 67.7764C310.395 67.4707 310.272 67.0456 310.424 66.8778C311.331 65.8673 310.666 64.6815 310.856 63.6001C311.041 62.5187 311.276 61.4336 311.298 60.3447C311.335 58.3311 310.551 56.3697 310.863 54.33L310.83 54.3337ZM53.7768 55.6873C53.8066 54.7514 54.1002 53.8266 54.2043 52.8907C54.3084 51.9472 53.9962 50.9516 54.6578 50.0865C54.7693 49.9411 54.7099 49.6316 54.669 49.4116C54.3828 47.8939 55.1411 46.503 55.1745 45.0078C55.2042 43.6579 55.5685 42.3304 55.996 41.0066C56.3975 39.7724 56.1521 38.3293 56.5499 37.095C57.3008 34.7868 56.7246 32.4563 57.0517 29.9765C58.9586 28.8579 61.0328 29.6372 62.8431 29.3538C63.6275 30.1443 64.3151 30.8379 65.04 31.5688C65.8615 33.4929 65.6682 35.6743 65.6645 37.8333C65.6645 38.8103 65.9024 39.9775 65.4675 40.7195C64.9359 41.6219 65.7797 42.7667 64.7538 43.423C64.7129 46.1376 63.7576 48.636 62.91 51.153C61.7503 54.5948 60.111 57.8203 58.2487 60.919C57.4718 62.2092 56.0258 62.7573 54.6876 63.3987C54.0259 63.2421 53.7397 62.8207 53.7471 62.1122C53.7694 59.9681 53.7099 57.824 53.7768 55.6836V55.6873ZM84.3992 67.9927H82.8529C82.4663 67.6049 81.9496 67.1612 81.5296 66.6391C81.221 66.2588 80.801 65.7628 80.8307 65.3452C80.9868 63.1041 80.5631 60.878 81.1169 58.5996C81.5407 56.8545 81.9719 55.1541 82.5815 53.4537C83.4253 51.0971 84.1948 48.7553 85.6966 46.6969C86.2355 45.9586 86.6259 45.0898 87.1165 44.2955C87.492 43.6915 87.8302 43.3521 88.4324 43.0277C89.0012 42.7219 89.4398 41.8792 90.1535 42.2819C90.9861 42.748 91.737 43.6392 91.7333 44.5491C91.7259 46.3203 92.2723 48.1661 91.3356 49.8702C91.3802 52.8944 90.0568 55.6314 89.3989 58.5027C88.9231 60.5834 88.0644 62.6902 87.0571 64.6255C86.3842 65.912 85.2431 66.9561 84.4067 67.989L84.3992 67.9927ZM159.822 138.786C158.387 138.051 156.498 138.245 155.435 136.59C156.368 133.491 156.253 130.441 154.261 127.282C153.342 126.257 152.235 126.898 150.952 128.155C151.168 126.712 151.071 125.548 151.54 124.687C152.138 123.58 151.566 122.405 152.194 121.268C152.662 120.417 152.064 119.068 153.108 118.132C153.684 119.884 154.101 121.607 155.015 123.158C156.004 124.84 156.937 126.559 158.268 127.991C161.093 131.034 161.115 131.011 165.609 132.809C166.486 133.845 168.2 133.763 168.865 135.12C166.23 137.477 163.249 138.682 159.829 138.782L159.822 138.786ZM208.041 120.738C208.573 119.854 207.744 118.628 208.643 117.774C208.45 114.787 210.242 112.236 210.476 109.343C211.673 107.139 211.959 104.379 214.717 102.91C215.572 102.75 215.847 103.66 216.431 104.074C216.431 105.759 216.394 107.448 216.442 109.13C216.49 110.834 216.308 112.527 216.818 114.246C217.134 115.305 216.992 116.558 216.476 117.733C216.044 118.717 216.554 119.873 216.141 121.036C215.747 122.144 215.721 123.464 215.52 124.687C215.245 126.391 214.795 128.039 214.137 129.632C213.896 130.221 213.762 130.87 213.439 131.406C212.814 132.454 211.941 133.26 210.573 133.592C209.952 133.353 209.405 132.76 209.101 131.981C208.629 130.776 208.078 129.602 208.142 128.226C208.175 127.532 207.811 126.827 207.733 126.119C207.658 125.437 207.651 124.735 207.733 124.053C207.859 122.949 207.38 121.823 208.034 120.731L208.041 120.738ZM195.247 149.369C197.206 147.821 198.369 145.748 199.919 143.939C200.376 143.406 200.663 142.727 201.09 142.011C201.596 142.675 202.276 143.268 202.573 144.014C203.268 145.748 204.811 146.602 206.201 147.441C207.235 148.063 208.32 148.966 209.707 148.899C211.718 150.103 213.342 149.04 214.862 147.899C216.108 146.967 216.903 145.606 217.624 144.234C218.085 143.358 218.483 142.444 218.933 141.493C219.1 141.851 219.241 142.157 219.416 142.53C220.568 141.195 220.884 139.535 221.442 138.01C222.33 135.583 222.962 133.096 223.367 130.519C223.624 128.886 223.877 127.23 224.226 125.604C225.118 121.476 224.479 117.3 224.668 113.153C224.772 110.86 224.256 108.675 223.479 106.527C223.293 106.009 223.345 105.405 223.252 104.514C224.352 105.539 225.118 106.33 226.326 106.665C227.426 106.971 228.333 107.135 229.411 106.628C230.831 105.96 232.326 105.483 233.541 104.405C234.233 103.79 235.065 103.339 236.032 102.679C236.076 103.268 236.229 103.671 236.114 103.969C235.076 106.676 234.233 109.473 232.798 112.012C230.69 115.738 229.274 119.761 228.029 123.811C227.467 125.634 227.077 127.592 226.861 129.572C226.65 131.511 226.568 133.431 226.512 135.367C226.501 135.751 226.348 136.273 226.538 136.493C227.378 137.458 226.776 138.644 227.133 139.7C227.519 140.841 228.374 141.821 228.341 143.108C229.984 144.439 230.672 146.71 232.857 147.553C233.775 147.907 234.757 148.239 235.619 148.175C237.006 148.071 238.481 147.683 239.522 146.613C241.403 144.678 243.173 142.735 244.005 139.972C244.611 137.966 245.615 136.06 246.262 134.02C246.882 132.055 247.444 130.072 248.012 128.091C248.644 125.888 249.023 123.613 249.615 120.884C250.232 124.02 251.986 126.115 253.235 128.438C254.12 130.079 255.8 131.358 257.51 132.335C262.008 134.897 266.61 137.235 271.568 138.779C272.721 139.137 273.843 139.558 274.832 140.609C273.795 141.743 272.724 142.325 271.65 142.947C269.375 144.271 267 145.364 264.565 146.322C262.978 146.945 261.283 147.318 259.606 146.997C258.74 146.833 257.978 146.117 257.298 145.725C257.105 143.264 257.12 140.997 256.67 138.831C256.436 137.708 256.495 136.332 255.48 135.437C254.603 134.662 253.715 133.901 252.941 133.23C251.685 133.409 251.246 134.211 250.797 134.997C250.336 135.803 249.834 136.586 249.432 137.417C248.849 138.626 248.321 139.864 247.797 141.102C246.827 143.387 244.291 146.445 242.206 148.205C239.266 150.685 235.794 151.904 232.378 153.318C231.53 153.668 230.571 153.758 229.661 153.944C228.813 154.116 227.962 154.294 227.099 154.395C226.308 154.488 225.501 154.268 224.743 154.831C224.449 155.051 223.854 154.869 223.393 154.869H200.257C196.373 154.097 192.414 154.772 188.548 154.313C186.072 154.019 183.623 154.101 181.169 153.933C180.385 153.881 179.619 153.612 178.839 153.497C178.125 153.392 177.33 153.713 176.727 153.038C176.66 152.963 176.434 153.038 176.281 153.027C174.129 152.874 171.977 152.747 169.828 152.553C169.118 152.49 168.434 152.206 167.724 152.124C167.059 152.05 166.375 152.109 165.405 152.109C165.672 151.673 165.78 151.259 165.973 151.214C168.3 150.685 170.211 149.473 171.917 147.829C173.564 146.244 174.999 144.525 175.887 142.41C176.936 142.493 176.72 143.41 176.995 143.902C178.72 146.997 180.972 149.551 184.154 151.155C184.757 151.457 185.448 151.789 186.243 151.673C186.719 151.606 187.299 151.442 187.712 151.994C187.805 152.121 188.147 152.154 188.336 152.094C190.704 151.367 193.139 151.028 195.25 149.357L195.247 149.369ZM202.919 35.816C202.822 36.2411 202.711 36.6699 202.696 37.0987C202.562 40.3876 201.923 43.6094 200.778 46.6485C200.109 48.4272 199.44 50.2245 198.718 51.9957C197.867 54.0914 196.96 56.1833 196.306 58.3423C195.496 61.0122 194.072 63.3913 193.016 65.9418C192.827 66.4005 192.317 66.7249 191.957 67.1127L191.236 66.3893C191.236 62.9736 191.202 59.5281 191.258 56.0863C191.273 55.0758 191.529 54.0653 191.697 53.0585C191.853 52.1262 191.317 51.1232 192.117 50.2282C192.343 49.9747 192.21 49.3333 192.143 48.8821C191.816 46.6858 192.444 44.5491 192.704 42.4199C192.905 40.7941 193.057 39.1086 193.834 37.1174C195.971 34.7011 198.997 32.9336 201.707 30.7783C201.848 30.6664 202.153 30.7633 202.48 30.7633C203.413 32.3556 203.317 34.0709 202.923 35.8197L202.919 35.816ZM220.583 56.0826C220.007 57.7606 219.695 59.5244 219.171 61.221C218.286 64.0736 216.929 66.7137 215.476 69.3202H213.862C213.803 69.1934 213.691 69.0666 213.691 68.9361C213.68 66.9524 213.643 64.9686 213.703 62.9848C213.729 62.0339 213.558 61.0905 213.918 60.1061C214.215 59.3006 213.788 58.1484 214.215 57.4996C214.781 56.6382 214.163 55.5121 215.059 54.8558C215.282 52.1523 216.52 49.8404 217.78 47.5099C218.364 46.4322 218.858 45.3956 220.252 44.9667C220.557 45.3956 220.906 45.884 221.475 46.682C221.475 47.7522 221.431 49.3557 221.486 50.9554C221.55 52.7378 221.159 54.4046 220.583 56.0789V56.0826ZM252.432 46.8237C252.336 47.2451 252.176 47.6739 252.187 48.0953C252.25 50.396 251.733 52.652 251.172 54.811C250.529 57.2684 249.86 59.7481 248.997 62.1607C248.295 64.1259 247.325 65.953 246.146 67.6198C245.693 68.2612 244.838 69.2419 243.492 68.8168C243.994 63.2906 245.195 57.9247 247.035 52.693C248.384 48.856 249.596 44.9555 252.458 41.3385C252.663 43.464 252.815 45.1383 252.432 46.8237ZM269.728 45.1159C270.078 45.8057 270.494 46.242 270.472 46.6522C270.383 48.2668 270.892 49.9225 270.081 51.5072C269.866 51.9286 270.119 52.5662 270.037 53.0883C269.747 54.9378 269.539 56.8209 269.015 58.6071C268.803 59.3268 268.465 60.6431 267.019 60.1098C264.55 55.6985 266.747 49.0648 269.732 45.1196L269.728 45.1159Z" fill="white"/>
<path d="M87.9568 117.587C88.3099 117.628 88.6593 117.688 88.9939 117.766L89.9975 118.001L90.4547 117.072C91.0643 115.834 91.5625 114.373 92.094 112.825L92.2055 112.504C92.3171 112.176 92.41 111.673 92.5438 110.92C92.6033 110.584 92.6665 110.215 92.7445 109.827L92.7966 109.562L92.7408 109.298C92.5141 108.239 92.5438 107.187 92.8263 106.173C92.8672 106.027 92.8969 105.904 92.923 105.796L93.8002 102.086L90.5439 104.715C90.0533 105.114 89.5849 105.49 89.1723 105.856C87.6891 107.161 86.4885 108.981 85.0982 111.084L84.5332 111.938C83.5258 113.452 82.7713 114.716 82.1579 115.92L82.0984 116.036C81.8866 116.453 81.6784 116.864 81.4777 117.266L81.0056 118.221V114.999L79.5113 121.234L78.883 122.498L79.2845 122.181L78.3255 126.186C78.2437 126.533 78.1582 126.879 78.0838 127.226C77.9798 127.696 77.8831 128.177 77.7902 128.688L77.7642 128.826V128.968C77.7939 129.881 77.6935 130.746 77.4742 131.537L77.0393 133.077L78.634 133.192C79.1544 133.23 79.6265 133.248 80.0763 133.248C80.4443 133.248 80.8011 133.237 81.1394 133.211L83.0538 133.081L82.3512 131.399C82.0761 130.735 81.8048 130.027 81.5297 129.232C81.184 128.237 81.013 127.185 81.013 126.011V120.816L83.4552 118.873C84.7153 117.87 86.3621 117.401 87.9605 117.583L87.9568 117.587ZM86.6929 113.388L87.2654 112.527C88.243 111.046 89.1202 109.719 90.0198 108.694C90.0458 108.984 90.0867 109.275 90.1388 109.57C90.0793 109.887 90.0235 110.189 89.9715 110.495C89.912 110.841 89.7968 111.49 89.741 111.658L89.6295 111.979C89.2578 113.071 88.9009 114.115 88.5218 115.029C88.4326 115.018 88.3434 115.007 88.2504 114.995C87.3694 114.895 86.4662 114.928 85.6 115.096C85.9234 114.563 86.284 114 86.6892 113.392L86.6929 113.388Z" fill="white"/>
<path d="M146.053 96.8697L145.8 97.7497C145.759 97.8914 145.711 98.0368 145.663 98.1748L145.585 98.3836V98.6074C145.573 99.2487 145.521 99.8305 145.421 100.379C145.291 101.087 145.042 101.762 144.678 102.385L144.358 102.933L144.588 103.522C144.663 103.709 144.733 103.899 144.8 104.096L145.971 107.464L147.242 104.137L147.566 103.298C148.004 102.15 148.7 100.412 149.674 98.6111L150.83 96.4707L148.41 96.6907C148.332 96.6982 147.097 96.8026 147.094 96.8026L146.049 96.8734L146.053 96.8697Z" fill="white"/>
<path d="M208.688 92.9124L211.272 91.749L208.707 90.5408C208.086 90.25 207.473 89.9069 206.781 89.4706C203.923 87.6658 201.841 85.3614 200.596 82.6169L200.09 81.502L198.949 81.942C197.767 82.3969 196.522 82.5945 195.195 82.5274H195.154H194.838C194.7 82.5274 194.559 82.5274 194.422 82.5274H194.336C193.574 82.5274 192.805 82.4416 192.057 82.2776L190.615 82.0054L190.478 83.564V83.6498C190.522 84.5037 190.455 85.3204 190.288 86.0699L190.229 86.3383L190.281 86.6068C190.321 86.8194 190.355 87.0207 190.381 87.2184L190.5 88.1282L191.392 88.3258C191.481 88.3445 191.57 88.3669 191.66 88.3892C194.764 89.1499 197.34 90.9659 199.116 93.6433C199.826 94.7097 200.443 95.8135 200.953 96.9172L201.793 98.737L203.112 97.2305C203.365 96.9396 203.625 96.66 203.889 96.3952C204.596 95.683 206.246 94.0124 208.692 92.9087L208.688 92.9124ZM202.458 94.1392C202.098 93.4829 201.704 92.8341 201.28 92.2002C199.265 89.1648 196.395 87.0431 192.942 86.0363C192.994 85.7231 193.031 85.4024 193.057 85.078C193.481 85.119 193.905 85.1414 194.329 85.1414H194.422C194.574 85.1414 194.726 85.1414 194.871 85.1414H195.102C196.369 85.201 197.574 85.0668 198.748 84.7536C200.235 87.5092 202.466 89.8361 205.398 91.6856C205.417 91.6968 205.436 91.708 205.454 91.7229C204.112 92.5917 203.109 93.509 202.458 94.1429V94.1392Z" fill="white"/>
<path d="M256.384 82.125L255.41 82.9379C253.666 84.3922 251.689 85.1902 249.537 85.3132L248.191 85.3878L248.314 86.7339C248.447 88.2031 248.6 89.3814 248.789 90.4367L249.254 93.0358L251.031 91.0856C251.466 90.6083 251.923 90.1496 252.399 89.7171L252.432 89.6872C252.577 89.5455 252.785 89.292 253.165 88.8147C253.718 88.1173 254.477 87.1665 255.473 86.2976C255.986 85.8502 256.514 85.4325 257.042 85.0596L258.246 84.2057L257.25 83.1132L256.387 82.125H256.384Z" fill="white"/>
<path d="M153.32 87.5103L153.354 87.6743C153.38 87.7713 153.409 87.872 153.439 87.9727L153.469 88.0771C153.558 88.3754 153.647 88.6849 153.733 89.0093C153.822 89.3523 153.882 89.7103 153.911 90.0646L154.105 92.4548L156 90.9968C157.402 89.9191 158.948 89.0242 160.599 88.3418C162.413 87.5923 164.405 87.3872 166.357 87.7415L168.092 88.0547L167.877 86.2984C167.706 84.8888 167.695 83.5837 167.687 82.4352V82.1817C167.68 81.5515 167.684 80.9176 167.687 80.2874V80.2352C167.687 79.5192 167.695 78.807 167.68 78.0911C167.646 76.0364 168.107 74.2316 168.449 72.8781C168.55 72.4828 168.643 72.1099 168.71 71.7967C168.951 70.6556 169.249 69.4549 169.591 68.2244L170.059 66.5464L168.148 66.5687C166.977 66.5687 165.799 66.4084 164.647 66.0989L164.591 66.084C164.468 66.0579 164.342 66.0355 164.215 66.0131L164.119 65.9982C162.9 65.7894 160.859 65.4389 158.844 63.8877C158.599 63.7012 158.353 63.5185 158.112 63.3432L158.052 63.3022C157.435 62.851 156.74 62.3439 156.019 61.7174L153.867 59.8418V62.7019C153.867 63.3992 153.852 64.0704 153.837 64.667C153.815 65.5694 153.792 66.4233 153.822 67.2101C153.945 70.4021 153.105 73.1838 152.428 75.4174C152.313 75.8015 152.205 76.193 152.097 76.5808L152.068 76.6927C151.841 77.5243 151.581 78.4677 151.239 79.4409L151.068 79.9294L151.276 80.403C152.331 82.8118 153.019 85.2021 153.32 87.514V87.5103ZM154.577 77.3826L154.606 77.2707C154.707 76.9053 154.807 76.5361 154.919 76.1744C155.651 73.7506 156.558 70.7377 156.42 67.1094C156.402 66.5762 156.406 65.9758 156.42 65.3419C156.454 65.368 156.487 65.3904 156.521 65.4165L156.577 65.4575C156.803 65.6216 157.03 65.7894 157.257 65.9647C159.781 67.9074 162.316 68.3437 163.676 68.5749L163.788 68.5935C163.859 68.6047 163.929 68.6159 163.996 68.6308C164.877 68.8657 165.765 69.0298 166.661 69.1119C166.475 69.8427 166.308 70.5624 166.163 71.256C166.104 71.5431 166.018 71.8787 165.918 72.2665C165.546 73.7282 165.037 75.7307 165.074 78.1321C165.085 78.8294 165.082 79.5267 165.082 80.224V80.2762C165.082 80.9176 165.078 81.5589 165.082 82.2003V82.4501C165.089 83.1922 165.096 84.0461 165.148 84.9746C163.238 84.8739 161.361 85.1983 159.602 85.9255C158.376 86.4326 157.197 87.0442 156.086 87.7527C156.045 87.611 156.004 87.473 155.963 87.335L155.926 87.2157C155.911 87.1672 155.896 87.1225 155.885 87.0777C155.569 84.7024 154.885 82.26 153.856 79.8175C154.145 78.9412 154.369 78.1172 154.573 77.3788L154.577 77.3826Z" fill="white"/>
</g>
<defs>
<clipPath id="clip0_254_2786">
<rect width="320" height="194" fill="white"/>
</clipPath>
</defs>
</svg>
