<?xml version="1.0" encoding="utf-8"?>
<!-- Generator: Adobe Illustrator 28.3.0, SVG Export Plug-In . SVG Version: 6.00 Build 0)  -->
<svg version="1.1" id="Слой_1" xmlns="http://www.w3.org/2000/svg" xmlns:xlink="http://www.w3.org/1999/xlink" x="0px" y="0px"
	 viewBox="0 0 232 296" style="enable-background:new 0 0 232 296;" xml:space="preserve">
<style type="text/css">
	.st0{enable-background:new    ;}
	.st1{fill:#606060;}
</style>
<g id="Сгруппировать_72" transform="translate(-137 -224)">
	<g class="st0">
		<path class="st1" d="M180.5,454.9v-28h14.3c3.7,0,6.4,0.7,8.2,2c1.8,1.3,2.7,3.1,2.7,5.3c0,1.4-0.4,2.7-1.1,3.8
			c-0.8,1.1-1.8,1.9-3.2,2.6c-1.4,0.6-3,0.9-4.9,0.9l0.8-1.9c2,0,3.7,0.3,5.2,0.9c1.5,0.6,2.6,1.5,3.4,2.6c0.8,1.1,1.2,2.5,1.2,4.1
			c0,2.4-1,4.3-2.9,5.7s-4.8,2-8.6,2H180.5z M188.3,449.2h6.6c1.4,0,2.4-0.2,3.1-0.7s1.1-1.2,1.1-2.1s-0.4-1.7-1.1-2.1
			c-0.7-0.5-1.7-0.7-3.1-0.7h-7.2V438h6c1.3,0,2.3-0.2,3-0.7c0.7-0.5,1-1.1,1-2s-0.3-1.6-1-2c-0.7-0.4-1.7-0.7-3-0.7h-5.4V449.2z"/>
		<path class="st1" d="M225.4,455.4c-2.2,0-4.3-0.4-6.2-1.1c-1.9-0.7-3.5-1.7-4.9-3.1c-1.4-1.3-2.5-2.9-3.3-4.6
			c-0.8-1.8-1.2-3.7-1.2-5.8s0.4-4,1.2-5.8c0.8-1.8,1.9-3.3,3.3-4.6c1.4-1.3,3-2.3,4.9-3.1c1.9-0.7,4-1.1,6.2-1.1
			c2.3,0,4.3,0.4,6.2,1.1c1.9,0.7,3.5,1.7,4.9,3.1c1.4,1.3,2.5,2.9,3.3,4.6s1.2,3.7,1.2,5.8s-0.4,4-1.2,5.8s-1.9,3.3-3.3,4.6
			c-1.4,1.3-3,2.3-4.9,3C229.7,455.1,227.6,455.4,225.4,455.4z M225.4,448.9c1.1,0,2.1-0.2,3-0.6c0.9-0.4,1.7-0.9,2.4-1.6
			c0.7-0.7,1.2-1.6,1.6-2.5c0.4-1,0.6-2.1,0.6-3.3c0-1.2-0.2-2.3-0.6-3.3c-0.4-1-0.9-1.8-1.6-2.5c-0.7-0.7-1.5-1.2-2.4-1.6
			c-0.9-0.4-1.9-0.6-3-0.6c-1.1,0-2.1,0.2-3,0.6c-0.9,0.4-1.7,0.9-2.4,1.6c-0.7,0.7-1.2,1.5-1.6,2.5c-0.4,1-0.6,2.1-0.6,3.3
			c0,1.2,0.2,2.3,0.6,3.3c0.4,1,0.9,1.8,1.6,2.5s1.5,1.2,2.4,1.6C223.3,448.7,224.3,448.9,225.4,448.9z"/>
		<path class="st1" d="M245.1,454.9v-28h6.5l15.4,18.6H264v-18.6h7.8v28h-6.5l-15.4-18.6h3.1v18.6H245.1z"/>
		<path class="st1" d="M290.3,455.4c-4.1,0-7.4-1.1-9.7-3.4c-2.3-2.3-3.5-5.5-3.5-9.6v-15.5h7.9v15.3c0,2.4,0.5,4.1,1.4,5.2
			s2.2,1.6,3.9,1.6s2.9-0.5,3.9-1.6s1.4-2.8,1.4-5.2v-15.3h7.8v15.5c0,4.2-1.2,7.4-3.5,9.6C297.6,454.3,294.4,455.4,290.3,455.4z"/>
		<path class="st1" d="M318.6,455.4c-2.3,0-4.5-0.3-6.6-0.9s-3.8-1.3-5.2-2.2l2.6-5.8c1.3,0.8,2.7,1.5,4.3,2
			c1.6,0.5,3.3,0.8,4.9,0.8c1.1,0,2-0.1,2.6-0.3c0.7-0.2,1.2-0.5,1.5-0.8c0.3-0.3,0.5-0.7,0.5-1.2c0-0.6-0.3-1.1-0.9-1.5
			c-0.6-0.4-1.3-0.7-2.3-0.9c-0.9-0.2-2-0.5-3.1-0.7s-2.3-0.5-3.4-0.9c-1.1-0.4-2.2-0.9-3.1-1.5s-1.7-1.4-2.3-2.4
			c-0.6-1-0.9-2.2-0.9-3.7c0-1.7,0.5-3.2,1.4-4.6c0.9-1.4,2.3-2.5,4.1-3.3c1.8-0.8,4.1-1.2,6.9-1.2c1.8,0,3.6,0.2,5.4,0.6
			c1.8,0.4,3.4,1,4.7,1.8l-2.4,5.9c-1.3-0.7-2.7-1.3-4-1.6c-1.3-0.4-2.6-0.5-3.8-0.5c-1.1,0-2,0.1-2.6,0.3c-0.7,0.2-1.1,0.5-1.4,0.9
			c-0.3,0.4-0.4,0.8-0.4,1.3c0,0.6,0.3,1.1,0.9,1.5s1.3,0.7,2.3,0.9c0.9,0.2,2,0.5,3.1,0.7c1.1,0.2,2.3,0.5,3.4,0.9
			c1.1,0.4,2.2,0.8,3.1,1.4c0.9,0.6,1.7,1.4,2.3,2.4s0.9,2.2,0.9,3.7c0,1.6-0.5,3.1-1.4,4.5c-0.9,1.4-2.3,2.5-4.1,3.3
			C323.7,455,321.4,455.4,318.6,455.4z"/>
	</g>
	<g class="st0">
		<path class="st1" d="M160.6,492.9v-28h7.9v21.7h13.4v6.3H160.6z"/>
		<path class="st1" d="M198.6,493.4c-2.2,0-4.3-0.4-6.2-1.1c-1.9-0.7-3.5-1.7-4.9-3.1c-1.4-1.3-2.5-2.9-3.3-4.6
			c-0.8-1.8-1.2-3.7-1.2-5.8s0.4-4,1.2-5.8c0.8-1.8,1.9-3.3,3.3-4.6c1.4-1.3,3-2.3,4.9-3.1c1.9-0.7,4-1.1,6.2-1.1
			c2.3,0,4.3,0.4,6.2,1.1c1.9,0.7,3.5,1.7,4.9,3.1c1.4,1.3,2.5,2.9,3.3,4.6s1.2,3.7,1.2,5.8s-0.4,4-1.2,5.8s-1.9,3.3-3.3,4.6
			c-1.4,1.3-3,2.3-4.9,3C203,493.1,200.9,493.4,198.6,493.4z M198.6,486.9c1.1,0,2.1-0.2,3-0.6c0.9-0.4,1.7-0.9,2.4-1.6
			c0.7-0.7,1.2-1.6,1.6-2.5c0.4-1,0.6-2.1,0.6-3.3c0-1.2-0.2-2.3-0.6-3.3c-0.4-1-0.9-1.8-1.6-2.5c-0.7-0.7-1.5-1.2-2.4-1.6
			c-0.9-0.4-1.9-0.6-3-0.6c-1.1,0-2.1,0.2-3,0.6c-0.9,0.4-1.7,0.9-2.4,1.6c-0.7,0.7-1.2,1.5-1.6,2.5c-0.4,1-0.6,2.1-0.6,3.3
			c0,1.2,0.2,2.3,0.6,3.3c0.4,1,0.9,1.8,1.6,2.5s1.5,1.2,2.4,1.6C196.6,486.7,197.6,486.9,198.6,486.9z"/>
		<path class="st1" d="M223.9,492.9v-21.7h-8.6v-6.3h25.1v6.3h-8.6v21.7H223.9z"/>
		<path class="st1" d="M249.7,492.9v-21.7h-8.6v-6.3h25.1v6.3h-8.6v21.7H249.7z"/>
		<path class="st1" d="M277,486.8h14.6v6.1h-22.5v-28h22v6.1H277V486.8z M276.4,475.7h13v5.9h-13V475.7z"/>
		<path class="st1" d="M296,492.9v-28h12.8c2.6,0,4.8,0.4,6.6,1.2c1.9,0.8,3.3,2,4.3,3.6c1,1.6,1.5,3.4,1.5,5.5
			c0,2.1-0.5,3.9-1.5,5.5c-1,1.5-2.4,2.7-4.3,3.5c-1.9,0.8-4.1,1.2-6.6,1.2h-8.4l3.5-3.3v10.8H296z M304,483l-3.5-3.6h7.9
			c1.7,0,2.9-0.4,3.7-1.1c0.8-0.7,1.2-1.7,1.2-3c0-1.3-0.4-2.3-1.2-3c-0.8-0.7-2-1.1-3.7-1.1h-7.9l3.5-3.6V483z M313.4,492.9
			l-7-10.2h8.4l7,10.2H313.4z"/>
		<path class="st1" d="M332.3,492.9V481l1.8,4.8l-12.5-20.9h8.4l9,15.2h-4.8l9.1-15.2h7.7l-12.5,20.9l1.8-4.8v11.8H332.3z"/>
	</g>
	<g id="icons" transform="translate(137.969 223.969)">
		<g id="ui-gambling-website-lined-icnos-casinoshunter" transform="translate(0.031 0.031)">
			<g id="_1" transform="translate(0)">
				<path id="roulette" class="st1" d="M74.4,149.2c10.3,9.4,23.5,15,37.4,16.1l0,0v14.6c-17.8-1.1-34.6-8.3-47.7-20.3l0,0
					L74.4,149.2z M160.2,148l9.5,9.5c0.3,0.3,0.5,0.5,0.8,0.7c-13.3,12.9-30.7,20.5-49.1,21.7l0,0v-14.6
					C136,164.2,149.7,158.1,160.2,148L160.2,148z M116.6,49c29.5,0,53.4,23.9,53.4,53.4c0,29.5-23.9,53.4-53.4,53.4
					c-29.5,0-53.4-23.9-53.4-53.4C63.2,72.9,87.1,49,116.6,49L116.6,49L116.6,49z M53.7,107.2c1,12.8,5.8,25,14,35l0,0l-10.3,10.3
					c-10.8-12.7-17.2-28.6-18.2-45.3L53.7,107.2L53.7,107.2z M194.1,107.2c-1,16.1-7,31.4-17.1,43.9c-0.1-0.2-0.3-0.3-0.4-0.5l0,0
					l-9.9-9.9c7.4-9.7,11.9-21.3,12.8-33.5L194.1,107.2L194.1,107.2z M109.8,74.9c-5.7-5.7-14.9-5.7-20.6,0
					c-5.7,5.7-5.7,14.9,0,20.6c4.4,4.4,11,5.5,16.6,2.8l0,0l4,4l-4,4c-7.3-3.5-15.9-0.4-19.4,6.9c-3.5,7.3-0.4,15.9,6.9,19.4
					s15.9,0.4,19.4-6.9c1.9-4,1.9-8.6,0-12.5l0,0l4-4l4,4c-3.5,7.3-0.4,15.9,6.9,19.4c7.3,3.5,15.9,0.4,19.4-6.9
					c3.5-7.3,0.4-15.9-6.9-19.4c-4-1.9-8.6-1.9-12.5,0l0,0l-4-4l4-4c7.3,3.5,15.9,0.4,19.4-6.9c3.5-7.3,0.4-15.9-6.9-19.4
					c-7.3-3.5-15.9-0.4-19.4,6.9c-1.9,4-1.9,8.6,0,12.5l0,0l-4,4l-4-4C115.3,85.9,114.1,79.3,109.8,74.9L109.8,74.9z M96,116.1
					c1.9-1.9,5-1.9,6.9,0c1.9,1.9,1.9,5,0,6.9s-5,1.9-6.9,0c0,0,0,0,0,0C94.1,121.1,94.1,118,96,116.1C96,116.1,96,116.1,96,116.1
					L96,116.1z M130.4,116.1c1.9-1.9,5-1.9,6.9,0c1.9,1.9,1.9,5,0,6.9s-5,1.9-6.9,0c0,0,0,0,0,0C128.5,121.1,128.5,118,130.4,116.1
					L130.4,116.1z M175,51.2c11.3,12.9,18.1,29.2,19.1,46.3h-14.6c-1-13.3-6.2-25.9-14.8-36l0,0L175,51.2z M57.4,52.2l10.3,10.3
					c-8.1,10-13,22.2-14,35H39.1C40.1,80.9,46.5,65,57.4,52.2L57.4,52.2z M96,81.8c1.9-1.9,5-1.9,6.9,0c1.9,1.9,1.9,5,0,6.9
					s-5,1.9-6.9,0c0,0,0,0,0,0C94.1,86.8,94.1,83.7,96,81.8C96,81.8,96,81.8,96,81.8L96,81.8z M130.4,81.8c1.9-1.9,5-1.9,6.9,0
					c1.9,1.9,1.9,5,0,6.9s-5,1.9-6.9,0c0,0,0,0,0,0C128.5,86.8,128.5,83.7,130.4,81.8C130.4,81.8,130.4,81.8,130.4,81.8L130.4,81.8z
					 M111.8,24.9v14.6c-13.9,1.1-27.1,6.7-37.4,16l0,0L64.1,45.2C77.2,33.2,94,26,111.8,24.9L111.8,24.9z M121.5,24.9
					c17.3,1.1,33.8,7.9,46.7,19.4l0,0l-10.3,10.3c-10.2-8.8-22.9-14.1-36.4-15.2l0,0L121.5,24.9z"/>
			</g>
		</g>
	</g>
</g>
</svg>
