<svg width="26" height="20" viewBox="0 0 26 20" fill="none" xmlns="http://www.w3.org/2000/svg">
<path d="M2 8.66171C1.26088 8.66171 0.66171 9.26088 0.66171 10C0.66171 10.7391 1.26088 11.3383 2 11.3383L2 8.66171ZM24.9463 10.9463C25.4689 10.4237 25.4689 9.57632 24.9463 9.05369L16.4295 0.536862C15.9069 0.0142278 15.0595 0.0142277 14.5369 0.536862C14.0142 1.0595 14.0142 1.90686 14.5369 2.42949L22.1074 10L14.5369 17.5705C14.0142 18.0931 14.0142 18.9405 14.5369 19.4631C15.0595 19.9858 15.9069 19.9858 16.4295 19.4631L24.9463 10.9463ZM2 11.3383L24 11.3383L24 8.66171L2 8.66171L2 11.3383Z" fill="white"/>
</svg>
