<svg width="75" height="75" viewBox="0 0 75 75" fill="none" xmlns="http://www.w3.org/2000/svg">
<rect x="0.5" y="74.5" width="74" height="74" rx="9.5" transform="rotate(-90 0.5 74.5)" fill="#23267D" stroke="url(#paint0_linear_7223_903)"/>
<path d="M26 35.6617C25.2609 35.6617 24.6617 36.2609 24.6617 37C24.6617 37.7391 25.2609 38.3383 26 38.3383L26 35.6617ZM48.9463 37.9463C49.4689 37.4237 49.4689 36.5763 48.9463 36.0537L40.4295 27.5369C39.9069 27.0142 39.0595 27.0142 38.5369 27.5369C38.0142 28.0595 38.0142 28.9069 38.5369 29.4295L46.1074 37L38.5369 44.5705C38.0142 45.0931 38.0142 45.9405 38.5369 46.4631C39.0595 46.9858 39.9069 46.9858 40.4295 46.4631L48.9463 37.9463ZM26 38.3383L48 38.3383L48 35.6617L26 35.6617L26 38.3383Z" fill="white"/>
<defs>
<linearGradient id="paint0_linear_7223_903" x1="37.5" y1="75" x2="37.5" y2="150" gradientUnits="userSpaceOnUse">
<stop stop-color="#595EFB"/>
<stop offset="1" stop-color="#3437AB"/>
</linearGradient>
</defs>
</svg>
