<svg width="26" height="20" viewBox="0 0 26 20" fill="none" xmlns="http://www.w3.org/2000/svg">
<path d="M24 11.3383C24.7391 11.3383 25.3383 10.7391 25.3383 10C25.3383 9.26088 24.7391 8.66171 24 8.66171L24 11.3383ZM1.05369 9.05369C0.531052 9.57632 0.531052 10.4237 1.05369 10.9463L9.57051 19.4631C10.0931 19.9858 10.9405 19.9858 11.4631 19.4631C11.9858 18.9405 11.9858 18.0931 11.4631 17.5705L3.89263 10L11.4631 2.42949C11.9858 1.90685 11.9858 1.0595 11.4631 0.53686C10.9405 0.0142254 10.0931 0.0142254 9.57051 0.53686L1.05369 9.05369ZM24 8.66171L2 8.66171L2 11.3383L24 11.3383L24 8.66171Z" fill="white"/>
</svg>
