<svg width="75" height="75" viewBox="0 0 75 75" fill="none" xmlns="http://www.w3.org/2000/svg">
<rect x="74.5" y="0.5" width="74" height="74" rx="9.5" transform="rotate(90 74.5 0.5)" fill="#23267D" stroke="url(#paint0_linear_7223_900)"/>
<path d="M49 39.3383C49.7391 39.3383 50.3383 38.7391 50.3383 38C50.3383 37.2609 49.7391 36.6617 49 36.6617L49 39.3383ZM26.0537 37.0537C25.5311 37.5763 25.5311 38.4237 26.0537 38.9463L34.5705 47.4631C35.0931 47.9858 35.9405 47.9858 36.4631 47.4631C36.9858 46.9405 36.9858 46.0931 36.4631 45.5705L28.8926 38L36.4631 30.4295C36.9858 29.9069 36.9858 29.0595 36.4631 28.5369C35.9405 28.0142 35.0931 28.0142 34.5705 28.5369L26.0537 37.0537ZM49 36.6617L27 36.6617L27 39.3383L49 39.3383L49 36.6617Z" fill="white"/>
<defs>
<linearGradient id="paint0_linear_7223_900" x1="112.5" y1="0" x2="112.5" y2="75" gradientUnits="userSpaceOnUse">
<stop stop-color="#595EFB"/>
<stop offset="1" stop-color="#3437AB"/>
</linearGradient>
</defs>
</svg>
