<svg width="40" height="41" viewBox="0 0 40 41" fill="none" xmlns="http://www.w3.org/2000/svg">
<path d="M17.5953 0.0862751C13.9902 0.495385 10.2757 2.07675 7.35875 4.437C6.42033 5.19228 4.67644 7.0018 3.97263 7.9459C2.3304 10.1488 1.14956 12.6507 0.508309 15.2705C0.0625611 17.0958 0 17.7016 0 20.0933C0 22.4064 0.0469208 22.902 0.406647 24.5384C1.80645 30.9426 6.43597 36.442 12.4497 38.8494C14.9677 39.8565 17.1808 40.2734 19.9804 40.2734C23.2884 40.2734 26.1271 39.6126 28.9267 38.1964C31.0538 37.1186 32.6882 35.9148 34.3695 34.1683C37.4428 30.9819 39.3431 27.0088 39.8827 22.6502C40.0391 21.3678 40.0391 18.8975 39.8827 17.6151C39.437 14.0196 37.9589 10.4556 35.7224 7.59973C35.1515 6.86806 33.1652 4.86971 32.4379 4.29538C29.5914 2.03741 26.0645 0.558325 22.4829 0.109878C21.4115 -0.0238698 18.6588 -0.0396048 17.5953 0.0862751ZM21.9746 2.51733C22.7566 2.59601 24.1329 2.87924 24.9228 3.11526L25.3372 3.23327L24.9462 3.58731C22.1388 6.15211 17.8925 6.15998 15.0303 3.61091C14.7488 3.35915 14.6784 3.25688 14.7566 3.20967C14.8113 3.1782 15.2102 3.06019 15.6403 2.95004C17.7361 2.42292 19.7458 2.28131 21.9746 2.51733ZM12.8954 4.92478C14.3265 6.44321 16.219 7.46599 18.2131 7.82002C19.1124 7.97737 20.8485 7.97737 21.7478 7.82002C23.7419 7.46599 25.6422 6.43534 27.0811 4.91692L27.7458 4.20884L28.2542 4.4842C29.0753 4.91692 30.5142 5.90035 31.3196 6.58483C32.9775 7.97737 34.5494 9.92851 35.5347 11.8088L35.8084 12.3202L35.1046 12.989C33.5875 14.4445 32.5709 16.3405 32.219 18.3546C32.0626 19.2594 32.0626 21.0059 32.219 21.9107C32.5709 23.9248 33.5875 25.8208 35.1046 27.2763L35.8084 27.9451L35.5738 28.3857C34.2053 31.0213 31.8514 33.5625 29.2864 35.1753C28.9189 35.4035 28.4262 35.6946 28.1838 35.8204L27.7458 36.0565L27.0811 35.3484C25.6344 33.8221 23.7498 32.7993 21.7478 32.4453C20.8485 32.2879 19.1124 32.2879 18.2131 32.4453C16.2111 32.7993 14.3265 33.8221 12.8798 35.3484L12.2151 36.0565L11.7067 35.7811C10.8856 35.3484 9.44673 34.3649 8.64125 33.6805C6.98338 32.2879 5.41153 30.3368 4.4262 28.4565L4.15249 27.9451L4.8563 27.2763C6.36559 25.8287 7.39003 23.9169 7.74194 21.9107C7.89834 21.0059 7.89834 19.2594 7.74194 18.3546C7.39003 16.3405 6.37341 14.4445 4.8563 12.989L4.15249 12.3202L4.4262 11.8088C5.67742 9.41712 7.8045 7.04114 10.0802 5.47551C10.6354 5.09 12.0899 4.24031 12.1838 4.24031C12.2151 4.24031 12.5357 4.54714 12.8954 4.92478ZM4.19941 15.9943C4.60606 16.5923 4.98925 17.4341 5.21603 18.213C5.37243 18.748 5.39589 19.0155 5.39589 20.1327C5.39589 21.5803 5.28641 22.131 4.7781 23.2403C4.32454 24.2316 3.28446 25.6084 3.15934 25.3881C3.12805 25.3331 3.01075 24.9082 2.89345 24.4598C2.14272 21.478 2.22092 17.8039 3.10459 15.0188L3.19062 14.7513L3.54252 15.1368C3.73021 15.3492 4.02737 15.7347 4.19941 15.9943ZM37.0674 15.8055C37.7556 18.5355 37.7556 21.7298 37.0674 24.4598C36.9501 24.9082 36.8328 25.3331 36.8016 25.3881C36.7546 25.4668 36.653 25.396 36.4027 25.1128C35.652 24.2631 35.1202 23.3033 34.784 22.2018C34.5885 21.5645 34.5728 21.4072 34.5728 20.1327C34.5728 18.8581 34.5885 18.7008 34.784 18.0635C35.1202 16.9621 35.652 16.0022 36.4027 15.1525C36.653 14.8693 36.7546 14.7985 36.8016 14.8772C36.8328 14.9322 36.9501 15.3571 37.0674 15.8055ZM21.2708 34.8527C22.5689 35.073 23.8749 35.7182 24.9306 36.6544C25.2121 36.9061 25.2825 37.0084 25.2043 37.0556C25.1496 37.0871 24.7507 37.2051 24.3206 37.3153C21.4585 38.0391 18.5024 38.0391 15.6403 37.3153C15.2102 37.2051 14.8113 37.0871 14.7566 37.0556C14.6784 37.0084 14.7488 36.9061 15.0303 36.6544C16.782 35.0966 18.9873 34.4594 21.2708 34.8527Z" fill="white"/>
<path d="M18.0643 10.4554C14.0995 11.2579 11.0105 14.4206 10.3224 18.3937C10.1738 19.2434 10.1738 21.0057 10.3224 21.8633C10.8541 24.908 12.8326 27.5829 15.554 28.9362C17.0712 29.6836 18.2755 29.9668 19.9724 29.9668C22.6234 29.9668 24.8756 29.0699 26.7681 27.2604C27.8473 26.2297 28.8326 24.672 29.294 23.2794C29.9196 21.3676 29.9196 18.8658 29.2862 16.9854C28.3243 14.1059 25.9392 11.7063 23.1083 10.7622C21.6616 10.2823 19.5423 10.1564 18.0643 10.4554ZM21.6147 12.9022C24.4455 13.5552 26.6352 15.8368 27.2139 18.7084C27.4016 19.6053 27.339 21.2575 27.1044 22.0993C26.2676 25.0496 23.6401 27.2525 20.6528 27.5121C16.9069 27.8426 13.513 25.3014 12.7544 21.6115C12.5902 20.8326 12.5902 19.4322 12.7544 18.6533C13.5834 14.5937 17.6186 11.9738 21.6147 12.9022Z" fill="white"/>
<path d="M19.0105 14.8614C17.8922 15.1446 16.946 16.1202 16.6958 17.2531C16.5394 17.969 16.9773 18.5591 17.6655 18.5591C18.1347 18.5591 18.4475 18.3309 18.6195 17.8746C18.6977 17.6701 18.8228 17.4026 18.901 17.2924C19.0653 17.0407 19.4876 16.8282 19.8004 16.8282C20.3165 16.8361 20.9186 17.4262 20.9186 17.9297C20.9186 18.4332 19.9568 19.9516 17.8922 22.6974C17.5091 23.2088 17.1259 23.7595 17.0477 23.9011C16.8131 24.3732 16.9929 24.9947 17.4543 25.3015C17.642 25.4274 17.9235 25.4431 19.9333 25.4667C21.1845 25.4825 22.3184 25.4746 22.4592 25.4431C23.3272 25.2779 23.6009 24.1057 22.8815 23.6179C22.6312 23.4448 22.5452 23.4369 21.3018 23.4369C20.5746 23.4369 19.9802 23.4133 19.9802 23.3897C19.9802 23.3583 20.207 23.0357 20.4729 22.658C21.4973 21.2655 22.0838 20.3922 22.3966 19.8179C23.0457 18.5906 23.1161 17.5835 22.6 16.5371C22.0917 15.4986 21.122 14.8692 19.9568 14.8142C19.6049 14.7984 19.1826 14.822 19.0105 14.8614Z" fill="white"/>
</svg>
