<svg width="40" height="38" viewBox="0 0 40 38" fill="none" xmlns="http://www.w3.org/2000/svg">
<path d="M17.4988 0.0984131C14.0283 0.506855 10.8393 1.73218 7.96287 3.75954C6.79043 4.59128 4.83635 6.44783 3.96092 7.56177C1.80362 10.3243 0.529555 13.3468 0.099658 16.696C-0.0332193 17.7951 -0.0332193 20.2012 0.099658 21.3003C0.529555 24.6495 1.80362 27.672 3.96092 30.4345C4.83635 31.5485 6.79043 33.405 7.96287 34.2368C10.8705 36.2864 14.0518 37.4969 17.5769 37.9053C18.7338 38.0316 21.2662 38.0316 22.4231 37.9053C25.9482 37.4969 29.1295 36.2864 32.0371 34.2368C33.2096 33.405 35.1637 31.5485 36.0391 30.4345C38.1964 27.672 39.4704 24.6495 39.9003 21.3003C40.0332 20.2012 40.0332 17.7951 39.9003 16.696C39.4704 13.3468 38.1964 10.3243 36.0391 7.56177C35.1637 6.44783 33.2096 4.59128 32.0371 3.75954C29.1295 1.7099 25.9482 0.499429 22.4231 0.0909869C21.3053 -0.0352589 18.6087 -0.0278327 17.4988 0.0984131ZM18.7494 6.19534V9.95301L17.3268 9.90103C15.9668 9.85647 12.9106 9.61141 12.8403 9.54457C12.8246 9.52972 12.9653 9.14355 13.1607 8.68313C14.2237 6.15079 15.7401 4.13085 17.3112 3.13574C17.8271 2.80898 18.4993 2.48223 18.7338 2.43767C18.7416 2.43767 18.7494 4.13085 18.7494 6.19534ZM21.7899 2.63076C22.3527 2.85354 23.361 3.57389 23.9707 4.18284C24.7758 4.99229 25.5887 6.14336 26.2218 7.37611C26.6673 8.25241 27.2301 9.55942 27.1754 9.61141C27.1128 9.66339 24.0801 9.87132 22.7201 9.90845L21.1724 9.96044V6.19534V2.43025L21.3522 2.48223C21.446 2.50451 21.6414 2.57877 21.7899 2.63076ZM13.0591 3.9749C12.1837 5.13339 11.3004 6.74488 10.7455 8.193C10.5892 8.60144 10.425 9.00245 10.3937 9.09157L10.3234 9.24752L9.23693 9.04701C7.87689 8.79452 6.39961 8.43806 6.39961 8.3638C6.39961 8.25241 8.47093 6.32159 9.01808 5.91315C10.0107 5.17795 11.0347 4.56157 12.1759 4.01946C12.8012 3.72241 13.3327 3.47734 13.3718 3.47734C13.4108 3.47734 13.2623 3.70013 13.0591 3.9749ZM27.8241 4.01946C29.4812 4.80664 30.8412 5.71264 32.1466 6.89341C32.85 7.52464 33.7098 8.45291 33.6473 8.5049C33.5848 8.56431 32.0606 8.89849 30.849 9.11385L29.6922 9.32178L29.5672 8.98018C28.7465 6.81915 27.871 5.15567 26.8705 3.87836C26.6986 3.65557 26.5892 3.47734 26.6282 3.47734C26.6595 3.47734 27.1988 3.72241 27.8241 4.01946ZM6.51685 10.8367C7.03273 10.963 7.93942 11.1561 8.53346 11.2749C9.1275 11.3863 9.62775 11.4902 9.64338 11.5051C9.65901 11.5199 9.6043 11.8541 9.51832 12.2403C9.19785 13.7181 9.05716 14.8246 8.85393 17.305L8.80703 17.8842H5.60234H2.40547L2.45237 17.4535C2.72594 15.1662 3.24182 13.473 4.25794 11.5199L4.84416 10.3912L5.21153 10.5026C5.41475 10.562 6.00098 10.7105 6.51685 10.8367ZM35.7811 11.5868C36.7504 13.4433 37.2584 15.1291 37.5398 17.4164L37.5945 17.81H34.3898H31.193L31.1461 17.3421C31.1226 17.0896 31.0679 16.4138 31.021 15.842C30.9272 14.7206 30.724 13.3542 30.4895 12.2551L30.341 11.5719L30.5051 11.5348C30.5911 11.5125 31.2868 11.3863 32.0371 11.2377C32.7875 11.0966 33.7723 10.8813 34.2257 10.7625C34.679 10.6511 35.0855 10.5471 35.1324 10.5397C35.1871 10.5397 35.4763 11.0075 35.7811 11.5868ZM14.5677 12.0546C15.3415 12.114 16.5999 12.1883 17.3581 12.218L18.7494 12.2626V15.04V17.81H14.9976H11.2457L11.2848 17.2678C11.4411 15.3147 11.6522 13.7627 11.9179 12.6116C11.9805 12.3443 12.043 12.0621 12.0664 11.9729C12.0977 11.8318 12.129 11.8244 12.6292 11.8838C12.9262 11.9135 13.7938 11.9952 14.5677 12.0546ZM27.9883 12.2032C28.3478 13.8518 28.5901 15.5375 28.7074 17.1936L28.7465 17.81H25.0024H21.2506V15.0251V12.2403H22.1104C23.1343 12.2403 25.2995 12.1215 26.6439 11.9804C27.9492 11.8541 27.9179 11.8467 27.9883 12.2032ZM8.85393 20.5725C9.03371 22.6444 9.08842 23.1568 9.2213 23.9886C9.34636 24.8055 9.5105 25.6298 9.64338 26.1793C9.68246 26.3204 9.63556 26.3427 9.11187 26.4244C8.33806 26.5432 6.27455 26.9813 5.44602 27.1967L4.75818 27.3824L4.57059 27.0705C3.92184 26.0234 3.21837 24.2708 2.85882 22.8227C2.69468 22.1617 2.41329 20.4982 2.41329 20.1789C2.41329 20.1418 3.64827 20.1121 5.61016 20.1121H8.80703L8.85393 20.5725ZM18.8276 22.8895V25.5852L17.5222 25.6372C16.7953 25.6669 15.4744 25.7412 14.5677 25.808C13.6688 25.8748 12.7386 25.9342 12.5042 25.9342L12.0821 25.9417L11.9805 25.5332C11.7069 24.4193 11.4333 22.481 11.2926 20.6839L11.2535 20.1863H15.0366H18.8276V22.8895ZM28.7074 20.6839C28.6214 21.7978 28.5042 22.8746 28.3556 23.7806C28.1993 24.7386 27.9414 25.9639 27.8788 26.0234C27.8554 26.0382 27.3708 26.0085 26.7924 25.9417C25.8075 25.8451 24.3068 25.7412 22.1729 25.6372L21.2506 25.5926V22.8895V20.1863H25.0024H28.7465L28.7074 20.6839ZM37.5398 20.5725C37.2584 22.8598 36.7582 24.5084 35.7811 26.4021C35.4763 26.9888 35.2106 27.464 35.1793 27.464C35.148 27.464 34.7728 27.3675 34.3429 27.2487C33.4988 27.0185 31.7948 26.6472 30.8881 26.4912C30.5755 26.4392 30.3175 26.3947 30.3175 26.3798C30.3175 26.3724 30.3879 26.0456 30.4739 25.6595C30.7787 24.2188 31.0992 21.9464 31.0992 21.1295C31.0992 20.9141 31.1226 20.6171 31.1461 20.4611L31.2008 20.1863H34.3977H37.5945L37.5398 20.5725ZM18.7494 31.6599C18.7494 33.7244 18.7338 35.4101 18.7103 35.4101C18.5774 35.4101 17.6004 34.9348 17.2174 34.6823C16.3341 34.1179 15.1461 32.8258 14.4582 31.7118C13.6766 30.4345 12.7308 28.37 12.8872 28.2809C12.9809 28.2289 16.256 27.9839 17.2643 27.9616C17.6317 27.9468 18.1163 27.9319 18.3429 27.9245L18.7494 27.9096V31.6599ZM23.5173 28.021C24.385 28.0581 27.1285 28.2809 27.1676 28.3106C27.1832 28.3255 27.0503 28.6671 26.8862 29.0755C25.6277 32.1351 23.8065 34.3482 21.829 35.1947C21.5554 35.3136 21.3131 35.4101 21.2897 35.4101C21.2662 35.4101 21.2506 33.7244 21.2506 31.6599V27.9022L21.9384 27.9393C22.3136 27.9616 23.0249 27.9987 23.5173 28.021ZM10.6751 29.5063C11.3161 31.1623 12.2384 32.8406 13.1685 34.0511L13.5828 34.5858L13.3327 34.5041C13.192 34.4521 12.6292 34.1996 12.0664 33.9323C10.9956 33.4125 9.93258 32.7664 9.01808 32.0757C7.79873 31.1475 6.14167 29.4914 6.33708 29.3874C6.61065 29.2538 9.97167 28.5706 10.2218 28.6003C10.2765 28.6077 10.4719 29.0013 10.6751 29.5063ZM30.9819 28.875C32.1856 29.1052 33.5848 29.432 33.6473 29.4914C33.7098 29.5434 32.8422 30.4791 32.1466 31.1029C30.8725 32.254 29.4968 33.1748 27.9336 33.9323C27.3786 34.1996 26.808 34.4521 26.6673 34.5041L26.4172 34.5858L26.8236 34.0511C27.7694 32.8258 28.7152 31.1029 29.317 29.5285C29.5046 29.0458 29.6922 28.6522 29.7313 28.6522C29.7782 28.6522 30.341 28.7562 30.9819 28.875Z" fill="white"/>
</svg>
