<svg width="40" height="41" viewBox="0 0 40 41" fill="none" xmlns="http://www.w3.org/2000/svg">
<path d="M17.5002 0.491644C12.5393 1.07113 7.9455 3.20431 4.90644 6.35369C4.35175 6.93317 4.1955 7.14313 4.14082 7.41188C3.99238 8.11734 4.42207 8.88999 5.03144 9.01596C5.53925 9.11674 5.91425 8.92358 6.56269 8.25171C10.8283 3.83418 18.1174 1.98655 24.9221 3.59903C28.3439 4.41367 31.2658 6.00936 33.4377 8.25171C33.8439 8.67163 34.133 8.89839 34.3518 8.96557C34.9299 9.15034 35.4846 8.91518 35.7502 8.35249C35.8986 8.05855 35.9143 7.39508 35.7971 7.14313C35.6486 6.84919 34.3986 5.63143 33.5314 4.94277C30.7814 2.734 27.4064 1.28109 23.5549 0.634416C22.758 0.500042 22.0627 0.45805 20.3518 0.441254C19.1486 0.424457 17.8674 0.449652 17.5002 0.491644Z" fill="white"/>
<path d="M38.2812 8.61309C38.1328 8.68867 37.9297 8.88184 37.8359 9.0414L37.6562 9.32695V13.8201C37.6562 18.1788 37.6641 18.3216 37.8125 18.5819C38.2266 19.3042 39.3672 19.3126 39.8281 18.5987L40 18.3216V13.8201V9.32695L39.8203 9.0414C39.6094 8.69707 39.2031 8.46192 38.8281 8.46192C38.6797 8.46192 38.4297 8.52911 38.2812 8.61309Z" fill="white"/>
<path d="M0.625 11.3003C0.476562 11.3759 0.273438 11.5691 0.179688 11.7286L0 12.0142V17.851C0 23.6291 0 23.6879 0.164062 23.9734C0.476562 24.5109 0.609375 24.5445 2.61719 24.5361C4.25781 24.5277 4.45312 24.5193 4.875 24.3514C6.21875 23.8223 7.125 22.6465 7.35156 21.16C7.52344 20.0262 7.17969 18.7497 6.46875 17.9098L6.10938 17.4899L6.34375 17.0616C6.46875 16.8264 6.625 16.3477 6.6875 16.0118C7.10938 13.8702 5.80469 11.6867 3.84375 11.2415C3.61719 11.1912 2.85938 11.1492 2.16406 11.1492C1.11719 11.1492 0.851562 11.1744 0.625 11.3003ZM3.44531 13.845C3.99219 14.0466 4.3125 14.5421 4.3125 15.1888C4.3125 16.0286 3.76562 16.5241 2.85156 16.5241H2.34375V15.1384V13.7526H2.76562C2.99219 13.7526 3.29688 13.7946 3.44531 13.845ZM4.02344 19.22C4.86719 19.4719 5.23438 20.6309 4.70312 21.3867C4.40625 21.8151 4.09375 21.941 3.1875 21.9746L2.34375 21.9998V20.5637V19.1276H3.03125C3.40625 19.1276 3.85156 19.1696 4.02344 19.22Z" fill="white"/>
<path d="M9.39063 11.3257C9.16407 11.4517 9.00782 11.6113 8.90626 11.8296C8.75782 12.1404 8.75001 12.3587 8.75001 17.8261C8.75001 23.9568 8.7422 23.8225 9.16407 24.2424C9.54688 24.6203 10.3828 24.6035 10.7734 24.2256C11.1797 23.8225 11.1719 23.9149 11.1719 17.8513C11.1719 12.3251 11.1719 12.1992 11.0078 11.8548C10.8906 11.5945 10.7578 11.4517 10.5156 11.3257C10.0938 11.099 9.81251 11.1074 9.39063 11.3257Z" fill="white"/>
<path d="M13.5551 11.2665C13.2348 11.4177 12.9067 11.846 12.852 12.1819C12.8286 12.3331 12.8129 14.987 12.8286 18.0944C12.852 23.6793 12.852 23.738 13.0161 23.9732C13.2661 24.3343 13.6176 24.5191 14.0629 24.5191C14.5473 24.5107 14.852 24.3259 15.0707 23.9144C15.227 23.6205 15.2348 23.4693 15.2348 21.6385L15.2426 19.6732L15.9692 21.7476C16.3754 22.8898 16.7582 23.9228 16.8286 24.0404C17.2504 24.7374 18.4379 24.6703 18.852 23.9312C18.977 23.6961 18.9848 23.2509 18.9848 17.8508C18.9848 12.1651 18.977 12.0224 18.8286 11.7536C18.6567 11.4513 18.1489 11.1573 17.7973 11.1489C17.352 11.1489 16.8676 11.4765 16.6957 11.9048C16.6411 12.0224 16.5864 12.9042 16.5629 13.9876L16.5239 15.8604L15.8286 13.8616C15.4457 12.7614 15.0707 11.762 14.9926 11.6444C14.8286 11.3925 14.3286 11.1489 14.0004 11.1489C13.8832 11.1573 13.6801 11.2077 13.5551 11.2665Z" fill="white"/>
<path d="M23.4769 11.2415C22.5472 11.3927 21.6175 12.0561 21.1488 12.9211C20.7191 13.7106 20.6956 13.9877 20.7191 18.0945L20.7425 21.857L21.0003 22.4533C21.43 23.4443 22.2425 24.1581 23.2269 24.4185C23.7581 24.5697 24.8597 24.4857 25.3909 24.2673C26.2581 23.8978 26.9066 23.1755 27.2738 22.1677C27.43 21.7394 27.4534 21.5379 27.4534 20.2193C27.4613 18.8084 27.4534 18.7412 27.2816 18.4725C26.9925 18.0357 26.6956 17.9182 25.9222 17.9098C25.3597 17.9098 25.2113 17.935 25.0238 18.0861C24.3206 18.6488 24.2503 19.6734 24.8831 20.2025C25.2425 20.5049 25.0784 21.3783 24.6019 21.7562C24.3675 21.941 23.8597 21.9662 23.5941 21.815C23.5003 21.7646 23.3597 21.5966 23.2816 21.4539C23.1331 21.2019 23.1253 21.0004 23.1253 17.7922V14.4077L23.3831 14.1305C23.7113 13.7778 24.1019 13.6854 24.4769 13.8786C24.8363 14.0633 24.9925 14.3237 25.0784 14.9116C25.1644 15.4658 25.3363 15.7514 25.7113 15.953C26.3128 16.2889 27.0159 16.0537 27.3284 15.4239C27.4847 15.1131 27.5081 14.9787 27.4691 14.5504C27.2659 12.3165 25.5628 10.9055 23.4769 11.2415Z" fill="white"/>
<path d="M31.6797 11.2326C30.2578 11.4677 29.2109 12.5511 28.9141 14.0712C28.7969 14.6759 28.7969 21.0586 28.9141 21.6633C29.1328 22.7887 29.75 23.6453 30.6875 24.1408C31.2734 24.46 31.2891 24.46 32.2188 24.46C33.1172 24.46 33.1875 24.4432 33.6875 24.1912C34.6562 23.6957 35.3359 22.7887 35.5469 21.6969C35.6016 21.403 35.625 20.034 35.6094 17.6069C35.5781 13.5337 35.5859 13.5673 35.0078 12.6603C34.3359 11.6105 32.9531 11.0142 31.6797 11.2326ZM32.6172 13.8696C32.7656 13.9368 32.9609 14.1216 33.0469 14.2728C33.1953 14.5415 33.2031 14.6843 33.2031 17.8505C33.2031 21.4534 33.1953 21.5121 32.75 21.7641C32.3047 22.016 31.9375 21.9657 31.5781 21.6129L31.2891 21.3274L31.2656 17.9764C31.2422 14.2308 31.25 14.214 31.7969 13.9032C32.125 13.7185 32.2656 13.7185 32.6172 13.8696Z" fill="white"/>
<path d="M38.3125 21.3862C38.2266 21.4282 38.0469 21.5962 37.9062 21.7641C37.6641 22.0665 37.6562 22.0917 37.6562 22.8727C37.6562 23.7797 37.7578 24.0821 38.1484 24.334C38.4531 24.5356 39.125 24.5608 39.4609 24.376C39.8828 24.1409 40 23.8049 40 22.8811V22.0581L39.6953 21.7137C39.4219 21.3946 39.3594 21.361 38.9375 21.3358C38.6875 21.3274 38.4062 21.3442 38.3125 21.3862Z" fill="white"/>
<path d="M4.72699 26.8454C4.20355 27.1897 4.00043 27.7104 4.14887 28.3235C4.25043 28.7602 5.08637 29.642 6.36762 30.675C7.89887 31.9096 9.8598 33.0601 11.602 33.7404C11.9926 33.8916 12.3364 34.0511 12.3754 34.0847C12.5004 34.2023 12.1957 35.2437 11.7582 36.2179C11.3989 37.0074 11.0082 37.6456 10.2192 38.7122C9.83637 39.2329 9.99262 40.1315 10.5395 40.5179C10.8989 40.7782 11.5942 40.7698 12.6254 40.5095C14.9067 39.9132 17.4301 38.3427 19.8051 36.0416L20.5161 35.3613L21.4457 35.3025C26.7426 34.9666 31.7504 32.7746 35.1879 29.2893C35.7426 28.7266 35.8754 28.4578 35.8754 27.9204C35.8754 27.0469 35.0395 26.4506 34.2582 26.7698C34.1411 26.8202 33.7426 27.1477 33.3676 27.5088C30.8442 29.9444 27.8989 31.4981 24.3129 32.2791C23.1879 32.5226 21.477 32.7326 20.5786 32.7326C19.5942 32.7326 19.5161 32.7662 18.7739 33.5053C17.3286 34.9414 15.8598 36.1255 14.602 36.8814L14.0864 37.1837L14.3442 36.4279C14.6801 35.4705 14.8442 34.6558 14.8989 33.648C14.9457 32.7494 14.8442 32.3547 14.477 32.1027C14.3754 32.0271 13.7739 31.7752 13.1411 31.5484C10.6489 30.6414 8.49262 29.3061 6.64105 27.5256C6.26605 27.1561 5.8598 26.8202 5.74262 26.7698C5.4223 26.6354 4.9848 26.669 4.72699 26.8454Z" fill="white"/>
</svg>
