<svg width="40" height="41" viewBox="0 0 40 41" fill="none" xmlns="http://www.w3.org/2000/svg">
<path d="M17.4977 0.135719C13.8888 0.608002 10.7955 1.89104 7.81149 4.14225C6.95223 4.7877 4.99935 6.71619 4.33538 7.5663C1.99974 10.5653 0.570239 13.9893 0.117172 17.6495C-0.0390575 18.9326 -0.0390575 21.4042 0.117172 22.6872C1.10923 30.8026 7.07721 37.6586 14.9043 39.6972C16.5838 40.1302 17.5368 40.2561 19.5365 40.2955C22.2159 40.3506 24.0047 40.0987 26.3091 39.3273C33.1207 37.0525 38.2138 31.2434 39.6433 24.1434C40.0105 22.333 40.1042 19.5465 39.8777 17.6495C38.7528 8.54235 31.535 1.2692 22.4971 0.135719C21.3254 -0.00596526 18.5835 -0.00596526 17.4977 0.135719ZM21.4191 2.02485C24.1844 2.18228 27.4652 3.31575 29.8946 4.94513C34.0972 7.77882 36.9171 12.0845 37.8154 17.0828C38.0263 18.2477 38.1045 20.9319 37.9639 22.1441C37.4952 26.3002 35.636 30.1493 32.6755 33.0932C29.754 36.0056 26.106 37.7766 21.9893 38.2725C21.0754 38.3906 18.9038 38.3827 17.9664 38.2725C11.9594 37.5484 6.71788 33.8882 3.9448 28.4805C3.08554 26.8118 2.5153 25.1273 2.17159 23.2146C2.01536 22.3723 1.99193 21.9945 1.99193 20.1684C1.99193 17.8227 2.09348 17.0513 2.62466 15.1937C4.74158 7.76308 11.311 2.44203 18.9429 1.98549C19.4584 1.95401 20.0599 1.94614 20.2708 1.95401C20.4895 1.96975 21.0051 2.00123 21.4191 2.02485Z" fill="white"/>
<path d="M25.5977 7.73129C24.4885 7.89659 23.4808 8.06976 23.3558 8.12486C22.7153 8.39249 22.6762 9.50235 23.2933 9.82508C23.5746 9.96676 24.0511 9.95889 25.215 9.78572C25.7383 9.70701 26.168 9.66765 26.168 9.68339C26.168 9.78572 24.7463 11.6197 24.0276 12.4462C20.5125 16.4764 16.1849 19.0739 9.95913 20.8765C9.1936 21.0969 8.49838 21.3173 8.42027 21.3566C8.09218 21.5377 7.92033 22.3012 8.11562 22.679C8.24841 22.9152 8.66242 23.1592 8.95145 23.1592C9.54512 23.1592 13.3728 21.9076 15.2553 21.1048C20.1688 18.9874 24.0354 15.949 27.1444 11.7457C27.3475 11.4623 27.5428 11.2026 27.574 11.1711C27.6053 11.1396 27.6912 11.5646 27.7693 12.1156C27.9177 13.2255 28.0271 13.4931 28.4021 13.6742C28.9254 13.9261 29.5191 13.7057 29.73 13.1862C29.8472 12.9185 29.8316 12.7454 29.5191 10.5335C29.3394 9.22685 29.1363 8.04615 29.0739 7.90446C28.8161 7.32198 28.4646 7.30624 25.5977 7.73129Z" fill="white"/>
<path d="M27.6995 16.9332C27.2465 17.2323 27.2699 16.8938 27.2621 24.2378V31.0308H24.0984H20.9348V25.9065V20.7823L20.6692 20.5146C20.4348 20.2785 20.3567 20.247 19.9974 20.247C19.6381 20.247 19.5599 20.2785 19.3256 20.5146L19.06 20.7823V25.9065V31.0308H15.8964H12.7327V27.6382V24.2457L12.4749 23.9859C12.3265 23.8364 12.1078 23.6947 11.9906 23.6632C11.686 23.5845 11.186 23.7813 10.9829 24.0489C10.8267 24.2693 10.8189 24.3637 10.7954 27.654L10.772 31.0308H9.32689H7.87395L7.60836 31.2984C7.21779 31.692 7.21779 32.2587 7.60836 32.6523L7.87395 32.9199H19.9974H32.1208L32.3864 32.6523C32.6208 32.4162 32.652 32.3374 32.652 31.9754C32.652 31.6133 32.6208 31.5346 32.3864 31.2984L32.1208 31.0308H30.6679H29.2149V24.3401C29.2149 18.6885 29.1993 17.6022 29.1056 17.374C28.8869 16.8466 28.1682 16.6262 27.6995 16.9332Z" fill="white"/>
</svg>
