<svg width="40" height="40" viewBox="0 0 40 40" fill="none" xmlns="http://www.w3.org/2000/svg">
<path d="M17.4389 0.117325C8.39883 1.31404 1.22776 8.50997 0.117302 17.5127C-0.0391007 18.7876 -0.0391007 21.2436 0.117302 22.5186C1.1261 30.6688 7.23363 37.5596 15.1711 39.4759C17.0557 39.9374 17.6579 40 20.0587 40C21.9746 40 22.3734 39.9765 23.2649 39.8201C27.042 39.1631 30.2717 37.6457 33.1105 35.1819C36.7234 32.061 38.9912 28.0172 39.8201 23.2616C39.9765 22.37 40 21.9789 40 20.0156C40 18.0524 39.9765 17.6613 39.8201 16.7697C39.2805 13.6723 38.1623 10.9347 36.4184 8.48651C33.1026 3.81697 28.1369 0.829096 22.5376 0.117325C21.3333 -0.0391086 18.5963 -0.0391086 17.4389 0.117325ZM22.2874 2.54204C26.6588 3.12084 30.6706 5.31873 33.4858 8.67423C36.1994 11.9046 37.6149 15.7919 37.6149 20.0156C37.6149 23.5589 36.6452 26.797 34.7292 29.6832C31.39 34.7126 25.9785 37.63 19.9883 37.6222C15.2493 37.6144 10.9482 35.8232 7.58553 32.4521C4.19941 29.0731 2.42424 24.7869 2.42424 20.0156C2.42424 16.7618 3.22972 13.7896 4.84848 11.0755C8.47703 4.97458 15.3275 1.62691 22.2874 2.54204Z" fill="white"/>
<path d="M17.7519 4.88821C11.0814 5.90503 5.87315 11.1377 4.89563 17.8331C4.73141 18.9281 4.73141 21.1025 4.89563 22.1976C5.88097 28.9164 11.1283 34.1725 17.838 35.1502C18.9328 35.3067 21.1146 35.3067 22.2016 35.1424C27.1126 34.4228 31.3042 31.4349 33.5799 27.047C34.4088 25.4514 34.8859 23.9653 35.1439 22.1976C35.3081 21.1025 35.3081 18.9281 35.1439 17.8331C34.1586 11.0908 28.9425 5.87374 22.2016 4.88821C21.1537 4.73178 18.7842 4.73178 17.7519 4.88821ZM21.1693 7.21907C23.1869 7.3364 25.619 8.24371 27.5271 9.59686C28.4733 10.2695 29.7637 11.5601 30.4362 12.5065C31.1322 13.4842 31.8986 14.9938 32.2505 16.0967C32.6728 17.3951 32.8448 18.537 32.8448 20.0153C32.8448 22.1585 32.4303 23.9183 31.4685 25.8033C30.8037 27.1017 30.0921 28.0873 29.0911 29.0884C26.6512 31.5288 23.4606 32.8507 20.0198 32.8507C17.3062 32.8507 14.749 32.0294 12.5124 30.4338C11.5662 29.7611 10.2759 28.4705 9.60335 27.5241C8.49289 25.9676 7.66396 23.9809 7.35115 22.1506C7.14001 20.9226 7.14001 19.108 7.35115 17.88C7.66396 16.0497 8.49289 14.063 9.60335 12.5065C11.7461 9.48735 15.4294 7.43808 19.1205 7.19561C19.5975 7.16432 20.0902 7.14868 20.2153 7.16432C20.3482 7.17214 20.7705 7.20343 21.1693 7.21907Z" fill="white"/>
<path d="M19.6054 9.48798C18.972 9.72263 18.8468 9.97292 18.8468 11.0367V11.8423L18.2369 11.9831C16.6885 12.3272 15.2026 13.4066 14.5849 14.6112C14.1235 15.5263 14.014 16.7387 14.3112 17.6851C14.7725 19.1947 16.2975 20.4931 18.1665 20.9702L18.8468 21.1501V23.4105V25.6632L18.6357 25.6084C17.9006 25.4364 17.0169 24.795 16.7354 24.2396C16.6572 24.091 16.5712 23.7625 16.5399 23.52C16.4382 22.7379 16.0316 22.3312 15.3278 22.3312C14.5458 22.3312 14.1547 22.777 14.1547 23.6608C14.1547 25.6084 15.8048 27.3996 18.1665 28.0097L18.8468 28.1896V29.0109C18.8468 29.9103 18.9329 30.1372 19.363 30.4266C19.6679 30.6299 20.3718 30.6299 20.6767 30.4266C21.1069 30.1372 21.1929 29.9103 21.1929 29.0109V28.1896L21.881 28.0097C22.8664 27.7516 23.7422 27.2979 24.4148 26.68C25.447 25.7179 25.885 24.7872 25.885 23.5435C25.885 21.7524 24.884 20.3288 22.9837 19.4371C22.4285 19.1712 21.623 18.9209 21.3336 18.9209C21.2007 18.9209 21.1929 18.7801 21.1929 16.6135V14.3061L21.6464 14.4782C22.7882 14.9006 23.3825 15.5576 23.4998 16.5197C23.6406 17.6694 24.8683 18.0762 25.6503 17.2393C25.8146 17.0672 25.8459 16.942 25.8693 16.4571C25.9553 14.8145 24.8683 13.2815 22.9837 12.3976C22.4285 12.1317 21.623 11.8814 21.3336 11.8814C21.2085 11.8814 21.1929 11.7954 21.1929 11.0367C21.1929 10.3484 21.1694 10.1528 21.0365 9.94946C20.7706 9.50362 20.1293 9.30026 19.6054 9.48798ZM18.8468 16.4649V18.6237L18.6357 18.5689C17.8928 18.389 17.0169 17.7555 16.7276 17.1845C16.4069 16.5588 16.5868 15.7844 17.1811 15.2056C17.5174 14.8771 18.276 14.4626 18.8312 14.3139C18.839 14.3061 18.8468 15.276 18.8468 16.4649ZM22.3737 21.8619C23.3278 22.4563 23.711 23.434 23.3121 24.224C23.0228 24.795 22.1469 25.4285 21.4118 25.6084L21.1929 25.6632V23.5044V21.3456L21.6464 21.5177C21.8889 21.6037 22.2173 21.7602 22.3737 21.8619Z" fill="white"/>
</svg>
