<svg width="32" height="32" viewBox="0 0 32 32" fill="none" xmlns="http://www.w3.org/2000/svg">
<path d="M16 0C24.8364 0 32 7.16364 32 16C32 24.8364 24.8364 32 16 32C7.16364 32 0 24.8364 0 16C0 7.16364 7.16364 0 16 0ZM21.5193 22.5222C21.8131 21.6196 23.1927 12.6204 23.3622 10.8465C23.4138 10.3098 23.2436 9.95273 22.912 9.79273C22.5098 9.6 21.9149 9.696 21.2233 9.94545C20.2756 10.2873 8.16291 15.4298 7.46327 15.728C6.8 16.0102 6.17236 16.3171 6.17236 16.7629C6.17236 17.0764 6.35855 17.2524 6.87055 17.4349C7.40291 17.6247 8.74473 18.0313 9.53818 18.2502C10.3018 18.4611 11.1695 18.2778 11.6567 17.9753C12.1724 17.6545 18.1302 13.6691 18.5571 13.3193C18.984 12.9702 19.3251 13.4175 18.976 13.7673C18.6269 14.1164 14.5382 18.0851 13.9985 18.6349C13.3433 19.3018 13.808 19.9935 14.248 20.2705C14.7491 20.5869 18.3564 23.0058 18.8996 23.3942C19.4429 23.7825 19.9935 23.9585 20.4982 23.9585C21.0029 23.9578 21.2684 23.2931 21.5193 22.5222Z" fill="white"/>
</svg>
