<svg width="64" height="64" viewBox="0 0 64 64" fill="none" xmlns="http://www.w3.org/2000/svg">
<circle cx="32" cy="32" r="32" fill="url(#paint0_linear_3352_260)"/>
<path d="M25.2987 12.7025C20.2078 14.5147 16.2597 18.0354 13.6104 23.0058C12.0519 25.957 12 26.3712 12 32.0664C12 37.6064 12.1039 38.2277 13.5065 40.9718C15.4805 44.8549 18.9091 48.2721 22.8571 50.3431C25.8701 51.9481 26.2857 51.9999 32 51.9999C37.7143 51.9999 38.1299 51.9481 41.0909 50.3431C45.0909 48.2721 48.2597 45.1138 50.3377 41.1271C51.9481 38.1759 52 37.7617 52 32.0664C52 26.5265 51.8961 25.9052 50.4935 23.1093C48.5195 19.278 44.7792 15.5502 40.987 13.6863C38.3896 12.3919 37.2468 12.1848 32.7792 12.0295C28.987 11.9259 26.961 12.0812 25.2987 12.7025ZM38.6494 16.7928C40.1039 17.4658 41.3507 18.0872 41.3507 18.1907C41.3507 18.2943 40.3117 18.2943 39.013 18.1907L36.6753 17.9836V19.7957C36.6753 21.2454 36.8831 21.6596 37.9221 21.9185C38.961 22.1774 39.2208 22.6434 39.5325 24.9215C39.9481 27.8727 42.7533 33.6197 43.8442 33.6197C44.1558 33.6197 44.4675 33.4126 44.4675 33.2055C44.4675 31.9629 45.8701 30.9792 47.2208 31.2898C49.039 31.7558 49.1948 33.6197 47.4286 33.6197C45.8182 33.6197 44.8312 35.3801 45.2468 37.7099C45.5065 39.2114 45.2987 39.9363 44.4675 41.0235C43.8442 41.8002 43.1688 43.0946 42.961 43.8712C42.7013 44.9067 41.8182 45.6833 39.3247 46.9777C36.4156 48.4274 35.4805 48.6345 32.052 48.6345C27.3766 48.6345 23.6364 47.133 20.3636 44.0783C16.4675 40.3505 14.026 32.8948 16.2597 31.2898C16.987 30.7721 17.2987 30.8756 18.2857 32.0147L19.4805 33.3608L20.6234 32.2218L21.7662 31.0827L22.7013 32.2218C23.6364 33.3608 23.6364 33.3608 24.4156 32.3253C25.4026 31.0827 26.4416 27.562 26.1299 26.6818C25.974 26.3194 26.3377 25.7499 26.9091 25.3874C27.6883 24.9215 27.8961 24.3519 27.7403 23.2129C27.5325 21.7114 28.4156 21.0901 29.1429 22.2292C29.6623 23.0058 30.4416 22.8505 30.8052 21.815C30.961 21.349 31.5844 20.417 32.1558 19.7957C33.1429 18.7085 33.1429 18.6049 32.2597 18.2943C31.7922 18.0872 29.8182 18.1907 27.8961 18.4496C22.5974 19.278 21.5584 18.3978 25.6623 16.6374C29.2468 15.0324 35.013 15.0842 38.6494 16.7928Z" fill="white"/>
<path d="M24.9859 32.584C23.6351 33.982 23.4273 34.0338 22.648 33.3607C21.8687 32.6876 21.6609 32.7394 20.5699 33.8784L19.375 35.1728L20.5699 36.4672C22.0246 38.0204 22.7 38.0722 23.8949 36.7778C24.3625 36.2601 25.1937 35.8977 25.6613 36.053C26.1808 36.1565 27.116 35.6906 27.8433 34.9139L29.0902 33.5678L27.7914 32.3252L26.4925 31.0308L24.9859 32.584Z" fill="white"/>
<path d="M28.7789 37.6582C27.6879 38.2795 27.3242 38.9526 27.3242 40.1952C27.3242 42.2662 27.9996 42.6804 29.9738 41.9038C31.2726 41.3343 31.6363 41.386 32.4676 42.1109C34.234 43.7159 36.6757 42.8357 36.6757 40.6612C36.6757 40.0399 36.1043 38.9008 35.4289 38.0207C34.3898 36.7263 34.0781 36.6227 33.4027 37.1405C32.8832 37.6065 32.5195 37.6582 32.2597 37.244C31.7922 36.4674 30.3894 36.6227 28.7789 37.6582Z" fill="white"/>
<defs>
<linearGradient id="paint0_linear_3352_260" x1="31.0857" y1="17.3714" x2="64" y2="64" gradientUnits="userSpaceOnUse">
<stop stop-color="#FCA034"/>
<stop offset="1" stop-color="#F46C20"/>
</linearGradient>
</defs>
</svg>
