<svg width="64" height="64" viewBox="0 0 64 64" fill="none" xmlns="http://www.w3.org/2000/svg">
<circle cx="32" cy="32" r="32" fill="url(#paint0_linear_3352_270)"/>
<path d="M24.0944 14.916C21.8894 15.3858 19.5962 16.0434 18.9788 16.3253C16.9501 17.1709 16.7296 18.2983 16.906 26.8949L17.0383 34.8338L18.8024 38.5919C20.1695 41.5514 21.4043 43.2895 24.7559 46.8597C27.0491 49.3494 29.7833 51.98 30.7976 52.6847L32.6939 54L34.4579 52.7316C37.5008 50.6177 42.7488 44.9806 44.7774 41.6923C48.0849 36.3371 48.57 34.2701 48.57 25.7675C48.5259 20.6941 48.3936 18.1574 47.9967 17.6406C47.1147 16.4193 45.8358 15.9025 41.2053 14.916C35.6045 13.6947 29.4746 13.6947 24.0944 14.916ZM40.5438 18.2043C43.0575 18.7681 45.042 19.4727 45.3948 19.9425C46.0563 20.835 46.1004 27.0358 45.483 31.0757C44.8215 35.5854 42.396 40.1891 38.5152 44.4169C36.6629 46.4369 34.5902 48.4568 33.9287 48.9266C32.738 49.7252 32.6498 49.7252 31.5032 48.9266C30.7976 48.4568 28.769 46.4839 26.9609 44.5109C22.9919 40.2361 20.6105 35.7264 19.949 31.3106C19.2875 27.0828 19.3316 20.882 20.0372 19.8955C20.7869 18.7681 27.6665 17.3118 32.3852 17.2648C34.7666 17.2178 37.8536 17.5937 40.5438 18.2043Z" fill="white"/>
<path d="M36.5757 28.8212L30.9308 34.8341L27.932 31.6398L24.9332 28.4454L23.8748 29.6668L22.8164 30.8882L26.8736 35.21L30.9308 39.5317L37.7664 32.2505L44.5578 25.0162L43.6317 23.9357C43.1025 23.325 42.5733 22.8553 42.441 22.8553C42.3087 22.8553 39.6627 25.5329 36.5757 28.8212Z" fill="white"/>
<defs>
<linearGradient id="paint0_linear_3352_270" x1="31.0857" y1="17.3714" x2="64" y2="64" gradientUnits="userSpaceOnUse">
<stop stop-color="#FCA034"/>
<stop offset="1" stop-color="#F46C20"/>
</linearGradient>
</defs>
</svg>
