<svg width="64" height="64" viewBox="0 0 64 64" fill="none" xmlns="http://www.w3.org/2000/svg">
<circle cx="32" cy="32" r="32" fill="url(#paint0_linear_3352_244)"/>
<g clip-path="url(#clip0_3352_244)">
<path d="M36.5047 48.9754L40.7871 44.9785H31.9844H23.1816L27.464 48.9754C29.7956 51.1959 31.8416 52.9724 31.9844 52.9724C32.1271 52.9724 34.1732 51.1959 36.5047 48.9754Z" fill="white"/>
<path d="M50.7792 41.2036C51.9688 40.1378 51.9688 40.0489 51.9688 31.6554C51.9688 23.2619 51.9688 23.173 50.7792 22.1072L49.6372 20.9969L31.9841 20.9969H14.3311L13.1891 22.1072C11.9995 23.173 11.9995 23.2619 11.9995 31.6554C11.9995 40.0489 11.9995 40.1378 13.1891 41.2036L14.3311 42.3139H31.9841H49.6372L50.7792 41.2036ZM17.7094 38.8499C17.7094 37.8284 16.8054 36.9846 15.711 36.9846C14.9496 36.9846 14.8545 36.4961 14.8545 31.6554C14.8545 26.8147 14.9496 26.3262 15.711 26.3262C16.8054 26.3262 17.7094 25.4824 17.7094 24.4609C17.7094 23.706 18.5659 23.6616 31.9841 23.6616C45.4024 23.6616 46.2589 23.706 46.2589 24.4609C46.2589 25.4824 47.1629 26.3262 48.2573 26.3262C49.0186 26.3262 49.1138 26.8147 49.1138 31.6554C49.1138 36.4961 49.0186 36.9846 48.2573 36.9846C47.1629 36.9846 46.2589 37.8284 46.2589 38.8499C46.2589 39.6048 45.4024 39.6492 31.9841 39.6492C18.5659 39.6492 17.7094 39.6048 17.7094 38.8499Z" fill="white"/>
<path d="M36.0756 35.4747C37.503 34.1424 37.6934 33.6983 37.6934 31.6554C37.6934 29.6125 37.503 29.1684 36.0756 27.8361C34.6481 26.5038 34.1723 26.3262 31.9835 26.3262C29.7947 26.3262 29.3189 26.5038 27.8914 27.8361C26.4639 29.1684 26.2736 29.6125 26.2736 31.6554C26.2736 33.6983 26.4639 34.1424 27.8914 35.4747C29.3189 36.807 29.7947 36.9846 31.9835 36.9846C34.1723 36.9846 34.6481 36.807 36.0756 35.4747ZM30.1753 33.343C29.8423 33.0321 29.6044 32.2771 29.6044 31.6554C29.6044 31.0337 29.8423 30.2787 30.1753 29.9678C30.5084 29.6569 31.3173 29.4349 31.9835 29.4349C33.5537 29.4349 34.3626 30.1899 34.3626 31.6554C34.3626 32.2771 34.1247 33.0321 33.7916 33.343C33.4585 33.6539 32.6496 33.8759 31.9835 33.8759C31.3173 33.8759 30.5084 33.6539 30.1753 33.343Z" fill="white"/>
<path d="M45.6888 33.787C46.4501 33.0765 46.4501 30.2342 45.6888 29.5236C45.3557 29.2128 44.3565 28.9907 43.4048 28.9907C41.2636 28.9907 40.5499 29.6569 40.5499 31.6553C40.5499 33.6538 41.2636 34.32 43.4048 34.32C44.3565 34.32 45.3557 34.0979 45.6888 33.787Z" fill="white"/>
<path d="M22.8489 33.787C23.182 33.4762 23.4199 32.5435 23.4199 31.6553C23.4199 29.6569 22.7062 28.9907 20.565 28.9907C18.4238 28.9907 17.71 29.6569 17.71 31.6553C17.71 33.6538 18.4238 34.32 20.565 34.32C21.5166 34.32 22.5159 34.0979 22.8489 33.787Z" fill="white"/>
</g>
<defs>
<linearGradient id="paint0_linear_3352_244" x1="31.0857" y1="17.3714" x2="64" y2="64" gradientUnits="userSpaceOnUse">
<stop stop-color="#FCA034"/>
<stop offset="1" stop-color="#F46C20"/>
</linearGradient>
<clipPath id="clip0_3352_244">
<rect width="40" height="40" fill="white" transform="translate(12 17)"/>
</clipPath>
</defs>
</svg>
