<svg width="64" height="64" viewBox="0 0 64 64" fill="none" xmlns="http://www.w3.org/2000/svg">
<circle cx="32" cy="32" r="32" fill="url(#paint0_linear_3352_282)"/>
<path d="M29.7778 13.5502C28.6667 14.6268 27.7222 15.0882 26.5 15.0882C25.3333 15.0882 24.2222 15.5496 23.3889 16.3699C22 17.6003 22 17.7541 22 26.1618C22 34.0568 21.9444 34.672 21.0556 34.3131C20.5 34.108 18.9444 33.8004 17.5556 33.6979C14.0556 33.3391 12 34.8258 12 37.6967C12 38.8246 12.2778 40.2087 12.6111 40.7727C13.3333 42.0543 23.6667 49.6417 26.4444 50.9747C28.2778 51.8462 29.7222 52 35.4444 52C43.1667 52 45.3889 51.3335 48.5 48.3601C51.7222 45.1816 52 43.9512 52 31.7498C52 20.6763 52 20.6763 50.6111 19.4459C49.7222 18.5743 48.6667 18.1642 47.2778 18.1642C45.6667 18.1642 45.3333 17.9592 45.3333 17.1389C45.3333 16.5237 44.7222 15.4984 43.9444 14.7806C42.7778 13.704 42.0556 13.499 40.1667 13.6015C38.6111 13.704 37.2778 13.4477 36.4444 12.8838C34.2778 11.4996 31.6111 11.7559 29.7778 13.5502ZM35 16.4212C35.1667 16.8826 35.3333 20.2149 35.3333 23.8548V30.4681H37H38.6667V24.6238C38.6667 18.1129 38.8889 17.1389 40.3333 17.1389C41.7778 17.1389 42 18.1129 42 24.6238V30.4681H43.6667H45.3333V26.9308C45.3333 22.7269 45.6667 21.7529 47.0556 21.7529C48.6111 21.7529 48.8333 23.3934 48.5556 33.1853C48.3333 42.8233 47.9444 44.0537 44.7778 46.5145C41.4444 49.1291 31.8333 49.6417 27.7778 47.4373C24 45.3866 15.8889 38.9783 15.8889 38.0556C15.8889 36.7739 17.3333 36.8764 21.1111 38.4144C22.8333 39.1321 24.5 39.6961 24.7778 39.6961C25.1111 39.6961 25.3333 35.9536 25.3333 30.0067C25.3333 24.675 25.5 19.9585 25.6667 19.4971C26.1111 18.4205 27.8889 18.4205 28.3333 19.4971C28.5 19.9585 28.6667 22.5731 28.6667 25.3928V30.4681H30.3333H32V23.8548C32 16.575 32.2222 15.6009 33.6667 15.6009C34.2222 15.6009 34.8333 15.9598 35 16.4212Z" fill="white"/>
<defs>
<linearGradient id="paint0_linear_3352_282" x1="31.0857" y1="17.3714" x2="64" y2="64" gradientUnits="userSpaceOnUse">
<stop stop-color="#FCA034"/>
<stop offset="1" stop-color="#F46C20"/>
</linearGradient>
</defs>
</svg>
