<svg width="329" height="56" viewBox="0 0 329 56" fill="none" xmlns="http://www.w3.org/2000/svg">
<path d="M10.4729 12.2733C12.1968 5.07583 18.6319 1.34541e-07 26.0329 3.25316e-07L307.441 7.5792e-06C315.313 7.78212e-06 322.016 5.726 323.245 13.5013L326.13 31.7458C327.646 41.34 320.334 50.0616 310.622 50.2417L20.6723 55.6168C10.2079 55.8108 2.37804 46.0712 4.81585 35.8928L10.4729 12.2733Z" fill="url(#paint0_linear_3352_114)"/>
<path d="M82.9375 25.6719L80.6875 25.1484C81.1719 23.2839 82.5495 22.3516 84.8203 22.3516C86.1641 22.3516 87.1771 22.6484 87.8594 23.2422C88.5469 23.8307 88.8906 24.5234 88.8906 25.3203C88.8906 25.8672 88.7344 26.362 88.4219 26.8047C88.1094 27.2422 87.6406 27.6276 87.0156 27.9609C87.776 28.2214 88.3464 28.5911 88.7266 29.0703C89.1068 29.5443 89.2969 30.1302 89.2969 30.8281C89.2969 31.8333 88.9271 32.6458 88.1875 33.2656C87.4531 33.8854 86.3516 34.1953 84.8828 34.1953C83.6849 34.1953 82.7396 33.9974 82.0469 33.6016C81.3542 33.2005 80.8333 32.4531 80.4844 31.3594L82.6016 30.6641C82.8203 31.3516 83.1094 31.7969 83.4688 32C83.8333 32.2031 84.2812 32.3047 84.8125 32.3047C85.5417 32.3047 86.0729 32.1484 86.4062 31.8359C86.7396 31.5182 86.9062 31.1562 86.9062 30.75C86.9062 30.2812 86.7161 29.9036 86.3359 29.6172C85.9609 29.3307 85.3932 29.1875 84.6328 29.1875H84.1094V27.4609H84.375C85.0833 27.4609 85.625 27.3021 86 26.9844C86.375 26.6667 86.5625 26.2448 86.5625 25.7188C86.5625 25.3021 86.4089 24.9505 86.1016 24.6641C85.7995 24.3776 85.3646 24.2344 84.7969 24.2344C83.8281 24.2344 83.2083 24.7135 82.9375 25.6719ZM92.9609 28.2344L90.9688 27.875C91.1927 27.0729 91.5781 26.4792 92.125 26.0938C92.6719 25.7083 93.4844 25.5156 94.5625 25.5156C95.5417 25.5156 96.2708 25.6328 96.75 25.8672C97.2292 26.0964 97.5651 26.3906 97.7578 26.75C97.9557 27.1042 98.0547 27.7578 98.0547 28.7109L98.0312 31.2734C98.0312 32.0026 98.0651 32.5417 98.1328 32.8906C98.2057 33.2344 98.3385 33.6042 98.5312 34H96.3594C96.3021 33.8542 96.2318 33.638 96.1484 33.3516C96.112 33.2214 96.0859 33.1354 96.0703 33.0938C95.6953 33.4583 95.2943 33.7318 94.8672 33.9141C94.4401 34.0964 93.9844 34.1875 93.5 34.1875C92.6458 34.1875 91.9714 33.9557 91.4766 33.4922C90.987 33.0286 90.7422 32.4427 90.7422 31.7344C90.7422 31.2656 90.8542 30.849 91.0781 30.4844C91.3021 30.1146 91.6146 29.8333 92.0156 29.6406C92.4219 29.4427 93.0052 29.2708 93.7656 29.125C94.7917 28.9323 95.5026 28.7526 95.8984 28.5859V28.3672C95.8984 27.9453 95.7943 27.6458 95.5859 27.4688C95.3776 27.2865 94.9844 27.1953 94.4062 27.1953C94.0156 27.1953 93.7109 27.2734 93.4922 27.4297C93.2734 27.5807 93.0964 27.849 92.9609 28.2344ZM95.8984 30.0156C95.6172 30.1094 95.1719 30.2214 94.5625 30.3516C93.9531 30.4818 93.5547 30.6094 93.3672 30.7344C93.0807 30.9375 92.9375 31.1953 92.9375 31.5078C92.9375 31.8151 93.0521 32.0807 93.2812 32.3047C93.5104 32.5286 93.8021 32.6406 94.1562 32.6406C94.5521 32.6406 94.9297 32.5104 95.2891 32.25C95.5547 32.0521 95.7292 31.8099 95.8125 31.5234C95.8698 31.3359 95.8984 30.9792 95.8984 30.4531V30.0156ZM100.164 25.7031H102.211V26.9219C102.477 26.5052 102.836 26.1667 103.289 25.9062C103.742 25.6458 104.245 25.5156 104.797 25.5156C105.76 25.5156 106.578 25.8932 107.25 26.6484C107.922 27.4036 108.258 28.4557 108.258 29.8047C108.258 31.1901 107.919 32.2682 107.242 33.0391C106.565 33.8047 105.745 34.1875 104.781 34.1875C104.323 34.1875 103.906 34.0964 103.531 33.9141C103.161 33.7318 102.771 33.4193 102.359 32.9766V37.1562H100.164V25.7031ZM102.336 29.7109C102.336 30.6432 102.521 31.3333 102.891 31.7812C103.26 32.224 103.711 32.4453 104.242 32.4453C104.753 32.4453 105.177 32.2422 105.516 31.8359C105.854 31.4245 106.023 30.7526 106.023 29.8203C106.023 28.9505 105.849 28.3047 105.5 27.8828C105.151 27.4609 104.719 27.25 104.203 27.25C103.667 27.25 103.221 27.4583 102.867 27.875C102.513 28.2865 102.336 28.8984 102.336 29.7109ZM114.812 31.3594L117 31.7266C116.719 32.5286 116.273 33.1406 115.664 33.5625C115.06 33.9792 114.302 34.1875 113.391 34.1875C111.948 34.1875 110.88 33.7161 110.188 32.7734C109.641 32.0182 109.367 31.0651 109.367 29.9141C109.367 28.5391 109.727 27.4635 110.445 26.6875C111.164 25.9062 112.073 25.5156 113.172 25.5156C114.406 25.5156 115.38 25.9245 116.094 26.7422C116.807 27.5547 117.148 28.8021 117.117 30.4844H111.617C111.633 31.1354 111.81 31.6432 112.148 32.0078C112.487 32.3672 112.909 32.5469 113.414 32.5469C113.758 32.5469 114.047 32.4531 114.281 32.2656C114.516 32.0781 114.693 31.776 114.812 31.3594ZM114.938 29.1406C114.922 28.5052 114.758 28.0234 114.445 27.6953C114.133 27.362 113.753 27.1953 113.305 27.1953C112.826 27.1953 112.43 27.3698 112.117 27.7188C111.805 28.0677 111.651 28.5417 111.656 29.1406H114.938ZM118.828 25.7031H124.43V27.4766H121.023V34H118.828V25.7031ZM130.391 31.3594L132.578 31.7266C132.297 32.5286 131.852 33.1406 131.242 33.5625C130.638 33.9792 129.88 34.1875 128.969 34.1875C127.526 34.1875 126.458 33.7161 125.766 32.7734C125.219 32.0182 124.945 31.0651 124.945 29.9141C124.945 28.5391 125.305 27.4635 126.023 26.6875C126.742 25.9062 127.651 25.5156 128.75 25.5156C129.984 25.5156 130.958 25.9245 131.672 26.7422C132.385 27.5547 132.727 28.8021 132.695 30.4844H127.195C127.211 31.1354 127.388 31.6432 127.727 32.0078C128.065 32.3672 128.487 32.5469 128.992 32.5469C129.336 32.5469 129.625 32.4531 129.859 32.2656C130.094 32.0781 130.271 31.776 130.391 31.3594ZM130.516 29.1406C130.5 28.5052 130.336 28.0234 130.023 27.6953C129.711 27.362 129.331 27.1953 128.883 27.1953C128.404 27.1953 128.008 27.3698 127.695 27.7188C127.383 28.0677 127.229 28.5417 127.234 29.1406H130.516ZM141.508 28.1562L139.344 28.5469C139.271 28.1146 139.104 27.7891 138.844 27.5703C138.589 27.3516 138.255 27.2422 137.844 27.2422C137.297 27.2422 136.859 27.4323 136.531 27.8125C136.208 28.1875 136.047 28.8177 136.047 29.7031C136.047 30.6875 136.211 31.3828 136.539 31.7891C136.872 32.1953 137.318 32.3984 137.875 32.3984C138.292 32.3984 138.633 32.2812 138.898 32.0469C139.164 31.8073 139.352 31.3984 139.461 30.8203L141.617 31.1875C141.393 32.1771 140.964 32.9245 140.328 33.4297C139.693 33.9349 138.841 34.1875 137.773 34.1875C136.56 34.1875 135.591 33.8047 134.867 33.0391C134.148 32.2734 133.789 31.2135 133.789 29.8594C133.789 28.4896 134.151 27.4245 134.875 26.6641C135.599 25.8984 136.578 25.5156 137.812 25.5156C138.823 25.5156 139.625 25.7344 140.219 26.1719C140.818 26.6042 141.247 27.2656 141.508 28.1562ZM142.195 25.7031H149.703V27.4766H147.047V34H144.852V27.4766H142.195V25.7031ZM150.961 25.7031H153.008V26.9219C153.273 26.5052 153.633 26.1667 154.086 25.9062C154.539 25.6458 155.042 25.5156 155.594 25.5156C156.557 25.5156 157.375 25.8932 158.047 26.6484C158.719 27.4036 159.055 28.4557 159.055 29.8047C159.055 31.1901 158.716 32.2682 158.039 33.0391C157.362 33.8047 156.542 34.1875 155.578 34.1875C155.12 34.1875 154.703 34.0964 154.328 33.9141C153.958 33.7318 153.568 33.4193 153.156 32.9766V37.1562H150.961V25.7031ZM153.133 29.7109C153.133 30.6432 153.318 31.3333 153.688 31.7812C154.057 32.224 154.508 32.4453 155.039 32.4453C155.549 32.4453 155.974 32.2422 156.312 31.8359C156.651 31.4245 156.82 30.7526 156.82 29.8203C156.82 28.9505 156.646 28.3047 156.297 27.8828C155.948 27.4609 155.516 27.25 155 27.25C154.464 27.25 154.018 27.4583 153.664 27.875C153.31 28.2865 153.133 28.8984 153.133 29.7109ZM160.75 25.7031H162.859V30.9141L166.234 25.7031H168.391V34H166.281V28.6953L162.859 34H160.75V25.7031ZM170.586 25.7031H172.633V26.9219C172.898 26.5052 173.258 26.1667 173.711 25.9062C174.164 25.6458 174.667 25.5156 175.219 25.5156C176.182 25.5156 177 25.8932 177.672 26.6484C178.344 27.4036 178.68 28.4557 178.68 29.8047C178.68 31.1901 178.341 32.2682 177.664 33.0391C176.987 33.8047 176.167 34.1875 175.203 34.1875C174.745 34.1875 174.328 34.0964 173.953 33.9141C173.583 33.7318 173.193 33.4193 172.781 32.9766V37.1562H170.586V25.7031ZM172.758 29.7109C172.758 30.6432 172.943 31.3333 173.312 31.7812C173.682 32.224 174.133 32.4453 174.664 32.4453C175.174 32.4453 175.599 32.2422 175.938 31.8359C176.276 31.4245 176.445 30.7526 176.445 29.8203C176.445 28.9505 176.271 28.3047 175.922 27.8828C175.573 27.4609 175.141 27.25 174.625 27.25C174.089 27.25 173.643 27.4583 173.289 27.875C172.935 28.2865 172.758 28.8984 172.758 29.7109ZM179.922 29.7344C179.922 29.0052 180.102 28.2995 180.461 27.6172C180.82 26.9349 181.328 26.4141 181.984 26.0547C182.646 25.6953 183.383 25.5156 184.195 25.5156C185.451 25.5156 186.479 25.9245 187.281 26.7422C188.083 27.5547 188.484 28.5833 188.484 29.8281C188.484 31.0833 188.078 32.125 187.266 32.9531C186.458 33.776 185.44 34.1875 184.211 34.1875C183.451 34.1875 182.724 34.0156 182.031 33.6719C181.344 33.3281 180.82 32.8255 180.461 32.1641C180.102 31.4974 179.922 30.6875 179.922 29.7344ZM182.172 29.8516C182.172 30.6745 182.367 31.3047 182.758 31.7422C183.148 32.1797 183.63 32.3984 184.203 32.3984C184.776 32.3984 185.255 32.1797 185.641 31.7422C186.031 31.3047 186.227 30.6693 186.227 29.8359C186.227 29.0234 186.031 28.3984 185.641 27.9609C185.255 27.5234 184.776 27.3047 184.203 27.3047C183.63 27.3047 183.148 27.5234 182.758 27.9609C182.367 28.3984 182.172 29.0286 182.172 29.8516ZM190.234 25.7031H195.039C196.023 25.7031 196.76 25.8828 197.25 26.2422C197.74 26.6016 197.984 27.1432 197.984 27.8672C197.984 28.3307 197.849 28.7344 197.578 29.0781C197.312 29.4219 196.977 29.651 196.57 29.7656C197.143 29.9062 197.57 30.1693 197.852 30.5547C198.133 30.9401 198.273 31.362 198.273 31.8203C198.273 32.4661 198.036 32.9922 197.562 33.3984C197.089 33.7995 196.388 34 195.461 34H190.234V25.7031ZM192.445 29.1484H193.859C194.542 29.1484 195.034 29.0625 195.336 28.8906C195.643 28.7188 195.797 28.4479 195.797 28.0781C195.797 27.7292 195.654 27.4818 195.367 27.3359C195.086 27.1849 194.583 27.1094 193.859 27.1094H192.445V29.1484ZM192.445 32.5938H194.18C194.805 32.5938 195.26 32.5182 195.547 32.3672C195.833 32.2161 195.977 31.9453 195.977 31.5547C195.977 31.1484 195.812 30.8698 195.484 30.7188C195.156 30.5625 194.518 30.4844 193.57 30.4844H192.445V32.5938ZM201.477 28.2344L199.484 27.875C199.708 27.0729 200.094 26.4792 200.641 26.0938C201.188 25.7083 202 25.5156 203.078 25.5156C204.057 25.5156 204.786 25.6328 205.266 25.8672C205.745 26.0964 206.081 26.3906 206.273 26.75C206.471 27.1042 206.57 27.7578 206.57 28.7109L206.547 31.2734C206.547 32.0026 206.581 32.5417 206.648 32.8906C206.721 33.2344 206.854 33.6042 207.047 34H204.875C204.818 33.8542 204.747 33.638 204.664 33.3516C204.628 33.2214 204.602 33.1354 204.586 33.0938C204.211 33.4583 203.81 33.7318 203.383 33.9141C202.956 34.0964 202.5 34.1875 202.016 34.1875C201.161 34.1875 200.487 33.9557 199.992 33.4922C199.503 33.0286 199.258 32.4427 199.258 31.7344C199.258 31.2656 199.37 30.849 199.594 30.4844C199.818 30.1146 200.13 29.8333 200.531 29.6406C200.938 29.4427 201.521 29.2708 202.281 29.125C203.307 28.9323 204.018 28.7526 204.414 28.5859V28.3672C204.414 27.9453 204.31 27.6458 204.102 27.4688C203.893 27.2865 203.5 27.1953 202.922 27.1953C202.531 27.1953 202.227 27.2734 202.008 27.4297C201.789 27.5807 201.612 27.849 201.477 28.2344ZM204.414 30.0156C204.133 30.1094 203.688 30.2214 203.078 30.3516C202.469 30.4818 202.07 30.6094 201.883 30.7344C201.596 30.9375 201.453 31.1953 201.453 31.5078C201.453 31.8151 201.568 32.0807 201.797 32.3047C202.026 32.5286 202.318 32.6406 202.672 32.6406C203.068 32.6406 203.445 32.5104 203.805 32.25C204.07 32.0521 204.245 31.8099 204.328 31.5234C204.385 31.3359 204.414 30.9792 204.414 30.4531V30.0156ZM207.758 25.7031H215.266V27.4766H212.609V34H210.414V27.4766H207.758V25.7031ZM216.633 25.7031H218.828V29.1484H221.031C221.896 29.1484 222.56 29.2109 223.023 29.3359C223.487 29.4609 223.872 29.7318 224.18 30.1484C224.487 30.5599 224.641 31.0391 224.641 31.5859C224.641 32.388 224.365 32.9922 223.812 33.3984C223.266 33.7995 222.443 34 221.344 34H216.633V25.7031ZM218.828 32.6094H220.875C221.516 32.6094 221.924 32.5052 222.102 32.2969C222.284 32.0885 222.375 31.8411 222.375 31.5547C222.375 31.1536 222.219 30.8776 221.906 30.7266C221.599 30.5755 221.049 30.5 220.258 30.5H218.828V32.6094ZM233.664 28.1562L231.5 28.5469C231.427 28.1146 231.26 27.7891 231 27.5703C230.745 27.3516 230.411 27.2422 230 27.2422C229.453 27.2422 229.016 27.4323 228.688 27.8125C228.365 28.1875 228.203 28.8177 228.203 29.7031C228.203 30.6875 228.367 31.3828 228.695 31.7891C229.029 32.1953 229.474 32.3984 230.031 32.3984C230.448 32.3984 230.789 32.2812 231.055 32.0469C231.32 31.8073 231.508 31.3984 231.617 30.8203L233.773 31.1875C233.549 32.1771 233.12 32.9245 232.484 33.4297C231.849 33.9349 230.997 34.1875 229.93 34.1875C228.716 34.1875 227.747 33.8047 227.023 33.0391C226.305 32.2734 225.945 31.2135 225.945 29.8594C225.945 28.4896 226.307 27.4245 227.031 26.6641C227.755 25.8984 228.734 25.5156 229.969 25.5156C230.979 25.5156 231.781 25.7344 232.375 26.1719C232.974 26.6042 233.404 27.2656 233.664 28.1562ZM242.445 25.7031V34H240.266V30.5547H240.062C239.589 30.5547 239.24 30.6172 239.016 30.7422C238.797 30.862 238.552 31.1198 238.281 31.5156L238.148 31.6797L236.703 34H234.148L235.719 31.5938C236.167 30.9062 236.573 30.5104 236.938 30.4062C236.323 30.3698 235.823 30.138 235.438 29.7109C235.057 29.2786 234.867 28.7292 234.867 28.0625C234.867 27.526 234.992 27.0677 235.242 26.6875C235.497 26.3073 235.833 26.0495 236.25 25.9141C236.672 25.7734 237.297 25.7031 238.125 25.7031H242.445ZM240.266 27.1172H238.695C238.117 27.1172 237.711 27.2005 237.477 27.3672C237.242 27.5286 237.125 27.7995 237.125 28.1797C237.125 28.5599 237.258 28.8333 237.523 29C237.789 29.1667 238.224 29.25 238.828 29.25H240.266V27.1172ZM245.539 31.0469L244.969 25.2344V22.5469H247.344V25.2344L246.781 31.0469H245.539ZM245.062 34V31.8047H247.258V34H245.062Z" fill="white"/>
<defs>
<linearGradient id="paint0_linear_3352_114" x1="8.41945e-06" y1="-26.88" x2="266.002" y2="162.714" gradientUnits="userSpaceOnUse">
<stop stop-color="#FCA034"/>
<stop offset="0.528701" stop-color="#F46C20"/>
<stop offset="1" stop-color="#E23E0A"/>
</linearGradient>
</defs>
</svg>
