<svg width="247" height="91" viewBox="0 0 247 91" fill="none" xmlns="http://www.w3.org/2000/svg">
<g filter="url(#filter0_d_5251_15850)">
<path d="M18.7371 33.0028C18.3351 28.6382 21.6491 24.8175 26.0266 24.5987L211.009 15.3496C214.974 15.1513 218.441 17.9977 219.018 21.9255L224.182 57.0395C224.873 61.7375 221.192 65.9366 216.444 65.8668L28.4258 63.1018C24.4871 63.0439 21.226 60.0252 20.8647 56.1027L18.7371 33.0028Z" fill="url(#paint0_linear_5251_15850)"/>
</g>
<path d="M62.5522 40.281C63.4795 40.723 63.9432 41.4553 63.9432 42.478C63.9432 43.2753 63.6398 43.9253 63.0332 44.428C62.4352 44.922 61.6508 45.169 60.6802 45.169C59.0162 45.169 57.9155 44.467 57.3782 43.063L58.6652 42.322C58.9338 43.284 59.6055 43.765 60.6802 43.765C61.2522 43.765 61.6898 43.6437 61.9932 43.401C62.2965 43.1497 62.4482 42.816 62.4482 42.4C62.4482 41.9927 62.3008 41.6677 62.0062 41.425C61.7202 41.1737 61.3128 41.048 60.7842 41.048H59.6792V39.696H60.4852C60.9965 39.696 61.3952 39.579 61.6812 39.345C61.9672 39.111 62.1102 38.799 62.1102 38.409C62.1102 38.019 61.9802 37.7113 61.7202 37.486C61.4602 37.252 61.0875 37.135 60.6022 37.135C59.7008 37.135 59.0942 37.5467 58.7822 38.37L57.5082 37.629C58.0975 36.3637 59.1288 35.731 60.6022 35.731C61.4948 35.731 62.2185 35.9737 62.7732 36.459C63.3278 36.9357 63.6052 37.5597 63.6052 38.331C63.6052 39.189 63.2542 39.839 62.5522 40.281ZM70.3064 38.5H71.7104V45H70.3064V44.064C69.7777 44.8007 69.0194 45.169 68.0314 45.169C67.1387 45.169 66.376 44.8397 65.7434 44.181C65.1107 43.5137 64.7944 42.7033 64.7944 41.75C64.7944 40.788 65.1107 39.9777 65.7434 39.319C66.376 38.6603 67.1387 38.331 68.0314 38.331C69.0194 38.331 69.7777 38.695 70.3064 39.423V38.5ZM66.7834 43.245C67.1734 43.635 67.663 43.83 68.2524 43.83C68.8417 43.83 69.3314 43.635 69.7214 43.245C70.1114 42.8463 70.3064 42.348 70.3064 41.75C70.3064 41.152 70.1114 40.658 69.7214 40.268C69.3314 39.8693 68.8417 39.67 68.2524 39.67C67.663 39.67 67.1734 39.8693 66.7834 40.268C66.3934 40.658 66.1984 41.152 66.1984 41.75C66.1984 42.348 66.3934 42.8463 66.7834 43.245ZM77.0258 38.331C77.9185 38.331 78.6812 38.6647 79.3138 39.332C79.9465 39.9907 80.2628 40.7967 80.2628 41.75C80.2628 42.712 79.9465 43.5223 79.3138 44.181C78.6812 44.8397 77.9185 45.169 77.0258 45.169C76.0378 45.169 75.2795 44.805 74.7508 44.077V47.6H73.3468V38.5H74.7508V39.436C75.2795 38.6993 76.0378 38.331 77.0258 38.331ZM75.3358 43.245C75.7258 43.635 76.2155 43.83 76.8048 43.83C77.3942 43.83 77.8838 43.635 78.2738 43.245C78.6638 42.8463 78.8588 42.348 78.8588 41.75C78.8588 41.152 78.6638 40.658 78.2738 40.268C77.8838 39.8693 77.3942 39.67 76.8048 39.67C76.2155 39.67 75.7258 39.8693 75.3358 40.268C74.9458 40.658 74.7508 41.152 74.7508 41.75C74.7508 42.348 74.9458 42.8463 75.3358 43.245ZM82.6403 42.348C82.7443 42.842 82.9826 43.2233 83.3553 43.492C83.728 43.752 84.183 43.882 84.7203 43.882C85.4656 43.882 86.0246 43.6133 86.3973 43.076L87.5543 43.752C86.913 44.6967 85.964 45.169 84.7073 45.169C83.65 45.169 82.7963 44.8483 82.1463 44.207C81.4963 43.557 81.1713 42.738 81.1713 41.75C81.1713 40.7793 81.492 39.969 82.1333 39.319C82.7746 38.6603 83.598 38.331 84.6033 38.331C85.5566 38.331 86.3366 38.6647 86.9433 39.332C87.5586 39.9993 87.8663 40.8097 87.8663 41.763C87.8663 41.9103 87.849 42.1053 87.8143 42.348H82.6403ZM82.6273 41.204H86.4493C86.354 40.6753 86.133 40.2767 85.7863 40.008C85.4483 39.7393 85.0496 39.605 84.5903 39.605C84.0703 39.605 83.637 39.748 83.2903 40.034C82.9436 40.32 82.7226 40.71 82.6273 41.204ZM93.4567 38.5V39.852H90.5057V45H89.1017V38.5H93.4567ZM99.1144 38.5H100.193V45H98.8154V40.866L95.4874 45H94.4084V38.5H95.7864V42.621L99.1144 38.5ZM104.89 45.169C103.911 45.169 103.092 44.8397 102.433 44.181C101.783 43.5223 101.458 42.712 101.458 41.75C101.458 40.7793 101.783 39.969 102.433 39.319C103.092 38.6603 103.911 38.331 104.89 38.331C105.523 38.331 106.099 38.4827 106.619 38.786C107.139 39.0893 107.529 39.4967 107.789 40.008L106.58 40.71C106.433 40.398 106.208 40.1553 105.904 39.982C105.61 39.8 105.267 39.709 104.877 39.709C104.305 39.709 103.824 39.904 103.434 40.294C103.053 40.684 102.862 41.1693 102.862 41.75C102.862 42.3307 103.053 42.816 103.434 43.206C103.824 43.596 104.305 43.791 104.877 43.791C105.259 43.791 105.601 43.7 105.904 43.518C106.216 43.336 106.45 43.0933 106.606 42.79L107.815 43.479C107.538 43.999 107.139 44.4107 106.619 44.714C106.099 45.0173 105.523 45.169 104.89 45.169ZM113.733 38.5V39.852H111.614V45H110.21V39.852H108.078V38.5H113.733ZM118.362 38.331C119.254 38.331 120.017 38.6647 120.65 39.332C121.282 39.9907 121.599 40.7967 121.599 41.75C121.599 42.712 121.282 43.5223 120.65 44.181C120.017 44.8397 119.254 45.169 118.362 45.169C117.374 45.169 116.615 44.805 116.087 44.077V47.6H114.683V38.5H116.087V39.436C116.615 38.6993 117.374 38.331 118.362 38.331ZM116.672 43.245C117.062 43.635 117.551 43.83 118.141 43.83C118.73 43.83 119.22 43.635 119.61 43.245C120 42.8463 120.195 42.348 120.195 41.75C120.195 41.152 120 40.658 119.61 40.268C119.22 39.8693 118.73 39.67 118.141 39.67C117.551 39.67 117.062 39.8693 116.672 40.268C116.282 40.658 116.087 41.152 116.087 41.75C116.087 42.348 116.282 42.8463 116.672 43.245ZM127.577 38.5H128.656V45H127.278V40.866L123.95 45H122.871V38.5H124.249V42.621L127.577 38.5ZM133.964 38.331C134.857 38.331 135.62 38.6647 136.252 39.332C136.885 39.9907 137.201 40.7967 137.201 41.75C137.201 42.712 136.885 43.5223 136.252 44.181C135.62 44.8397 134.857 45.169 133.964 45.169C132.976 45.169 132.218 44.805 131.689 44.077V47.6H130.285V38.5H131.689V39.436C132.218 38.6993 132.976 38.331 133.964 38.331ZM132.274 43.245C132.664 43.635 133.154 43.83 133.743 43.83C134.333 43.83 134.822 43.635 135.212 43.245C135.602 42.8463 135.797 42.348 135.797 41.75C135.797 41.152 135.602 40.658 135.212 40.268C134.822 39.8693 134.333 39.67 133.743 39.67C133.154 39.67 132.664 39.8693 132.274 40.268C131.884 40.658 131.689 41.152 131.689 41.75C131.689 42.348 131.884 42.8463 132.274 43.245ZM141.542 45.169C140.588 45.169 139.778 44.8397 139.111 44.181C138.443 43.5223 138.11 42.712 138.11 41.75C138.11 40.788 138.443 39.9777 139.111 39.319C139.778 38.6603 140.588 38.331 141.542 38.331C142.504 38.331 143.314 38.6603 143.973 39.319C144.64 39.9777 144.974 40.788 144.974 41.75C144.974 42.712 144.64 43.5223 143.973 44.181C143.314 44.8397 142.504 45.169 141.542 45.169ZM140.099 43.219C140.489 43.609 140.97 43.804 141.542 43.804C142.114 43.804 142.595 43.609 142.985 43.219C143.375 42.829 143.57 42.3393 143.57 41.75C143.57 41.1607 143.375 40.671 142.985 40.281C142.595 39.891 142.114 39.696 141.542 39.696C140.97 39.696 140.489 39.891 140.099 40.281C139.709 40.671 139.514 41.1607 139.514 41.75C139.514 42.3393 139.709 42.829 140.099 43.219ZM150.741 41.659C151.383 41.9537 151.703 42.452 151.703 43.154C151.703 43.7 151.517 44.1463 151.144 44.493C150.78 44.831 150.256 45 149.571 45H146.243V38.5H149.311C149.979 38.5 150.494 38.669 150.858 39.007C151.231 39.3363 151.417 39.7653 151.417 40.294C151.417 40.9093 151.192 41.3643 150.741 41.659ZM149.207 39.696H147.582V41.139H149.207C149.779 41.139 150.065 40.8963 150.065 40.411C150.065 39.9343 149.779 39.696 149.207 39.696ZM149.441 43.778C150.031 43.778 150.325 43.5223 150.325 43.011C150.325 42.7857 150.247 42.6123 150.091 42.491C149.935 42.361 149.719 42.296 149.441 42.296H147.582V43.778H149.441ZM157.993 38.5H159.397V45H157.993V44.064C157.464 44.8007 156.706 45.169 155.718 45.169C154.825 45.169 154.063 44.8397 153.43 44.181C152.797 43.5137 152.481 42.7033 152.481 41.75C152.481 40.788 152.797 39.9777 153.43 39.319C154.063 38.6603 154.825 38.331 155.718 38.331C156.706 38.331 157.464 38.695 157.993 39.423V38.5ZM154.47 43.245C154.86 43.635 155.35 43.83 155.939 43.83C156.528 43.83 157.018 43.635 157.408 43.245C157.798 42.8463 157.993 42.348 157.993 41.75C157.993 41.152 157.798 40.658 157.408 40.268C157.018 39.8693 156.528 39.67 155.939 39.67C155.35 39.67 154.86 39.8693 154.47 40.268C154.08 40.658 153.885 41.152 153.885 41.75C153.885 42.348 154.08 42.8463 154.47 43.245ZM165.999 38.5V39.852H163.88V45H162.476V39.852H160.344V38.5H165.999ZM169.783 40.71C170.477 40.71 171.044 40.9093 171.486 41.308C171.928 41.698 172.149 42.2137 172.149 42.855C172.149 43.4877 171.928 44.0033 171.486 44.402C171.044 44.8007 170.477 45 169.783 45H166.949V38.5H168.353V40.71H169.783ZM169.796 43.739C170.074 43.739 170.303 43.6567 170.485 43.492C170.676 43.3273 170.771 43.115 170.771 42.855C170.771 42.5863 170.676 42.374 170.485 42.218C170.303 42.0533 170.074 41.971 169.796 41.971H168.353V43.739H169.796ZM176.289 45.169C175.31 45.169 174.491 44.8397 173.832 44.181C173.182 43.5223 172.857 42.712 172.857 41.75C172.857 40.7793 173.182 39.969 173.832 39.319C174.491 38.6603 175.31 38.331 176.289 38.331C176.922 38.331 177.498 38.4827 178.018 38.786C178.538 39.0893 178.928 39.4967 179.188 40.008L177.979 40.71C177.832 40.398 177.606 40.1553 177.303 39.982C177.008 39.8 176.666 39.709 176.276 39.709C175.704 39.709 175.223 39.904 174.833 40.294C174.452 40.684 174.261 41.1693 174.261 41.75C174.261 42.3307 174.452 42.816 174.833 43.206C175.223 43.596 175.704 43.791 176.276 43.791C176.657 43.791 177 43.7 177.303 43.518C177.615 43.336 177.849 43.0933 178.005 42.79L179.214 43.479C178.937 43.999 178.538 44.4107 178.018 44.714C177.498 45.0173 176.922 45.169 176.289 45.169ZM185.171 38.5V45H183.793V42.816H183.013L181.362 45H179.711L181.466 42.686C181.015 42.5387 180.651 42.2787 180.374 41.906C180.105 41.5333 179.971 41.1173 179.971 40.658C179.971 40.06 180.183 39.553 180.608 39.137C181.041 38.7123 181.596 38.5 182.272 38.5H185.171ZM182.35 41.607H183.793V39.774H182.35C182.064 39.774 181.825 39.8563 181.635 40.021C181.444 40.1857 181.349 40.411 181.349 40.697C181.349 40.9743 181.444 41.1953 181.635 41.36C181.825 41.5247 182.064 41.607 182.35 41.607Z" fill="white"/>
<defs>
<filter id="filter0_d_5251_15850" x="0.703125" y="0.339813" width="245.562" height="90.5279" filterUnits="userSpaceOnUse" color-interpolation-filters="sRGB">
<feFlood flood-opacity="0" result="BackgroundImageFix"/>
<feColorMatrix in="SourceAlpha" type="matrix" values="0 0 0 0 0 0 0 0 0 0 0 0 0 0 0 0 0 0 127 0" result="hardAlpha"/>
<feOffset dx="2" dy="5"/>
<feGaussianBlur stdDeviation="10"/>
<feComposite in2="hardAlpha" operator="out"/>
<feColorMatrix type="matrix" values="0 0 0 0 0.956863 0 0 0 0 0.423529 0 0 0 0 0.12549 0 0 0 0.6 0"/>
<feBlend mode="normal" in2="BackgroundImageFix" result="effect1_dropShadow_5251_15850"/>
<feBlend mode="normal" in="SourceGraphic" in2="effect1_dropShadow_5251_15850" result="shape"/>
</filter>
<linearGradient id="paint0_linear_5251_15850" x1="18" y1="-9.48001" x2="221.431" y2="90.9347" gradientUnits="userSpaceOnUse">
<stop stop-color="#FCA034"/>
<stop offset="0.528701" stop-color="#F46C20"/>
<stop offset="1" stop-color="#E23E0A"/>
</linearGradient>
</defs>
</svg>
