<svg width="30" height="20" viewBox="0 0 30 20" fill="none" xmlns="http://www.w3.org/2000/svg">
<g clip-path="url(#clip0_53_2435)">
<path d="M0 -0.000244141H30V19.9998H0V-0.000244141Z" fill="white"/>
<path d="M4.94586 6.29975L7.72086 2.14142ZM5.98753 6.99559L8.76253 2.83725ZM7.02503 7.68725L9.80003 3.52892Z" fill="black"/>
<path d="M4.94586 6.29975L7.72086 2.14142M5.98753 6.99559L8.76253 2.83725M7.02503 7.68725L9.80003 3.52892" stroke="black" stroke-width="2"/>
<path d="M20.2 16.4706L22.975 12.3123ZM21.2417 17.1664L24.0167 13.0081ZM22.2792 17.8581L25.0542 13.6998Z" fill="black"/>
<path d="M20.2 16.4706L22.975 12.3123M21.2417 17.1664L24.0167 13.0081M22.2792 17.8581L25.0542 13.6998" stroke="black" stroke-width="2"/>
<path d="M20.8917 13.9289L24.3584 16.2414Z" fill="black"/>
<path d="M20.8917 13.9289L24.3584 16.2414" stroke="white"/>
<path d="M15 14.9998C17.7614 14.9998 20 12.7612 20 9.99976C20 7.23833 17.7614 4.99976 15 4.99976C12.2386 4.99976 10 7.23833 10 9.99976C10 12.7612 12.2386 14.9998 15 14.9998Z" fill="#CD2E3A"/>
<path d="M10.8417 7.22473C10.075 8.37473 10.3875 9.92473 11.5334 10.6914C12.6792 11.4581 14.2334 11.1456 15 9.99973C15.7667 8.8539 17.3167 8.5414 18.4667 9.30806C19.6167 10.0747 19.925 11.6247 19.1584 12.7747C17.625 15.0706 14.5209 15.6914 12.225 14.1622C9.92919 12.6331 9.30835 9.52473 10.8375 7.2289L10.8417 7.22473Z" fill="#0047A0"/>
<path d="M7.72086 17.8581L4.94586 13.6998ZM8.75836 17.1664L5.98336 13.0081ZM9.80003 16.4706L7.02503 12.3123Z" fill="black"/>
<path d="M7.72086 17.8581L4.94586 13.6998M8.75836 17.1664L5.98336 13.0081M9.80003 16.4706L7.02503 12.3123" stroke="black" stroke-width="2"/>
<path d="M22.975 7.68725L20.2 3.52892ZM24.0125 6.99559L21.2375 2.83725ZM25.0542 6.29975L22.2792 2.14142Z" fill="black"/>
<path d="M22.975 7.68725L20.2 3.52892M24.0125 6.99559L21.2375 2.83725M25.0542 6.29975L22.2792 2.14142" stroke="black" stroke-width="2"/>
<path d="M6.85419 15.4331L7.89585 14.7414ZM20.8917 6.07059L22.1042 5.26226ZM23.1459 4.56642L24.1875 3.87476Z" fill="black"/>
<path d="M6.85419 15.4331L7.89585 14.7414M20.8917 6.07059L22.1042 5.26226M23.1459 4.56642L24.1875 3.87476" stroke="white"/>
</g>
<defs>
<clipPath id="clip0_53_2435">
<rect width="30" height="20" fill="white" transform="translate(0 -0.000244141)"/>
</clipPath>
</defs>
</svg>
