<svg width="245" height="40" viewBox="0 0 245 40" fill="none" xmlns="http://www.w3.org/2000/svg">
<g clip-path="url(#clip0_5222_11656)">
<path d="M81.8106 24.41C82.8506 24.26 83.7406 23.79 84.3706 22.87V7.45001C81.1306 7.45001 77.2106 7.60001 76.6406 8.64001L78.4206 2.76001H95.2706L97.0506 8.64001C96.4906 7.60001 92.5906 7.45001 89.3206 7.45001V22.87C89.9406 23.79 90.8406 24.27 91.8806 24.41H81.8106Z" fill="white"/>
<path d="M99.1309 13.8899C99.1309 8.32991 102.641 2.65991 109.381 2.65991C110.871 2.65991 112.291 2.86991 113.091 4.02991H113.001C112.291 4.02991 106.911 4.17991 105.161 8.74991C104.571 10.3199 104.301 11.7499 104.301 12.9999C104.301 16.8299 106.741 19.0299 109.231 19.0299C111.191 19.0299 113.151 17.6599 113.951 14.6899C114.131 14.0399 114.191 13.4399 114.191 12.8499C114.191 9.13991 111.281 6.51991 111.281 6.51991C111.841 6.36991 112.411 6.30991 112.911 6.30991C116.861 6.30991 119.181 10.1999 119.181 14.3899C119.181 19.1999 116.091 24.3999 108.961 24.3999C102.331 24.3999 99.1309 19.1999 99.1309 13.8799V13.8899Z" fill="white"/>
<path d="M127.47 10.3299V24.4099H121.26C122.3 24.2599 123.16 23.8199 123.79 22.9199V4.14991C123.17 3.25991 122.3 2.80991 121.26 2.65991H123.96C129.22 2.65991 133.91 13.8599 136.44 17.2499V4.20991C135.82 3.28991 134.92 2.80991 133.88 2.66991H142.7C141.66 2.81991 140.77 3.28991 140.14 4.20991V23.5499C140.14 24.5899 141.74 25.7499 141.74 25.7499C135.89 24.9199 131.13 17.6399 127.45 10.3299H127.47Z" fill="white"/>
<path d="M147.321 24.41V4.23995C146.701 3.31995 145.831 2.86995 144.791 2.69995H158.901C161.691 2.69995 163.651 4.77995 163.651 7.32995C163.651 10.06 161.751 11.99 159.101 11.99C162.431 11.99 165.161 14.78 165.161 18.2C165.161 21.62 162.431 24.41 159.101 24.41H147.301H147.321ZM159.951 16.57C159.951 15.03 158.761 13.42 156.351 13.42C155.611 13.42 154.781 13.57 153.791 13.92C153.941 12.94 154.411 12.38 155.011 11.99C155.871 11.4 156.971 11.13 157.771 10.39C158.481 9.73995 158.991 8.78995 158.991 7.85995C158.991 6.75995 158.221 5.65995 156.051 5.21995H151.391L151.331 19.51H156.711C158.851 19.51 159.951 18.05 159.951 16.57Z" fill="white"/>
<path d="M167.26 24.4099C168.3 24.2599 169.19 23.7899 169.82 22.8699V4.20992C169.2 3.28992 168.3 2.80992 167.26 2.66992H177.33C176.29 2.81992 175.4 3.28992 174.77 4.20992V22.8699C175.39 23.7899 176.29 24.2699 177.33 24.4099H167.26Z" fill="white"/>
<path d="M185.62 10.3299V24.4099H179.41C180.45 24.2599 181.31 23.8199 181.94 22.9199V4.14991C181.32 3.25991 180.45 2.80991 179.41 2.65991H182.11C187.37 2.65991 192.06 13.8599 194.59 17.2499V4.20991C193.97 3.28991 193.07 2.80991 192.03 2.66991H200.85C199.81 2.81991 198.92 3.28991 198.29 4.20991V23.5499C198.29 24.5899 199.89 25.7499 199.89 25.7499C194.04 24.9199 189.28 17.6399 185.6 10.3299H185.62Z" fill="white"/>
<path d="M206.721 22.0399C204.851 20.7299 202.951 17.5499 202.951 13.7199C202.981 4.71989 209.251 2.63989 214.241 2.63989C217.061 2.63989 219.531 3.31989 220.151 3.76989L220.951 7.27989C219.261 6.47989 217.531 6.11989 215.961 6.11989C215.541 6.11989 215.131 6.14989 214.711 6.20989C209.961 6.79989 207.581 10.0999 207.581 13.3099C207.581 16.5199 210.051 19.6999 214.921 19.6999C215.311 19.6999 215.691 19.6699 216.111 19.6399L216.081 14.8899C216.021 14.7699 216.231 13.3699 214.591 13.3699H221.071C221.071 16.1899 220.981 18.9899 220.981 21.8099C221.161 22.8199 221.631 23.7999 222.551 24.4199L218.421 24.4499C214.261 24.4499 209.801 24.1799 206.711 22.0399H206.721Z" fill="white"/>
<path d="M224.631 13.8899C224.631 8.32991 228.141 2.65991 234.881 2.65991C236.371 2.65991 237.791 2.86991 238.591 4.02991H238.501C237.791 4.02991 232.411 4.17991 230.661 8.74991C230.071 10.3199 229.801 11.7499 229.801 12.9999C229.801 16.8299 232.241 19.0299 234.731 19.0299C236.691 19.0299 238.651 17.6599 239.451 14.6899C239.631 14.0399 239.691 13.4399 239.691 12.8499C239.691 9.13991 236.781 6.51991 236.781 6.51991C237.341 6.36991 237.911 6.30991 238.411 6.30991C242.361 6.30991 244.681 10.1999 244.681 14.3899C244.681 19.1999 241.591 24.3999 234.461 24.3999C227.831 24.3999 224.631 19.1999 224.631 13.8799V13.8899Z" fill="white"/>
<path d="M78.2105 37.0001C77.8305 37.0001 77.4705 36.9501 77.1305 36.8401C76.7905 36.7301 76.5105 36.5901 76.3105 36.4201L76.6206 35.7301C76.8106 35.8801 77.0505 36.0101 77.3405 36.1101C77.6205 36.2101 77.9205 36.2601 78.2105 36.2601C78.4605 36.2601 78.6705 36.2301 78.8205 36.1801C78.9805 36.1301 79.0906 36.0501 79.1606 35.9601C79.2306 35.8701 79.2705 35.7601 79.2705 35.6401C79.2705 35.4901 79.2205 35.3701 79.1105 35.2901C79.0006 35.2001 78.8705 35.1301 78.7005 35.0801C78.5305 35.0301 78.3505 34.9801 78.1405 34.9301C77.9405 34.8801 77.7305 34.8301 77.5305 34.7701C77.3305 34.7101 77.1406 34.6301 76.9706 34.5301C76.8006 34.4301 76.6705 34.3001 76.5605 34.1301C76.4505 33.9601 76.4006 33.7501 76.4006 33.5001C76.4006 33.2501 76.4705 33.0001 76.6105 32.7801C76.7505 32.5601 76.9605 32.3901 77.2505 32.2601C77.5405 32.1301 77.9005 32.0601 78.3405 32.0601C78.6305 32.0601 78.9205 32.1001 79.2005 32.1701C79.4805 32.2401 79.7306 32.3501 79.9406 32.4901L79.6606 33.1901C79.4406 33.0601 79.2205 32.9701 78.9905 32.9001C78.7605 32.8401 78.5406 32.8101 78.3306 32.8101C78.0806 32.8101 77.8806 32.8401 77.7306 32.9001C77.5806 32.9601 77.4605 33.0401 77.3905 33.1301C77.3205 33.2301 77.2805 33.3401 77.2805 33.4601C77.2805 33.6101 77.3305 33.7301 77.4305 33.8101C77.5305 33.9001 77.6705 33.9701 77.8405 34.0201C78.0105 34.0701 78.1906 34.1201 78.4006 34.1701C78.6106 34.2201 78.8105 34.2701 79.0205 34.3301C79.2205 34.3901 79.4106 34.4701 79.5806 34.5601C79.7506 34.6601 79.8805 34.7901 79.9905 34.9501C80.1005 35.1101 80.1405 35.3201 80.1405 35.5801C80.1405 35.8401 80.0705 36.0701 79.9305 36.2901C79.7905 36.5101 79.5806 36.6801 79.2906 36.8101C79.0006 36.9401 78.6405 37.0101 78.2005 37.0101L78.2105 37.0001Z" fill="white"/>
<path d="M84.2812 36.9301V32.1101H85.0212L87.1312 35.6301H86.7412L88.8112 32.1101H89.5513V36.9301H88.7113V33.4401H88.8812L87.1213 36.3801H86.7213L84.9313 33.4401H85.1413V36.9301H84.2913H84.2812Z" fill="white"/>
<path d="M93.4102 36.9301L95.5802 32.1101H96.4602L98.6301 36.9301H97.6902L95.8302 32.5901H96.1902L94.3302 36.9301H93.4102ZM94.4002 35.8201L94.6402 35.1201H97.2402L97.4802 35.8201H94.4002Z" fill="white"/>
<path d="M102.471 36.9301V32.1101H104.451C104.881 32.1101 105.241 32.1801 105.551 32.3201C105.851 32.4601 106.091 32.6601 106.261 32.9101C106.431 33.1701 106.511 33.4701 106.511 33.8201C106.511 34.1701 106.431 34.4801 106.261 34.7301C106.091 34.9801 105.861 35.1801 105.551 35.3101C105.241 35.4501 104.881 35.5101 104.451 35.5101H102.961L103.361 35.1001V36.9101H102.471V36.9301ZM103.371 35.2201L102.971 34.7901H104.411C104.801 34.7901 105.101 34.7101 105.301 34.5401C105.501 34.3701 105.601 34.1301 105.601 33.8301C105.601 33.5301 105.501 33.2901 105.301 33.1201C105.101 32.9501 104.801 32.8701 104.411 32.8701H102.971L103.371 32.4301V35.2201ZM105.631 36.9301L104.411 35.1801H105.371L106.591 36.9301H105.631Z" fill="white"/>
<path d="M111.651 36.9301V32.8701H110.051V32.1101H114.141V32.8701H112.541V36.9301H111.651Z" fill="white"/>
<path d="M125.41 37C125.04 37 124.7 36.94 124.39 36.82C124.08 36.7 123.8 36.53 123.57 36.3C123.34 36.08 123.16 35.81 123.03 35.51C122.9 35.21 122.84 34.88 122.84 34.52C122.84 34.16 122.9 33.83 123.03 33.53C123.16 33.23 123.34 32.96 123.57 32.74C123.8 32.52 124.08 32.35 124.39 32.22C124.7 32.1 125.04 32.04 125.42 32.04C125.81 32.04 126.17 32.11 126.5 32.24C126.83 32.38 127.1 32.58 127.33 32.84L126.75 33.38C126.58 33.19 126.38 33.05 126.17 32.96C125.96 32.87 125.72 32.82 125.47 32.82C125.22 32.82 124.99 32.86 124.78 32.94C124.57 33.02 124.39 33.14 124.24 33.29C124.09 33.44 123.97 33.62 123.88 33.83C123.79 34.04 123.75 34.26 123.75 34.51C123.75 34.76 123.79 34.98 123.88 35.19C123.96 35.4 124.08 35.57 124.24 35.73C124.39 35.88 124.57 36 124.78 36.08C124.99 36.16 125.22 36.2 125.47 36.2C125.72 36.2 125.96 36.15 126.17 36.06C126.39 35.97 126.58 35.82 126.75 35.63L127.33 36.18C127.11 36.44 126.83 36.64 126.5 36.78C126.17 36.92 125.81 36.99 125.41 36.99V37Z" fill="white"/>
<path d="M133.571 37C133.191 37 132.851 36.94 132.531 36.81C132.211 36.69 131.941 36.51 131.701 36.29C131.471 36.07 131.281 35.81 131.161 35.51C131.031 35.21 130.971 34.88 130.971 34.52C130.971 34.16 131.031 33.83 131.161 33.53C131.291 33.23 131.471 32.97 131.701 32.75C131.931 32.53 132.211 32.35 132.531 32.23C132.851 32.11 133.191 32.04 133.561 32.04C133.931 32.04 134.281 32.1 134.601 32.23C134.911 32.35 135.191 32.53 135.421 32.75C135.651 32.97 135.841 33.23 135.961 33.53C136.081 33.83 136.151 34.16 136.151 34.52C136.151 34.88 136.091 35.21 135.961 35.51C135.831 35.81 135.651 36.07 135.421 36.29C135.191 36.51 134.911 36.68 134.601 36.81C134.291 36.93 133.941 37 133.571 37ZM133.561 36.22C133.801 36.22 134.031 36.18 134.231 36.1C134.441 36.02 134.621 35.9 134.771 35.75C134.921 35.6 135.041 35.42 135.121 35.21C135.201 35.01 135.251 34.78 135.251 34.53C135.251 34.28 135.211 34.06 135.121 33.85C135.041 33.65 134.921 33.47 134.771 33.31C134.621 33.16 134.441 33.04 134.231 32.96C134.021 32.88 133.801 32.84 133.561 32.84C133.321 32.84 133.091 32.88 132.891 32.96C132.691 33.04 132.511 33.16 132.351 33.31C132.201 33.46 132.081 33.64 131.991 33.85C131.901 34.05 131.861 34.28 131.861 34.53C131.861 34.78 131.901 35 131.991 35.2C132.071 35.41 132.191 35.59 132.341 35.74C132.491 35.89 132.671 36.01 132.881 36.09C133.091 36.17 133.311 36.21 133.551 36.21L133.561 36.22Z" fill="white"/>
<path d="M140.34 36.9301V32.1101H141.08L144.1 35.8201H143.74V32.1101H144.63V36.9301H143.89L140.87 33.2201H141.23V36.9301H140.34Z" fill="white"/>
<path d="M150.121 36.9301V32.8701H148.521V32.1101H152.611V32.8701H151.011V36.9301H150.121Z" fill="white"/>
<path d="M156.521 36.9301V32.1101H158.501C158.931 32.1101 159.291 32.1801 159.601 32.3201C159.901 32.4601 160.141 32.6601 160.311 32.9101C160.481 33.1701 160.561 33.4701 160.561 33.8201C160.561 34.1701 160.481 34.4801 160.311 34.7301C160.141 34.9801 159.911 35.1801 159.601 35.3101C159.291 35.4501 158.931 35.5101 158.501 35.5101H157.011L157.411 35.1001V36.9101H156.521V36.9301ZM157.421 35.2201L157.021 34.7901H158.461C158.851 34.7901 159.151 34.7101 159.351 34.5401C159.551 34.3701 159.651 34.1301 159.651 33.8301C159.651 33.5301 159.551 33.2901 159.351 33.1201C159.151 32.9501 158.851 32.8701 158.461 32.8701H157.021L157.421 32.4301V35.2201ZM159.671 36.9301L158.451 35.1801H159.411L160.631 36.9301H159.671Z" fill="white"/>
<path d="M164.1 36.9301L166.27 32.1101H167.15L169.32 36.9301H168.38L166.52 32.5901H166.88L165.02 36.9301H164.1ZM165.1 35.8201L165.34 35.1201H167.94L168.18 35.8201H165.1Z" fill="white"/>
<path d="M175.33 37C174.96 37 174.62 36.94 174.31 36.82C174 36.7 173.72 36.53 173.49 36.3C173.26 36.08 173.08 35.81 172.95 35.51C172.82 35.21 172.76 34.88 172.76 34.52C172.76 34.16 172.82 33.83 172.95 33.53C173.08 33.23 173.26 32.96 173.49 32.74C173.72 32.52 174 32.35 174.31 32.22C174.62 32.1 174.96 32.04 175.34 32.04C175.73 32.04 176.09 32.11 176.42 32.24C176.75 32.38 177.02 32.58 177.25 32.84L176.67 33.38C176.5 33.19 176.3 33.05 176.09 32.96C175.88 32.87 175.64 32.82 175.39 32.82C175.14 32.82 174.91 32.86 174.7 32.94C174.49 33.02 174.31 33.14 174.16 33.29C174.01 33.44 173.89 33.62 173.8 33.83C173.71 34.04 173.67 34.26 173.67 34.51C173.67 34.76 173.71 34.98 173.8 35.19C173.88 35.4 174 35.57 174.16 35.73C174.31 35.88 174.49 36 174.7 36.08C174.91 36.16 175.14 36.2 175.39 36.2C175.64 36.2 175.88 36.15 176.09 36.06C176.31 35.97 176.5 35.82 176.67 35.63L177.25 36.18C177.03 36.44 176.75 36.64 176.42 36.78C176.09 36.92 175.73 36.99 175.33 36.99V37Z" fill="white"/>
<path d="M182.26 36.9301V32.8701H180.66V32.1101H184.75V32.8701H183.15V36.9301H182.26Z" fill="white"/>
<path d="M193.791 36.9301V32.1101H194.681V36.1701H197.201V36.9301H193.791Z" fill="white"/>
<path d="M203.321 37C202.941 37 202.601 36.94 202.281 36.81C201.961 36.69 201.691 36.51 201.451 36.29C201.221 36.07 201.031 35.81 200.911 35.51C200.781 35.21 200.721 34.88 200.721 34.52C200.721 34.16 200.781 33.83 200.911 33.53C201.041 33.23 201.221 32.97 201.451 32.75C201.681 32.53 201.961 32.35 202.281 32.23C202.601 32.11 202.941 32.04 203.311 32.04C203.681 32.04 204.031 32.1 204.351 32.23C204.661 32.35 204.941 32.53 205.171 32.75C205.401 32.97 205.591 33.23 205.711 33.53C205.831 33.83 205.901 34.16 205.901 34.52C205.901 34.88 205.841 35.21 205.711 35.51C205.581 35.81 205.401 36.07 205.171 36.29C204.941 36.51 204.661 36.68 204.351 36.81C204.041 36.93 203.691 37 203.321 37ZM203.311 36.22C203.551 36.22 203.781 36.18 203.981 36.1C204.191 36.02 204.371 35.9 204.521 35.75C204.671 35.6 204.791 35.42 204.871 35.21C204.951 35.01 205.001 34.78 205.001 34.53C205.001 34.28 204.961 34.06 204.871 33.85C204.791 33.65 204.671 33.47 204.521 33.31C204.371 33.16 204.191 33.04 203.981 32.96C203.771 32.88 203.551 32.84 203.311 32.84C203.071 32.84 202.841 32.88 202.641 32.96C202.441 33.04 202.261 33.16 202.101 33.31C201.951 33.46 201.831 33.64 201.741 33.85C201.651 34.05 201.611 34.28 201.611 34.53C201.611 34.78 201.651 35 201.741 35.2C201.821 35.41 201.941 35.59 202.091 35.74C202.241 35.89 202.421 36.01 202.631 36.09C202.841 36.17 203.061 36.21 203.301 36.21L203.311 36.22Z" fill="white"/>
<path d="M211 36.9301V32.8701H209.4V32.1101H213.49V32.8701H211.89V36.9301H211Z" fill="white"/>
<path d="M218.44 36.9301V32.8701H216.84V32.1101H220.93V32.8701H219.33V36.9301H218.44Z" fill="white"/>
<path d="M225.73 36.1801H228.45V36.9301H224.84V32.1101H228.36V32.8601H225.74V36.1801H225.73ZM225.66 34.1201H228.05V34.8601H225.66V34.1201Z" fill="white"/>
<path d="M232.68 36.9301V32.1101H234.66C235.09 32.1101 235.45 32.1801 235.76 32.3201C236.06 32.4601 236.3 32.6601 236.47 32.9101C236.64 33.1701 236.72 33.4701 236.72 33.8201C236.72 34.1701 236.64 34.4801 236.47 34.7301C236.3 34.9801 236.07 35.1801 235.76 35.3101C235.45 35.4501 235.09 35.5101 234.66 35.5101H233.17L233.57 35.1001V36.9101H232.68V36.9301ZM233.58 35.2201L233.18 34.7901H234.62C235.01 34.7901 235.31 34.7101 235.51 34.5401C235.71 34.3701 235.81 34.1301 235.81 33.8301C235.81 33.5301 235.71 33.2901 235.51 33.1201C235.31 32.9501 235.01 32.8701 234.62 32.8701H233.18L233.58 32.4301V35.2201ZM235.83 36.9301L234.61 35.1801H235.57L236.79 36.9301H235.83Z" fill="white"/>
<path d="M242.06 36.9301V35.0201L242.26 35.5701L240.17 32.1101H241.13L242.81 34.9001H242.27L243.96 32.1101H244.84L242.75 35.5701L242.96 35.0201V36.9301H242.07H242.06Z" fill="white"/>
<path d="M37.6592 8.34007L8.32922 37.6701C7.43922 38.5601 5.94921 38.5101 5.15921 37.5301C-2.21079 28.4901 -1.69079 15.1601 6.73921 6.74007C15.1692 -1.67993 28.4892 -2.20993 37.5292 5.17007C38.5092 5.97007 38.5592 7.45007 37.6692 8.34007H37.6592ZM51.1592 1.74007L21.8292 31.0701C20.9392 31.9601 20.9892 33.4501 21.9692 34.2401C30.9992 41.6101 44.3292 41.0901 52.7592 32.6701C61.1792 24.2501 61.7092 10.9201 54.3292 1.88007C53.5292 0.900073 52.0492 0.850073 51.1592 1.74007Z" fill="url(#paint0_radial_5222_11656)"/>
</g>
<defs>
<radialGradient id="paint0_radial_5222_11656" cx="0" cy="0" r="1" gradientUnits="userSpaceOnUse" gradientTransform="translate(29.7492 19.7001) scale(25.23 25.23)">
<stop stop-color="#FFFF4D"/>
<stop offset="1" stop-color="#FF8B1B"/>
</radialGradient>
<clipPath id="clip0_5222_11656">
<rect width="244.84" height="39.4" fill="white"/>
</clipPath>
</defs>
</svg>
