<svg width="30" height="20" viewBox="0 0 30 20" fill="none" xmlns="http://www.w3.org/2000/svg">
<g clip-path="url(#clip0_53_2449)">
<path d="M0 -0.000244141H30V19.9998H0V-0.000244141Z" fill="#FF0000"/>
<path d="M0 -0.000244141H12V19.9998H0V-0.000244141Z" fill="#006600"/>
<path fill-rule="evenodd" clip-rule="evenodd" d="M15.912 13.0933C14.4015 13.0478 7.47499 8.72427 7.42749 8.03577L7.80999 7.39777C8.49699 8.39627 15.578 12.6008 16.2735 12.4518L15.912 13.0928" fill="#FFFF00"/>
<path d="M15.912 13.0933C14.4015 13.0478 7.47499 8.72427 7.42749 8.03577L7.80999 7.39777C8.49699 8.39627 15.578 12.6008 16.2735 12.4518L15.912 13.0928" stroke="black" stroke-width="0.57" stroke-linecap="round" stroke-linejoin="round"/>
<path fill-rule="evenodd" clip-rule="evenodd" d="M7.7295 7.31125C7.594 7.67575 9.537 8.87725 11.8745 10.2987C14.212 11.7202 16.2275 12.5992 16.377 12.4732C16.386 12.4572 16.4505 12.3462 16.4445 12.3472C16.4165 12.3892 16.3485 12.4027 16.242 12.3722C15.6105 12.1902 13.963 11.4342 11.923 10.1967C9.883 8.95975 8.1085 7.81975 7.8325 7.33525C7.8135 7.30175 7.7995 7.24025 7.8025 7.19275H7.796L7.737 7.29525L7.729 7.31125H7.7295ZM15.9475 13.1132C15.922 13.1597 15.874 13.1612 15.7835 13.1512C15.2185 13.0887 13.504 12.2547 11.4755 11.0407C9.115 9.62775 7.1655 8.34025 7.377 8.00375L7.4345 7.90225L7.446 7.90575C7.256 8.47575 11.2935 10.7847 11.531 10.9317C13.867 12.3792 15.8365 13.2242 16.011 13.0047L15.9475 13.1137V13.1132Z" fill="#FFFF00" stroke="black" stroke-width="0.57" stroke-linecap="round" stroke-linejoin="round"/>
<path fill-rule="evenodd" clip-rule="evenodd" d="M12.0085 8.45275C13.5205 8.44075 15.386 8.24625 16.4595 7.81825L16.228 7.44225C15.5935 7.79325 13.7175 8.02425 11.9955 8.05925C9.95853 8.04025 8.52103 7.85075 7.80053 7.36725L7.58203 7.76775C8.90603 8.32825 10.263 8.44725 12.008 8.45275" fill="#FFFF00"/>
<path d="M12.0085 8.45275C13.5205 8.44075 15.386 8.24625 16.4595 7.81825L16.228 7.44225C15.5935 7.79325 13.7175 8.02425 11.9955 8.05925C9.95853 8.04025 8.52103 7.85075 7.80053 7.36725L7.58203 7.76775C8.90603 8.32825 10.263 8.44725 12.008 8.45275" stroke="black" stroke-width="0.57" stroke-linecap="round" stroke-linejoin="round"/>
<path fill-rule="evenodd" clip-rule="evenodd" d="M16.522 7.82675C16.485 7.88575 15.785 8.12725 14.7535 8.30525C14.054 8.41175 13.142 8.50325 12.0035 8.50425C10.922 8.50525 10.0385 8.42825 9.36949 8.33775C8.28649 8.16775 7.72799 7.93175 7.52149 7.84825C7.54149 7.80875 7.55399 7.78125 7.57299 7.74475C8.16799 7.98175 8.72899 8.12425 9.38699 8.22575C10.0515 8.31575 10.9245 8.39375 12.0005 8.39275C13.1335 8.39175 14.036 8.29375 14.7315 8.19025C15.789 8.01975 16.367 7.80025 16.448 7.69825L16.5225 7.82725L16.522 7.82675ZM16.319 7.44575C16.2045 7.53775 15.633 7.74025 14.628 7.90075C13.9575 7.99675 13.1045 8.08275 12.015 8.08375C10.98 8.08475 10.134 8.01475 9.49049 7.92125C8.46999 7.78775 7.92649 7.54725 7.73049 7.47725C7.74999 7.44375 7.76999 7.41025 7.78999 7.37675C7.94249 7.45375 8.46649 7.66625 9.50149 7.81275C10.1375 7.90275 10.9845 7.97025 12.0145 7.96925C13.099 7.96825 13.942 7.88025 14.6085 7.78475C15.6185 7.64575 16.1625 7.38725 16.245 7.32275L16.3185 7.44525L16.319 7.44575ZM7.04399 10.2743C7.97399 10.7743 10.039 11.0263 11.9935 11.0438C13.773 11.0468 16.0915 10.7688 16.9585 10.3093L16.9345 9.80875C16.6635 10.2328 14.179 10.6393 11.974 10.6228C9.76949 10.6063 7.72199 10.2658 7.03949 9.82475L7.04349 10.2743" fill="#FFFF00"/>
<path d="M7.04399 10.2743C7.97399 10.7743 10.039 11.0263 11.9935 11.0438C13.773 11.0468 16.0915 10.7688 16.9585 10.3093L16.9345 9.80875C16.6635 10.2328 14.179 10.6393 11.974 10.6228C9.76949 10.6063 7.72199 10.2658 7.03949 9.82475L7.04349 10.2743M16.522 7.82675C16.485 7.88575 15.785 8.12725 14.7535 8.30525C14.054 8.41175 13.142 8.50325 12.0035 8.50425C10.922 8.50525 10.0385 8.42825 9.36949 8.33775C8.28649 8.16775 7.72799 7.93175 7.52149 7.84825C7.54149 7.80875 7.55399 7.78125 7.57299 7.74475C8.16799 7.98175 8.72899 8.12425 9.38699 8.22575C10.0515 8.31575 10.9245 8.39375 12.0005 8.39275C13.1335 8.39175 14.036 8.29375 14.7315 8.19025C15.789 8.01975 16.367 7.80025 16.448 7.69825L16.5225 7.82725L16.522 7.82675ZM16.319 7.44575C16.2045 7.53775 15.633 7.74025 14.628 7.90075C13.9575 7.99675 13.1045 8.08275 12.015 8.08375C10.98 8.08475 10.134 8.01475 9.49049 7.92125C8.46999 7.78775 7.92649 7.54725 7.73049 7.47725C7.74999 7.44375 7.76999 7.41025 7.78999 7.37675C7.94249 7.45375 8.46649 7.66625 9.50149 7.81275C10.1375 7.90275 10.9845 7.97025 12.0145 7.96925C13.099 7.96825 13.942 7.88025 14.6085 7.78475C15.6185 7.64575 16.1625 7.38725 16.245 7.32275L16.3185 7.44525L16.319 7.44575Z" stroke="black" stroke-width="0.57" stroke-linecap="round" stroke-linejoin="round"/>
<path fill-rule="evenodd" clip-rule="evenodd" d="M17.006 10.2022V10.3217C16.8755 10.4777 16.0585 10.7127 15.034 10.8787C14.254 10.9982 13.2375 11.0882 11.971 11.0882C10.7045 11.0882 9.80802 11.0022 9.06352 10.8882C7.88702 10.7167 7.13452 10.4167 6.98352 10.3272V10.1877C7.43802 10.4892 8.66702 10.7102 9.08002 10.7777C9.81952 10.8912 10.7735 10.9762 11.971 10.9762C13.232 10.9762 14.2425 10.8867 15.0175 10.7677C15.7525 10.6617 16.7995 10.3852 17.006 10.2017V10.2022ZM17.0065 9.77773V9.89723C16.876 10.0532 16.059 10.2882 15.0345 10.4542C14.2545 10.5737 13.238 10.6642 11.9715 10.6642C10.705 10.6642 9.80852 10.5787 9.06402 10.4642C7.88752 10.2932 7.13502 9.99323 6.98402 9.90323V9.76373C7.43852 10.0652 8.66752 10.2862 9.08052 10.3537C9.82002 10.4672 10.774 10.5527 11.9715 10.5527C13.2325 10.5527 14.243 10.4632 15.018 10.3442C15.753 10.2382 16.8 9.96173 17.0065 9.77823V9.77773ZM11.9895 13.0072C9.85102 12.9942 8.01852 12.4242 7.63152 12.3302L7.91352 12.7717C8.59702 13.0592 10.3845 13.4877 12.01 13.4402C13.635 13.3927 15.0555 13.2667 16.0565 12.7797L16.346 12.3217C15.664 12.6432 13.3425 13.0037 11.99 13.0072" fill="#FFFF00"/>
<path d="M11.9895 13.0072C9.85102 12.9942 8.01852 12.4242 7.63152 12.3302L7.91352 12.7717C8.59702 13.0592 10.3845 13.4877 12.01 13.4402C13.635 13.3927 15.0555 13.2667 16.0565 12.7797L16.346 12.3217C15.664 12.6432 13.3425 13.0037 11.99 13.0072M17.006 10.2022V10.3217C16.8755 10.4777 16.0585 10.7127 15.034 10.8787C14.254 10.9982 13.2375 11.0882 11.971 11.0882C10.7045 11.0882 9.80802 11.0022 9.06352 10.8882C7.88702 10.7167 7.13452 10.4167 6.98352 10.3272V10.1877C7.43802 10.4892 8.66702 10.7102 9.08002 10.7777C9.81952 10.8912 10.7735 10.9762 11.971 10.9762C13.232 10.9762 14.2425 10.8867 15.0175 10.7677C15.7525 10.6617 16.7995 10.3852 17.006 10.2017V10.2022ZM17.0065 9.77773V9.89723C16.876 10.0532 16.059 10.2882 15.0345 10.4542C14.2545 10.5737 13.238 10.6642 11.9715 10.6642C10.705 10.6642 9.80852 10.5787 9.06402 10.4642C7.88752 10.2932 7.13502 9.99323 6.98402 9.90323V9.76373C7.43852 10.0652 8.66752 10.2862 9.08052 10.3537C9.82002 10.4672 10.774 10.5527 11.9715 10.5527C13.2325 10.5527 14.243 10.4632 15.018 10.3442C15.753 10.2382 16.8 9.96173 17.0065 9.77823V9.77773Z" stroke="black" stroke-width="0.57" stroke-linecap="round" stroke-linejoin="round"/>
<path fill-rule="evenodd" clip-rule="evenodd" d="M16.165 12.6773C16.123 12.7418 16.0795 12.8058 16.035 12.8688C15.563 13.0353 14.819 13.2098 14.505 13.2608C13.864 13.3928 12.8715 13.4903 11.9915 13.4908C10.097 13.4633 8.54651 13.0923 7.81651 12.7758L7.75751 12.6748L7.76701 12.6598L7.86701 12.6983C9.16451 13.1623 10.6215 13.3478 12.002 13.3808C12.879 13.3838 13.757 13.2803 14.4665 13.1533C15.555 12.9353 15.995 12.7708 16.13 12.6963L16.1645 12.6768L16.165 12.6773ZM16.416 12.2633L16.4195 12.2673C16.387 12.3218 16.3545 12.3763 16.3215 12.4303C16.0695 12.5203 15.3865 12.7203 14.3885 12.8598C13.731 12.9493 13.3225 13.0363 12.0145 13.0613C9.56401 12.9988 7.97701 12.5198 7.60001 12.4013L7.54401 12.2943C8.96451 12.6648 10.415 12.9238 12.0145 12.9503C13.211 12.9248 13.72 12.8368 14.372 12.7478C15.5355 12.5668 16.122 12.3753 16.298 12.3198C16.2955 12.3163 16.293 12.3128 16.2905 12.3098L16.4165 12.2628L16.416 12.2633Z" fill="#FFFF00" stroke="black" stroke-width="0.55" stroke-linecap="round" stroke-linejoin="round"/>
<path fill-rule="evenodd" clip-rule="evenodd" d="M16.4415 9.87926C16.4485 11.2863 15.7285 12.5488 15.1485 13.1058C14.328 13.8938 13.2405 14.4008 11.97 14.4238C10.5515 14.4498 9.21401 13.5253 8.85551 13.1188C8.15401 12.3248 7.58301 11.3158 7.56451 9.95676C7.65151 8.42126 8.25401 7.35176 9.12801 6.61826C10.002 5.88476 11.165 5.52776 12.134 5.55326C13.252 5.58276 14.5575 6.13126 15.46 7.21976C16.051 7.93326 16.307 8.70726 16.4415 9.87926ZM11.982 5.06226C14.706 5.06226 16.947 7.27926 16.947 9.99726C16.947 12.7153 14.7065 14.9323 11.982 14.9323C9.25751 14.9323 7.03601 12.7153 7.03601 9.99726C7.03601 7.27926 9.25801 5.06226 11.982 5.06226Z" fill="#FFFF00" stroke="black" stroke-width="0.57" stroke-linecap="round" stroke-linejoin="round"/>
<path fill-rule="evenodd" clip-rule="evenodd" d="M11.9955 5.04529C14.722 5.04529 16.946 7.26929 16.946 9.99629C16.946 12.7233 14.722 14.9473 11.9955 14.9473C9.26904 14.9473 7.04504 12.7233 7.04504 9.99629C7.04504 7.26929 9.26904 5.04529 11.9955 5.04529ZM7.15404 9.99629C7.15404 12.6593 9.34104 14.8383 11.9955 14.8383C14.65 14.8383 16.837 12.6593 16.837 9.99629C16.837 7.33329 14.65 5.15429 11.9955 5.15429C9.34104 5.15429 7.15404 7.33329 7.15404 9.99629Z" fill="#FFFF00" stroke="black" stroke-width="0.57" stroke-linecap="round" stroke-linejoin="round"/>
<path fill-rule="evenodd" clip-rule="evenodd" d="M11.9995 5.45679C14.486 5.45679 16.534 7.49779 16.534 9.99179C16.534 12.4858 14.486 14.5268 11.9995 14.5268C9.51303 14.5268 7.46503 12.4858 7.46503 9.99179C7.46503 7.49779 9.51303 5.45679 11.9995 5.45679ZM7.57403 9.99179C7.57403 12.4258 9.57303 14.4178 11.9995 14.4178C14.426 14.4178 16.425 12.4258 16.425 9.99179C16.425 7.55779 14.426 5.56529 11.9995 5.56529C9.57303 5.56529 7.57403 7.55729 7.57403 9.99179Z" fill="#FFFF00" stroke="black" stroke-width="0.57" stroke-linecap="round" stroke-linejoin="round"/>
<path fill-rule="evenodd" clip-rule="evenodd" d="M12.199 5.02527H11.7745V14.9733H12.2005L12.1985 5.02527H12.199Z" fill="#FFFF00" stroke="black" stroke-width="0.57" stroke-linecap="round" stroke-linejoin="round"/>
<path fill-rule="evenodd" clip-rule="evenodd" d="M12.1565 4.96826H12.2645L12.2655 15.0308H12.1575L12.1565 4.96826ZM11.7355 4.96876H11.8445V15.0313H11.736V4.96876H11.7355Z" fill="#FFFF00" stroke="black" stroke-width="0.57" stroke-linecap="round" stroke-linejoin="round"/>
<path fill-rule="evenodd" clip-rule="evenodd" d="M16.9495 10.1877V9.82025L16.65 9.54125L14.95 9.09125L12.5 8.84125L9.55 8.99125L7.45 9.49125L7.026 9.80525V10.1732L8.1 9.69125L10.65 9.29125H13.1L14.9 9.49125L16.15 9.79125L16.9495 10.1877Z" fill="#FFFF00" stroke="black" stroke-width="0.57" stroke-linecap="round" stroke-linejoin="round"/>
<path fill-rule="evenodd" clip-rule="evenodd" d="M11.9975 9.22976C13.1665 9.22776 14.301 9.34076 15.201 9.51576C16.1295 9.70126 16.783 9.93326 17.0065 10.1943V10.3233C16.737 9.99876 15.8575 9.76076 15.1805 9.62476C14.2875 9.45126 13.161 9.33876 11.998 9.34126C10.771 9.34376 9.62851 9.45976 8.74901 9.63126C8.04301 9.77126 7.10151 10.0498 6.98401 10.3243V10.1898C7.04851 9.99976 7.74951 9.71576 8.73301 9.51876C9.61951 9.34576 10.764 9.23176 11.998 9.22926L11.9975 9.22976ZM11.998 8.80526C13.167 8.80326 14.3015 8.91626 15.2015 9.09126C16.13 9.27676 16.7835 9.50876 17.007 9.76976V9.89876C16.7375 9.57426 15.858 9.33626 15.181 9.20026C14.288 9.02626 13.1615 8.91426 11.9985 8.91676C10.7715 8.91876 9.63451 9.03526 8.75451 9.20676C8.07301 9.33576 7.09301 9.62526 6.98401 9.89976V9.76526C7.04851 9.57726 7.76401 9.28326 8.73351 9.09426C9.62001 8.92126 10.7645 8.80726 11.9985 8.80476L11.998 8.80526ZM11.974 6.63926C13.8165 6.63026 15.4235 6.89676 16.1585 7.27326L16.4265 7.73726C15.7875 7.39276 14.0535 7.03476 11.976 7.08826C10.2835 7.09876 8.47451 7.27476 7.56701 7.75876L7.88701 7.22326C8.63201 6.83726 10.388 6.64126 11.973 6.63926" fill="#FFFF00"/>
<path d="M11.974 6.63926C13.8165 6.63026 15.4235 6.89676 16.1585 7.27326L16.4265 7.73726C15.7875 7.39276 14.0535 7.03476 11.976 7.08826C10.2835 7.09876 8.47451 7.27476 7.56701 7.75876L7.88701 7.22326C8.63201 6.83726 10.388 6.64126 11.973 6.63926M11.9975 9.22976C13.1665 9.22776 14.301 9.34076 15.201 9.51576C16.1295 9.70126 16.783 9.93326 17.0065 10.1943V10.3233C16.737 9.99876 15.8575 9.76076 15.1805 9.62476C14.2875 9.45126 13.161 9.33876 11.998 9.34126C10.771 9.34376 9.62851 9.45976 8.74901 9.63126C8.04301 9.77126 7.10151 10.0498 6.98401 10.3243V10.1898C7.04851 9.99976 7.74951 9.71576 8.73301 9.51876C9.61951 9.34576 10.764 9.23176 11.998 9.22926L11.9975 9.22976ZM11.998 8.80526C13.167 8.80326 14.3015 8.91626 15.2015 9.09126C16.13 9.27676 16.7835 9.50876 17.007 9.76976V9.89876C16.7375 9.57426 15.858 9.33626 15.181 9.20026C14.288 9.02626 13.1615 8.91426 11.9985 8.91676C10.7715 8.91876 9.63451 9.03526 8.75451 9.20676C8.07301 9.33576 7.09301 9.62526 6.98401 9.89976V9.76526C7.04851 9.57726 7.76401 9.28326 8.73351 9.09426C9.62001 8.92126 10.7645 8.80726 11.9985 8.80476L11.998 8.80526Z" stroke="black" stroke-width="0.57" stroke-linecap="round" stroke-linejoin="round"/>
<path fill-rule="evenodd" clip-rule="evenodd" d="M11.9985 7.02229C13.0495 7.01979 14.065 7.07879 14.8725 7.22429C15.6245 7.36429 16.342 7.57429 16.4445 7.68729L16.524 7.82779C16.2745 7.66479 15.654 7.48379 14.857 7.33229C14.0565 7.18179 13.042 7.13179 11.997 7.13479C10.811 7.13079 9.88951 7.19329 9.09851 7.33129C8.26201 7.48779 7.68201 7.71129 7.53851 7.81779L7.61651 7.66929C7.89451 7.52729 8.33601 7.35629 9.07751 7.22279C9.89551 7.07329 10.8265 7.02879 11.9985 7.02229ZM11.998 6.59779C13.0035 6.59529 13.9965 6.65129 14.7705 6.79029C15.381 6.90929 15.9845 7.09479 16.2055 7.25979L16.322 7.44479C16.1245 7.22479 15.38 7.01679 14.7235 6.90029C13.9555 6.76779 13.004 6.71529 11.998 6.70679C10.9425 6.70979 9.96701 6.77429 9.21051 6.91229C8.48851 7.04979 8.02251 7.21229 7.82551 7.33929L7.92751 7.18479C8.19951 7.04179 8.63901 6.91029 9.19251 6.80229C9.95501 6.66329 10.9365 6.60029 11.998 6.59729V6.59779ZM14.4575 12.0543C13.5465 11.8843 12.634 11.8593 11.9965 11.8673C8.92601 11.9033 7.93451 12.4978 7.81351 12.6778L7.58401 12.3038C8.36551 11.7373 10.0375 11.4193 12.0135 11.4518C13.0395 11.4688 13.9245 11.5368 14.6695 11.6808L14.4575 12.0543Z" fill="#FFFF00" stroke="black" stroke-width="0.57" stroke-linecap="round" stroke-linejoin="round"/>
<path fill-rule="evenodd" clip-rule="evenodd" d="M11.979 11.8143C12.833 11.8273 13.6715 11.8623 14.4805 12.0133L14.422 12.1168C13.6705 11.9783 12.8695 11.9248 11.982 11.9293C10.849 11.9203 9.70304 12.0263 8.70504 12.3128C8.39004 12.4003 7.86904 12.6028 7.81604 12.7703L7.75754 12.6743C7.77454 12.5753 8.08954 12.3703 8.67804 12.2048C9.82104 11.8773 10.89 11.8223 11.979 11.8148V11.8143ZM12.0175 11.3843C12.9025 11.4008 13.816 11.4418 14.7045 11.6178L14.6435 11.7253C13.8415 11.5663 13.075 11.5128 12.0225 11.4968C10.8855 11.4988 9.68004 11.5798 8.58354 11.8988C8.22954 12.0018 7.61854 12.2248 7.59854 12.4013L7.54004 12.2978C7.55304 12.1373 8.08204 11.9283 8.55804 11.7898C9.66304 11.4688 10.872 11.3858 12.0175 11.3838V11.3843Z" fill="#FFFF00" stroke="black" stroke-width="0.55" stroke-linecap="round" stroke-linejoin="round"/>
<path fill-rule="evenodd" clip-rule="evenodd" d="M16.379 12.3603L16.01 12.9328L14.95 11.9913L12.2 10.1413L9.10004 8.44128L7.49054 7.89078L7.83354 7.25478L7.95004 7.19128L8.95004 7.44128L12.25 9.14128L14.15 10.3413L15.75 11.4913L16.4 12.2413L16.379 12.3603Z" fill="#FFFF00" stroke="black" stroke-width="0.57" stroke-linecap="round" stroke-linejoin="round"/>
<path fill-rule="evenodd" clip-rule="evenodd" d="M7.4325 7.90576C7.715 7.71426 9.7895 8.63826 11.96 9.94726C14.125 11.2598 16.194 12.7433 16.007 13.0208L15.9455 13.1173L15.9175 13.1398C15.9235 13.1353 15.9545 13.0973 15.9145 12.9943C15.822 12.6908 14.3545 11.5198 11.92 10.0493C9.546 8.63376 7.568 7.78076 7.37 8.02476L7.4325 7.90526V7.90576ZM16.4545 12.3518C16.633 11.9993 14.7085 10.5498 12.323 9.13826C9.8825 7.75476 8.1235 6.94076 7.802 7.18326L7.7305 7.31326C7.73 7.32026 7.733 7.30426 7.748 7.29276C7.8065 7.24176 7.903 7.24526 7.947 7.24426C8.5005 7.25276 10.0805 7.97976 12.2975 9.25076C13.269 9.81676 16.401 11.8253 16.389 12.3903C16.39 12.4388 16.393 12.4488 16.3745 12.4728L16.454 12.3518H16.4545Z" fill="#FFFF00" stroke="black" stroke-width="0.57" stroke-linecap="round" stroke-linejoin="round"/>
<path d="M9.03003 10.5418C9.03003 11.3553 9.36303 12.0913 9.90303 12.6288C10.444 13.1678 11.1785 13.5078 11.9935 13.5078C12.8085 13.5078 13.556 13.1753 14.0945 12.6383C14.633 12.1013 14.9665 11.3608 14.967 10.5443V6.58476L9.03003 6.57776V10.5418Z" fill="white"/>
<path d="M9.03003 10.5418C9.03003 11.3553 9.36303 12.0913 9.90303 12.6288C10.444 13.1678 11.1785 13.5078 11.9935 13.5078C12.8085 13.5078 13.556 13.1753 14.0945 12.6383C14.633 12.1013 14.9665 11.3608 14.967 10.5443V6.58476L9.03003 6.57776V10.5418ZM9.03003 10.5418H9.03053" stroke="black" stroke-width="0.67"/>
<path d="M9.141 10.5472V10.5492C9.141 11.3272 9.463 12.0352 9.9795 12.5497C10.497 13.0652 11.21 13.3852 11.99 13.3852C12.77 13.3852 13.4855 13.0672 14.001 12.5537C14.5165 12.0407 14.836 11.3322 14.836 10.5517V6.71023L9.144 6.70923L9.1405 10.5467M13.692 7.85973V10.3042L13.69 10.5627C13.69 10.6307 13.686 10.7082 13.678 10.7742C13.632 11.1607 13.454 11.4977 13.191 11.7597C12.883 12.0667 12.4575 12.2567 11.9885 12.2567C11.5195 12.2567 11.1065 12.0597 10.797 11.7517C10.4795 11.4357 10.2955 11.0022 10.2955 10.5542V7.85323L13.692 7.85923V7.85973Z" fill="#FF0000"/>
<path d="M9.141 10.5472V10.5492C9.141 11.3272 9.463 12.0352 9.9795 12.5497C10.497 13.0652 11.21 13.3852 11.99 13.3852C12.77 13.3852 13.4855 13.0672 14.001 12.5537C14.5165 12.0407 14.836 11.3322 14.836 10.5517V6.71023L9.144 6.70923L9.1405 10.5467M13.692 7.85973V10.3042L13.69 10.5627C13.69 10.6307 13.686 10.7082 13.678 10.7742C13.632 11.1607 13.454 11.4977 13.191 11.7597C12.883 12.0667 12.4575 12.2567 11.9885 12.2567C11.5195 12.2567 11.1065 12.0597 10.797 11.7517C10.4795 11.4357 10.2955 11.0022 10.2955 10.5542V7.85323L13.692 7.85923V7.85973Z" stroke="black" stroke-width="0.51"/>
<path d="M9.50952 7.71275C9.51602 7.43675 9.71202 7.37125 9.71352 7.37025C9.71502 7.36925 9.92502 7.44075 9.92452 7.71525L9.50952 7.71275Z" fill="#FFFF00"/>
<path d="M9.34051 7.37577L9.30651 7.69327H9.51351C9.51551 7.43127 9.71251 7.38777 9.71701 7.38877C9.72151 7.38877 9.91651 7.44677 9.92151 7.69377H10.129L10.0915 7.37427L9.34051 7.37627V7.37577ZM9.29251 7.69427H10.14C10.158 7.69427 10.1725 7.71177 10.1725 7.73327C10.1725 7.75477 10.158 7.77227 10.14 7.77227H9.29251C9.27451 7.77227 9.26001 7.75477 9.26001 7.73327C9.26001 7.71177 9.27451 7.69427 9.29251 7.69427Z" fill="#FFFF00" stroke="black" stroke-width="0.5"/>
<path d="M9.60048 7.69274C9.60148 7.52724 9.71348 7.48024 9.71398 7.48024C9.71398 7.48024 9.83098 7.52874 9.83198 7.69274H9.60048ZM9.31048 7.24374H10.1225C10.1395 7.24374 10.1535 7.25974 10.1535 7.27924C10.1535 7.29874 10.1395 7.31424 10.1225 7.31424H9.31048C9.29348 7.31424 9.27948 7.29824 9.27948 7.27924C9.27948 7.26024 9.29348 7.24374 9.31048 7.24374ZM9.32748 7.31474H10.1045C10.121 7.31474 10.1345 7.33074 10.1345 7.34974C10.1345 7.36874 10.121 7.38474 10.1045 7.38474H9.32748C9.31098 7.38474 9.29748 7.36874 9.29748 7.34974C9.29748 7.33074 9.31098 7.31474 9.32748 7.31474ZM9.57848 6.78524H9.63998V6.82874H9.68498V6.78424H9.74798V6.82874H9.79298V6.78424H9.85598V6.88474C9.85598 6.90074 9.84298 6.91074 9.82848 6.91074H9.60798C9.59298 6.91074 9.57948 6.89874 9.57948 6.88424V6.78474L9.57848 6.78524ZM9.80948 6.91974L9.82348 7.24224H9.60848L9.62298 6.91874L9.80998 6.91974" fill="#FFFF00"/>
<path d="M9.80948 6.91974L9.82348 7.24224H9.60848L9.62298 6.91874L9.80998 6.91974M9.60048 7.69274C9.60148 7.52724 9.71348 7.48024 9.71398 7.48024C9.71398 7.48024 9.83098 7.52874 9.83198 7.69274H9.60048ZM9.31048 7.24374H10.1225C10.1395 7.24374 10.1535 7.25974 10.1535 7.27924C10.1535 7.29874 10.1395 7.31424 10.1225 7.31424H9.31048C9.29348 7.31424 9.27948 7.29824 9.27948 7.27924C9.27948 7.26024 9.29348 7.24374 9.31048 7.24374ZM9.32748 7.31474H10.1045C10.121 7.31474 10.1345 7.33074 10.1345 7.34974C10.1345 7.36874 10.121 7.38474 10.1045 7.38474H9.32748C9.31098 7.38474 9.29748 7.36874 9.29748 7.34974C9.29748 7.33074 9.31098 7.31474 9.32748 7.31474ZM9.57848 6.78524H9.63998V6.82874H9.68498V6.78424H9.74798V6.82874H9.79298V6.78424H9.85598V6.88474C9.85598 6.90074 9.84298 6.91074 9.82848 6.91074H9.60798C9.59298 6.91074 9.57948 6.89874 9.57948 6.88424V6.78474L9.57848 6.78524Z" stroke="black" stroke-width="0.5"/>
<path d="M9.54703 7.06921L9.55353 7.24321H9.34753L9.35353 7.06921H9.54753H9.54703Z" fill="#FFFF00" stroke="black" stroke-width="0.5"/>
<path d="M10.0775 7.06921L10.084 7.24321H9.87799L9.88399 7.06921H10.078H10.0775Z" fill="#FFFF00" stroke="black" stroke-width="0.5"/>
<path d="M9.315 6.94325H9.375V6.98725H9.419V6.94275H9.4805V6.98725H9.5245V6.94275H9.586V7.04325C9.586 7.05875 9.5735 7.06925 9.559 7.06925H9.343C9.3285 7.06925 9.315 7.05725 9.315 7.04325V6.94375V6.94325Z" fill="#FFFF00" stroke="black" stroke-width="0.5"/>
<path d="M9.84552 6.94325H9.90552V6.98725H9.94952V6.94275H10.011V6.98725H10.055V6.94275H10.1165V7.04325C10.1165 7.05875 10.104 7.06925 10.0895 7.06925H9.87352C9.85902 7.06925 9.84552 7.05725 9.84552 7.04325V6.94375V6.94325Z" fill="#FFFF00" stroke="black" stroke-width="0.5"/>
<path d="M9.69498 7.02173C9.69348 6.99023 9.73898 6.99023 9.73848 7.02173V7.09873H9.69498V7.02173Z" fill="black"/>
<path d="M9.42853 7.13323C9.42853 7.10273 9.47053 7.10223 9.47003 7.13323V7.19273H9.42853V7.13323Z" fill="black"/>
<path d="M9.96051 7.13323C9.96051 7.10273 10.0025 7.10223 10.002 7.13323V7.19273H9.96051V7.13323Z" fill="black"/>
<path d="M9.50952 10.0287C9.51602 9.75273 9.71202 9.68723 9.71352 9.68623C9.71502 9.68523 9.92502 9.75673 9.92452 10.0312L9.50952 10.0287Z" fill="#FFFF00"/>
<path d="M9.34051 9.69175L9.30651 10.0092H9.51351C9.51551 9.74725 9.71251 9.70375 9.71701 9.70475C9.72151 9.70475 9.91651 9.76275 9.92151 10.0097H10.129L10.0915 9.69025L9.34051 9.69225V9.69175ZM9.29251 10.0102H10.14C10.158 10.0102 10.1725 10.0277 10.1725 10.0492C10.1725 10.0707 10.158 10.0882 10.14 10.0882H9.29251C9.27451 10.0882 9.26001 10.0707 9.26001 10.0492C9.26001 10.0277 9.27451 10.0102 9.29251 10.0102Z" fill="#FFFF00" stroke="black" stroke-width="0.5"/>
<path d="M9.60048 10.0087C9.60148 9.84322 9.71348 9.79622 9.71398 9.79622C9.71398 9.79622 9.83098 9.84472 9.83198 10.0087H9.60048ZM9.31048 9.55972H10.1225C10.1395 9.55972 10.1535 9.57572 10.1535 9.59522C10.1535 9.61472 10.1395 9.63022 10.1225 9.63022H9.31048C9.29348 9.63022 9.27948 9.61422 9.27948 9.59522C9.27948 9.57622 9.29348 9.55972 9.31048 9.55972ZM9.32748 9.63072H10.1045C10.121 9.63072 10.1345 9.64672 10.1345 9.66572C10.1345 9.68472 10.121 9.70072 10.1045 9.70072H9.32748C9.31098 9.70072 9.29748 9.68472 9.29748 9.66572C9.29748 9.64672 9.31098 9.63072 9.32748 9.63072ZM9.57848 9.10122H9.63998V9.14472H9.68498V9.10022H9.74798V9.14472H9.79298V9.10022H9.85598V9.20072C9.85598 9.21672 9.84298 9.22672 9.82848 9.22672H9.60798C9.59298 9.22672 9.57948 9.21472 9.57948 9.20022V9.10072L9.57848 9.10122ZM9.80948 9.23572L9.82348 9.55822H9.60848L9.62298 9.23472L9.80998 9.23572" fill="#FFFF00"/>
<path d="M9.80948 9.23572L9.82348 9.55822H9.60848L9.62298 9.23472L9.80998 9.23572M9.60048 10.0087C9.60148 9.84322 9.71348 9.79622 9.71398 9.79622C9.71398 9.79622 9.83098 9.84472 9.83198 10.0087H9.60048ZM9.31048 9.55972H10.1225C10.1395 9.55972 10.1535 9.57572 10.1535 9.59522C10.1535 9.61472 10.1395 9.63022 10.1225 9.63022H9.31048C9.29348 9.63022 9.27948 9.61422 9.27948 9.59522C9.27948 9.57622 9.29348 9.55972 9.31048 9.55972ZM9.32748 9.63072H10.1045C10.121 9.63072 10.1345 9.64672 10.1345 9.66572C10.1345 9.68472 10.121 9.70072 10.1045 9.70072H9.32748C9.31098 9.70072 9.29748 9.68472 9.29748 9.66572C9.29748 9.64672 9.31098 9.63072 9.32748 9.63072ZM9.57848 9.10122H9.63998V9.14472H9.68498V9.10022H9.74798V9.14472H9.79298V9.10022H9.85598V9.20072C9.85598 9.21672 9.84298 9.22672 9.82848 9.22672H9.60798C9.59298 9.22672 9.57948 9.21472 9.57948 9.20022V9.10072L9.57848 9.10122Z" stroke="black" stroke-width="0.5"/>
<path d="M9.54703 9.38519L9.55353 9.55919H9.34753L9.35353 9.38519H9.54753H9.54703Z" fill="#FFFF00" stroke="black" stroke-width="0.5"/>
<path d="M10.0775 9.38519L10.084 9.55919H9.87799L9.88399 9.38519H10.078H10.0775Z" fill="#FFFF00" stroke="black" stroke-width="0.5"/>
<path d="M9.315 9.25923H9.375V9.30323H9.419V9.25873H9.4805V9.30323H9.5245V9.25873H9.586V9.35923C9.586 9.37473 9.5735 9.38523 9.559 9.38523H9.343C9.3285 9.38523 9.315 9.37323 9.315 9.35923V9.25973V9.25923Z" fill="#FFFF00" stroke="black" stroke-width="0.5"/>
<path d="M9.84552 9.25923H9.90552V9.30323H9.94952V9.25873H10.011V9.30323H10.055V9.25873H10.1165V9.35923C10.1165 9.37473 10.104 9.38523 10.0895 9.38523H9.87352C9.85902 9.38523 9.84552 9.37323 9.84552 9.35923V9.25973V9.25923Z" fill="#FFFF00" stroke="black" stroke-width="0.5"/>
<path d="M9.69498 9.33771C9.69348 9.30621 9.73898 9.30621 9.73848 9.33771V9.41471H9.69498V9.33771Z" fill="black"/>
<path d="M9.42853 9.44921C9.42853 9.41871 9.47053 9.41821 9.47003 9.44921V9.50871H9.42853V9.44921Z" fill="black"/>
<path d="M9.96051 9.44921C9.96051 9.41871 10.0025 9.41821 10.002 9.44921V9.50871H9.96051V9.44921Z" fill="black"/>
<path d="M10.4125 12.4392C10.2215 12.2397 10.313 12.0547 10.3135 12.0532C10.3135 12.0517 10.5125 11.9527 10.707 12.1467L10.413 12.4392" fill="#FFFF00"/>
<path d="M10.0545 12.3217L10.2555 12.5692L10.4015 12.4227C10.2165 12.2362 10.3245 12.0662 10.3285 12.0632C10.3315 12.0597 10.51 11.9627 10.689 12.1332L10.835 11.9857L10.5815 11.7872L10.0535 12.3217H10.0545ZM10.2465 12.5802L10.8435 11.9792C10.856 11.9667 10.879 11.9687 10.894 11.9837C10.909 11.9987 10.9115 12.0217 10.899 12.0342L10.302 12.6352C10.2895 12.6477 10.2665 12.6457 10.2515 12.6307C10.2365 12.6157 10.234 12.5927 10.2465 12.5802Z" fill="#FFFF00" stroke="black" stroke-width="0.5"/>
<path d="M10.4625 12.3608C10.3455 12.2433 10.3915 12.1308 10.392 12.1303C10.392 12.1303 10.509 12.0813 10.626 12.1963L10.4625 12.3608ZM9.93948 12.2503L10.512 11.6738C10.524 11.6618 10.545 11.6628 10.559 11.6763C10.573 11.6898 10.574 11.7108 10.562 11.7233L9.98948 12.2998C9.97748 12.3118 9.95648 12.3108 9.94248 12.2973C9.92848 12.2838 9.92748 12.2623 9.93948 12.2503ZM10.002 12.2883L10.5495 11.7368C10.561 11.7253 10.5815 11.7268 10.5955 11.7403C10.6095 11.7538 10.611 11.7748 10.5995 11.7863L10.052 12.3378C10.0405 12.3493 10.02 12.3478 10.006 12.3343C9.99198 12.3208 9.99048 12.2998 10.002 12.2883ZM9.80298 11.7368L9.84648 11.6933L9.87748 11.7238L9.90898 11.6918L9.87748 11.6603L9.92198 11.6158L9.95348 11.6468L9.98498 11.6148L9.95348 11.5833L9.99798 11.5388L10.069 11.6098C10.08 11.6208 10.0785 11.6373 10.068 11.6478L9.91248 11.8043C9.90198 11.8148 9.88398 11.8163 9.87348 11.8063L9.80298 11.7363V11.7368ZM10.061 11.6678L10.2995 11.8853L10.1475 12.0373L9.92848 11.7998L10.061 11.6678Z" fill="#FFFF00" stroke="black" stroke-width="0.5"/>
<path d="M9.98252 11.9592L10.1105 12.0772L9.96502 12.2237L9.84552 12.0972L9.98202 11.9597L9.98252 11.9592Z" fill="#FFFF00" stroke="black" stroke-width="0.5"/>
<path d="M10.356 11.5828L10.484 11.7008L10.3385 11.8473L10.219 11.7208L10.3555 11.5833L10.356 11.5828Z" fill="#FFFF00" stroke="black" stroke-width="0.5"/>
<path d="M9.72949 12.0353L9.77199 11.9928L9.80299 12.0233L9.83399 11.9923L9.80249 11.9608L9.84599 11.9173L9.87749 11.9488L9.90849 11.9178L9.87699 11.8863L9.92049 11.8428L9.99199 11.9138C10.003 11.9248 10.0015 11.9408 9.99149 11.9513L9.83949 12.1043C9.82949 12.1148 9.81149 12.1158 9.80099 12.1058L9.73049 12.0358L9.72949 12.0353Z" fill="#FFFF00" stroke="black" stroke-width="0.5"/>
<path d="M10.103 11.6587L10.1455 11.6162L10.1765 11.6467L10.2075 11.6157L10.176 11.5842L10.2195 11.5407L10.251 11.5722L10.282 11.5412L10.2505 11.5097L10.294 11.4662L10.3655 11.5372C10.3765 11.5482 10.375 11.5642 10.365 11.5747L10.213 11.7277C10.203 11.7382 10.185 11.7392 10.1745 11.7292L10.104 11.6592L10.103 11.6587Z" fill="#FFFF00" stroke="black" stroke-width="0.5"/>
<path d="M10.053 11.8207C10.03 11.7997 10.0615 11.7672 10.0835 11.7902L10.138 11.8442L10.1075 11.8747L10.053 11.8207Z" fill="black"/>
<path d="M9.94396 12.0883C9.92246 12.0673 9.95146 12.0368 9.97296 12.0588L10.015 12.1008L9.98596 12.1303L9.94396 12.0883Z" fill="black"/>
<path d="M10.319 11.7108C10.2975 11.6898 10.3265 11.6593 10.348 11.6813L10.39 11.7233L10.361 11.7528L10.319 11.7108Z" fill="black"/>
<path d="M11.795 7.71275C11.8015 7.43675 11.9975 7.37125 11.999 7.37025C12.0005 7.36925 12.2105 7.44075 12.21 7.71525L11.795 7.71275Z" fill="#FFFF00"/>
<path d="M11.626 7.37577L11.592 7.69327H11.799C11.801 7.43127 11.998 7.38777 12.0025 7.38877C12.007 7.38877 12.202 7.44677 12.207 7.69377H12.4145L12.377 7.37427L11.626 7.37627V7.37577ZM11.578 7.69427H12.4255C12.4435 7.69427 12.458 7.71177 12.458 7.73327C12.458 7.75477 12.4435 7.77227 12.4255 7.77227H11.578C11.56 7.77227 11.5455 7.75477 11.5455 7.73327C11.5455 7.71177 11.56 7.69427 11.578 7.69427Z" fill="#FFFF00" stroke="black" stroke-width="0.5"/>
<path d="M11.886 7.69274C11.887 7.52724 11.999 7.48024 11.9995 7.48024C11.9995 7.48024 12.1165 7.52874 12.1175 7.69274H11.886ZM11.596 7.24374H12.408C12.425 7.24374 12.439 7.25974 12.439 7.27924C12.439 7.29874 12.425 7.31424 12.408 7.31424H11.596C11.579 7.31424 11.565 7.29824 11.565 7.27924C11.565 7.26024 11.579 7.24374 11.596 7.24374ZM11.613 7.31474H12.39C12.4065 7.31474 12.42 7.33074 12.42 7.34974C12.42 7.36874 12.4065 7.38474 12.39 7.38474H11.613C11.5965 7.38474 11.583 7.36874 11.583 7.34974C11.583 7.33074 11.5965 7.31474 11.613 7.31474ZM11.864 6.78524H11.9255V6.82874H11.9705V6.78424H12.0335V6.82874H12.0785V6.78424H12.1415V6.88474C12.1415 6.90074 12.1285 6.91074 12.114 6.91074H11.8935C11.8785 6.91074 11.865 6.89874 11.865 6.88424V6.78474L11.864 6.78524ZM12.095 6.91974L12.109 7.24224H11.894L11.9085 6.91874L12.0955 6.91974" fill="#FFFF00"/>
<path d="M12.095 6.91974L12.109 7.24224H11.894L11.9085 6.91874L12.0955 6.91974M11.886 7.69274C11.887 7.52724 11.999 7.48024 11.9995 7.48024C11.9995 7.48024 12.1165 7.52874 12.1175 7.69274H11.886ZM11.596 7.24374H12.408C12.425 7.24374 12.439 7.25974 12.439 7.27924C12.439 7.29874 12.425 7.31424 12.408 7.31424H11.596C11.579 7.31424 11.565 7.29824 11.565 7.27924C11.565 7.26024 11.579 7.24374 11.596 7.24374ZM11.613 7.31474H12.39C12.4065 7.31474 12.42 7.33074 12.42 7.34974C12.42 7.36874 12.4065 7.38474 12.39 7.38474H11.613C11.5965 7.38474 11.583 7.36874 11.583 7.34974C11.583 7.33074 11.5965 7.31474 11.613 7.31474ZM11.864 6.78524H11.9255V6.82874H11.9705V6.78424H12.0335V6.82874H12.0785V6.78424H12.1415V6.88474C12.1415 6.90074 12.1285 6.91074 12.114 6.91074H11.8935C11.8785 6.91074 11.865 6.89874 11.865 6.88424V6.78474L11.864 6.78524Z" stroke="black" stroke-width="0.5"/>
<path d="M11.8326 7.06921L11.8391 7.24321H11.6331L11.6391 7.06921H11.8331H11.8326Z" fill="#FFFF00" stroke="black" stroke-width="0.5"/>
<path d="M12.363 7.06921L12.3695 7.24321H12.1635L12.1695 7.06921H12.3635H12.363Z" fill="#FFFF00" stroke="black" stroke-width="0.5"/>
<path d="M11.6005 6.94325H11.6605V6.98725H11.7045V6.94275H11.766V6.98725H11.81V6.94275H11.8715V7.04325C11.8715 7.05875 11.859 7.06925 11.8445 7.06925H11.6285C11.614 7.06925 11.6005 7.05725 11.6005 7.04325V6.94375V6.94325Z" fill="#FFFF00" stroke="black" stroke-width="0.5"/>
<path d="M12.131 6.94325H12.191V6.98725H12.235V6.94275H12.2965V6.98725H12.3405V6.94275H12.402V7.04325C12.402 7.05875 12.3895 7.06925 12.375 7.06925H12.159C12.1445 7.06925 12.131 7.05725 12.131 7.04325V6.94375V6.94325Z" fill="#FFFF00" stroke="black" stroke-width="0.5"/>
<path d="M11.9805 7.02173C11.979 6.99023 12.0245 6.99023 12.024 7.02173V7.09873H11.9805V7.02173Z" fill="black"/>
<path d="M11.7141 7.13323C11.7141 7.10273 11.7561 7.10223 11.7556 7.13323V7.19273H11.7141V7.13323Z" fill="black"/>
<path d="M12.2465 7.13323C12.2465 7.10273 12.2885 7.10223 12.288 7.13323V7.19273H12.2465V7.13323Z" fill="black"/>
<path d="M14.48 7.71275C14.4735 7.43675 14.2775 7.37125 14.276 7.37025C14.2745 7.36925 14.0645 7.44075 14.065 7.71525L14.48 7.71275Z" fill="#FFFF00"/>
<path d="M14.649 7.37577L14.683 7.69327H14.476C14.474 7.43127 14.277 7.38777 14.2725 7.38877C14.268 7.38877 14.073 7.44677 14.068 7.69377H13.8605L13.898 7.37427L14.649 7.37627V7.37577ZM14.697 7.69427H13.8495C13.8315 7.69427 13.817 7.71177 13.817 7.73327C13.817 7.75477 13.8315 7.77227 13.8495 7.77227H14.697C14.715 7.77227 14.7295 7.75477 14.7295 7.73327C14.7295 7.71177 14.715 7.69427 14.697 7.69427Z" fill="#FFFF00" stroke="black" stroke-width="0.5"/>
<path d="M14.389 7.69274C14.388 7.52724 14.276 7.48024 14.2755 7.48024C14.2755 7.48024 14.1585 7.52874 14.1575 7.69274H14.389ZM14.679 7.24374H13.867C13.85 7.24374 13.836 7.25974 13.836 7.27924C13.836 7.29874 13.85 7.31424 13.867 7.31424H14.679C14.696 7.31424 14.71 7.29824 14.71 7.27924C14.71 7.26024 14.696 7.24374 14.679 7.24374ZM14.662 7.31474H13.885C13.8685 7.31474 13.855 7.33074 13.855 7.34974C13.855 7.36874 13.8685 7.38474 13.885 7.38474H14.662C14.6785 7.38474 14.692 7.36874 14.692 7.34974C14.692 7.33074 14.6785 7.31474 14.662 7.31474ZM14.411 6.78524H14.3495V6.82874H14.3045V6.78424H14.2415V6.82874H14.1965V6.78424H14.1335V6.88474C14.1335 6.90074 14.1465 6.91074 14.161 6.91074H14.3815C14.3965 6.91074 14.41 6.89874 14.41 6.88424V6.78474L14.411 6.78524ZM14.18 6.91974L14.166 7.24224H14.381L14.3665 6.91874L14.1795 6.91974" fill="#FFFF00"/>
<path d="M14.18 6.91974L14.166 7.24224H14.381L14.3665 6.91874L14.1795 6.91974M14.389 7.69274C14.388 7.52724 14.276 7.48024 14.2755 7.48024C14.2755 7.48024 14.1585 7.52874 14.1575 7.69274H14.389ZM14.679 7.24374H13.867C13.85 7.24374 13.836 7.25974 13.836 7.27924C13.836 7.29874 13.85 7.31424 13.867 7.31424H14.679C14.696 7.31424 14.71 7.29824 14.71 7.27924C14.71 7.26024 14.696 7.24374 14.679 7.24374ZM14.662 7.31474H13.885C13.8685 7.31474 13.855 7.33074 13.855 7.34974C13.855 7.36874 13.8685 7.38474 13.885 7.38474H14.662C14.6785 7.38474 14.692 7.36874 14.692 7.34974C14.692 7.33074 14.6785 7.31474 14.662 7.31474ZM14.411 6.78524H14.3495V6.82874H14.3045V6.78424H14.2415V6.82874H14.1965V6.78424H14.1335V6.88474C14.1335 6.90074 14.1465 6.91074 14.161 6.91074H14.3815C14.3965 6.91074 14.41 6.89874 14.41 6.88424V6.78474L14.411 6.78524Z" stroke="black" stroke-width="0.5"/>
<path d="M14.4425 7.06921L14.436 7.24321H14.642L14.636 7.06921H14.442H14.4425Z" fill="#FFFF00" stroke="black" stroke-width="0.5"/>
<path d="M13.912 7.06921L13.9055 7.24321H14.1115L14.1055 7.06921H13.9115H13.912Z" fill="#FFFF00" stroke="black" stroke-width="0.5"/>
<path d="M14.6745 6.94325H14.6145V6.98725H14.5705V6.94275H14.509V6.98725H14.465V6.94275H14.4035V7.04325C14.4035 7.05875 14.416 7.06925 14.4305 7.06925H14.6465C14.661 7.06925 14.6745 7.05725 14.6745 7.04325V6.94375V6.94325Z" fill="#FFFF00" stroke="black" stroke-width="0.5"/>
<path d="M14.144 6.94325H14.084V6.98725H14.04V6.94275H13.9785V6.98725H13.9345V6.94275H13.873V7.04325C13.873 7.05875 13.8855 7.06925 13.9 7.06925H14.116C14.1305 7.06925 14.144 7.05725 14.144 7.04325V6.94375V6.94325Z" fill="#FFFF00" stroke="black" stroke-width="0.5"/>
<path d="M14.2945 7.02173C14.296 6.99023 14.2505 6.99023 14.251 7.02173V7.09873H14.2945V7.02173Z" fill="black"/>
<path d="M14.561 7.13323C14.561 7.10273 14.519 7.10223 14.5195 7.13323V7.19273H14.561V7.13323Z" fill="black"/>
<path d="M14.029 7.13323C14.029 7.10273 13.987 7.10223 13.9875 7.13323V7.19273H14.029V7.13323Z" fill="black"/>
<path d="M14.48 10.0287C14.4735 9.75273 14.2775 9.68723 14.276 9.68623C14.2745 9.68523 14.0645 9.75673 14.065 10.0312L14.48 10.0287Z" fill="#FFFF00"/>
<path d="M14.649 9.69175L14.683 10.0092H14.476C14.474 9.74725 14.277 9.70375 14.2725 9.70475C14.268 9.70475 14.073 9.76275 14.068 10.0097H13.8605L13.898 9.69025L14.649 9.69225V9.69175ZM14.697 10.0102H13.8495C13.8315 10.0102 13.817 10.0277 13.817 10.0492C13.817 10.0707 13.8315 10.0882 13.8495 10.0882H14.697C14.715 10.0882 14.7295 10.0707 14.7295 10.0492C14.7295 10.0277 14.715 10.0102 14.697 10.0102Z" fill="#FFFF00" stroke="black" stroke-width="0.5"/>
<path d="M14.389 10.0087C14.388 9.84322 14.276 9.79622 14.2755 9.79622C14.2755 9.79622 14.1585 9.84472 14.1575 10.0087H14.389ZM14.679 9.55972H13.867C13.85 9.55972 13.836 9.57572 13.836 9.59522C13.836 9.61472 13.85 9.63022 13.867 9.63022H14.679C14.696 9.63022 14.71 9.61422 14.71 9.59522C14.71 9.57622 14.696 9.55972 14.679 9.55972ZM14.662 9.63072H13.885C13.8685 9.63072 13.855 9.64672 13.855 9.66572C13.855 9.68472 13.8685 9.70072 13.885 9.70072H14.662C14.6785 9.70072 14.692 9.68472 14.692 9.66572C14.692 9.64672 14.6785 9.63072 14.662 9.63072ZM14.411 9.10122H14.3495V9.14472H14.3045V9.10022H14.2415V9.14472H14.1965V9.10022H14.1335V9.20072C14.1335 9.21672 14.1465 9.22672 14.161 9.22672H14.3815C14.3965 9.22672 14.41 9.21472 14.41 9.20022V9.10072L14.411 9.10122ZM14.18 9.23572L14.166 9.55822H14.381L14.3665 9.23472L14.1795 9.23572" fill="#FFFF00"/>
<path d="M14.18 9.23572L14.166 9.55822H14.381L14.3665 9.23472L14.1795 9.23572M14.389 10.0087C14.388 9.84322 14.276 9.79622 14.2755 9.79622C14.2755 9.79622 14.1585 9.84472 14.1575 10.0087H14.389ZM14.679 9.55972H13.867C13.85 9.55972 13.836 9.57572 13.836 9.59522C13.836 9.61472 13.85 9.63022 13.867 9.63022H14.679C14.696 9.63022 14.71 9.61422 14.71 9.59522C14.71 9.57622 14.696 9.55972 14.679 9.55972ZM14.662 9.63072H13.885C13.8685 9.63072 13.855 9.64672 13.855 9.66572C13.855 9.68472 13.8685 9.70072 13.885 9.70072H14.662C14.6785 9.70072 14.692 9.68472 14.692 9.66572C14.692 9.64672 14.6785 9.63072 14.662 9.63072ZM14.411 9.10122H14.3495V9.14472H14.3045V9.10022H14.2415V9.14472H14.1965V9.10022H14.1335V9.20072C14.1335 9.21672 14.1465 9.22672 14.161 9.22672H14.3815C14.3965 9.22672 14.41 9.21472 14.41 9.20022V9.10072L14.411 9.10122Z" stroke="black" stroke-width="0.5"/>
<path d="M14.4425 9.38519L14.436 9.55919H14.642L14.636 9.38519H14.442H14.4425Z" fill="#FFFF00" stroke="black" stroke-width="0.5"/>
<path d="M13.912 9.38519L13.9055 9.55919H14.1115L14.1055 9.38519H13.9115H13.912Z" fill="#FFFF00" stroke="black" stroke-width="0.5"/>
<path d="M14.6745 9.25923H14.6145V9.30323H14.5705V9.25873H14.509V9.30323H14.465V9.25873H14.4035V9.35923C14.4035 9.37473 14.416 9.38523 14.4305 9.38523H14.6465C14.661 9.38523 14.6745 9.37323 14.6745 9.35923V9.25973V9.25923Z" fill="#FFFF00" stroke="black" stroke-width="0.5"/>
<path d="M14.144 9.25923H14.084V9.30323H14.04V9.25873H13.9785V9.30323H13.9345V9.25873H13.873V9.35923C13.873 9.37473 13.8855 9.38523 13.9 9.38523H14.116C14.1305 9.38523 14.144 9.37323 14.144 9.35923V9.25973V9.25923Z" fill="#FFFF00" stroke="black" stroke-width="0.5"/>
<path d="M14.2945 9.33771C14.296 9.30621 14.2505 9.30621 14.251 9.33771V9.41471H14.2945V9.33771Z" fill="black"/>
<path d="M14.561 9.44921C14.561 9.41871 14.519 9.41821 14.5195 9.44921V9.50871H14.561V9.44921Z" fill="black"/>
<path d="M14.029 9.44921C14.029 9.41871 13.987 9.41821 13.9875 9.44921V9.50871H14.029V9.44921Z" fill="black"/>
<path d="M13.577 12.4392C13.768 12.2397 13.6765 12.0547 13.676 12.0532C13.676 12.0517 13.477 11.9527 13.2825 12.1467L13.5765 12.4392" fill="#FFFF00"/>
<path d="M13.9355 12.3217L13.7345 12.5692L13.5885 12.4227C13.7735 12.2362 13.6655 12.0662 13.6615 12.0632C13.6585 12.0597 13.48 11.9627 13.301 12.1332L13.155 11.9857L13.4085 11.7872L13.9365 12.3217H13.9355ZM13.743 12.5802L13.146 11.9792C13.1335 11.9667 13.1105 11.9687 13.0955 11.9837C13.0805 11.9987 13.078 12.0217 13.0905 12.0342L13.6875 12.6352C13.7 12.6477 13.723 12.6457 13.738 12.6307C13.753 12.6157 13.7555 12.5927 13.743 12.5802Z" fill="#FFFF00" stroke="black" stroke-width="0.5"/>
<path d="M13.527 12.3608C13.644 12.2433 13.598 12.1308 13.5975 12.1303C13.5975 12.1303 13.4805 12.0813 13.3635 12.1963L13.527 12.3608ZM14.05 12.2503L13.4775 11.6738C13.4655 11.6618 13.4445 11.6628 13.4305 11.6763C13.4165 11.6898 13.4155 11.7108 13.4275 11.7233L14 12.2998C14.012 12.3118 14.033 12.3108 14.047 12.2973C14.061 12.2838 14.062 12.2623 14.05 12.2503ZM13.9875 12.2883L13.44 11.7368C13.4285 11.7253 13.408 11.7268 13.394 11.7403C13.38 11.7538 13.3785 11.7748 13.39 11.7863L13.9375 12.3378C13.949 12.3493 13.9695 12.3478 13.9835 12.3343C13.9975 12.3208 13.999 12.2998 13.9875 12.2883ZM14.1865 11.7368L14.143 11.6933L14.112 11.7238L14.0805 11.6918L14.112 11.6603L14.0675 11.6158L14.036 11.6468L14.0045 11.6148L14.036 11.5833L13.9915 11.5388L13.9205 11.6098C13.9095 11.6208 13.911 11.6373 13.9215 11.6478L14.077 11.8043C14.0875 11.8148 14.1055 11.8163 14.116 11.8063L14.1865 11.7363V11.7368ZM13.9285 11.6678L13.69 11.8853L13.842 12.0373L14.061 11.7998L13.9285 11.6678Z" fill="#FFFF00" stroke="black" stroke-width="0.5"/>
<path d="M14.0075 11.9592L13.8795 12.0772L14.025 12.2237L14.1445 12.0972L14.008 11.9597L14.0075 11.9592Z" fill="#FFFF00" stroke="black" stroke-width="0.5"/>
<path d="M13.6335 11.5828L13.5055 11.7008L13.651 11.8473L13.7705 11.7208L13.634 11.5833L13.6335 11.5828Z" fill="#FFFF00" stroke="black" stroke-width="0.5"/>
<path d="M14.26 12.0353L14.2175 11.9928L14.1865 12.0233L14.1555 11.9923L14.187 11.9608L14.1435 11.9173L14.112 11.9488L14.081 11.9178L14.1125 11.8863L14.069 11.8428L13.9975 11.9138C13.9865 11.9248 13.988 11.9408 13.998 11.9513L14.15 12.1043C14.16 12.1148 14.178 12.1158 14.1885 12.1058L14.259 12.0358L14.26 12.0353Z" fill="#FFFF00" stroke="black" stroke-width="0.5"/>
<path d="M13.8865 11.6587L13.844 11.6162L13.813 11.6467L13.782 11.6157L13.8135 11.5842L13.77 11.5407L13.7385 11.5722L13.7075 11.5412L13.739 11.5097L13.6955 11.4662L13.624 11.5372C13.613 11.5482 13.6145 11.5642 13.6245 11.5747L13.7765 11.7277C13.7865 11.7382 13.8045 11.7392 13.815 11.7292L13.8855 11.6592L13.8865 11.6587Z" fill="#FFFF00" stroke="black" stroke-width="0.5"/>
<path d="M13.9365 11.8207C13.9595 11.7997 13.928 11.7672 13.906 11.7902L13.8515 11.8442L13.882 11.8747L13.9365 11.8207Z" fill="black"/>
<path d="M14.0455 12.0883C14.067 12.0673 14.038 12.0368 14.0165 12.0588L13.9745 12.1008L14.0035 12.1303L14.0455 12.0883Z" fill="black"/>
<path d="M13.6705 11.7108C13.692 11.6898 13.663 11.6593 13.6415 11.6813L13.5995 11.7233L13.6285 11.7528L13.6705 11.7108Z" fill="black"/>
<path d="M11.632 10.1112C11.632 10.2222 11.6745 10.3227 11.7425 10.3962C11.811 10.4697 11.9045 10.5152 12.0075 10.5152C12.1105 10.5152 12.2045 10.4702 12.2725 10.3967C12.3405 10.3237 12.3825 10.2232 12.3825 10.1122V9.57373H11.633L11.6315 10.1112" fill="#003399"/>
<path d="M11.8035 9.85225C11.8446 9.85225 11.878 9.81889 11.878 9.77775C11.878 9.7366 11.8446 9.70325 11.8035 9.70325C11.7624 9.70325 11.729 9.7366 11.729 9.77775C11.729 9.81889 11.7624 9.85225 11.8035 9.85225Z" fill="white"/>
<path d="M12.2195 9.85274C12.2607 9.85274 12.294 9.81938 12.294 9.77824C12.294 9.73709 12.2607 9.70374 12.2195 9.70374C12.1784 9.70374 12.145 9.73709 12.145 9.77824C12.145 9.81938 12.1784 9.85274 12.2195 9.85274Z" fill="white"/>
<path d="M12.0115 10.0523C12.0527 10.0523 12.086 10.0189 12.086 9.97776C12.086 9.93661 12.0527 9.90326 12.0115 9.90326C11.9704 9.90326 11.937 9.93661 11.937 9.97776C11.937 10.0189 11.9704 10.0523 12.0115 10.0523Z" fill="white"/>
<path d="M11.8035 10.2612C11.8446 10.2612 11.878 10.2279 11.878 10.1867C11.878 10.1456 11.8446 10.1122 11.8035 10.1122C11.7624 10.1122 11.729 10.1456 11.729 10.1867C11.729 10.2279 11.7624 10.2612 11.8035 10.2612Z" fill="white"/>
<path d="M12.219 10.2608C12.2602 10.2608 12.2935 10.2274 12.2935 10.1863C12.2935 10.1451 12.2602 10.1118 12.219 10.1118C12.1779 10.1118 12.1445 10.1451 12.1445 10.1863C12.1445 10.2274 12.1779 10.2608 12.219 10.2608Z" fill="white"/>
<path d="M11.632 8.81075C11.632 8.92175 11.6745 9.02225 11.7425 9.09575C11.811 9.16925 11.9045 9.21475 12.0075 9.21475C12.1105 9.21475 12.2045 9.16975 12.2725 9.09625C12.3405 9.02325 12.3825 8.92275 12.3825 8.81175V8.27325H11.633L11.6315 8.81075" fill="#003399"/>
<path d="M11.8035 8.55177C11.8446 8.55177 11.878 8.51842 11.878 8.47727C11.878 8.43613 11.8446 8.40277 11.8035 8.40277C11.7624 8.40277 11.729 8.43613 11.729 8.47727C11.729 8.51842 11.7624 8.55177 11.8035 8.55177Z" fill="white"/>
<path d="M12.2195 8.55177C12.2607 8.55177 12.294 8.51842 12.294 8.47727C12.294 8.43613 12.2607 8.40277 12.2195 8.40277C12.1784 8.40277 12.145 8.43613 12.145 8.47727C12.145 8.51842 12.1784 8.55177 12.2195 8.55177Z" fill="white"/>
<path d="M12.0115 8.75178C12.0527 8.75178 12.086 8.71843 12.086 8.67728C12.086 8.63614 12.0527 8.60278 12.0115 8.60278C11.9704 8.60278 11.937 8.63614 11.937 8.67728C11.937 8.71843 11.9704 8.75178 12.0115 8.75178Z" fill="white"/>
<path d="M11.8035 8.96077C11.8446 8.96077 11.878 8.92741 11.878 8.88627C11.878 8.84512 11.8446 8.81177 11.8035 8.81177C11.7624 8.81177 11.729 8.84512 11.729 8.88627C11.729 8.92741 11.7624 8.96077 11.8035 8.96077Z" fill="white"/>
<path d="M12.219 8.96028C12.2602 8.96028 12.2935 8.92692 12.2935 8.88578C12.2935 8.84463 12.2602 8.81128 12.219 8.81128C12.1779 8.81128 12.1445 8.84463 12.1445 8.88578C12.1445 8.92692 12.1779 8.96028 12.219 8.96028Z" fill="white"/>
<path d="M10.5921 10.1112C10.5921 10.2222 10.6346 10.3227 10.7026 10.3962C10.7711 10.4697 10.8646 10.5152 10.9676 10.5152C11.0706 10.5152 11.1646 10.4702 11.2326 10.3967C11.3006 10.3237 11.3426 10.2232 11.3426 10.1122V9.57373H10.5931L10.5916 10.1112" fill="#003399"/>
<path d="M10.7641 9.85225C10.8052 9.85225 10.8386 9.81889 10.8386 9.77775C10.8386 9.7366 10.8052 9.70325 10.7641 9.70325C10.7229 9.70325 10.6896 9.7366 10.6896 9.77775C10.6896 9.81889 10.7229 9.85225 10.7641 9.85225Z" fill="white"/>
<path d="M11.1795 9.85274C11.2207 9.85274 11.254 9.81938 11.254 9.77824C11.254 9.73709 11.2207 9.70374 11.1795 9.70374C11.1384 9.70374 11.105 9.73709 11.105 9.77824C11.105 9.81938 11.1384 9.85274 11.1795 9.85274Z" fill="white"/>
<path d="M10.9715 10.0523C11.0127 10.0523 11.046 10.0189 11.046 9.97776C11.046 9.93661 11.0127 9.90326 10.9715 9.90326C10.9304 9.90326 10.897 9.93661 10.897 9.97776C10.897 10.0189 10.9304 10.0523 10.9715 10.0523Z" fill="white"/>
<path d="M10.7641 10.2612C10.8052 10.2612 10.8386 10.2279 10.8386 10.1867C10.8386 10.1456 10.8052 10.1122 10.7641 10.1122C10.7229 10.1122 10.6896 10.1456 10.6896 10.1867C10.6896 10.2279 10.7229 10.2612 10.7641 10.2612Z" fill="white"/>
<path d="M11.1791 10.2608C11.2202 10.2608 11.2536 10.2274 11.2536 10.1863C11.2536 10.1451 11.2202 10.1118 11.1791 10.1118C11.1379 10.1118 11.1046 10.1451 11.1046 10.1863C11.1046 10.2274 11.1379 10.2608 11.1791 10.2608Z" fill="white"/>
<path d="M12.669 10.1112C12.669 10.2222 12.7115 10.3227 12.7795 10.3962C12.848 10.4697 12.9415 10.5152 13.0445 10.5152C13.1475 10.5152 13.2415 10.4702 13.3095 10.3967C13.3775 10.3237 13.4195 10.2232 13.4195 10.1122V9.57373H12.67L12.6685 10.1112" fill="#003399"/>
<path d="M12.841 9.85225C12.8822 9.85225 12.9155 9.81889 12.9155 9.77775C12.9155 9.7366 12.8822 9.70325 12.841 9.70325C12.7999 9.70325 12.7665 9.7366 12.7665 9.77775C12.7665 9.81889 12.7999 9.85225 12.841 9.85225Z" fill="white"/>
<path d="M13.257 9.85274C13.2981 9.85274 13.3315 9.81938 13.3315 9.77824C13.3315 9.73709 13.2981 9.70374 13.257 9.70374C13.2159 9.70374 13.1825 9.73709 13.1825 9.77824C13.1825 9.81938 13.2159 9.85274 13.257 9.85274Z" fill="white"/>
<path d="M13.0485 10.0523C13.0896 10.0523 13.123 10.0189 13.123 9.97776C13.123 9.93661 13.0896 9.90326 13.0485 9.90326C13.0074 9.90326 12.974 9.93661 12.974 9.97776C12.974 10.0189 13.0074 10.0523 13.0485 10.0523Z" fill="white"/>
<path d="M12.841 10.2612C12.8822 10.2612 12.9155 10.2279 12.9155 10.1867C12.9155 10.1456 12.8822 10.1122 12.841 10.1122C12.7999 10.1122 12.7665 10.1456 12.7665 10.1867C12.7665 10.2279 12.7999 10.2612 12.841 10.2612Z" fill="white"/>
<path d="M13.2565 10.2608C13.2977 10.2608 13.331 10.2274 13.331 10.1863C13.331 10.1451 13.2977 10.1118 13.2565 10.1118C13.2154 10.1118 13.182 10.1451 13.182 10.1863C13.182 10.2274 13.2154 10.2608 13.2565 10.2608Z" fill="white"/>
<path d="M11.632 11.4008C11.632 11.5118 11.6745 11.6123 11.7425 11.6858C11.811 11.7593 11.9045 11.8048 12.0075 11.8048C12.1105 11.8048 12.2045 11.7598 12.2725 11.6863C12.3405 11.6133 12.3825 11.5128 12.3825 11.4018V10.8633H11.633L11.6315 11.4008" fill="#003399"/>
<path d="M11.8035 11.1418C11.8446 11.1418 11.878 11.1084 11.878 11.0673C11.878 11.0262 11.8446 10.9928 11.8035 10.9928C11.7624 10.9928 11.729 11.0262 11.729 11.0673C11.729 11.1084 11.7624 11.1418 11.8035 11.1418Z" fill="white"/>
<path d="M12.2195 11.1418C12.2607 11.1418 12.294 11.1084 12.294 11.0673C12.294 11.0262 12.2607 10.9928 12.2195 10.9928C12.1784 10.9928 12.145 11.0262 12.145 11.0673C12.145 11.1084 12.1784 11.1418 12.2195 11.1418Z" fill="white"/>
<path d="M12.0115 11.3418C12.0527 11.3418 12.086 11.3085 12.086 11.2673C12.086 11.2262 12.0527 11.1928 12.0115 11.1928C11.9704 11.1928 11.937 11.2262 11.937 11.2673C11.937 11.3085 11.9704 11.3418 12.0115 11.3418Z" fill="white"/>
<path d="M11.8035 11.5508C11.8446 11.5508 11.878 11.5174 11.878 11.4763C11.878 11.4351 11.8446 11.4018 11.8035 11.4018C11.7624 11.4018 11.729 11.4351 11.729 11.4763C11.729 11.5174 11.7624 11.5508 11.8035 11.5508Z" fill="white"/>
<path d="M12.219 11.5503C12.2602 11.5503 12.2935 11.517 12.2935 11.4758C12.2935 11.4347 12.2602 11.4013 12.219 11.4013C12.1779 11.4013 12.1445 11.4347 12.1445 11.4758C12.1445 11.517 12.1779 11.5503 12.219 11.5503Z" fill="white"/>
</g>
<defs>
<clipPath id="clip0_53_2449">
<rect width="30" height="20" fill="white" transform="translate(0 -0.000244141)"/>
</clipPath>
</defs>
</svg>
