<svg width="30" height="18" viewBox="0 0 30 18" fill="none" xmlns="http://www.w3.org/2000/svg">
<g clip-path="url(#clip0_53_1943)">
<path d="M0 0.333252H30V17.6666H0V0.333252Z" fill="#B22234"/>
<path d="M0 2.33325H30ZM30 4.99992H0ZM0 7.66659H30ZM30 10.3333H0ZM0 12.9999H30ZM30 15.6666H0Z" fill="black"/>
<path d="M30 16.3332H0V14.9999H30V16.3332ZM30 13.6666H0V12.3332H30V13.6666ZM30 10.9999H0V9.66657H30V10.9999ZM30 8.33323H0V6.9999H30V8.33323ZM30 5.66657H0V4.33323H30V5.66657ZM30 2.9999H0V1.66656H30V2.9999Z" fill="white"/>
<path d="M0 0.333252H12V9.66659H0V0.333252Z" fill="#3C3B6E"/>
<path d="M1.00003 0.733276L1.28558 1.69808L0.537964 1.10181H1.46205L0.714442 1.69808L0.999988 0.733276H1.00003Z" fill="white"/>
<path d="M1.00003 2.59991L1.28558 3.56471L0.537964 2.96845H1.46205L0.714442 3.56471L0.999988 2.59991H1.00003Z" fill="white"/>
<path d="M1.00003 4.46661L1.28558 5.43141L0.537964 4.83515H1.46205L0.714442 5.43141L0.999988 4.46661H1.00003Z" fill="white"/>
<path d="M1.00003 6.33325L1.28558 7.29805L0.537964 6.70179H1.46205L0.714442 7.29805L0.999988 6.33325H1.00003Z" fill="white"/>
<path d="M1.00003 8.19995L1.28558 9.16475L0.537964 8.56848H1.46205L0.714442 9.16475L0.999988 8.19995H1.00003Z" fill="white"/>
<path d="M2.00003 1.66663L2.28558 2.63143L1.53796 2.03516H2.46205L1.71444 2.63143L1.99999 1.66663H2.00003Z" fill="white"/>
<path d="M2.00003 3.53326L2.28558 4.49806L1.53796 3.9018H2.46205L1.71444 4.49806L1.99999 3.53326H2.00003Z" fill="white"/>
<path d="M2.00003 5.39996L2.28558 6.36476L1.53796 5.7685H2.46205L1.71444 6.36476L1.99999 5.39996H2.00003Z" fill="white"/>
<path d="M2.00003 7.2666L2.28558 8.2314L1.53796 7.63514H2.46205L1.71444 8.2314L1.99999 7.2666H2.00003Z" fill="white"/>
<path d="M3.00003 0.733276L3.28558 1.69808L2.53796 1.10181H3.46205L2.71444 1.69808L2.99999 0.733276H3.00003Z" fill="white"/>
<path d="M3.00003 2.59991L3.28558 3.56471L2.53796 2.96845H3.46205L2.71444 3.56471L2.99999 2.59991H3.00003Z" fill="white"/>
<path d="M3.00003 4.46661L3.28558 5.43141L2.53796 4.83515H3.46205L2.71444 5.43141L2.99999 4.46661H3.00003Z" fill="white"/>
<path d="M3.00003 6.33325L3.28558 7.29805L2.53796 6.70179H3.46205L2.71444 7.29805L2.99999 6.33325H3.00003Z" fill="white"/>
<path d="M3.00003 8.19995L3.28558 9.16475L2.53796 8.56848H3.46205L2.71444 9.16475L2.99999 8.19995H3.00003Z" fill="white"/>
<path d="M4.00003 1.66663L4.28558 2.63143L3.53796 2.03516H4.46205L3.71444 2.63143L3.99999 1.66663H4.00003Z" fill="white"/>
<path d="M4.00003 3.53326L4.28558 4.49806L3.53796 3.9018H4.46205L3.71444 4.49806L3.99999 3.53326H4.00003Z" fill="white"/>
<path d="M4.00003 5.39996L4.28558 6.36476L3.53796 5.7685H4.46205L3.71444 6.36476L3.99999 5.39996H4.00003Z" fill="white"/>
<path d="M4.00003 7.2666L4.28558 8.2314L3.53796 7.63514H4.46205L3.71444 8.2314L3.99999 7.2666H4.00003Z" fill="white"/>
<path d="M5.00003 0.733276L5.28558 1.69808L4.53796 1.10181H5.46205L4.71444 1.69808L4.99999 0.733276H5.00003Z" fill="white"/>
<path d="M5.00003 2.59991L5.28558 3.56471L4.53796 2.96845H5.46205L4.71444 3.56471L4.99999 2.59991H5.00003Z" fill="white"/>
<path d="M5.00003 4.46661L5.28558 5.43141L4.53796 4.83515H5.46205L4.71444 5.43141L4.99999 4.46661H5.00003Z" fill="white"/>
<path d="M5.00003 6.33325L5.28558 7.29805L4.53796 6.70179H5.46205L4.71444 7.29805L4.99999 6.33325H5.00003Z" fill="white"/>
<path d="M5.00003 8.19995L5.28558 9.16475L4.53796 8.56848H5.46205L4.71444 9.16475L4.99999 8.19995H5.00003Z" fill="white"/>
<path d="M6.00003 1.66663L6.28558 2.63143L5.53796 2.03516H6.46205L5.71444 2.63143L5.99999 1.66663H6.00003Z" fill="white"/>
<path d="M6.00003 3.53326L6.28558 4.49806L5.53796 3.9018H6.46205L5.71444 4.49806L5.99999 3.53326H6.00003Z" fill="white"/>
<path d="M6.00003 5.39996L6.28558 6.36476L5.53796 5.7685H6.46205L5.71444 6.36476L5.99999 5.39996H6.00003Z" fill="white"/>
<path d="M6.00003 7.2666L6.28558 8.2314L5.53796 7.63514H6.46205L5.71444 8.2314L5.99999 7.2666H6.00003Z" fill="white"/>
<path d="M7.00003 0.733276L7.28558 1.69808L6.53796 1.10181H7.46205L6.71444 1.69808L6.99999 0.733276H7.00003Z" fill="white"/>
<path d="M7.00003 2.59991L7.28558 3.56471L6.53796 2.96845H7.46205L6.71444 3.56471L6.99999 2.59991H7.00003Z" fill="white"/>
<path d="M7.00003 4.46661L7.28558 5.43141L6.53796 4.83515H7.46205L6.71444 5.43141L6.99999 4.46661H7.00003Z" fill="white"/>
<path d="M7.00003 6.33325L7.28558 7.29805L6.53796 6.70179H7.46205L6.71444 7.29805L6.99999 6.33325H7.00003Z" fill="white"/>
<path d="M7.00003 8.19995L7.28558 9.16475L6.53796 8.56848H7.46205L6.71444 9.16475L6.99999 8.19995H7.00003Z" fill="white"/>
<path d="M8.00003 1.66663L8.28558 2.63143L7.53796 2.03516H8.46205L7.71444 2.63143L7.99999 1.66663H8.00003Z" fill="white"/>
<path d="M8.00003 3.53326L8.28558 4.49806L7.53796 3.9018H8.46205L7.71444 4.49806L7.99999 3.53326H8.00003Z" fill="white"/>
<path d="M8.00003 5.39996L8.28558 6.36476L7.53796 5.7685H8.46205L7.71444 6.36476L7.99999 5.39996H8.00003Z" fill="white"/>
<path d="M8.00003 7.2666L8.28558 8.2314L7.53796 7.63514H8.46205L7.71444 8.2314L7.99999 7.2666H8.00003Z" fill="white"/>
<path d="M9.00003 0.733276L9.28557 1.69808L8.53796 1.10181H9.46205L8.71444 1.69808L8.99999 0.733276H9.00003Z" fill="white"/>
<path d="M9.00003 2.59991L9.28557 3.56471L8.53796 2.96845H9.46205L8.71444 3.56471L8.99999 2.59991H9.00003Z" fill="white"/>
<path d="M9.00003 4.46661L9.28557 5.43141L8.53796 4.83515H9.46205L8.71444 5.43141L8.99999 4.46661H9.00003Z" fill="white"/>
<path d="M9.00003 6.33325L9.28557 7.29805L8.53796 6.70179H9.46205L8.71444 7.29805L8.99999 6.33325H9.00003Z" fill="white"/>
<path d="M9.00003 8.19995L9.28557 9.16475L8.53796 8.56848H9.46205L8.71444 9.16475L8.99999 8.19995H9.00003Z" fill="white"/>
<path d="M10 1.66663L10.2856 2.63143L9.53796 2.03516H10.4621L9.71444 2.63143L9.99999 1.66663H10Z" fill="white"/>
<path d="M10 3.53326L10.2856 4.49806L9.53796 3.9018H10.4621L9.71444 4.49806L9.99999 3.53326H10Z" fill="white"/>
<path d="M10 5.39996L10.2856 6.36476L9.53796 5.7685H10.4621L9.71444 6.36476L9.99999 5.39996H10Z" fill="white"/>
<path d="M10 7.2666L10.2856 8.2314L9.53796 7.63514H10.4621L9.71444 8.2314L9.99999 7.2666H10Z" fill="white"/>
<path d="M11 0.733276L11.2856 1.69808L10.538 1.10181H11.4621L10.7144 1.69808L11 0.733276H11Z" fill="white"/>
<path d="M11 2.59991L11.2856 3.56471L10.538 2.96845H11.4621L10.7144 3.56471L11 2.59991H11Z" fill="white"/>
<path d="M11 4.46661L11.2856 5.43141L10.538 4.83515H11.4621L10.7144 5.43141L11 4.46661H11Z" fill="white"/>
<path d="M11 6.33325L11.2856 7.29805L10.538 6.70179H11.4621L10.7144 7.29805L11 6.33325H11Z" fill="white"/>
<path d="M11 8.19995L11.2856 9.16475L10.538 8.56848H11.4621L10.7144 9.16475L11 8.19995H11Z" fill="white"/>
</g>
<defs>
<clipPath id="clip0_53_1943">
<rect width="30" height="17.3333" fill="white" transform="translate(0 0.333252)"/>
</clipPath>
</defs>
</svg>
