<svg width="33" height="32" viewBox="0 0 33 32" fill="none" xmlns="http://www.w3.org/2000/svg">
<ellipse cx="16.2596" cy="16" rx="16.2596" ry="16" fill="#8B8FFF"/>
<mask id="mask0_3352_150" style="mask-type:alpha" maskUnits="userSpaceOnUse" x="0" y="0" width="33" height="32">
<ellipse cx="16.2596" cy="16" rx="16.2596" ry="16" fill="#8B8FFF"/>
</mask>
<g mask="url(#mask0_3352_150)">
<ellipse cx="22.7641" cy="6.85714" rx="15.3305" ry="15.0857" fill="url(#paint0_radial_3352_150)"/>
<g filter="url(#filter0_f_3352_150)">
<ellipse cx="7.94335" cy="7.30435" rx="7.94335" ry="7.30435" transform="matrix(0.989979 -0.141217 0.14574 0.989323 9.29102 22.3578)" fill="url(#paint1_radial_3352_150)"/>
</g>
</g>
<g clip-path="url(#clip0_3352_150)">
<path d="M14.6703 6.0262C13.8547 6.22078 13.3587 6.69878 12.6719 7.95089C12.1234 8.95342 11.6035 9.65138 11.0074 10.1886C10.187 10.9331 9.36193 11.3011 8.47005 11.3307L8.14573 11.3392L8.0885 11.1235C8.01219 10.8273 7.86911 10.637 7.62587 10.5143C7.42555 10.4128 7.39217 10.4086 6.24274 10.3959C4.85961 10.379 4.61637 10.4086 4.33975 10.6285C4.23482 10.7131 4.13467 10.8443 4.10605 10.9331C4.06789 11.0388 4.05835 12.9466 4.06789 16.9906L4.0822 22.8958L4.22051 23.0523C4.4876 23.3611 4.58776 23.378 6.14735 23.3653L7.52571 23.3526L7.70218 23.23C7.93588 23.0734 8.05511 22.8915 8.09327 22.6504L8.12188 22.4558L8.48913 22.5108C8.98514 22.587 9.12823 22.6293 9.54316 22.8239C10.2681 23.1707 11.0551 23.5007 11.4032 23.6022C12.4477 23.9068 13.683 24.0252 15.6241 23.9956C17.1933 23.9744 17.4174 23.9448 18.0041 23.6868C18.7433 23.3653 19.1201 22.8619 19.3967 21.8129C19.5351 21.2968 19.5398 21.2883 19.8928 20.9034C20.2362 20.5227 20.4651 20.1801 20.6463 19.7782C20.8323 19.3637 20.8848 19.1395 20.9373 18.5515C20.9659 18.285 21.0422 17.8154 21.109 17.5151C21.2187 17.0498 21.233 16.8891 21.2139 16.4787C21.19 15.9796 21.0374 15.4254 20.8753 15.2309C20.8323 15.1843 20.7989 15.1336 20.7989 15.1166C20.7989 15.0997 22.1678 15.0828 23.8418 15.0743L26.8799 15.0617L27.1947 14.9263C27.6096 14.7444 28.0914 14.3045 28.3012 13.9111C28.4491 13.6361 28.4538 13.6023 28.4538 13.1158C28.4538 12.6336 28.4443 12.5955 28.3012 12.3206C28.1009 11.9441 27.8624 11.6945 27.5143 11.4872C26.9419 11.1488 27.3807 11.1742 21.3951 11.1488C18.4572 11.1361 16.0057 11.1108 15.9532 11.0896C15.8531 11.0558 15.8579 11.0388 16.1488 10.5016C16.5065 9.84596 16.7927 9.11839 16.9119 8.59386C17.0264 8.07779 16.993 7.33752 16.8451 6.99489C16.6973 6.65648 16.3396 6.32231 15.9485 6.14887C15.6814 6.03466 15.5765 6.01351 15.2235 6.00082C14.9994 5.99659 14.7513 6.00928 14.6703 6.0262ZM15.5526 6.91875C15.9199 7.08372 16.1106 7.49404 16.0534 7.99742C15.9723 8.7546 15.6289 9.59639 14.9087 10.8062C14.7084 11.1404 14.5653 11.428 14.5892 11.4407C15.152 11.7707 15.4477 11.8764 16.0439 11.9483C16.2919 11.9779 18.1185 11.9948 21.481 11.9948H26.5461L26.7845 12.0964C27.2663 12.2952 27.5381 12.659 27.5333 13.1116C27.5333 13.2554 27.5047 13.4373 27.4618 13.5219C27.3664 13.7334 27.0707 14.0126 26.837 14.1226L26.6415 14.2156L22.8212 14.2283L18.9961 14.2368L18.8721 14.351C18.7767 14.4356 18.7481 14.5033 18.7481 14.6386C18.7481 14.9263 18.9866 15.0828 19.4158 15.0828C19.5112 15.0828 19.6018 15.1378 19.7401 15.2689C19.9691 15.4889 20.0931 15.6919 20.2028 16.0303C20.3125 16.3688 20.2791 17.1048 20.136 17.494C20.0645 17.6928 20.0358 17.8789 20.0358 18.1623C20.0358 19.0295 19.7068 19.8036 19.0677 20.455C18.7624 20.7638 18.6718 20.9499 18.4619 21.6394C18.357 21.999 18.2139 22.3755 18.1519 22.4685C17.9898 22.7139 17.7084 22.8958 17.303 23.0311L16.9596 23.1411H15.2664C12.648 23.1411 12.0519 23.0311 10.3397 22.2359C9.49547 21.8425 9.16161 21.7367 8.57021 21.669L8.13619 21.6141L8.12188 16.8891L8.11234 12.1641H8.46528C9.60994 12.1641 10.7594 11.6564 11.7752 10.7047C12.4668 10.0575 12.9533 9.39335 13.5924 8.21738C14.0121 7.45597 14.3221 7.09218 14.7084 6.92298C14.966 6.80877 15.3046 6.80877 15.5526 6.91875Z" fill="white"/>
</g>
<defs>
<filter id="filter0_f_3352_150" x="0.283203" y="11.1484" width="35.873" height="34.6279" filterUnits="userSpaceOnUse" color-interpolation-filters="sRGB">
<feFlood flood-opacity="0" result="BackgroundImageFix"/>
<feBlend mode="normal" in="SourceGraphic" in2="BackgroundImageFix" result="shape"/>
<feGaussianBlur stdDeviation="5" result="effect1_foregroundBlur_3352_150"/>
</filter>
<radialGradient id="paint0_radial_3352_150" cx="0" cy="0" r="1" gradientUnits="userSpaceOnUse" gradientTransform="translate(22.7641 6.85714) rotate(90) scale(15.0857 15.3305)">
<stop stop-color="#B0CFFF"/>
<stop offset="1" stop-color="#B0CFFF" stop-opacity="0"/>
</radialGradient>
<radialGradient id="paint1_radial_3352_150" cx="0" cy="0" r="1" gradientUnits="userSpaceOnUse" gradientTransform="translate(7.94335 7.30435) rotate(90) scale(7.30435 7.94335)">
<stop stop-color="#3B3FB4"/>
<stop offset="1" stop-color="#3B3FB4" stop-opacity="0"/>
</radialGradient>
<clipPath id="clip0_3352_150">
<rect width="24.3894" height="24" fill="white" transform="translate(4.06445 3)"/>
</clipPath>
</defs>
</svg>
